M48
; DRILL file {KiCad 5.1.8-db9833491~88~ubuntu20.04.1} date Tue Dec  1 22:06:38 2020
; FORMAT={-:-/ absolute / inch / decimal}
; #@! TF.CreationDate,2020-12-01T22:06:38+01:00
; #@! TF.GenerationSoftware,Kicad,Pcbnew,5.1.8-db9833491~88~ubuntu20.04.1
; #@! TF.FileFunction,Plated,1,4,PTH
FMAT,2
INCH
T1C0.0098
T2C0.0118
T3C0.0157
T4C0.0197
T5C0.0315
T6C0.0630
T7C0.0709
%
G90
G05
T1
X4.2134Y-4.6043
X4.2454Y-4.373
X4.2535Y-4.8594
X4.2594Y-4.3987
X4.2886Y-4.75
X4.2886Y-4.6936
X4.3035Y-4.8594
X4.3102Y-4.4338
X4.3134Y-3.9406
X4.3152Y-4.1663
X4.3213Y-4.2508
X4.3216Y-4.2893
X4.3216Y-4.3151
X4.3236Y-4.7933
X4.3283Y-4.0165
X4.344Y-4.4088
X4.3525Y-4.5283
X4.3527Y-4.6182
X4.3535Y-4.8594
X4.3587Y-4.3057
X4.3635Y-4.6822
X4.3661Y-4.0402
X4.3708Y-4.4457
X4.3709Y-4.2429
X4.371Y-4.4202
X4.3713Y-2.9083
X4.375Y-4.5143
X4.3776Y-4.3768
X4.3821Y-4.3159
X4.3928Y-4.4624
X4.4035Y-4.8594
X4.4114Y-4.6839
X4.4161Y-3.0937
X4.4535Y-4.8594
X4.4563Y-2.9185
X4.4667Y-4.6927
X4.4686Y-4.2477
X4.4807Y-2.9185
X4.5025Y-4.1823
X4.5035Y-4.8594
X4.5202Y-4.2244
X4.5248Y-4.6606
X4.5354Y-3.6693
X4.5409Y-4.2397
X4.5504Y-4.6597
X4.5535Y-4.8594
X4.5587Y-3.3535
X4.5591Y-4.7039
X4.5797Y-3.1364
X4.586Y-4.1916
X4.6035Y-4.8594
X4.6047Y-3.1461
X4.6104Y-4.1991
X4.6138Y-3.0862
X4.6157Y-4.0232
X4.622Y-3.9661
X4.6297Y-4.216
X4.631Y-4.2416
X4.633Y-4.6772
X4.6335Y-3.1059
X4.6535Y-3.126
X4.6535Y-4.8594
X4.6545Y-4.2518
X4.6618Y-4.1669
X4.676Y-3.9063
X4.68Y-4.2487
X4.6941Y-3.887
X4.6976Y-4.1669
X4.7035Y-4.8594
X4.7071Y-4.2472
X4.709Y-3.9776
X4.715Y-3.8846
X4.7287Y-3.0965
X4.7335Y-4.1677
X4.7339Y-4.0843
X4.7362Y-4.2508
X4.7451Y-3.9333
X4.7496Y-3.9118
X4.7535Y-4.8594
X4.7644Y-4.2634
X4.7689Y-3.0898
X4.7693Y-4.1681
X4.7811Y-3.1366
X4.7833Y-4.2879
X4.789Y-4.512
X4.8061Y-3.0587
X4.8108Y-4.5339
X4.8169Y-4.0433
X4.8169Y-4.7398
X4.8189Y-4.6126
X4.8236Y-4.7173
X4.8323Y-4.4094
X4.8358Y-2.9189
X4.8444Y-3.583
X4.8463Y-3.7106
X4.8464Y-4.2821
X4.847Y-4.6022
X4.8488Y-4.4555
X4.8582Y-3.6625
X4.8619Y-4.1377
X4.8622Y-3.8737
X4.865Y-3.839
X4.8651Y-3.5651
X4.8661Y-3.9362
X4.8661Y-3.9665
X4.8685Y-3.3272
X4.8717Y-3.3514
X4.876Y-3.4748
X4.8783Y-4.0177
X4.8823Y-3.8579
X4.8829Y-3.1276
X4.8829Y-3.0972
X4.9157Y-4.2055
X4.9565Y-4.3234
X4.9925Y-3.4631
X5.0008Y-3.5724
X5.0031Y-3.763
X5.0047Y-3.0512
X5.0098Y-4.0315
X5.0185Y-3.5902
X5.0209Y-3.635
X5.0308Y-3.0642
X5.0319Y-4.4299
X5.0409Y-4.2122
X5.0594Y-4.4299
X5.085Y-4.2075
X5.1752Y-4.1374
X5.1823Y-3.6243
X5.1838Y-3.9219
X5.1866Y-4.0445
X5.1886Y-3.8484
X5.2004Y-3.8974
X5.2047Y-3.937
X5.2067Y-3.6638
X5.207Y-3.9897
X5.2079Y-3.8075
X5.2157Y-3.9656
X5.2193Y-3.8839
X5.2209Y-3.8453
X5.2236Y-3.7744
X5.2472Y-3.8941
X5.2756Y-3.9524
X5.2843Y-4.6114
X5.2909Y-4.4677
X5.3039Y-4.8594
X5.3323Y-3.9925
X5.3366Y-4.202
X5.3381Y-4.3295
X5.3539Y-4.8594
X5.3819Y-4.4287
X5.4039Y-4.8594
X5.4378Y-4.4346
X5.4417Y-4.3315
X5.4539Y-4.8594
X5.476Y-4.2213
X5.4764Y-4.3768
X5.5039Y-4.8594
X5.5264Y-4.2165
X5.539Y-3.9827
X5.5433Y-4.3303
X5.5882Y-3.9272
X5.5906Y-4.4039
X5.6039Y-4.1394
X5.6039Y-4.8594
X5.6259Y-3.9595
X5.6287Y-4.2142
X5.6315Y-3.6961
X5.6382Y-4.4315
X5.6446Y-3.9387
X5.7039Y-4.8594
X5.7043Y-3.8539
X5.7154Y-4.1665
X5.7474Y-4.3353
X5.7539Y-4.8594
X5.7748Y-4.3138
X5.7807Y-3.7984
X5.7961Y-4.7602
X5.7984Y-2.8941
X5.8039Y-4.8594
X5.8047Y-4.3154
X5.8165Y-3.7256
X5.8169Y-3.9457
X5.8484Y-2.8941
X5.8539Y-4.8594
X5.8744Y-3.9528
X5.8984Y-2.8941
X5.9039Y-4.8594
X5.9236Y-4.1409
X5.9484Y-2.8941
X5.9539Y-4.8594
X5.9909Y-4.3154
X5.9909Y-4.3689
X5.9984Y-2.8941
X6.0039Y-4.8594
X6.0248Y-3.8965
X6.0302Y-4.2425
X6.0441Y-3.739
X6.0483Y-3.9077
X6.0484Y-2.8941
X6.0528Y-4.0839
X6.0539Y-4.8594
X6.0587Y-3.6594
X6.0679Y-3.3093
X6.0701Y-4.0242
X6.0803Y-4.7059
X6.0823Y-3.9173
X6.0933Y-3.4587
X6.0936Y-3.965
X6.0976Y-3.3102
X6.0984Y-2.8941
X6.1039Y-4.8594
X6.132Y-4.083
X6.1402Y-3.3504
X6.1484Y-2.8941
X6.1518Y-3.3032
X6.1528Y-3.4579
X6.1583Y-3.5866
X6.1685Y-3.115
X6.1732Y-3.3524
X6.187Y-3.4409
X6.1984Y-2.8941
X6.2012Y-3.1181
X6.2023Y-3.5141
X6.2039Y-4.8594
X6.2059Y-4.426
X6.2067Y-3.9004
X6.2071Y-4.4965
X6.2071Y-4.6752
X6.2075Y-3.9736
X6.2079Y-4.0457
X6.2079Y-4.2142
X6.2079Y-4.285
X6.2079Y-4.3547
X6.2224Y-3.2177
X6.2264Y-4.7409
X6.2484Y-2.8941
X6.2513Y-3.5481
X6.2539Y-4.8594
X6.2708Y-3.5676
X6.2752Y-4.3291
X6.2898Y-3.7594
X6.2984Y-2.8941
X6.3039Y-4.8594
X6.3272Y-3.6146
X6.335Y-3.9567
X6.3484Y-2.8941
X6.3539Y-4.8594
X6.3671Y-3.1451
X6.3705Y-3.615
X6.3724Y-3.7598
X6.3728Y-4.4969
X6.3752Y-3.3047
X6.3854Y-3.1268
X6.389Y-3.4728
X6.3967Y-3.2246
X6.3984Y-2.8941
X6.4039Y-4.8594
X6.4138Y-3.615
X6.4248Y-3.2508
X6.4248Y-3.2811
X6.4461Y-3.4717
X6.4484Y-2.8941
X6.4539Y-4.8594
X6.4543Y-3.7594
X6.4555Y-4.4969
X6.4558Y-3.5236
X6.4571Y-3.615
X6.4776Y-3.472
X6.4959Y-3.0372
X6.5008Y-3.2756
X6.5008Y-3.6024
X6.5039Y-4.8594
X6.5197Y-4.0441
X6.5374Y-3.7598
X6.5374Y-4.4969
X6.5512Y-3.5949
X6.552Y-3.2246
X6.5539Y-4.8594
X6.5717Y-3.574
X6.5795Y-4.2488
X6.5843Y-3.3917
X6.5949Y-2.9327
X6.6039Y-4.8594
X6.6043Y-3.1307
X6.6177Y-2.9555
X6.6213Y-4.4972
X6.6299Y-4.639
X6.6484Y-2.8941
X6.6539Y-4.8594
X6.6984Y-2.8941
X6.7039Y-4.8594
X6.7446Y-3.8335
X6.7446Y-3.9571
X6.7473Y-4.363
X6.7484Y-2.8941
X6.7539Y-4.8594
X6.7583Y-4.465
X6.7606Y-4.0846
X6.7701Y-4.0425
X6.7748Y-4.4323
X6.7756Y-2.9236
X6.776Y-2.9598
X6.7783Y-2.9972
X6.7831Y-3.0354
X6.787Y-4.1945
X6.787Y-4.5106
X6.7902Y-3.0677
X6.8024Y-3.098
X6.8213Y-3.1252
X6.8461Y-3.1508
X6.8843Y-3.1783
X6.9331Y-3.1941
X7.05Y-4.3913
X7.05Y-4.4209
X7.05Y-4.4516
X7.0673Y-3.3181
X7.0673Y-3.3602
T2
X4.4665Y-4.335
X4.4665Y-4.3823
X4.4665Y-4.4295
X4.4665Y-4.4768
X4.4665Y-4.524
X4.4665Y-4.5713
X4.5138Y-4.335
X4.5138Y-4.3823
X4.5138Y-4.4295
X4.5138Y-4.4768
X4.5138Y-4.524
X4.5138Y-4.5713
X4.561Y-4.335
X4.561Y-4.3823
X4.561Y-4.4295
X4.561Y-4.4768
X4.561Y-4.524
X4.561Y-4.5713
X4.6083Y-4.335
X4.6083Y-4.3823
X4.6083Y-4.4295
X4.6083Y-4.4768
X4.6083Y-4.524
X4.6083Y-4.5713
X4.6555Y-4.335
X4.6555Y-4.3823
X4.6555Y-4.4295
X4.6555Y-4.4768
X4.6555Y-4.524
X4.6555Y-4.5713
X4.7028Y-4.335
X4.7028Y-4.3823
X4.7028Y-4.4295
X4.7028Y-4.4768
X4.7028Y-4.524
X4.7028Y-4.5713
T3
X6.6063Y-3.3276
X6.652Y-3.5602
X4.2167Y-4.2009
X4.2167Y-4.2324
X4.2167Y-4.2639
X4.2167Y-4.3267
X4.2167Y-4.3582
X4.2167Y-4.3897
X4.2443Y-4.2481
X4.2443Y-4.2796
X4.2443Y-4.311
X4.2443Y-4.3425
T5
X5.8854Y-4.4709
X5.9839Y-4.4709
T6
X6.9343Y-3.3421
T7
X6.8343Y-3.2421
X6.8343Y-3.4421
X7.0343Y-3.2421
X7.0343Y-3.4421
T3
G00X4.2443Y-4.1654
M15
G01X4.2443Y-4.1851
M16
G05
G00X4.2443Y-4.4054
M15
G01X4.2443Y-4.4251
M16
G05
T4
G00X4.0396Y-4.0562
M15
G01X4.079Y-4.0562
M16
G05
G00X4.0396Y-4.5344
M15
G01X4.079Y-4.5344
M16
G05
G00X4.264Y-4.1182
M15
G01X4.2876Y-4.1182
M16
G05
G00X4.264Y-4.4724
M15
G01X4.2876Y-4.4724
M16
G05
T0
M30
