%TF.GenerationSoftware,KiCad,Pcbnew,5.1.8-db9833491~88~ubuntu20.04.1*%
%TF.CreationDate,2020-12-01T22:06:39+01:00*%
%TF.ProjectId,licheepinano_sarau270,6c696368-6565-4706-996e-616e6f5f7361,V1.0*%
%TF.SameCoordinates,Original*%
%TF.FileFunction,Soldermask,Top*%
%TF.FilePolarity,Negative*%
%FSLAX46Y46*%
G04 Gerber Fmt 4.6, Leading zero omitted, Abs format (unit mm)*
G04 Created by KiCad (PCBNEW 5.1.8-db9833491~88~ubuntu20.04.1) date 2020-12-01 22:06:39*
%MOMM*%
%LPD*%
G01*
G04 APERTURE LIST*
%ADD10C,1.499540*%
%ADD11C,2.020000*%
%ADD12C,2.700000*%
%ADD13C,3.100000*%
%ADD14C,0.600000*%
%ADD15O,0.770000X0.300000*%
%ADD16O,0.300000X0.770000*%
%ADD17O,2.260000X0.960000*%
%ADD18O,0.550000X1.100000*%
%ADD19O,0.747700X1.397940*%
%ADD20C,0.750000*%
%ADD21O,2.098980X1.098220*%
G04 APERTURE END LIST*
%TO.C,C46*%
G36*
G01*
X118710000Y-105590000D02*
X118110000Y-105590000D01*
G75*
G02*
X118080000Y-105560000I0J30000D01*
G01*
X118080000Y-105160000D01*
G75*
G02*
X118110000Y-105130000I30000J0D01*
G01*
X118710000Y-105130000D01*
G75*
G02*
X118740000Y-105160000I0J-30000D01*
G01*
X118740000Y-105560000D01*
G75*
G02*
X118710000Y-105590000I-30000J0D01*
G01*
G37*
G36*
G01*
X118710000Y-104690000D02*
X118110000Y-104690000D01*
G75*
G02*
X118080000Y-104660000I0J30000D01*
G01*
X118080000Y-104260000D01*
G75*
G02*
X118110000Y-104230000I30000J0D01*
G01*
X118710000Y-104230000D01*
G75*
G02*
X118740000Y-104260000I0J-30000D01*
G01*
X118740000Y-104660000D01*
G75*
G02*
X118710000Y-104690000I-30000J0D01*
G01*
G37*
%TD*%
%TO.C,R20*%
G36*
G01*
X168200000Y-77390000D02*
X167600000Y-77390000D01*
G75*
G02*
X167570000Y-77360000I0J30000D01*
G01*
X167570000Y-76960000D01*
G75*
G02*
X167600000Y-76930000I30000J0D01*
G01*
X168200000Y-76930000D01*
G75*
G02*
X168230000Y-76960000I0J-30000D01*
G01*
X168230000Y-77360000D01*
G75*
G02*
X168200000Y-77390000I-30000J0D01*
G01*
G37*
G36*
G01*
X168200000Y-78290000D02*
X167600000Y-78290000D01*
G75*
G02*
X167570000Y-78260000I0J30000D01*
G01*
X167570000Y-77860000D01*
G75*
G02*
X167600000Y-77830000I30000J0D01*
G01*
X168200000Y-77830000D01*
G75*
G02*
X168230000Y-77860000I0J-30000D01*
G01*
X168230000Y-78260000D01*
G75*
G02*
X168200000Y-78290000I-30000J0D01*
G01*
G37*
%TD*%
D10*
%TO.C,Con2*%
X117540000Y-87652420D03*
X117540000Y-94647580D03*
G36*
G01*
X108841770Y-83174870D02*
X105842030Y-83174870D01*
G75*
G02*
X105792030Y-83124870I0J50000D01*
G01*
X105792030Y-81725330D01*
G75*
G02*
X105842030Y-81675330I50000J0D01*
G01*
X108841770Y-81675330D01*
G75*
G02*
X108891770Y-81725330I0J-50000D01*
G01*
X108891770Y-83124870D01*
G75*
G02*
X108841770Y-83174870I-50000J0D01*
G01*
G37*
G36*
G01*
X108841770Y-100624670D02*
X105842030Y-100624670D01*
G75*
G02*
X105792030Y-100574670I0J50000D01*
G01*
X105792030Y-99175130D01*
G75*
G02*
X105842030Y-99125130I50000J0D01*
G01*
X108841770Y-99125130D01*
G75*
G02*
X108891770Y-99175130I0J-50000D01*
G01*
X108891770Y-100574670D01*
G75*
G02*
X108841770Y-100624670I-50000J0D01*
G01*
G37*
G36*
G01*
X122537450Y-97162650D02*
X119537710Y-97162650D01*
G75*
G02*
X119487710Y-97112650I0J50000D01*
G01*
X119487710Y-96403990D01*
G75*
G02*
X119537710Y-96353990I50000J0D01*
G01*
X122537450Y-96353990D01*
G75*
G02*
X122587450Y-96403990I0J-50000D01*
G01*
X122587450Y-97112650D01*
G75*
G02*
X122537450Y-97162650I-50000J0D01*
G01*
G37*
G36*
G01*
X122537450Y-98183730D02*
X119537710Y-98183730D01*
G75*
G02*
X119487710Y-98133730I0J50000D01*
G01*
X119487710Y-97425070D01*
G75*
G02*
X119537710Y-97375070I50000J0D01*
G01*
X122537450Y-97375070D01*
G75*
G02*
X122587450Y-97425070I0J-50000D01*
G01*
X122587450Y-98133730D01*
G75*
G02*
X122537450Y-98183730I-50000J0D01*
G01*
G37*
G36*
G01*
X122537450Y-84924930D02*
X119537710Y-84924930D01*
G75*
G02*
X119487710Y-84874930I0J50000D01*
G01*
X119487710Y-84166270D01*
G75*
G02*
X119537710Y-84116270I50000J0D01*
G01*
X122537450Y-84116270D01*
G75*
G02*
X122587450Y-84166270I0J-50000D01*
G01*
X122587450Y-84874930D01*
G75*
G02*
X122537450Y-84924930I-50000J0D01*
G01*
G37*
G36*
G01*
X122537450Y-85946010D02*
X119537710Y-85946010D01*
G75*
G02*
X119487710Y-85896010I0J50000D01*
G01*
X119487710Y-85187350D01*
G75*
G02*
X119537710Y-85137350I50000J0D01*
G01*
X122537450Y-85137350D01*
G75*
G02*
X122587450Y-85187350I0J-50000D01*
G01*
X122587450Y-85896010D01*
G75*
G02*
X122537450Y-85946010I-50000J0D01*
G01*
G37*
G36*
G01*
X122537450Y-87985630D02*
X119537710Y-87985630D01*
G75*
G02*
X119487710Y-87935630I0J50000D01*
G01*
X119487710Y-87226970D01*
G75*
G02*
X119537710Y-87176970I50000J0D01*
G01*
X122537450Y-87176970D01*
G75*
G02*
X122587450Y-87226970I0J-50000D01*
G01*
X122587450Y-87935630D01*
G75*
G02*
X122537450Y-87985630I-50000J0D01*
G01*
G37*
G36*
G01*
X122537450Y-90025250D02*
X119537710Y-90025250D01*
G75*
G02*
X119487710Y-89975250I0J50000D01*
G01*
X119487710Y-89266590D01*
G75*
G02*
X119537710Y-89216590I50000J0D01*
G01*
X122537450Y-89216590D01*
G75*
G02*
X122587450Y-89266590I0J-50000D01*
G01*
X122587450Y-89975250D01*
G75*
G02*
X122537450Y-90025250I-50000J0D01*
G01*
G37*
G36*
G01*
X122537450Y-91046330D02*
X119537710Y-91046330D01*
G75*
G02*
X119487710Y-90996330I0J50000D01*
G01*
X119487710Y-90287670D01*
G75*
G02*
X119537710Y-90237670I50000J0D01*
G01*
X122537450Y-90237670D01*
G75*
G02*
X122587450Y-90287670I0J-50000D01*
G01*
X122587450Y-90996330D01*
G75*
G02*
X122537450Y-91046330I-50000J0D01*
G01*
G37*
G36*
G01*
X122537450Y-92062330D02*
X119537710Y-92062330D01*
G75*
G02*
X119487710Y-92012330I0J50000D01*
G01*
X119487710Y-91303670D01*
G75*
G02*
X119537710Y-91253670I50000J0D01*
G01*
X122537450Y-91253670D01*
G75*
G02*
X122587450Y-91303670I0J-50000D01*
G01*
X122587450Y-92012330D01*
G75*
G02*
X122537450Y-92062330I-50000J0D01*
G01*
G37*
G36*
G01*
X122537450Y-93083410D02*
X119537710Y-93083410D01*
G75*
G02*
X119487710Y-93033410I0J50000D01*
G01*
X119487710Y-92324750D01*
G75*
G02*
X119537710Y-92274750I50000J0D01*
G01*
X122537450Y-92274750D01*
G75*
G02*
X122587450Y-92324750I0J-50000D01*
G01*
X122587450Y-93033410D01*
G75*
G02*
X122537450Y-93083410I-50000J0D01*
G01*
G37*
G36*
G01*
X122537450Y-94101950D02*
X119537710Y-94101950D01*
G75*
G02*
X119487710Y-94051950I0J50000D01*
G01*
X119487710Y-93343290D01*
G75*
G02*
X119537710Y-93293290I50000J0D01*
G01*
X122537450Y-93293290D01*
G75*
G02*
X122587450Y-93343290I0J-50000D01*
G01*
X122587450Y-94051950D01*
G75*
G02*
X122537450Y-94101950I-50000J0D01*
G01*
G37*
G36*
G01*
X122537450Y-95123030D02*
X119537710Y-95123030D01*
G75*
G02*
X119487710Y-95073030I0J50000D01*
G01*
X119487710Y-94364370D01*
G75*
G02*
X119537710Y-94314370I50000J0D01*
G01*
X122537450Y-94314370D01*
G75*
G02*
X122587450Y-94364370I0J-50000D01*
G01*
X122587450Y-95073030D01*
G75*
G02*
X122537450Y-95123030I-50000J0D01*
G01*
G37*
%TD*%
%TO.C,SOM1*%
G36*
G01*
X152510000Y-76140000D02*
X152510000Y-76940000D01*
G75*
G02*
X152450000Y-77000000I-60000J0D01*
G01*
X150450000Y-77000000D01*
G75*
G02*
X150390000Y-76940000I0J60000D01*
G01*
X150390000Y-76140000D01*
G75*
G02*
X150450000Y-76080000I60000J0D01*
G01*
X152450000Y-76080000D01*
G75*
G02*
X152510000Y-76140000I0J-60000D01*
G01*
G37*
G36*
G01*
X152510000Y-77410000D02*
X152510000Y-78210000D01*
G75*
G02*
X152450000Y-78270000I-60000J0D01*
G01*
X150450000Y-78270000D01*
G75*
G02*
X150390000Y-78210000I0J60000D01*
G01*
X150390000Y-77410000D01*
G75*
G02*
X150450000Y-77350000I60000J0D01*
G01*
X152450000Y-77350000D01*
G75*
G02*
X152510000Y-77410000I0J-60000D01*
G01*
G37*
G36*
G01*
X152510000Y-78680000D02*
X152510000Y-79480000D01*
G75*
G02*
X152450000Y-79540000I-60000J0D01*
G01*
X150450000Y-79540000D01*
G75*
G02*
X150390000Y-79480000I0J60000D01*
G01*
X150390000Y-78680000D01*
G75*
G02*
X150450000Y-78620000I60000J0D01*
G01*
X152450000Y-78620000D01*
G75*
G02*
X152510000Y-78680000I0J-60000D01*
G01*
G37*
G36*
G01*
X152510000Y-79950000D02*
X152510000Y-80750000D01*
G75*
G02*
X152450000Y-80810000I-60000J0D01*
G01*
X150450000Y-80810000D01*
G75*
G02*
X150390000Y-80750000I0J60000D01*
G01*
X150390000Y-79950000D01*
G75*
G02*
X150450000Y-79890000I60000J0D01*
G01*
X152450000Y-79890000D01*
G75*
G02*
X152510000Y-79950000I0J-60000D01*
G01*
G37*
G36*
G01*
X152510000Y-81220000D02*
X152510000Y-82020000D01*
G75*
G02*
X152450000Y-82080000I-60000J0D01*
G01*
X150450000Y-82080000D01*
G75*
G02*
X150390000Y-82020000I0J60000D01*
G01*
X150390000Y-81220000D01*
G75*
G02*
X150450000Y-81160000I60000J0D01*
G01*
X152450000Y-81160000D01*
G75*
G02*
X152510000Y-81220000I0J-60000D01*
G01*
G37*
G36*
G01*
X152510000Y-83760000D02*
X152510000Y-84560000D01*
G75*
G02*
X152450000Y-84620000I-60000J0D01*
G01*
X150450000Y-84620000D01*
G75*
G02*
X150390000Y-84560000I0J60000D01*
G01*
X150390000Y-83760000D01*
G75*
G02*
X150450000Y-83700000I60000J0D01*
G01*
X152450000Y-83700000D01*
G75*
G02*
X152510000Y-83760000I0J-60000D01*
G01*
G37*
G36*
G01*
X152510000Y-85030000D02*
X152510000Y-85830000D01*
G75*
G02*
X152450000Y-85890000I-60000J0D01*
G01*
X150450000Y-85890000D01*
G75*
G02*
X150390000Y-85830000I0J60000D01*
G01*
X150390000Y-85030000D01*
G75*
G02*
X150450000Y-84970000I60000J0D01*
G01*
X152450000Y-84970000D01*
G75*
G02*
X152510000Y-85030000I0J-60000D01*
G01*
G37*
G36*
G01*
X152510000Y-82490000D02*
X152510000Y-83290000D01*
G75*
G02*
X152450000Y-83350000I-60000J0D01*
G01*
X150450000Y-83350000D01*
G75*
G02*
X150390000Y-83290000I0J60000D01*
G01*
X150390000Y-82490000D01*
G75*
G02*
X150450000Y-82430000I60000J0D01*
G01*
X152450000Y-82430000D01*
G75*
G02*
X152510000Y-82490000I0J-60000D01*
G01*
G37*
G36*
G01*
X152510000Y-86300000D02*
X152510000Y-87100000D01*
G75*
G02*
X152450000Y-87160000I-60000J0D01*
G01*
X150450000Y-87160000D01*
G75*
G02*
X150390000Y-87100000I0J60000D01*
G01*
X150390000Y-86300000D01*
G75*
G02*
X150450000Y-86240000I60000J0D01*
G01*
X152450000Y-86240000D01*
G75*
G02*
X152510000Y-86300000I0J-60000D01*
G01*
G37*
G36*
G01*
X152510000Y-88840000D02*
X152510000Y-89640000D01*
G75*
G02*
X152450000Y-89700000I-60000J0D01*
G01*
X150450000Y-89700000D01*
G75*
G02*
X150390000Y-89640000I0J60000D01*
G01*
X150390000Y-88840000D01*
G75*
G02*
X150450000Y-88780000I60000J0D01*
G01*
X152450000Y-88780000D01*
G75*
G02*
X152510000Y-88840000I0J-60000D01*
G01*
G37*
G36*
G01*
X152510000Y-90110000D02*
X152510000Y-90910000D01*
G75*
G02*
X152450000Y-90970000I-60000J0D01*
G01*
X150450000Y-90970000D01*
G75*
G02*
X150390000Y-90910000I0J60000D01*
G01*
X150390000Y-90110000D01*
G75*
G02*
X150450000Y-90050000I60000J0D01*
G01*
X152450000Y-90050000D01*
G75*
G02*
X152510000Y-90110000I0J-60000D01*
G01*
G37*
G36*
G01*
X152510000Y-91380000D02*
X152510000Y-92180000D01*
G75*
G02*
X152450000Y-92240000I-60000J0D01*
G01*
X150450000Y-92240000D01*
G75*
G02*
X150390000Y-92180000I0J60000D01*
G01*
X150390000Y-91380000D01*
G75*
G02*
X150450000Y-91320000I60000J0D01*
G01*
X152450000Y-91320000D01*
G75*
G02*
X152510000Y-91380000I0J-60000D01*
G01*
G37*
G36*
G01*
X152510000Y-92650000D02*
X152510000Y-93450000D01*
G75*
G02*
X152450000Y-93510000I-60000J0D01*
G01*
X150450000Y-93510000D01*
G75*
G02*
X150390000Y-93450000I0J60000D01*
G01*
X150390000Y-92650000D01*
G75*
G02*
X150450000Y-92590000I60000J0D01*
G01*
X152450000Y-92590000D01*
G75*
G02*
X152510000Y-92650000I0J-60000D01*
G01*
G37*
G36*
G01*
X152510000Y-93920000D02*
X152510000Y-94720000D01*
G75*
G02*
X152450000Y-94780000I-60000J0D01*
G01*
X150450000Y-94780000D01*
G75*
G02*
X150390000Y-94720000I0J60000D01*
G01*
X150390000Y-93920000D01*
G75*
G02*
X150450000Y-93860000I60000J0D01*
G01*
X152450000Y-93860000D01*
G75*
G02*
X152510000Y-93920000I0J-60000D01*
G01*
G37*
G36*
G01*
X152510000Y-95190000D02*
X152510000Y-95990000D01*
G75*
G02*
X152450000Y-96050000I-60000J0D01*
G01*
X150450000Y-96050000D01*
G75*
G02*
X150390000Y-95990000I0J60000D01*
G01*
X150390000Y-95190000D01*
G75*
G02*
X150450000Y-95130000I60000J0D01*
G01*
X152450000Y-95130000D01*
G75*
G02*
X152510000Y-95190000I0J-60000D01*
G01*
G37*
G36*
G01*
X152510000Y-87570000D02*
X152510000Y-88370000D01*
G75*
G02*
X152450000Y-88430000I-60000J0D01*
G01*
X150450000Y-88430000D01*
G75*
G02*
X150390000Y-88370000I0J60000D01*
G01*
X150390000Y-87570000D01*
G75*
G02*
X150450000Y-87510000I60000J0D01*
G01*
X152450000Y-87510000D01*
G75*
G02*
X152510000Y-87570000I0J-60000D01*
G01*
G37*
G36*
G01*
X152510000Y-100270000D02*
X152510000Y-101070000D01*
G75*
G02*
X152450000Y-101130000I-60000J0D01*
G01*
X150450000Y-101130000D01*
G75*
G02*
X150390000Y-101070000I0J60000D01*
G01*
X150390000Y-100270000D01*
G75*
G02*
X150450000Y-100210000I60000J0D01*
G01*
X152450000Y-100210000D01*
G75*
G02*
X152510000Y-100270000I0J-60000D01*
G01*
G37*
G36*
G01*
X152510000Y-96460000D02*
X152510000Y-97260000D01*
G75*
G02*
X152450000Y-97320000I-60000J0D01*
G01*
X150450000Y-97320000D01*
G75*
G02*
X150390000Y-97260000I0J60000D01*
G01*
X150390000Y-96460000D01*
G75*
G02*
X150450000Y-96400000I60000J0D01*
G01*
X152450000Y-96400000D01*
G75*
G02*
X152510000Y-96460000I0J-60000D01*
G01*
G37*
G36*
G01*
X152510000Y-102810000D02*
X152510000Y-103610000D01*
G75*
G02*
X152450000Y-103670000I-60000J0D01*
G01*
X150450000Y-103670000D01*
G75*
G02*
X150390000Y-103610000I0J60000D01*
G01*
X150390000Y-102810000D01*
G75*
G02*
X150450000Y-102750000I60000J0D01*
G01*
X152450000Y-102750000D01*
G75*
G02*
X152510000Y-102810000I0J-60000D01*
G01*
G37*
G36*
G01*
X152510000Y-101540000D02*
X152510000Y-102340000D01*
G75*
G02*
X152450000Y-102400000I-60000J0D01*
G01*
X150450000Y-102400000D01*
G75*
G02*
X150390000Y-102340000I0J60000D01*
G01*
X150390000Y-101540000D01*
G75*
G02*
X150450000Y-101480000I60000J0D01*
G01*
X152450000Y-101480000D01*
G75*
G02*
X152510000Y-101540000I0J-60000D01*
G01*
G37*
G36*
G01*
X152510000Y-99000000D02*
X152510000Y-99800000D01*
G75*
G02*
X152450000Y-99860000I-60000J0D01*
G01*
X150450000Y-99860000D01*
G75*
G02*
X150390000Y-99800000I0J60000D01*
G01*
X150390000Y-99000000D01*
G75*
G02*
X150450000Y-98940000I60000J0D01*
G01*
X152450000Y-98940000D01*
G75*
G02*
X152510000Y-99000000I0J-60000D01*
G01*
G37*
G36*
G01*
X152510000Y-97730000D02*
X152510000Y-98530000D01*
G75*
G02*
X152450000Y-98590000I-60000J0D01*
G01*
X150450000Y-98590000D01*
G75*
G02*
X150390000Y-98530000I0J60000D01*
G01*
X150390000Y-97730000D01*
G75*
G02*
X150450000Y-97670000I60000J0D01*
G01*
X152450000Y-97670000D01*
G75*
G02*
X152510000Y-97730000I0J-60000D01*
G01*
G37*
G36*
G01*
X126510000Y-102810000D02*
X126510000Y-103610000D01*
G75*
G02*
X126450000Y-103670000I-60000J0D01*
G01*
X124450000Y-103670000D01*
G75*
G02*
X124390000Y-103610000I0J60000D01*
G01*
X124390000Y-102810000D01*
G75*
G02*
X124450000Y-102750000I60000J0D01*
G01*
X126450000Y-102750000D01*
G75*
G02*
X126510000Y-102810000I0J-60000D01*
G01*
G37*
G36*
G01*
X126510000Y-101540000D02*
X126510000Y-102340000D01*
G75*
G02*
X126450000Y-102400000I-60000J0D01*
G01*
X124450000Y-102400000D01*
G75*
G02*
X124390000Y-102340000I0J60000D01*
G01*
X124390000Y-101540000D01*
G75*
G02*
X124450000Y-101480000I60000J0D01*
G01*
X126450000Y-101480000D01*
G75*
G02*
X126510000Y-101540000I0J-60000D01*
G01*
G37*
G36*
G01*
X126510000Y-96460000D02*
X126510000Y-97260000D01*
G75*
G02*
X126450000Y-97320000I-60000J0D01*
G01*
X124450000Y-97320000D01*
G75*
G02*
X124390000Y-97260000I0J60000D01*
G01*
X124390000Y-96460000D01*
G75*
G02*
X124450000Y-96400000I60000J0D01*
G01*
X126450000Y-96400000D01*
G75*
G02*
X126510000Y-96460000I0J-60000D01*
G01*
G37*
G36*
G01*
X126510000Y-100270000D02*
X126510000Y-101070000D01*
G75*
G02*
X126450000Y-101130000I-60000J0D01*
G01*
X124450000Y-101130000D01*
G75*
G02*
X124390000Y-101070000I0J60000D01*
G01*
X124390000Y-100270000D01*
G75*
G02*
X124450000Y-100210000I60000J0D01*
G01*
X126450000Y-100210000D01*
G75*
G02*
X126510000Y-100270000I0J-60000D01*
G01*
G37*
G36*
G01*
X126510000Y-99000000D02*
X126510000Y-99800000D01*
G75*
G02*
X126450000Y-99860000I-60000J0D01*
G01*
X124450000Y-99860000D01*
G75*
G02*
X124390000Y-99800000I0J60000D01*
G01*
X124390000Y-99000000D01*
G75*
G02*
X124450000Y-98940000I60000J0D01*
G01*
X126450000Y-98940000D01*
G75*
G02*
X126510000Y-99000000I0J-60000D01*
G01*
G37*
G36*
G01*
X126510000Y-97730000D02*
X126510000Y-98530000D01*
G75*
G02*
X126450000Y-98590000I-60000J0D01*
G01*
X124450000Y-98590000D01*
G75*
G02*
X124390000Y-98530000I0J60000D01*
G01*
X124390000Y-97730000D01*
G75*
G02*
X124450000Y-97670000I60000J0D01*
G01*
X126450000Y-97670000D01*
G75*
G02*
X126510000Y-97730000I0J-60000D01*
G01*
G37*
G36*
G01*
X126510000Y-76140000D02*
X126510000Y-76940000D01*
G75*
G02*
X126450000Y-77000000I-60000J0D01*
G01*
X124450000Y-77000000D01*
G75*
G02*
X124390000Y-76940000I0J60000D01*
G01*
X124390000Y-76140000D01*
G75*
G02*
X124450000Y-76080000I60000J0D01*
G01*
X126450000Y-76080000D01*
G75*
G02*
X126510000Y-76140000I0J-60000D01*
G01*
G37*
G36*
G01*
X126510000Y-78680000D02*
X126510000Y-79480000D01*
G75*
G02*
X126450000Y-79540000I-60000J0D01*
G01*
X124450000Y-79540000D01*
G75*
G02*
X124390000Y-79480000I0J60000D01*
G01*
X124390000Y-78680000D01*
G75*
G02*
X124450000Y-78620000I60000J0D01*
G01*
X126450000Y-78620000D01*
G75*
G02*
X126510000Y-78680000I0J-60000D01*
G01*
G37*
G36*
G01*
X126510000Y-79950000D02*
X126510000Y-80750000D01*
G75*
G02*
X126450000Y-80810000I-60000J0D01*
G01*
X124450000Y-80810000D01*
G75*
G02*
X124390000Y-80750000I0J60000D01*
G01*
X124390000Y-79950000D01*
G75*
G02*
X124450000Y-79890000I60000J0D01*
G01*
X126450000Y-79890000D01*
G75*
G02*
X126510000Y-79950000I0J-60000D01*
G01*
G37*
G36*
G01*
X126510000Y-81220000D02*
X126510000Y-82020000D01*
G75*
G02*
X126450000Y-82080000I-60000J0D01*
G01*
X124450000Y-82080000D01*
G75*
G02*
X124390000Y-82020000I0J60000D01*
G01*
X124390000Y-81220000D01*
G75*
G02*
X124450000Y-81160000I60000J0D01*
G01*
X126450000Y-81160000D01*
G75*
G02*
X126510000Y-81220000I0J-60000D01*
G01*
G37*
G36*
G01*
X126510000Y-82490000D02*
X126510000Y-83290000D01*
G75*
G02*
X126450000Y-83350000I-60000J0D01*
G01*
X124450000Y-83350000D01*
G75*
G02*
X124390000Y-83290000I0J60000D01*
G01*
X124390000Y-82490000D01*
G75*
G02*
X124450000Y-82430000I60000J0D01*
G01*
X126450000Y-82430000D01*
G75*
G02*
X126510000Y-82490000I0J-60000D01*
G01*
G37*
G36*
G01*
X126510000Y-83760000D02*
X126510000Y-84560000D01*
G75*
G02*
X126450000Y-84620000I-60000J0D01*
G01*
X124450000Y-84620000D01*
G75*
G02*
X124390000Y-84560000I0J60000D01*
G01*
X124390000Y-83760000D01*
G75*
G02*
X124450000Y-83700000I60000J0D01*
G01*
X126450000Y-83700000D01*
G75*
G02*
X126510000Y-83760000I0J-60000D01*
G01*
G37*
G36*
G01*
X126510000Y-86300000D02*
X126510000Y-87100000D01*
G75*
G02*
X126450000Y-87160000I-60000J0D01*
G01*
X124450000Y-87160000D01*
G75*
G02*
X124390000Y-87100000I0J60000D01*
G01*
X124390000Y-86300000D01*
G75*
G02*
X124450000Y-86240000I60000J0D01*
G01*
X126450000Y-86240000D01*
G75*
G02*
X126510000Y-86300000I0J-60000D01*
G01*
G37*
G36*
G01*
X126510000Y-85030000D02*
X126510000Y-85830000D01*
G75*
G02*
X126450000Y-85890000I-60000J0D01*
G01*
X124450000Y-85890000D01*
G75*
G02*
X124390000Y-85830000I0J60000D01*
G01*
X124390000Y-85030000D01*
G75*
G02*
X124450000Y-84970000I60000J0D01*
G01*
X126450000Y-84970000D01*
G75*
G02*
X126510000Y-85030000I0J-60000D01*
G01*
G37*
G36*
G01*
X126510000Y-92650000D02*
X126510000Y-93450000D01*
G75*
G02*
X126450000Y-93510000I-60000J0D01*
G01*
X124450000Y-93510000D01*
G75*
G02*
X124390000Y-93450000I0J60000D01*
G01*
X124390000Y-92650000D01*
G75*
G02*
X124450000Y-92590000I60000J0D01*
G01*
X126450000Y-92590000D01*
G75*
G02*
X126510000Y-92650000I0J-60000D01*
G01*
G37*
G36*
G01*
X126510000Y-88840000D02*
X126510000Y-89640000D01*
G75*
G02*
X126450000Y-89700000I-60000J0D01*
G01*
X124450000Y-89700000D01*
G75*
G02*
X124390000Y-89640000I0J60000D01*
G01*
X124390000Y-88840000D01*
G75*
G02*
X124450000Y-88780000I60000J0D01*
G01*
X126450000Y-88780000D01*
G75*
G02*
X126510000Y-88840000I0J-60000D01*
G01*
G37*
G36*
G01*
X126510000Y-95190000D02*
X126510000Y-95990000D01*
G75*
G02*
X126450000Y-96050000I-60000J0D01*
G01*
X124450000Y-96050000D01*
G75*
G02*
X124390000Y-95990000I0J60000D01*
G01*
X124390000Y-95190000D01*
G75*
G02*
X124450000Y-95130000I60000J0D01*
G01*
X126450000Y-95130000D01*
G75*
G02*
X126510000Y-95190000I0J-60000D01*
G01*
G37*
G36*
G01*
X126510000Y-93920000D02*
X126510000Y-94720000D01*
G75*
G02*
X126450000Y-94780000I-60000J0D01*
G01*
X124450000Y-94780000D01*
G75*
G02*
X124390000Y-94720000I0J60000D01*
G01*
X124390000Y-93920000D01*
G75*
G02*
X124450000Y-93860000I60000J0D01*
G01*
X126450000Y-93860000D01*
G75*
G02*
X126510000Y-93920000I0J-60000D01*
G01*
G37*
G36*
G01*
X126510000Y-91380000D02*
X126510000Y-92180000D01*
G75*
G02*
X126450000Y-92240000I-60000J0D01*
G01*
X124450000Y-92240000D01*
G75*
G02*
X124390000Y-92180000I0J60000D01*
G01*
X124390000Y-91380000D01*
G75*
G02*
X124450000Y-91320000I60000J0D01*
G01*
X126450000Y-91320000D01*
G75*
G02*
X126510000Y-91380000I0J-60000D01*
G01*
G37*
G36*
G01*
X126510000Y-87570000D02*
X126510000Y-88370000D01*
G75*
G02*
X126450000Y-88430000I-60000J0D01*
G01*
X124450000Y-88430000D01*
G75*
G02*
X124390000Y-88370000I0J60000D01*
G01*
X124390000Y-87570000D01*
G75*
G02*
X124450000Y-87510000I60000J0D01*
G01*
X126450000Y-87510000D01*
G75*
G02*
X126510000Y-87570000I0J-60000D01*
G01*
G37*
G36*
G01*
X126510000Y-90110000D02*
X126510000Y-90910000D01*
G75*
G02*
X126450000Y-90970000I-60000J0D01*
G01*
X124450000Y-90970000D01*
G75*
G02*
X124390000Y-90910000I0J60000D01*
G01*
X124390000Y-90110000D01*
G75*
G02*
X124450000Y-90050000I60000J0D01*
G01*
X126450000Y-90050000D01*
G75*
G02*
X126510000Y-90110000I0J-60000D01*
G01*
G37*
G36*
G01*
X126510000Y-77410000D02*
X126510000Y-78210000D01*
G75*
G02*
X126450000Y-78270000I-60000J0D01*
G01*
X124450000Y-78270000D01*
G75*
G02*
X124390000Y-78210000I0J60000D01*
G01*
X124390000Y-77410000D01*
G75*
G02*
X124450000Y-77350000I60000J0D01*
G01*
X126450000Y-77350000D01*
G75*
G02*
X126510000Y-77410000I0J-60000D01*
G01*
G37*
G36*
G01*
X147575000Y-107620000D02*
X148375000Y-107620000D01*
G75*
G02*
X148435000Y-107680000I0J-60000D01*
G01*
X148435000Y-109180000D01*
G75*
G02*
X148375000Y-109240000I-60000J0D01*
G01*
X147575000Y-109240000D01*
G75*
G02*
X147515000Y-109180000I0J60000D01*
G01*
X147515000Y-107680000D01*
G75*
G02*
X147575000Y-107620000I60000J0D01*
G01*
G37*
G36*
G01*
X146305000Y-107620000D02*
X147105000Y-107620000D01*
G75*
G02*
X147165000Y-107680000I0J-60000D01*
G01*
X147165000Y-109180000D01*
G75*
G02*
X147105000Y-109240000I-60000J0D01*
G01*
X146305000Y-109240000D01*
G75*
G02*
X146245000Y-109180000I0J60000D01*
G01*
X146245000Y-107680000D01*
G75*
G02*
X146305000Y-107620000I60000J0D01*
G01*
G37*
G36*
G01*
X143765000Y-107620000D02*
X144565000Y-107620000D01*
G75*
G02*
X144625000Y-107680000I0J-60000D01*
G01*
X144625000Y-109180000D01*
G75*
G02*
X144565000Y-109240000I-60000J0D01*
G01*
X143765000Y-109240000D01*
G75*
G02*
X143705000Y-109180000I0J60000D01*
G01*
X143705000Y-107680000D01*
G75*
G02*
X143765000Y-107620000I60000J0D01*
G01*
G37*
G36*
G01*
X150115000Y-107620000D02*
X150915000Y-107620000D01*
G75*
G02*
X150975000Y-107680000I0J-60000D01*
G01*
X150975000Y-109180000D01*
G75*
G02*
X150915000Y-109240000I-60000J0D01*
G01*
X150115000Y-109240000D01*
G75*
G02*
X150055000Y-109180000I0J60000D01*
G01*
X150055000Y-107680000D01*
G75*
G02*
X150115000Y-107620000I60000J0D01*
G01*
G37*
G36*
G01*
X148845000Y-107620000D02*
X149645000Y-107620000D01*
G75*
G02*
X149705000Y-107680000I0J-60000D01*
G01*
X149705000Y-109180000D01*
G75*
G02*
X149645000Y-109240000I-60000J0D01*
G01*
X148845000Y-109240000D01*
G75*
G02*
X148785000Y-109180000I0J60000D01*
G01*
X148785000Y-107680000D01*
G75*
G02*
X148845000Y-107620000I60000J0D01*
G01*
G37*
G36*
G01*
X132335000Y-107620000D02*
X133135000Y-107620000D01*
G75*
G02*
X133195000Y-107680000I0J-60000D01*
G01*
X133195000Y-109180000D01*
G75*
G02*
X133135000Y-109240000I-60000J0D01*
G01*
X132335000Y-109240000D01*
G75*
G02*
X132275000Y-109180000I0J60000D01*
G01*
X132275000Y-107680000D01*
G75*
G02*
X132335000Y-107620000I60000J0D01*
G01*
G37*
G36*
G01*
X127255000Y-107620000D02*
X128055000Y-107620000D01*
G75*
G02*
X128115000Y-107680000I0J-60000D01*
G01*
X128115000Y-109180000D01*
G75*
G02*
X128055000Y-109240000I-60000J0D01*
G01*
X127255000Y-109240000D01*
G75*
G02*
X127195000Y-109180000I0J60000D01*
G01*
X127195000Y-107680000D01*
G75*
G02*
X127255000Y-107620000I60000J0D01*
G01*
G37*
G36*
G01*
X131065000Y-107620000D02*
X131865000Y-107620000D01*
G75*
G02*
X131925000Y-107680000I0J-60000D01*
G01*
X131925000Y-109180000D01*
G75*
G02*
X131865000Y-109240000I-60000J0D01*
G01*
X131065000Y-109240000D01*
G75*
G02*
X131005000Y-109180000I0J60000D01*
G01*
X131005000Y-107680000D01*
G75*
G02*
X131065000Y-107620000I60000J0D01*
G01*
G37*
G36*
G01*
X133605000Y-107620000D02*
X134405000Y-107620000D01*
G75*
G02*
X134465000Y-107680000I0J-60000D01*
G01*
X134465000Y-109180000D01*
G75*
G02*
X134405000Y-109240000I-60000J0D01*
G01*
X133605000Y-109240000D01*
G75*
G02*
X133545000Y-109180000I0J60000D01*
G01*
X133545000Y-107680000D01*
G75*
G02*
X133605000Y-107620000I60000J0D01*
G01*
G37*
G36*
G01*
X142495000Y-107620000D02*
X143295000Y-107620000D01*
G75*
G02*
X143355000Y-107680000I0J-60000D01*
G01*
X143355000Y-109180000D01*
G75*
G02*
X143295000Y-109240000I-60000J0D01*
G01*
X142495000Y-109240000D01*
G75*
G02*
X142435000Y-109180000I0J60000D01*
G01*
X142435000Y-107680000D01*
G75*
G02*
X142495000Y-107620000I60000J0D01*
G01*
G37*
G36*
G01*
X141225000Y-107620000D02*
X142025000Y-107620000D01*
G75*
G02*
X142085000Y-107680000I0J-60000D01*
G01*
X142085000Y-109180000D01*
G75*
G02*
X142025000Y-109240000I-60000J0D01*
G01*
X141225000Y-109240000D01*
G75*
G02*
X141165000Y-109180000I0J60000D01*
G01*
X141165000Y-107680000D01*
G75*
G02*
X141225000Y-107620000I60000J0D01*
G01*
G37*
G36*
G01*
X134875000Y-107620000D02*
X135675000Y-107620000D01*
G75*
G02*
X135735000Y-107680000I0J-60000D01*
G01*
X135735000Y-109180000D01*
G75*
G02*
X135675000Y-109240000I-60000J0D01*
G01*
X134875000Y-109240000D01*
G75*
G02*
X134815000Y-109180000I0J60000D01*
G01*
X134815000Y-107680000D01*
G75*
G02*
X134875000Y-107620000I60000J0D01*
G01*
G37*
G36*
G01*
X145035000Y-107620000D02*
X145835000Y-107620000D01*
G75*
G02*
X145895000Y-107680000I0J-60000D01*
G01*
X145895000Y-109180000D01*
G75*
G02*
X145835000Y-109240000I-60000J0D01*
G01*
X145035000Y-109240000D01*
G75*
G02*
X144975000Y-109180000I0J60000D01*
G01*
X144975000Y-107680000D01*
G75*
G02*
X145035000Y-107620000I60000J0D01*
G01*
G37*
G36*
G01*
X136145000Y-107620000D02*
X136945000Y-107620000D01*
G75*
G02*
X137005000Y-107680000I0J-60000D01*
G01*
X137005000Y-109180000D01*
G75*
G02*
X136945000Y-109240000I-60000J0D01*
G01*
X136145000Y-109240000D01*
G75*
G02*
X136085000Y-109180000I0J60000D01*
G01*
X136085000Y-107680000D01*
G75*
G02*
X136145000Y-107620000I60000J0D01*
G01*
G37*
G36*
G01*
X139955000Y-107620000D02*
X140755000Y-107620000D01*
G75*
G02*
X140815000Y-107680000I0J-60000D01*
G01*
X140815000Y-109180000D01*
G75*
G02*
X140755000Y-109240000I-60000J0D01*
G01*
X139955000Y-109240000D01*
G75*
G02*
X139895000Y-109180000I0J60000D01*
G01*
X139895000Y-107680000D01*
G75*
G02*
X139955000Y-107620000I60000J0D01*
G01*
G37*
G36*
G01*
X138685000Y-107620000D02*
X139485000Y-107620000D01*
G75*
G02*
X139545000Y-107680000I0J-60000D01*
G01*
X139545000Y-109180000D01*
G75*
G02*
X139485000Y-109240000I-60000J0D01*
G01*
X138685000Y-109240000D01*
G75*
G02*
X138625000Y-109180000I0J60000D01*
G01*
X138625000Y-107680000D01*
G75*
G02*
X138685000Y-107620000I60000J0D01*
G01*
G37*
G36*
G01*
X129795000Y-107620000D02*
X130595000Y-107620000D01*
G75*
G02*
X130655000Y-107680000I0J-60000D01*
G01*
X130655000Y-109180000D01*
G75*
G02*
X130595000Y-109240000I-60000J0D01*
G01*
X129795000Y-109240000D01*
G75*
G02*
X129735000Y-109180000I0J60000D01*
G01*
X129735000Y-107680000D01*
G75*
G02*
X129795000Y-107620000I60000J0D01*
G01*
G37*
G36*
G01*
X125985000Y-107620000D02*
X126785000Y-107620000D01*
G75*
G02*
X126845000Y-107680000I0J-60000D01*
G01*
X126845000Y-109180000D01*
G75*
G02*
X126785000Y-109240000I-60000J0D01*
G01*
X125985000Y-109240000D01*
G75*
G02*
X125925000Y-109180000I0J60000D01*
G01*
X125925000Y-107680000D01*
G75*
G02*
X125985000Y-107620000I60000J0D01*
G01*
G37*
G36*
G01*
X137415000Y-107620000D02*
X138215000Y-107620000D01*
G75*
G02*
X138275000Y-107680000I0J-60000D01*
G01*
X138275000Y-109180000D01*
G75*
G02*
X138215000Y-109240000I-60000J0D01*
G01*
X137415000Y-109240000D01*
G75*
G02*
X137355000Y-109180000I0J60000D01*
G01*
X137355000Y-107680000D01*
G75*
G02*
X137415000Y-107620000I60000J0D01*
G01*
G37*
G36*
G01*
X128525000Y-107620000D02*
X129325000Y-107620000D01*
G75*
G02*
X129385000Y-107680000I0J-60000D01*
G01*
X129385000Y-109180000D01*
G75*
G02*
X129325000Y-109240000I-60000J0D01*
G01*
X128525000Y-109240000D01*
G75*
G02*
X128465000Y-109180000I0J60000D01*
G01*
X128465000Y-107680000D01*
G75*
G02*
X128525000Y-107620000I60000J0D01*
G01*
G37*
G36*
G01*
X127910000Y-105380000D02*
X127910000Y-106180000D01*
G75*
G02*
X127850000Y-106240000I-60000J0D01*
G01*
X125850000Y-106240000D01*
G75*
G02*
X125790000Y-106180000I0J60000D01*
G01*
X125790000Y-105380000D01*
G75*
G02*
X125850000Y-105320000I60000J0D01*
G01*
X127850000Y-105320000D01*
G75*
G02*
X127910000Y-105380000I0J-60000D01*
G01*
G37*
G36*
G01*
X127910000Y-104110000D02*
X127910000Y-104910000D01*
G75*
G02*
X127850000Y-104970000I-60000J0D01*
G01*
X125850000Y-104970000D01*
G75*
G02*
X125790000Y-104910000I0J60000D01*
G01*
X125790000Y-104110000D01*
G75*
G02*
X125850000Y-104050000I60000J0D01*
G01*
X127850000Y-104050000D01*
G75*
G02*
X127910000Y-104110000I0J-60000D01*
G01*
G37*
G36*
G01*
X130760000Y-94980000D02*
X130760000Y-95780000D01*
G75*
G02*
X130700000Y-95840000I-60000J0D01*
G01*
X128700000Y-95840000D01*
G75*
G02*
X128640000Y-95780000I0J60000D01*
G01*
X128640000Y-94980000D01*
G75*
G02*
X128700000Y-94920000I60000J0D01*
G01*
X130700000Y-94920000D01*
G75*
G02*
X130760000Y-94980000I0J-60000D01*
G01*
G37*
G36*
G01*
X130760000Y-93710000D02*
X130760000Y-94510000D01*
G75*
G02*
X130700000Y-94570000I-60000J0D01*
G01*
X128700000Y-94570000D01*
G75*
G02*
X128640000Y-94510000I0J60000D01*
G01*
X128640000Y-93710000D01*
G75*
G02*
X128700000Y-93650000I60000J0D01*
G01*
X130700000Y-93650000D01*
G75*
G02*
X130760000Y-93710000I0J-60000D01*
G01*
G37*
%TD*%
%TO.C,Ant1*%
G36*
G01*
X178200000Y-91105000D02*
X180000000Y-91105000D01*
G75*
G02*
X180080000Y-91185000I0J-80000D01*
G01*
X180080000Y-93485000D01*
G75*
G02*
X180000000Y-93565000I-80000J0D01*
G01*
X178200000Y-93565000D01*
G75*
G02*
X178120000Y-93485000I0J80000D01*
G01*
X178120000Y-91185000D01*
G75*
G02*
X178200000Y-91105000I80000J0D01*
G01*
G37*
G36*
G01*
X174800000Y-91105000D02*
X176600000Y-91105000D01*
G75*
G02*
X176680000Y-91185000I0J-80000D01*
G01*
X176680000Y-93485000D01*
G75*
G02*
X176600000Y-93565000I-80000J0D01*
G01*
X174800000Y-93565000D01*
G75*
G02*
X174720000Y-93485000I0J80000D01*
G01*
X174720000Y-91185000D01*
G75*
G02*
X174800000Y-91105000I80000J0D01*
G01*
G37*
G36*
G01*
X178200000Y-113455000D02*
X180000000Y-113455000D01*
G75*
G02*
X180080000Y-113535000I0J-80000D01*
G01*
X180080000Y-115835000D01*
G75*
G02*
X180000000Y-115915000I-80000J0D01*
G01*
X178200000Y-115915000D01*
G75*
G02*
X178120000Y-115835000I0J80000D01*
G01*
X178120000Y-113535000D01*
G75*
G02*
X178200000Y-113455000I80000J0D01*
G01*
G37*
G36*
G01*
X174800000Y-113455000D02*
X176600000Y-113455000D01*
G75*
G02*
X176680000Y-113535000I0J-80000D01*
G01*
X176680000Y-115835000D01*
G75*
G02*
X176600000Y-115915000I-80000J0D01*
G01*
X174800000Y-115915000D01*
G75*
G02*
X174720000Y-115835000I0J80000D01*
G01*
X174720000Y-113535000D01*
G75*
G02*
X174800000Y-113455000I80000J0D01*
G01*
G37*
%TD*%
%TO.C,C1*%
G36*
G01*
X113630000Y-119400000D02*
X113630000Y-120400000D01*
G75*
G02*
X113620000Y-120410000I-10000J0D01*
G01*
X113020000Y-120410000D01*
G75*
G02*
X113010000Y-120400000I0J10000D01*
G01*
X113010000Y-119400000D01*
G75*
G02*
X113020000Y-119390000I10000J0D01*
G01*
X113620000Y-119390000D01*
G75*
G02*
X113630000Y-119400000I0J-10000D01*
G01*
G37*
G36*
G01*
X112230000Y-119400000D02*
X112230000Y-120400000D01*
G75*
G02*
X112220000Y-120410000I-10000J0D01*
G01*
X111620000Y-120410000D01*
G75*
G02*
X111610000Y-120400000I0J10000D01*
G01*
X111610000Y-119400000D01*
G75*
G02*
X111620000Y-119390000I10000J0D01*
G01*
X112220000Y-119390000D01*
G75*
G02*
X112230000Y-119400000I0J-10000D01*
G01*
G37*
%TD*%
%TO.C,C2*%
G36*
G01*
X113700000Y-118430000D02*
X113700000Y-119030000D01*
G75*
G02*
X113670000Y-119060000I-30000J0D01*
G01*
X113270000Y-119060000D01*
G75*
G02*
X113240000Y-119030000I0J30000D01*
G01*
X113240000Y-118430000D01*
G75*
G02*
X113270000Y-118400000I30000J0D01*
G01*
X113670000Y-118400000D01*
G75*
G02*
X113700000Y-118430000I0J-30000D01*
G01*
G37*
G36*
G01*
X112800000Y-118430000D02*
X112800000Y-119030000D01*
G75*
G02*
X112770000Y-119060000I-30000J0D01*
G01*
X112370000Y-119060000D01*
G75*
G02*
X112340000Y-119030000I0J30000D01*
G01*
X112340000Y-118430000D01*
G75*
G02*
X112370000Y-118400000I30000J0D01*
G01*
X112770000Y-118400000D01*
G75*
G02*
X112800000Y-118430000I0J-30000D01*
G01*
G37*
%TD*%
%TO.C,C3*%
G36*
G01*
X110260000Y-103660000D02*
X109660000Y-103660000D01*
G75*
G02*
X109630000Y-103630000I0J30000D01*
G01*
X109630000Y-103230000D01*
G75*
G02*
X109660000Y-103200000I30000J0D01*
G01*
X110260000Y-103200000D01*
G75*
G02*
X110290000Y-103230000I0J-30000D01*
G01*
X110290000Y-103630000D01*
G75*
G02*
X110260000Y-103660000I-30000J0D01*
G01*
G37*
G36*
G01*
X110260000Y-102760000D02*
X109660000Y-102760000D01*
G75*
G02*
X109630000Y-102730000I0J30000D01*
G01*
X109630000Y-102330000D01*
G75*
G02*
X109660000Y-102300000I30000J0D01*
G01*
X110260000Y-102300000D01*
G75*
G02*
X110290000Y-102330000I0J-30000D01*
G01*
X110290000Y-102730000D01*
G75*
G02*
X110260000Y-102760000I-30000J0D01*
G01*
G37*
%TD*%
%TO.C,C4*%
G36*
G01*
X118170000Y-102640000D02*
X118170000Y-103240000D01*
G75*
G02*
X118140000Y-103270000I-30000J0D01*
G01*
X117740000Y-103270000D01*
G75*
G02*
X117710000Y-103240000I0J30000D01*
G01*
X117710000Y-102640000D01*
G75*
G02*
X117740000Y-102610000I30000J0D01*
G01*
X118140000Y-102610000D01*
G75*
G02*
X118170000Y-102640000I0J-30000D01*
G01*
G37*
G36*
G01*
X119070000Y-102640000D02*
X119070000Y-103240000D01*
G75*
G02*
X119040000Y-103270000I-30000J0D01*
G01*
X118640000Y-103270000D01*
G75*
G02*
X118610000Y-103240000I0J30000D01*
G01*
X118610000Y-102640000D01*
G75*
G02*
X118640000Y-102610000I30000J0D01*
G01*
X119040000Y-102610000D01*
G75*
G02*
X119070000Y-102640000I0J-30000D01*
G01*
G37*
%TD*%
%TO.C,C5*%
G36*
G01*
X117340000Y-118550000D02*
X117340000Y-119150000D01*
G75*
G02*
X117310000Y-119180000I-30000J0D01*
G01*
X116910000Y-119180000D01*
G75*
G02*
X116880000Y-119150000I0J30000D01*
G01*
X116880000Y-118550000D01*
G75*
G02*
X116910000Y-118520000I30000J0D01*
G01*
X117310000Y-118520000D01*
G75*
G02*
X117340000Y-118550000I0J-30000D01*
G01*
G37*
G36*
G01*
X116440000Y-118550000D02*
X116440000Y-119150000D01*
G75*
G02*
X116410000Y-119180000I-30000J0D01*
G01*
X116010000Y-119180000D01*
G75*
G02*
X115980000Y-119150000I0J30000D01*
G01*
X115980000Y-118550000D01*
G75*
G02*
X116010000Y-118520000I30000J0D01*
G01*
X116410000Y-118520000D01*
G75*
G02*
X116440000Y-118550000I0J-30000D01*
G01*
G37*
%TD*%
%TO.C,C6*%
G36*
G01*
X122560000Y-116680000D02*
X122560000Y-116080000D01*
G75*
G02*
X122590000Y-116050000I30000J0D01*
G01*
X122990000Y-116050000D01*
G75*
G02*
X123020000Y-116080000I0J-30000D01*
G01*
X123020000Y-116680000D01*
G75*
G02*
X122990000Y-116710000I-30000J0D01*
G01*
X122590000Y-116710000D01*
G75*
G02*
X122560000Y-116680000I0J30000D01*
G01*
G37*
G36*
G01*
X121660000Y-116680000D02*
X121660000Y-116080000D01*
G75*
G02*
X121690000Y-116050000I30000J0D01*
G01*
X122090000Y-116050000D01*
G75*
G02*
X122120000Y-116080000I0J-30000D01*
G01*
X122120000Y-116680000D01*
G75*
G02*
X122090000Y-116710000I-30000J0D01*
G01*
X121690000Y-116710000D01*
G75*
G02*
X121660000Y-116680000I0J30000D01*
G01*
G37*
%TD*%
%TO.C,C7*%
G36*
G01*
X108880000Y-118450000D02*
X109880000Y-118450000D01*
G75*
G02*
X109890000Y-118460000I0J-10000D01*
G01*
X109890000Y-119060000D01*
G75*
G02*
X109880000Y-119070000I-10000J0D01*
G01*
X108880000Y-119070000D01*
G75*
G02*
X108870000Y-119060000I0J10000D01*
G01*
X108870000Y-118460000D01*
G75*
G02*
X108880000Y-118450000I10000J0D01*
G01*
G37*
G36*
G01*
X108880000Y-117050000D02*
X109880000Y-117050000D01*
G75*
G02*
X109890000Y-117060000I0J-10000D01*
G01*
X109890000Y-117660000D01*
G75*
G02*
X109880000Y-117670000I-10000J0D01*
G01*
X108880000Y-117670000D01*
G75*
G02*
X108870000Y-117660000I0J10000D01*
G01*
X108870000Y-117060000D01*
G75*
G02*
X108880000Y-117050000I10000J0D01*
G01*
G37*
%TD*%
%TO.C,C8*%
G36*
G01*
X121670000Y-110420000D02*
X122270000Y-110420000D01*
G75*
G02*
X122300000Y-110450000I0J-30000D01*
G01*
X122300000Y-110850000D01*
G75*
G02*
X122270000Y-110880000I-30000J0D01*
G01*
X121670000Y-110880000D01*
G75*
G02*
X121640000Y-110850000I0J30000D01*
G01*
X121640000Y-110450000D01*
G75*
G02*
X121670000Y-110420000I30000J0D01*
G01*
G37*
G36*
G01*
X121670000Y-111320000D02*
X122270000Y-111320000D01*
G75*
G02*
X122300000Y-111350000I0J-30000D01*
G01*
X122300000Y-111750000D01*
G75*
G02*
X122270000Y-111780000I-30000J0D01*
G01*
X121670000Y-111780000D01*
G75*
G02*
X121640000Y-111750000I0J30000D01*
G01*
X121640000Y-111350000D01*
G75*
G02*
X121670000Y-111320000I30000J0D01*
G01*
G37*
%TD*%
%TO.C,C9*%
G36*
G01*
X110320000Y-118740000D02*
X110920000Y-118740000D01*
G75*
G02*
X110950000Y-118770000I0J-30000D01*
G01*
X110950000Y-119170000D01*
G75*
G02*
X110920000Y-119200000I-30000J0D01*
G01*
X110320000Y-119200000D01*
G75*
G02*
X110290000Y-119170000I0J30000D01*
G01*
X110290000Y-118770000D01*
G75*
G02*
X110320000Y-118740000I30000J0D01*
G01*
G37*
G36*
G01*
X110320000Y-117840000D02*
X110920000Y-117840000D01*
G75*
G02*
X110950000Y-117870000I0J-30000D01*
G01*
X110950000Y-118270000D01*
G75*
G02*
X110920000Y-118300000I-30000J0D01*
G01*
X110320000Y-118300000D01*
G75*
G02*
X110290000Y-118270000I0J30000D01*
G01*
X110290000Y-117870000D01*
G75*
G02*
X110320000Y-117840000I30000J0D01*
G01*
G37*
%TD*%
%TO.C,C10*%
G36*
G01*
X123500000Y-109870000D02*
X123500000Y-108870000D01*
G75*
G02*
X123510000Y-108860000I10000J0D01*
G01*
X124110000Y-108860000D01*
G75*
G02*
X124120000Y-108870000I0J-10000D01*
G01*
X124120000Y-109870000D01*
G75*
G02*
X124110000Y-109880000I-10000J0D01*
G01*
X123510000Y-109880000D01*
G75*
G02*
X123500000Y-109870000I0J10000D01*
G01*
G37*
G36*
G01*
X124900000Y-109870000D02*
X124900000Y-108870000D01*
G75*
G02*
X124910000Y-108860000I10000J0D01*
G01*
X125510000Y-108860000D01*
G75*
G02*
X125520000Y-108870000I0J-10000D01*
G01*
X125520000Y-109870000D01*
G75*
G02*
X125510000Y-109880000I-10000J0D01*
G01*
X124910000Y-109880000D01*
G75*
G02*
X124900000Y-109870000I0J10000D01*
G01*
G37*
%TD*%
%TO.C,C11*%
G36*
G01*
X122470000Y-114180000D02*
X122470000Y-113580000D01*
G75*
G02*
X122500000Y-113550000I30000J0D01*
G01*
X122900000Y-113550000D01*
G75*
G02*
X122930000Y-113580000I0J-30000D01*
G01*
X122930000Y-114180000D01*
G75*
G02*
X122900000Y-114210000I-30000J0D01*
G01*
X122500000Y-114210000D01*
G75*
G02*
X122470000Y-114180000I0J30000D01*
G01*
G37*
G36*
G01*
X121570000Y-114180000D02*
X121570000Y-113580000D01*
G75*
G02*
X121600000Y-113550000I30000J0D01*
G01*
X122000000Y-113550000D01*
G75*
G02*
X122030000Y-113580000I0J-30000D01*
G01*
X122030000Y-114180000D01*
G75*
G02*
X122000000Y-114210000I-30000J0D01*
G01*
X121600000Y-114210000D01*
G75*
G02*
X121570000Y-114180000I0J30000D01*
G01*
G37*
%TD*%
%TO.C,C12*%
G36*
G01*
X110920000Y-117580000D02*
X110320000Y-117580000D01*
G75*
G02*
X110290000Y-117550000I0J30000D01*
G01*
X110290000Y-117150000D01*
G75*
G02*
X110320000Y-117120000I30000J0D01*
G01*
X110920000Y-117120000D01*
G75*
G02*
X110950000Y-117150000I0J-30000D01*
G01*
X110950000Y-117550000D01*
G75*
G02*
X110920000Y-117580000I-30000J0D01*
G01*
G37*
G36*
G01*
X110920000Y-116680000D02*
X110320000Y-116680000D01*
G75*
G02*
X110290000Y-116650000I0J30000D01*
G01*
X110290000Y-116250000D01*
G75*
G02*
X110320000Y-116220000I30000J0D01*
G01*
X110920000Y-116220000D01*
G75*
G02*
X110950000Y-116250000I0J-30000D01*
G01*
X110950000Y-116650000D01*
G75*
G02*
X110920000Y-116680000I-30000J0D01*
G01*
G37*
%TD*%
%TO.C,C13*%
G36*
G01*
X124540000Y-105780000D02*
X123940000Y-105780000D01*
G75*
G02*
X123910000Y-105750000I0J30000D01*
G01*
X123910000Y-105350000D01*
G75*
G02*
X123940000Y-105320000I30000J0D01*
G01*
X124540000Y-105320000D01*
G75*
G02*
X124570000Y-105350000I0J-30000D01*
G01*
X124570000Y-105750000D01*
G75*
G02*
X124540000Y-105780000I-30000J0D01*
G01*
G37*
G36*
G01*
X124540000Y-106680000D02*
X123940000Y-106680000D01*
G75*
G02*
X123910000Y-106650000I0J30000D01*
G01*
X123910000Y-106250000D01*
G75*
G02*
X123940000Y-106220000I30000J0D01*
G01*
X124540000Y-106220000D01*
G75*
G02*
X124570000Y-106250000I0J-30000D01*
G01*
X124570000Y-106650000D01*
G75*
G02*
X124540000Y-106680000I-30000J0D01*
G01*
G37*
%TD*%
%TO.C,C14*%
G36*
G01*
X111130000Y-115290000D02*
X111130000Y-115890000D01*
G75*
G02*
X111100000Y-115920000I-30000J0D01*
G01*
X110700000Y-115920000D01*
G75*
G02*
X110670000Y-115890000I0J30000D01*
G01*
X110670000Y-115290000D01*
G75*
G02*
X110700000Y-115260000I30000J0D01*
G01*
X111100000Y-115260000D01*
G75*
G02*
X111130000Y-115290000I0J-30000D01*
G01*
G37*
G36*
G01*
X110230000Y-115290000D02*
X110230000Y-115890000D01*
G75*
G02*
X110200000Y-115920000I-30000J0D01*
G01*
X109800000Y-115920000D01*
G75*
G02*
X109770000Y-115890000I0J30000D01*
G01*
X109770000Y-115290000D01*
G75*
G02*
X109800000Y-115260000I30000J0D01*
G01*
X110200000Y-115260000D01*
G75*
G02*
X110230000Y-115290000I0J-30000D01*
G01*
G37*
%TD*%
%TO.C,C15*%
G36*
G01*
X110180000Y-110920000D02*
X110180000Y-111520000D01*
G75*
G02*
X110150000Y-111550000I-30000J0D01*
G01*
X109750000Y-111550000D01*
G75*
G02*
X109720000Y-111520000I0J30000D01*
G01*
X109720000Y-110920000D01*
G75*
G02*
X109750000Y-110890000I30000J0D01*
G01*
X110150000Y-110890000D01*
G75*
G02*
X110180000Y-110920000I0J-30000D01*
G01*
G37*
G36*
G01*
X111080000Y-110920000D02*
X111080000Y-111520000D01*
G75*
G02*
X111050000Y-111550000I-30000J0D01*
G01*
X110650000Y-111550000D01*
G75*
G02*
X110620000Y-111520000I0J30000D01*
G01*
X110620000Y-110920000D01*
G75*
G02*
X110650000Y-110890000I30000J0D01*
G01*
X111050000Y-110890000D01*
G75*
G02*
X111080000Y-110920000I0J-30000D01*
G01*
G37*
%TD*%
%TO.C,C16*%
G36*
G01*
X110080000Y-114100000D02*
X110680000Y-114100000D01*
G75*
G02*
X110710000Y-114130000I0J-30000D01*
G01*
X110710000Y-114530000D01*
G75*
G02*
X110680000Y-114560000I-30000J0D01*
G01*
X110080000Y-114560000D01*
G75*
G02*
X110050000Y-114530000I0J30000D01*
G01*
X110050000Y-114130000D01*
G75*
G02*
X110080000Y-114100000I30000J0D01*
G01*
G37*
G36*
G01*
X110080000Y-113200000D02*
X110680000Y-113200000D01*
G75*
G02*
X110710000Y-113230000I0J-30000D01*
G01*
X110710000Y-113630000D01*
G75*
G02*
X110680000Y-113660000I-30000J0D01*
G01*
X110080000Y-113660000D01*
G75*
G02*
X110050000Y-113630000I0J30000D01*
G01*
X110050000Y-113230000D01*
G75*
G02*
X110080000Y-113200000I30000J0D01*
G01*
G37*
%TD*%
%TO.C,C17*%
G36*
G01*
X121330000Y-108370000D02*
X121330000Y-107770000D01*
G75*
G02*
X121360000Y-107740000I30000J0D01*
G01*
X121760000Y-107740000D01*
G75*
G02*
X121790000Y-107770000I0J-30000D01*
G01*
X121790000Y-108370000D01*
G75*
G02*
X121760000Y-108400000I-30000J0D01*
G01*
X121360000Y-108400000D01*
G75*
G02*
X121330000Y-108370000I0J30000D01*
G01*
G37*
G36*
G01*
X122230000Y-108370000D02*
X122230000Y-107770000D01*
G75*
G02*
X122260000Y-107740000I30000J0D01*
G01*
X122660000Y-107740000D01*
G75*
G02*
X122690000Y-107770000I0J-30000D01*
G01*
X122690000Y-108370000D01*
G75*
G02*
X122660000Y-108400000I-30000J0D01*
G01*
X122260000Y-108400000D01*
G75*
G02*
X122230000Y-108370000I0J30000D01*
G01*
G37*
%TD*%
%TO.C,C18*%
G36*
G01*
X123620000Y-105780000D02*
X123020000Y-105780000D01*
G75*
G02*
X122990000Y-105750000I0J30000D01*
G01*
X122990000Y-105350000D01*
G75*
G02*
X123020000Y-105320000I30000J0D01*
G01*
X123620000Y-105320000D01*
G75*
G02*
X123650000Y-105350000I0J-30000D01*
G01*
X123650000Y-105750000D01*
G75*
G02*
X123620000Y-105780000I-30000J0D01*
G01*
G37*
G36*
G01*
X123620000Y-106680000D02*
X123020000Y-106680000D01*
G75*
G02*
X122990000Y-106650000I0J30000D01*
G01*
X122990000Y-106250000D01*
G75*
G02*
X123020000Y-106220000I30000J0D01*
G01*
X123620000Y-106220000D01*
G75*
G02*
X123650000Y-106250000I0J-30000D01*
G01*
X123650000Y-106650000D01*
G75*
G02*
X123620000Y-106680000I-30000J0D01*
G01*
G37*
%TD*%
%TO.C,C19*%
G36*
G01*
X116520000Y-107100000D02*
X115920000Y-107100000D01*
G75*
G02*
X115890000Y-107070000I0J30000D01*
G01*
X115890000Y-106670000D01*
G75*
G02*
X115920000Y-106640000I30000J0D01*
G01*
X116520000Y-106640000D01*
G75*
G02*
X116550000Y-106670000I0J-30000D01*
G01*
X116550000Y-107070000D01*
G75*
G02*
X116520000Y-107100000I-30000J0D01*
G01*
G37*
G36*
G01*
X116520000Y-108000000D02*
X115920000Y-108000000D01*
G75*
G02*
X115890000Y-107970000I0J30000D01*
G01*
X115890000Y-107570000D01*
G75*
G02*
X115920000Y-107540000I30000J0D01*
G01*
X116520000Y-107540000D01*
G75*
G02*
X116550000Y-107570000I0J-30000D01*
G01*
X116550000Y-107970000D01*
G75*
G02*
X116520000Y-108000000I-30000J0D01*
G01*
G37*
%TD*%
%TO.C,C20*%
G36*
G01*
X111800000Y-108000000D02*
X111200000Y-108000000D01*
G75*
G02*
X111170000Y-107970000I0J30000D01*
G01*
X111170000Y-107570000D01*
G75*
G02*
X111200000Y-107540000I30000J0D01*
G01*
X111800000Y-107540000D01*
G75*
G02*
X111830000Y-107570000I0J-30000D01*
G01*
X111830000Y-107970000D01*
G75*
G02*
X111800000Y-108000000I-30000J0D01*
G01*
G37*
G36*
G01*
X111800000Y-107100000D02*
X111200000Y-107100000D01*
G75*
G02*
X111170000Y-107070000I0J30000D01*
G01*
X111170000Y-106670000D01*
G75*
G02*
X111200000Y-106640000I30000J0D01*
G01*
X111800000Y-106640000D01*
G75*
G02*
X111830000Y-106670000I0J-30000D01*
G01*
X111830000Y-107070000D01*
G75*
G02*
X111800000Y-107100000I-30000J0D01*
G01*
G37*
%TD*%
%TO.C,C21*%
G36*
G01*
X110860000Y-108000000D02*
X110260000Y-108000000D01*
G75*
G02*
X110230000Y-107970000I0J30000D01*
G01*
X110230000Y-107570000D01*
G75*
G02*
X110260000Y-107540000I30000J0D01*
G01*
X110860000Y-107540000D01*
G75*
G02*
X110890000Y-107570000I0J-30000D01*
G01*
X110890000Y-107970000D01*
G75*
G02*
X110860000Y-108000000I-30000J0D01*
G01*
G37*
G36*
G01*
X110860000Y-107100000D02*
X110260000Y-107100000D01*
G75*
G02*
X110230000Y-107070000I0J30000D01*
G01*
X110230000Y-106670000D01*
G75*
G02*
X110260000Y-106640000I30000J0D01*
G01*
X110860000Y-106640000D01*
G75*
G02*
X110890000Y-106670000I0J-30000D01*
G01*
X110890000Y-107070000D01*
G75*
G02*
X110860000Y-107100000I-30000J0D01*
G01*
G37*
%TD*%
%TO.C,C23*%
G36*
G01*
X136020000Y-110440000D02*
X136020000Y-109840000D01*
G75*
G02*
X136050000Y-109810000I30000J0D01*
G01*
X136450000Y-109810000D01*
G75*
G02*
X136480000Y-109840000I0J-30000D01*
G01*
X136480000Y-110440000D01*
G75*
G02*
X136450000Y-110470000I-30000J0D01*
G01*
X136050000Y-110470000D01*
G75*
G02*
X136020000Y-110440000I0J30000D01*
G01*
G37*
G36*
G01*
X136920000Y-110440000D02*
X136920000Y-109840000D01*
G75*
G02*
X136950000Y-109810000I30000J0D01*
G01*
X137350000Y-109810000D01*
G75*
G02*
X137380000Y-109840000I0J-30000D01*
G01*
X137380000Y-110440000D01*
G75*
G02*
X137350000Y-110470000I-30000J0D01*
G01*
X136950000Y-110470000D01*
G75*
G02*
X136920000Y-110440000I0J30000D01*
G01*
G37*
%TD*%
%TO.C,C24*%
G36*
G01*
X139590000Y-110290000D02*
X139590000Y-109690000D01*
G75*
G02*
X139620000Y-109660000I30000J0D01*
G01*
X140020000Y-109660000D01*
G75*
G02*
X140050000Y-109690000I0J-30000D01*
G01*
X140050000Y-110290000D01*
G75*
G02*
X140020000Y-110320000I-30000J0D01*
G01*
X139620000Y-110320000D01*
G75*
G02*
X139590000Y-110290000I0J30000D01*
G01*
G37*
G36*
G01*
X138690000Y-110290000D02*
X138690000Y-109690000D01*
G75*
G02*
X138720000Y-109660000I30000J0D01*
G01*
X139120000Y-109660000D01*
G75*
G02*
X139150000Y-109690000I0J-30000D01*
G01*
X139150000Y-110290000D01*
G75*
G02*
X139120000Y-110320000I-30000J0D01*
G01*
X138720000Y-110320000D01*
G75*
G02*
X138690000Y-110290000I0J30000D01*
G01*
G37*
%TD*%
%TO.C,C25*%
G36*
G01*
X141280000Y-110260000D02*
X141280000Y-109660000D01*
G75*
G02*
X141310000Y-109630000I30000J0D01*
G01*
X141710000Y-109630000D01*
G75*
G02*
X141740000Y-109660000I0J-30000D01*
G01*
X141740000Y-110260000D01*
G75*
G02*
X141710000Y-110290000I-30000J0D01*
G01*
X141310000Y-110290000D01*
G75*
G02*
X141280000Y-110260000I0J30000D01*
G01*
G37*
G36*
G01*
X142180000Y-110260000D02*
X142180000Y-109660000D01*
G75*
G02*
X142210000Y-109630000I30000J0D01*
G01*
X142610000Y-109630000D01*
G75*
G02*
X142640000Y-109660000I0J-30000D01*
G01*
X142640000Y-110260000D01*
G75*
G02*
X142610000Y-110290000I-30000J0D01*
G01*
X142210000Y-110290000D01*
G75*
G02*
X142180000Y-110260000I0J30000D01*
G01*
G37*
%TD*%
%TO.C,C26*%
G36*
G01*
X146070000Y-119770000D02*
X146670000Y-119770000D01*
G75*
G02*
X146700000Y-119800000I0J-30000D01*
G01*
X146700000Y-120200000D01*
G75*
G02*
X146670000Y-120230000I-30000J0D01*
G01*
X146070000Y-120230000D01*
G75*
G02*
X146040000Y-120200000I0J30000D01*
G01*
X146040000Y-119800000D01*
G75*
G02*
X146070000Y-119770000I30000J0D01*
G01*
G37*
G36*
G01*
X146070000Y-118870000D02*
X146670000Y-118870000D01*
G75*
G02*
X146700000Y-118900000I0J-30000D01*
G01*
X146700000Y-119300000D01*
G75*
G02*
X146670000Y-119330000I-30000J0D01*
G01*
X146070000Y-119330000D01*
G75*
G02*
X146040000Y-119300000I0J30000D01*
G01*
X146040000Y-118900000D01*
G75*
G02*
X146070000Y-118870000I30000J0D01*
G01*
G37*
%TD*%
D11*
%TO.C,C27*%
X149490000Y-113560000D03*
X151990000Y-113560000D03*
%TD*%
%TO.C,C28*%
G36*
G01*
X172370000Y-95680000D02*
X171370000Y-95680000D01*
G75*
G02*
X171360000Y-95670000I0J10000D01*
G01*
X171360000Y-95070000D01*
G75*
G02*
X171370000Y-95060000I10000J0D01*
G01*
X172370000Y-95060000D01*
G75*
G02*
X172380000Y-95070000I0J-10000D01*
G01*
X172380000Y-95670000D01*
G75*
G02*
X172370000Y-95680000I-10000J0D01*
G01*
G37*
G36*
G01*
X172370000Y-97080000D02*
X171370000Y-97080000D01*
G75*
G02*
X171360000Y-97070000I0J10000D01*
G01*
X171360000Y-96470000D01*
G75*
G02*
X171370000Y-96460000I10000J0D01*
G01*
X172370000Y-96460000D01*
G75*
G02*
X172380000Y-96470000I0J-10000D01*
G01*
X172380000Y-97070000D01*
G75*
G02*
X172370000Y-97080000I-10000J0D01*
G01*
G37*
%TD*%
%TO.C,C29*%
G36*
G01*
X151123000Y-110124000D02*
X151123000Y-112156000D01*
G75*
G02*
X151073000Y-112206000I-50000J0D01*
G01*
X149549000Y-112206000D01*
G75*
G02*
X149499000Y-112156000I0J50000D01*
G01*
X149499000Y-110124000D01*
G75*
G02*
X149549000Y-110074000I50000J0D01*
G01*
X151073000Y-110074000D01*
G75*
G02*
X151123000Y-110124000I0J-50000D01*
G01*
G37*
G36*
G01*
X147821000Y-110124000D02*
X147821000Y-112156000D01*
G75*
G02*
X147771000Y-112206000I-50000J0D01*
G01*
X146247000Y-112206000D01*
G75*
G02*
X146197000Y-112156000I0J50000D01*
G01*
X146197000Y-110124000D01*
G75*
G02*
X146247000Y-110074000I50000J0D01*
G01*
X147771000Y-110074000D01*
G75*
G02*
X147821000Y-110124000I0J-50000D01*
G01*
G37*
%TD*%
%TO.C,C30*%
G36*
G01*
X151860000Y-112170000D02*
X151860000Y-111170000D01*
G75*
G02*
X151870000Y-111160000I10000J0D01*
G01*
X152470000Y-111160000D01*
G75*
G02*
X152480000Y-111170000I0J-10000D01*
G01*
X152480000Y-112170000D01*
G75*
G02*
X152470000Y-112180000I-10000J0D01*
G01*
X151870000Y-112180000D01*
G75*
G02*
X151860000Y-112170000I0J10000D01*
G01*
G37*
G36*
G01*
X153260000Y-112170000D02*
X153260000Y-111170000D01*
G75*
G02*
X153270000Y-111160000I10000J0D01*
G01*
X153870000Y-111160000D01*
G75*
G02*
X153880000Y-111170000I0J-10000D01*
G01*
X153880000Y-112170000D01*
G75*
G02*
X153870000Y-112180000I-10000J0D01*
G01*
X153270000Y-112180000D01*
G75*
G02*
X153260000Y-112170000I0J10000D01*
G01*
G37*
%TD*%
%TO.C,C31*%
G36*
G01*
X151860000Y-110800000D02*
X151860000Y-109800000D01*
G75*
G02*
X151870000Y-109790000I10000J0D01*
G01*
X152470000Y-109790000D01*
G75*
G02*
X152480000Y-109800000I0J-10000D01*
G01*
X152480000Y-110800000D01*
G75*
G02*
X152470000Y-110810000I-10000J0D01*
G01*
X151870000Y-110810000D01*
G75*
G02*
X151860000Y-110800000I0J10000D01*
G01*
G37*
G36*
G01*
X153260000Y-110800000D02*
X153260000Y-109800000D01*
G75*
G02*
X153270000Y-109790000I10000J0D01*
G01*
X153870000Y-109790000D01*
G75*
G02*
X153880000Y-109800000I0J-10000D01*
G01*
X153880000Y-110800000D01*
G75*
G02*
X153870000Y-110810000I-10000J0D01*
G01*
X153270000Y-110810000D01*
G75*
G02*
X153260000Y-110800000I0J10000D01*
G01*
G37*
%TD*%
%TO.C,C32*%
G36*
G01*
X151840000Y-109420000D02*
X151840000Y-108420000D01*
G75*
G02*
X151850000Y-108410000I10000J0D01*
G01*
X152450000Y-108410000D01*
G75*
G02*
X152460000Y-108420000I0J-10000D01*
G01*
X152460000Y-109420000D01*
G75*
G02*
X152450000Y-109430000I-10000J0D01*
G01*
X151850000Y-109430000D01*
G75*
G02*
X151840000Y-109420000I0J10000D01*
G01*
G37*
G36*
G01*
X153240000Y-109420000D02*
X153240000Y-108420000D01*
G75*
G02*
X153250000Y-108410000I10000J0D01*
G01*
X153850000Y-108410000D01*
G75*
G02*
X153860000Y-108420000I0J-10000D01*
G01*
X153860000Y-109420000D01*
G75*
G02*
X153850000Y-109430000I-10000J0D01*
G01*
X153250000Y-109430000D01*
G75*
G02*
X153240000Y-109420000I0J10000D01*
G01*
G37*
%TD*%
%TO.C,C33*%
G36*
G01*
X167080000Y-119630000D02*
X167080000Y-120630000D01*
G75*
G02*
X167070000Y-120640000I-10000J0D01*
G01*
X166470000Y-120640000D01*
G75*
G02*
X166460000Y-120630000I0J10000D01*
G01*
X166460000Y-119630000D01*
G75*
G02*
X166470000Y-119620000I10000J0D01*
G01*
X167070000Y-119620000D01*
G75*
G02*
X167080000Y-119630000I0J-10000D01*
G01*
G37*
G36*
G01*
X165680000Y-119630000D02*
X165680000Y-120630000D01*
G75*
G02*
X165670000Y-120640000I-10000J0D01*
G01*
X165070000Y-120640000D01*
G75*
G02*
X165060000Y-120630000I0J10000D01*
G01*
X165060000Y-119630000D01*
G75*
G02*
X165070000Y-119620000I10000J0D01*
G01*
X165670000Y-119620000D01*
G75*
G02*
X165680000Y-119630000I0J-10000D01*
G01*
G37*
%TD*%
%TO.C,C34*%
G36*
G01*
X165250000Y-75680000D02*
X166250000Y-75680000D01*
G75*
G02*
X166260000Y-75690000I0J-10000D01*
G01*
X166260000Y-76290000D01*
G75*
G02*
X166250000Y-76300000I-10000J0D01*
G01*
X165250000Y-76300000D01*
G75*
G02*
X165240000Y-76290000I0J10000D01*
G01*
X165240000Y-75690000D01*
G75*
G02*
X165250000Y-75680000I10000J0D01*
G01*
G37*
G36*
G01*
X165250000Y-77080000D02*
X166250000Y-77080000D01*
G75*
G02*
X166260000Y-77090000I0J-10000D01*
G01*
X166260000Y-77690000D01*
G75*
G02*
X166250000Y-77700000I-10000J0D01*
G01*
X165250000Y-77700000D01*
G75*
G02*
X165240000Y-77690000I0J10000D01*
G01*
X165240000Y-77090000D01*
G75*
G02*
X165250000Y-77080000I10000J0D01*
G01*
G37*
%TD*%
%TO.C,C35*%
G36*
G01*
X164280000Y-75600000D02*
X164880000Y-75600000D01*
G75*
G02*
X164910000Y-75630000I0J-30000D01*
G01*
X164910000Y-76030000D01*
G75*
G02*
X164880000Y-76060000I-30000J0D01*
G01*
X164280000Y-76060000D01*
G75*
G02*
X164250000Y-76030000I0J30000D01*
G01*
X164250000Y-75630000D01*
G75*
G02*
X164280000Y-75600000I30000J0D01*
G01*
G37*
G36*
G01*
X164280000Y-76500000D02*
X164880000Y-76500000D01*
G75*
G02*
X164910000Y-76530000I0J-30000D01*
G01*
X164910000Y-76930000D01*
G75*
G02*
X164880000Y-76960000I-30000J0D01*
G01*
X164280000Y-76960000D01*
G75*
G02*
X164250000Y-76930000I0J30000D01*
G01*
X164250000Y-76530000D01*
G75*
G02*
X164280000Y-76500000I30000J0D01*
G01*
G37*
%TD*%
%TO.C,C36*%
G36*
G01*
X163490000Y-78150000D02*
X162890000Y-78150000D01*
G75*
G02*
X162860000Y-78120000I0J30000D01*
G01*
X162860000Y-77720000D01*
G75*
G02*
X162890000Y-77690000I30000J0D01*
G01*
X163490000Y-77690000D01*
G75*
G02*
X163520000Y-77720000I0J-30000D01*
G01*
X163520000Y-78120000D01*
G75*
G02*
X163490000Y-78150000I-30000J0D01*
G01*
G37*
G36*
G01*
X163490000Y-79050000D02*
X162890000Y-79050000D01*
G75*
G02*
X162860000Y-79020000I0J30000D01*
G01*
X162860000Y-78620000D01*
G75*
G02*
X162890000Y-78590000I30000J0D01*
G01*
X163490000Y-78590000D01*
G75*
G02*
X163520000Y-78620000I0J-30000D01*
G01*
X163520000Y-79020000D01*
G75*
G02*
X163490000Y-79050000I-30000J0D01*
G01*
G37*
%TD*%
%TO.C,C37*%
G36*
G01*
X164710000Y-90660000D02*
X164710000Y-90060000D01*
G75*
G02*
X164740000Y-90030000I30000J0D01*
G01*
X165140000Y-90030000D01*
G75*
G02*
X165170000Y-90060000I0J-30000D01*
G01*
X165170000Y-90660000D01*
G75*
G02*
X165140000Y-90690000I-30000J0D01*
G01*
X164740000Y-90690000D01*
G75*
G02*
X164710000Y-90660000I0J30000D01*
G01*
G37*
G36*
G01*
X165610000Y-90660000D02*
X165610000Y-90060000D01*
G75*
G02*
X165640000Y-90030000I30000J0D01*
G01*
X166040000Y-90030000D01*
G75*
G02*
X166070000Y-90060000I0J-30000D01*
G01*
X166070000Y-90660000D01*
G75*
G02*
X166040000Y-90690000I-30000J0D01*
G01*
X165640000Y-90690000D01*
G75*
G02*
X165610000Y-90660000I0J30000D01*
G01*
G37*
%TD*%
%TO.C,C38*%
G36*
G01*
X171270000Y-91230000D02*
X172270000Y-91230000D01*
G75*
G02*
X172280000Y-91240000I0J-10000D01*
G01*
X172280000Y-91840000D01*
G75*
G02*
X172270000Y-91850000I-10000J0D01*
G01*
X171270000Y-91850000D01*
G75*
G02*
X171260000Y-91840000I0J10000D01*
G01*
X171260000Y-91240000D01*
G75*
G02*
X171270000Y-91230000I10000J0D01*
G01*
G37*
G36*
G01*
X171270000Y-89830000D02*
X172270000Y-89830000D01*
G75*
G02*
X172280000Y-89840000I0J-10000D01*
G01*
X172280000Y-90440000D01*
G75*
G02*
X172270000Y-90450000I-10000J0D01*
G01*
X171270000Y-90450000D01*
G75*
G02*
X171260000Y-90440000I0J10000D01*
G01*
X171260000Y-89840000D01*
G75*
G02*
X171270000Y-89830000I10000J0D01*
G01*
G37*
%TD*%
%TO.C,Con1*%
G36*
G01*
X137925000Y-110520000D02*
X138475000Y-110520000D01*
G75*
G02*
X138750000Y-110795000I0J-275000D01*
G01*
X138750000Y-111445000D01*
G75*
G02*
X138475000Y-111720000I-275000J0D01*
G01*
X137925000Y-111720000D01*
G75*
G02*
X137650000Y-111445000I0J275000D01*
G01*
X137650000Y-110795000D01*
G75*
G02*
X137925000Y-110520000I275000J0D01*
G01*
G37*
G36*
G01*
X137925000Y-122320000D02*
X138475000Y-122320000D01*
G75*
G02*
X138750000Y-122595000I0J-275000D01*
G01*
X138750000Y-123245000D01*
G75*
G02*
X138475000Y-123520000I-275000J0D01*
G01*
X137925000Y-123520000D01*
G75*
G02*
X137650000Y-123245000I0J275000D01*
G01*
X137650000Y-122595000D01*
G75*
G02*
X137925000Y-122320000I275000J0D01*
G01*
G37*
G36*
G01*
X140465000Y-110520000D02*
X141015000Y-110520000D01*
G75*
G02*
X141290000Y-110795000I0J-275000D01*
G01*
X141290000Y-111445000D01*
G75*
G02*
X141015000Y-111720000I-275000J0D01*
G01*
X140465000Y-111720000D01*
G75*
G02*
X140190000Y-111445000I0J275000D01*
G01*
X140190000Y-110795000D01*
G75*
G02*
X140465000Y-110520000I275000J0D01*
G01*
G37*
G36*
G01*
X140465000Y-122320000D02*
X141015000Y-122320000D01*
G75*
G02*
X141290000Y-122595000I0J-275000D01*
G01*
X141290000Y-123245000D01*
G75*
G02*
X141015000Y-123520000I-275000J0D01*
G01*
X140465000Y-123520000D01*
G75*
G02*
X140190000Y-123245000I0J275000D01*
G01*
X140190000Y-122595000D01*
G75*
G02*
X140465000Y-122320000I275000J0D01*
G01*
G37*
G36*
G01*
X143005000Y-110520000D02*
X143555000Y-110520000D01*
G75*
G02*
X143830000Y-110795000I0J-275000D01*
G01*
X143830000Y-111445000D01*
G75*
G02*
X143555000Y-111720000I-275000J0D01*
G01*
X143005000Y-111720000D01*
G75*
G02*
X142730000Y-111445000I0J275000D01*
G01*
X142730000Y-110795000D01*
G75*
G02*
X143005000Y-110520000I275000J0D01*
G01*
G37*
G36*
G01*
X143005000Y-122320000D02*
X143555000Y-122320000D01*
G75*
G02*
X143830000Y-122595000I0J-275000D01*
G01*
X143830000Y-123245000D01*
G75*
G02*
X143555000Y-123520000I-275000J0D01*
G01*
X143005000Y-123520000D01*
G75*
G02*
X142730000Y-123245000I0J275000D01*
G01*
X142730000Y-122595000D01*
G75*
G02*
X143005000Y-122320000I275000J0D01*
G01*
G37*
G36*
G01*
X135085000Y-115470000D02*
X135635000Y-115470000D01*
G75*
G02*
X135910000Y-115745000I0J-275000D01*
G01*
X135910000Y-118295000D01*
G75*
G02*
X135635000Y-118570000I-275000J0D01*
G01*
X135085000Y-118570000D01*
G75*
G02*
X134810000Y-118295000I0J275000D01*
G01*
X134810000Y-115745000D01*
G75*
G02*
X135085000Y-115470000I275000J0D01*
G01*
G37*
G36*
G01*
X145845000Y-115470000D02*
X146395000Y-115470000D01*
G75*
G02*
X146670000Y-115745000I0J-275000D01*
G01*
X146670000Y-118295000D01*
G75*
G02*
X146395000Y-118570000I-275000J0D01*
G01*
X145845000Y-118570000D01*
G75*
G02*
X145570000Y-118295000I0J275000D01*
G01*
X145570000Y-115745000D01*
G75*
G02*
X145845000Y-115470000I275000J0D01*
G01*
G37*
%TD*%
%TO.C,D1*%
G36*
G01*
X115250000Y-119450000D02*
X114250000Y-119450000D01*
G75*
G02*
X114240000Y-119440000I0J10000D01*
G01*
X114240000Y-118840000D01*
G75*
G02*
X114250000Y-118830000I10000J0D01*
G01*
X115250000Y-118830000D01*
G75*
G02*
X115260000Y-118840000I0J-10000D01*
G01*
X115260000Y-119440000D01*
G75*
G02*
X115250000Y-119450000I-10000J0D01*
G01*
G37*
G36*
G01*
X115250000Y-120850000D02*
X114250000Y-120850000D01*
G75*
G02*
X114240000Y-120840000I0J10000D01*
G01*
X114240000Y-120240000D01*
G75*
G02*
X114250000Y-120230000I10000J0D01*
G01*
X115250000Y-120230000D01*
G75*
G02*
X115260000Y-120240000I0J-10000D01*
G01*
X115260000Y-120840000D01*
G75*
G02*
X115250000Y-120850000I-10000J0D01*
G01*
G37*
%TD*%
%TO.C,D4*%
G36*
G01*
X135460000Y-111975000D02*
X134760000Y-111975000D01*
G75*
G02*
X134740000Y-111955000I0J20000D01*
G01*
X134740000Y-111105000D01*
G75*
G02*
X134760000Y-111085000I20000J0D01*
G01*
X135460000Y-111085000D01*
G75*
G02*
X135480000Y-111105000I0J-20000D01*
G01*
X135480000Y-111955000D01*
G75*
G02*
X135460000Y-111975000I-20000J0D01*
G01*
G37*
G36*
G01*
X135460000Y-110775000D02*
X134760000Y-110775000D01*
G75*
G02*
X134740000Y-110755000I0J20000D01*
G01*
X134740000Y-109905000D01*
G75*
G02*
X134760000Y-109885000I20000J0D01*
G01*
X135460000Y-109885000D01*
G75*
G02*
X135480000Y-109905000I0J-20000D01*
G01*
X135480000Y-110755000D01*
G75*
G02*
X135460000Y-110775000I-20000J0D01*
G01*
G37*
%TD*%
%TO.C,D5*%
G36*
G01*
X134760000Y-113665000D02*
X135460000Y-113665000D01*
G75*
G02*
X135480000Y-113685000I0J-20000D01*
G01*
X135480000Y-114535000D01*
G75*
G02*
X135460000Y-114555000I-20000J0D01*
G01*
X134760000Y-114555000D01*
G75*
G02*
X134740000Y-114535000I0J20000D01*
G01*
X134740000Y-113685000D01*
G75*
G02*
X134760000Y-113665000I20000J0D01*
G01*
G37*
G36*
G01*
X134760000Y-112465000D02*
X135460000Y-112465000D01*
G75*
G02*
X135480000Y-112485000I0J-20000D01*
G01*
X135480000Y-113335000D01*
G75*
G02*
X135460000Y-113355000I-20000J0D01*
G01*
X134760000Y-113355000D01*
G75*
G02*
X134740000Y-113335000I0J20000D01*
G01*
X134740000Y-112485000D01*
G75*
G02*
X134760000Y-112465000I20000J0D01*
G01*
G37*
%TD*%
%TO.C,D6*%
G36*
G01*
X143665000Y-110260000D02*
X143665000Y-109560000D01*
G75*
G02*
X143685000Y-109540000I20000J0D01*
G01*
X144535000Y-109540000D01*
G75*
G02*
X144555000Y-109560000I0J-20000D01*
G01*
X144555000Y-110260000D01*
G75*
G02*
X144535000Y-110280000I-20000J0D01*
G01*
X143685000Y-110280000D01*
G75*
G02*
X143665000Y-110260000I0J20000D01*
G01*
G37*
G36*
G01*
X144865000Y-110260000D02*
X144865000Y-109560000D01*
G75*
G02*
X144885000Y-109540000I20000J0D01*
G01*
X145735000Y-109540000D01*
G75*
G02*
X145755000Y-109560000I0J-20000D01*
G01*
X145755000Y-110260000D01*
G75*
G02*
X145735000Y-110280000I-20000J0D01*
G01*
X144885000Y-110280000D01*
G75*
G02*
X144865000Y-110260000I0J20000D01*
G01*
G37*
%TD*%
%TO.C,D7*%
G36*
G01*
X146030000Y-121885000D02*
X146730000Y-121885000D01*
G75*
G02*
X146750000Y-121905000I0J-20000D01*
G01*
X146750000Y-122755000D01*
G75*
G02*
X146730000Y-122775000I-20000J0D01*
G01*
X146030000Y-122775000D01*
G75*
G02*
X146010000Y-122755000I0J20000D01*
G01*
X146010000Y-121905000D01*
G75*
G02*
X146030000Y-121885000I20000J0D01*
G01*
G37*
G36*
G01*
X146030000Y-120685000D02*
X146730000Y-120685000D01*
G75*
G02*
X146750000Y-120705000I0J-20000D01*
G01*
X146750000Y-121555000D01*
G75*
G02*
X146730000Y-121575000I-20000J0D01*
G01*
X146030000Y-121575000D01*
G75*
G02*
X146010000Y-121555000I0J20000D01*
G01*
X146010000Y-120705000D01*
G75*
G02*
X146030000Y-120685000I20000J0D01*
G01*
G37*
%TD*%
%TO.C,D8*%
G36*
G01*
X155870000Y-118390000D02*
X156870000Y-118390000D01*
G75*
G02*
X156880000Y-118400000I0J-10000D01*
G01*
X156880000Y-119000000D01*
G75*
G02*
X156870000Y-119010000I-10000J0D01*
G01*
X155870000Y-119010000D01*
G75*
G02*
X155860000Y-119000000I0J10000D01*
G01*
X155860000Y-118400000D01*
G75*
G02*
X155870000Y-118390000I10000J0D01*
G01*
G37*
G36*
G01*
X155870000Y-119790000D02*
X156870000Y-119790000D01*
G75*
G02*
X156880000Y-119800000I0J-10000D01*
G01*
X156880000Y-120400000D01*
G75*
G02*
X156870000Y-120410000I-10000J0D01*
G01*
X155870000Y-120410000D01*
G75*
G02*
X155860000Y-120400000I0J10000D01*
G01*
X155860000Y-119800000D01*
G75*
G02*
X155870000Y-119790000I10000J0D01*
G01*
G37*
%TD*%
%TO.C,L1*%
G36*
G01*
X125189500Y-107198500D02*
X125189500Y-108341500D01*
G75*
G02*
X125179500Y-108351500I-10000J0D01*
G01*
X124544500Y-108351500D01*
G75*
G02*
X124534500Y-108341500I0J10000D01*
G01*
X124534500Y-107198500D01*
G75*
G02*
X124544500Y-107188500I10000J0D01*
G01*
X125179500Y-107188500D01*
G75*
G02*
X125189500Y-107198500I0J-10000D01*
G01*
G37*
G36*
G01*
X123665500Y-107198500D02*
X123665500Y-108341500D01*
G75*
G02*
X123655500Y-108351500I-10000J0D01*
G01*
X123020500Y-108351500D01*
G75*
G02*
X123010500Y-108341500I0J10000D01*
G01*
X123010500Y-107198500D01*
G75*
G02*
X123020500Y-107188500I10000J0D01*
G01*
X123655500Y-107188500D01*
G75*
G02*
X123665500Y-107198500I0J-10000D01*
G01*
G37*
%TD*%
%TO.C,L3*%
G36*
G01*
X119541500Y-100395500D02*
X118398500Y-100395500D01*
G75*
G02*
X118388500Y-100385500I0J10000D01*
G01*
X118388500Y-99750500D01*
G75*
G02*
X118398500Y-99740500I10000J0D01*
G01*
X119541500Y-99740500D01*
G75*
G02*
X119551500Y-99750500I0J-10000D01*
G01*
X119551500Y-100385500D01*
G75*
G02*
X119541500Y-100395500I-10000J0D01*
G01*
G37*
G36*
G01*
X119541500Y-101919500D02*
X118398500Y-101919500D01*
G75*
G02*
X118388500Y-101909500I0J10000D01*
G01*
X118388500Y-101274500D01*
G75*
G02*
X118398500Y-101264500I10000J0D01*
G01*
X119541500Y-101264500D01*
G75*
G02*
X119551500Y-101274500I0J-10000D01*
G01*
X119551500Y-101909500D01*
G75*
G02*
X119541500Y-101919500I-10000J0D01*
G01*
G37*
%TD*%
%TO.C,L4*%
G36*
G01*
X168971500Y-120559500D02*
X167828500Y-120559500D01*
G75*
G02*
X167778500Y-120509500I0J50000D01*
G01*
X167778500Y-119874500D01*
G75*
G02*
X167828500Y-119824500I50000J0D01*
G01*
X168971500Y-119824500D01*
G75*
G02*
X169021500Y-119874500I0J-50000D01*
G01*
X169021500Y-120509500D01*
G75*
G02*
X168971500Y-120559500I-50000J0D01*
G01*
G37*
G36*
G01*
X168971500Y-119035500D02*
X167828500Y-119035500D01*
G75*
G02*
X167778500Y-118985500I0J50000D01*
G01*
X167778500Y-118350500D01*
G75*
G02*
X167828500Y-118300500I50000J0D01*
G01*
X168971500Y-118300500D01*
G75*
G02*
X169021500Y-118350500I0J-50000D01*
G01*
X169021500Y-118985500D01*
G75*
G02*
X168971500Y-119035500I-50000J0D01*
G01*
G37*
%TD*%
%TO.C,L5*%
G36*
G01*
X173645500Y-89578500D02*
X173645500Y-90721500D01*
G75*
G02*
X173595500Y-90771500I-50000J0D01*
G01*
X172960500Y-90771500D01*
G75*
G02*
X172910500Y-90721500I0J50000D01*
G01*
X172910500Y-89578500D01*
G75*
G02*
X172960500Y-89528500I50000J0D01*
G01*
X173595500Y-89528500D01*
G75*
G02*
X173645500Y-89578500I0J-50000D01*
G01*
G37*
G36*
G01*
X175169500Y-89578500D02*
X175169500Y-90721500D01*
G75*
G02*
X175119500Y-90771500I-50000J0D01*
G01*
X174484500Y-90771500D01*
G75*
G02*
X174434500Y-90721500I0J50000D01*
G01*
X174434500Y-89578500D01*
G75*
G02*
X174484500Y-89528500I50000J0D01*
G01*
X175119500Y-89528500D01*
G75*
G02*
X175169500Y-89578500I0J-50000D01*
G01*
G37*
%TD*%
D12*
%TO.C,P1*%
X176130000Y-84890000D03*
D13*
X173590000Y-87430000D03*
X173590000Y-82350000D03*
X178670000Y-87430000D03*
X178670000Y-82350000D03*
%TD*%
%TO.C,Q1*%
G36*
G01*
X154980000Y-121880000D02*
X154980000Y-120980000D01*
G75*
G02*
X155060000Y-120900000I80000J0D01*
G01*
X155760000Y-120900000D01*
G75*
G02*
X155840000Y-120980000I0J-80000D01*
G01*
X155840000Y-121880000D01*
G75*
G02*
X155760000Y-121960000I-80000J0D01*
G01*
X155060000Y-121960000D01*
G75*
G02*
X154980000Y-121880000I0J80000D01*
G01*
G37*
G36*
G01*
X156880000Y-121880000D02*
X156880000Y-120980000D01*
G75*
G02*
X156960000Y-120900000I80000J0D01*
G01*
X157660000Y-120900000D01*
G75*
G02*
X157740000Y-120980000I0J-80000D01*
G01*
X157740000Y-121880000D01*
G75*
G02*
X157660000Y-121960000I-80000J0D01*
G01*
X156960000Y-121960000D01*
G75*
G02*
X156880000Y-121880000I0J80000D01*
G01*
G37*
G36*
G01*
X155930000Y-123880000D02*
X155930000Y-122980000D01*
G75*
G02*
X156010000Y-122900000I80000J0D01*
G01*
X156710000Y-122900000D01*
G75*
G02*
X156790000Y-122980000I0J-80000D01*
G01*
X156790000Y-123880000D01*
G75*
G02*
X156710000Y-123960000I-80000J0D01*
G01*
X156010000Y-123960000D01*
G75*
G02*
X155930000Y-123880000I0J80000D01*
G01*
G37*
%TD*%
%TO.C,Q2*%
G36*
G01*
X170500000Y-75880000D02*
X170500000Y-76780000D01*
G75*
G02*
X170420000Y-76860000I-80000J0D01*
G01*
X169720000Y-76860000D01*
G75*
G02*
X169640000Y-76780000I0J80000D01*
G01*
X169640000Y-75880000D01*
G75*
G02*
X169720000Y-75800000I80000J0D01*
G01*
X170420000Y-75800000D01*
G75*
G02*
X170500000Y-75880000I0J-80000D01*
G01*
G37*
G36*
G01*
X169550000Y-77880000D02*
X169550000Y-78780000D01*
G75*
G02*
X169470000Y-78860000I-80000J0D01*
G01*
X168770000Y-78860000D01*
G75*
G02*
X168690000Y-78780000I0J80000D01*
G01*
X168690000Y-77880000D01*
G75*
G02*
X168770000Y-77800000I80000J0D01*
G01*
X169470000Y-77800000D01*
G75*
G02*
X169550000Y-77880000I0J-80000D01*
G01*
G37*
G36*
G01*
X171450000Y-77880000D02*
X171450000Y-78780000D01*
G75*
G02*
X171370000Y-78860000I-80000J0D01*
G01*
X170670000Y-78860000D01*
G75*
G02*
X170590000Y-78780000I0J80000D01*
G01*
X170590000Y-77880000D01*
G75*
G02*
X170670000Y-77800000I80000J0D01*
G01*
X171370000Y-77800000D01*
G75*
G02*
X171450000Y-77880000I0J-80000D01*
G01*
G37*
%TD*%
%TO.C,R1*%
G36*
G01*
X121620000Y-109330000D02*
X121620000Y-108730000D01*
G75*
G02*
X121650000Y-108700000I30000J0D01*
G01*
X122050000Y-108700000D01*
G75*
G02*
X122080000Y-108730000I0J-30000D01*
G01*
X122080000Y-109330000D01*
G75*
G02*
X122050000Y-109360000I-30000J0D01*
G01*
X121650000Y-109360000D01*
G75*
G02*
X121620000Y-109330000I0J30000D01*
G01*
G37*
G36*
G01*
X122520000Y-109330000D02*
X122520000Y-108730000D01*
G75*
G02*
X122550000Y-108700000I30000J0D01*
G01*
X122950000Y-108700000D01*
G75*
G02*
X122980000Y-108730000I0J-30000D01*
G01*
X122980000Y-109330000D01*
G75*
G02*
X122950000Y-109360000I-30000J0D01*
G01*
X122550000Y-109360000D01*
G75*
G02*
X122520000Y-109330000I0J30000D01*
G01*
G37*
%TD*%
%TO.C,R2*%
G36*
G01*
X122510000Y-112930000D02*
X122510000Y-112330000D01*
G75*
G02*
X122540000Y-112300000I30000J0D01*
G01*
X122940000Y-112300000D01*
G75*
G02*
X122970000Y-112330000I0J-30000D01*
G01*
X122970000Y-112930000D01*
G75*
G02*
X122940000Y-112960000I-30000J0D01*
G01*
X122540000Y-112960000D01*
G75*
G02*
X122510000Y-112930000I0J30000D01*
G01*
G37*
G36*
G01*
X121610000Y-112930000D02*
X121610000Y-112330000D01*
G75*
G02*
X121640000Y-112300000I30000J0D01*
G01*
X122040000Y-112300000D01*
G75*
G02*
X122070000Y-112330000I0J-30000D01*
G01*
X122070000Y-112930000D01*
G75*
G02*
X122040000Y-112960000I-30000J0D01*
G01*
X121640000Y-112960000D01*
G75*
G02*
X121610000Y-112930000I0J30000D01*
G01*
G37*
%TD*%
%TO.C,R3*%
G36*
G01*
X114090000Y-102650000D02*
X114090000Y-102050000D01*
G75*
G02*
X114120000Y-102020000I30000J0D01*
G01*
X114520000Y-102020000D01*
G75*
G02*
X114550000Y-102050000I0J-30000D01*
G01*
X114550000Y-102650000D01*
G75*
G02*
X114520000Y-102680000I-30000J0D01*
G01*
X114120000Y-102680000D01*
G75*
G02*
X114090000Y-102650000I0J30000D01*
G01*
G37*
G36*
G01*
X113190000Y-102650000D02*
X113190000Y-102050000D01*
G75*
G02*
X113220000Y-102020000I30000J0D01*
G01*
X113620000Y-102020000D01*
G75*
G02*
X113650000Y-102050000I0J-30000D01*
G01*
X113650000Y-102650000D01*
G75*
G02*
X113620000Y-102680000I-30000J0D01*
G01*
X113220000Y-102680000D01*
G75*
G02*
X113190000Y-102650000I0J30000D01*
G01*
G37*
%TD*%
%TO.C,R4*%
G36*
G01*
X112140000Y-106640000D02*
X112740000Y-106640000D01*
G75*
G02*
X112770000Y-106670000I0J-30000D01*
G01*
X112770000Y-107070000D01*
G75*
G02*
X112740000Y-107100000I-30000J0D01*
G01*
X112140000Y-107100000D01*
G75*
G02*
X112110000Y-107070000I0J30000D01*
G01*
X112110000Y-106670000D01*
G75*
G02*
X112140000Y-106640000I30000J0D01*
G01*
G37*
G36*
G01*
X112140000Y-107540000D02*
X112740000Y-107540000D01*
G75*
G02*
X112770000Y-107570000I0J-30000D01*
G01*
X112770000Y-107970000D01*
G75*
G02*
X112740000Y-108000000I-30000J0D01*
G01*
X112140000Y-108000000D01*
G75*
G02*
X112110000Y-107970000I0J30000D01*
G01*
X112110000Y-107570000D01*
G75*
G02*
X112140000Y-107540000I30000J0D01*
G01*
G37*
%TD*%
%TO.C,R7*%
G36*
G01*
X116950000Y-120320000D02*
X116950000Y-120920000D01*
G75*
G02*
X116920000Y-120950000I-30000J0D01*
G01*
X116520000Y-120950000D01*
G75*
G02*
X116490000Y-120920000I0J30000D01*
G01*
X116490000Y-120320000D01*
G75*
G02*
X116520000Y-120290000I30000J0D01*
G01*
X116920000Y-120290000D01*
G75*
G02*
X116950000Y-120320000I0J-30000D01*
G01*
G37*
G36*
G01*
X116050000Y-120320000D02*
X116050000Y-120920000D01*
G75*
G02*
X116020000Y-120950000I-30000J0D01*
G01*
X115620000Y-120950000D01*
G75*
G02*
X115590000Y-120920000I0J30000D01*
G01*
X115590000Y-120320000D01*
G75*
G02*
X115620000Y-120290000I30000J0D01*
G01*
X116020000Y-120290000D01*
G75*
G02*
X116050000Y-120320000I0J-30000D01*
G01*
G37*
%TD*%
%TO.C,R8*%
G36*
G01*
X123030000Y-96420000D02*
X123630000Y-96420000D01*
G75*
G02*
X123660000Y-96450000I0J-30000D01*
G01*
X123660000Y-96850000D01*
G75*
G02*
X123630000Y-96880000I-30000J0D01*
G01*
X123030000Y-96880000D01*
G75*
G02*
X123000000Y-96850000I0J30000D01*
G01*
X123000000Y-96450000D01*
G75*
G02*
X123030000Y-96420000I30000J0D01*
G01*
G37*
G36*
G01*
X123030000Y-95520000D02*
X123630000Y-95520000D01*
G75*
G02*
X123660000Y-95550000I0J-30000D01*
G01*
X123660000Y-95950000D01*
G75*
G02*
X123630000Y-95980000I-30000J0D01*
G01*
X123030000Y-95980000D01*
G75*
G02*
X123000000Y-95950000I0J30000D01*
G01*
X123000000Y-95550000D01*
G75*
G02*
X123030000Y-95520000I30000J0D01*
G01*
G37*
%TD*%
%TO.C,R9*%
G36*
G01*
X122760000Y-83640000D02*
X122760000Y-83040000D01*
G75*
G02*
X122790000Y-83010000I30000J0D01*
G01*
X123190000Y-83010000D01*
G75*
G02*
X123220000Y-83040000I0J-30000D01*
G01*
X123220000Y-83640000D01*
G75*
G02*
X123190000Y-83670000I-30000J0D01*
G01*
X122790000Y-83670000D01*
G75*
G02*
X122760000Y-83640000I0J30000D01*
G01*
G37*
G36*
G01*
X121860000Y-83640000D02*
X121860000Y-83040000D01*
G75*
G02*
X121890000Y-83010000I30000J0D01*
G01*
X122290000Y-83010000D01*
G75*
G02*
X122320000Y-83040000I0J-30000D01*
G01*
X122320000Y-83640000D01*
G75*
G02*
X122290000Y-83670000I-30000J0D01*
G01*
X121890000Y-83670000D01*
G75*
G02*
X121860000Y-83640000I0J30000D01*
G01*
G37*
%TD*%
%TO.C,R10*%
G36*
G01*
X171350000Y-112330000D02*
X171950000Y-112330000D01*
G75*
G02*
X171980000Y-112360000I0J-30000D01*
G01*
X171980000Y-112760000D01*
G75*
G02*
X171950000Y-112790000I-30000J0D01*
G01*
X171350000Y-112790000D01*
G75*
G02*
X171320000Y-112760000I0J30000D01*
G01*
X171320000Y-112360000D01*
G75*
G02*
X171350000Y-112330000I30000J0D01*
G01*
G37*
G36*
G01*
X171350000Y-111430000D02*
X171950000Y-111430000D01*
G75*
G02*
X171980000Y-111460000I0J-30000D01*
G01*
X171980000Y-111860000D01*
G75*
G02*
X171950000Y-111890000I-30000J0D01*
G01*
X171350000Y-111890000D01*
G75*
G02*
X171320000Y-111860000I0J30000D01*
G01*
X171320000Y-111460000D01*
G75*
G02*
X171350000Y-111430000I30000J0D01*
G01*
G37*
%TD*%
%TO.C,R11*%
G36*
G01*
X172150000Y-107400000D02*
X172150000Y-106800000D01*
G75*
G02*
X172180000Y-106770000I30000J0D01*
G01*
X172580000Y-106770000D01*
G75*
G02*
X172610000Y-106800000I0J-30000D01*
G01*
X172610000Y-107400000D01*
G75*
G02*
X172580000Y-107430000I-30000J0D01*
G01*
X172180000Y-107430000D01*
G75*
G02*
X172150000Y-107400000I0J30000D01*
G01*
G37*
G36*
G01*
X171250000Y-107400000D02*
X171250000Y-106800000D01*
G75*
G02*
X171280000Y-106770000I30000J0D01*
G01*
X171680000Y-106770000D01*
G75*
G02*
X171710000Y-106800000I0J-30000D01*
G01*
X171710000Y-107400000D01*
G75*
G02*
X171680000Y-107430000I-30000J0D01*
G01*
X171280000Y-107430000D01*
G75*
G02*
X171250000Y-107400000I0J30000D01*
G01*
G37*
%TD*%
%TO.C,R12*%
G36*
G01*
X171260000Y-106290000D02*
X171260000Y-105690000D01*
G75*
G02*
X171290000Y-105660000I30000J0D01*
G01*
X171690000Y-105660000D01*
G75*
G02*
X171720000Y-105690000I0J-30000D01*
G01*
X171720000Y-106290000D01*
G75*
G02*
X171690000Y-106320000I-30000J0D01*
G01*
X171290000Y-106320000D01*
G75*
G02*
X171260000Y-106290000I0J30000D01*
G01*
G37*
G36*
G01*
X172160000Y-106290000D02*
X172160000Y-105690000D01*
G75*
G02*
X172190000Y-105660000I30000J0D01*
G01*
X172590000Y-105660000D01*
G75*
G02*
X172620000Y-105690000I0J-30000D01*
G01*
X172620000Y-106290000D01*
G75*
G02*
X172590000Y-106320000I-30000J0D01*
G01*
X172190000Y-106320000D01*
G75*
G02*
X172160000Y-106290000I0J30000D01*
G01*
G37*
%TD*%
%TO.C,R13*%
G36*
G01*
X171960000Y-114090000D02*
X171360000Y-114090000D01*
G75*
G02*
X171330000Y-114060000I0J30000D01*
G01*
X171330000Y-113660000D01*
G75*
G02*
X171360000Y-113630000I30000J0D01*
G01*
X171960000Y-113630000D01*
G75*
G02*
X171990000Y-113660000I0J-30000D01*
G01*
X171990000Y-114060000D01*
G75*
G02*
X171960000Y-114090000I-30000J0D01*
G01*
G37*
G36*
G01*
X171960000Y-114990000D02*
X171360000Y-114990000D01*
G75*
G02*
X171330000Y-114960000I0J30000D01*
G01*
X171330000Y-114560000D01*
G75*
G02*
X171360000Y-114530000I30000J0D01*
G01*
X171960000Y-114530000D01*
G75*
G02*
X171990000Y-114560000I0J-30000D01*
G01*
X171990000Y-114960000D01*
G75*
G02*
X171960000Y-114990000I-30000J0D01*
G01*
G37*
%TD*%
%TO.C,R15*%
G36*
G01*
X157940000Y-120620000D02*
X157340000Y-120620000D01*
G75*
G02*
X157310000Y-120590000I0J30000D01*
G01*
X157310000Y-120190000D01*
G75*
G02*
X157340000Y-120160000I30000J0D01*
G01*
X157940000Y-120160000D01*
G75*
G02*
X157970000Y-120190000I0J-30000D01*
G01*
X157970000Y-120590000D01*
G75*
G02*
X157940000Y-120620000I-30000J0D01*
G01*
G37*
G36*
G01*
X157940000Y-119720000D02*
X157340000Y-119720000D01*
G75*
G02*
X157310000Y-119690000I0J30000D01*
G01*
X157310000Y-119290000D01*
G75*
G02*
X157340000Y-119260000I30000J0D01*
G01*
X157940000Y-119260000D01*
G75*
G02*
X157970000Y-119290000I0J-30000D01*
G01*
X157970000Y-119690000D01*
G75*
G02*
X157940000Y-119720000I-30000J0D01*
G01*
G37*
%TD*%
%TO.C,R16*%
G36*
G01*
X154810000Y-119260000D02*
X155410000Y-119260000D01*
G75*
G02*
X155440000Y-119290000I0J-30000D01*
G01*
X155440000Y-119690000D01*
G75*
G02*
X155410000Y-119720000I-30000J0D01*
G01*
X154810000Y-119720000D01*
G75*
G02*
X154780000Y-119690000I0J30000D01*
G01*
X154780000Y-119290000D01*
G75*
G02*
X154810000Y-119260000I30000J0D01*
G01*
G37*
G36*
G01*
X154810000Y-120160000D02*
X155410000Y-120160000D01*
G75*
G02*
X155440000Y-120190000I0J-30000D01*
G01*
X155440000Y-120590000D01*
G75*
G02*
X155410000Y-120620000I-30000J0D01*
G01*
X154810000Y-120620000D01*
G75*
G02*
X154780000Y-120590000I0J30000D01*
G01*
X154780000Y-120190000D01*
G75*
G02*
X154810000Y-120160000I30000J0D01*
G01*
G37*
%TD*%
%TO.C,R17*%
G36*
G01*
X154120000Y-118890000D02*
X154120000Y-118290000D01*
G75*
G02*
X154150000Y-118260000I30000J0D01*
G01*
X154550000Y-118260000D01*
G75*
G02*
X154580000Y-118290000I0J-30000D01*
G01*
X154580000Y-118890000D01*
G75*
G02*
X154550000Y-118920000I-30000J0D01*
G01*
X154150000Y-118920000D01*
G75*
G02*
X154120000Y-118890000I0J30000D01*
G01*
G37*
G36*
G01*
X155020000Y-118890000D02*
X155020000Y-118290000D01*
G75*
G02*
X155050000Y-118260000I30000J0D01*
G01*
X155450000Y-118260000D01*
G75*
G02*
X155480000Y-118290000I0J-30000D01*
G01*
X155480000Y-118890000D01*
G75*
G02*
X155450000Y-118920000I-30000J0D01*
G01*
X155050000Y-118920000D01*
G75*
G02*
X155020000Y-118890000I0J30000D01*
G01*
G37*
%TD*%
%TO.C,R18*%
G36*
G01*
X169300000Y-75630000D02*
X169300000Y-76230000D01*
G75*
G02*
X169270000Y-76260000I-30000J0D01*
G01*
X168870000Y-76260000D01*
G75*
G02*
X168840000Y-76230000I0J30000D01*
G01*
X168840000Y-75630000D01*
G75*
G02*
X168870000Y-75600000I30000J0D01*
G01*
X169270000Y-75600000D01*
G75*
G02*
X169300000Y-75630000I0J-30000D01*
G01*
G37*
G36*
G01*
X168400000Y-75630000D02*
X168400000Y-76230000D01*
G75*
G02*
X168370000Y-76260000I-30000J0D01*
G01*
X167970000Y-76260000D01*
G75*
G02*
X167940000Y-76230000I0J30000D01*
G01*
X167940000Y-75630000D01*
G75*
G02*
X167970000Y-75600000I30000J0D01*
G01*
X168370000Y-75600000D01*
G75*
G02*
X168400000Y-75630000I0J-30000D01*
G01*
G37*
%TD*%
%TO.C,R19*%
G36*
G01*
X166680000Y-77210000D02*
X167280000Y-77210000D01*
G75*
G02*
X167310000Y-77240000I0J-30000D01*
G01*
X167310000Y-77640000D01*
G75*
G02*
X167280000Y-77670000I-30000J0D01*
G01*
X166680000Y-77670000D01*
G75*
G02*
X166650000Y-77640000I0J30000D01*
G01*
X166650000Y-77240000D01*
G75*
G02*
X166680000Y-77210000I30000J0D01*
G01*
G37*
G36*
G01*
X166680000Y-78110000D02*
X167280000Y-78110000D01*
G75*
G02*
X167310000Y-78140000I0J-30000D01*
G01*
X167310000Y-78540000D01*
G75*
G02*
X167280000Y-78570000I-30000J0D01*
G01*
X166680000Y-78570000D01*
G75*
G02*
X166650000Y-78540000I0J30000D01*
G01*
X166650000Y-78140000D01*
G75*
G02*
X166680000Y-78110000I30000J0D01*
G01*
G37*
%TD*%
%TO.C,R22*%
G36*
G01*
X163190000Y-91510000D02*
X162590000Y-91510000D01*
G75*
G02*
X162560000Y-91480000I0J30000D01*
G01*
X162560000Y-91080000D01*
G75*
G02*
X162590000Y-91050000I30000J0D01*
G01*
X163190000Y-91050000D01*
G75*
G02*
X163220000Y-91080000I0J-30000D01*
G01*
X163220000Y-91480000D01*
G75*
G02*
X163190000Y-91510000I-30000J0D01*
G01*
G37*
G36*
G01*
X163190000Y-90610000D02*
X162590000Y-90610000D01*
G75*
G02*
X162560000Y-90580000I0J30000D01*
G01*
X162560000Y-90180000D01*
G75*
G02*
X162590000Y-90150000I30000J0D01*
G01*
X163190000Y-90150000D01*
G75*
G02*
X163220000Y-90180000I0J-30000D01*
G01*
X163220000Y-90580000D01*
G75*
G02*
X163190000Y-90610000I-30000J0D01*
G01*
G37*
%TD*%
%TO.C,R23*%
G36*
G01*
X164310000Y-90610000D02*
X163710000Y-90610000D01*
G75*
G02*
X163680000Y-90580000I0J30000D01*
G01*
X163680000Y-90180000D01*
G75*
G02*
X163710000Y-90150000I30000J0D01*
G01*
X164310000Y-90150000D01*
G75*
G02*
X164340000Y-90180000I0J-30000D01*
G01*
X164340000Y-90580000D01*
G75*
G02*
X164310000Y-90610000I-30000J0D01*
G01*
G37*
G36*
G01*
X164310000Y-91510000D02*
X163710000Y-91510000D01*
G75*
G02*
X163680000Y-91480000I0J30000D01*
G01*
X163680000Y-91080000D01*
G75*
G02*
X163710000Y-91050000I30000J0D01*
G01*
X164310000Y-91050000D01*
G75*
G02*
X164340000Y-91080000I0J-30000D01*
G01*
X164340000Y-91480000D01*
G75*
G02*
X164310000Y-91510000I-30000J0D01*
G01*
G37*
%TD*%
%TO.C,Modem1*%
G36*
G01*
X170660000Y-115470000D02*
X170660000Y-116270000D01*
G75*
G02*
X170610000Y-116320000I-50000J0D01*
G01*
X169110000Y-116320000D01*
G75*
G02*
X169060000Y-116270000I0J50000D01*
G01*
X169060000Y-115470000D01*
G75*
G02*
X169110000Y-115420000I50000J0D01*
G01*
X170610000Y-115420000D01*
G75*
G02*
X170660000Y-115470000I0J-50000D01*
G01*
G37*
G36*
G01*
X168760000Y-114570000D02*
X168760000Y-115670000D01*
G75*
G02*
X168710000Y-115720000I-50000J0D01*
G01*
X167610000Y-115720000D01*
G75*
G02*
X167560000Y-115670000I0J50000D01*
G01*
X167560000Y-114570000D01*
G75*
G02*
X167610000Y-114520000I50000J0D01*
G01*
X168710000Y-114520000D01*
G75*
G02*
X168760000Y-114570000I0J-50000D01*
G01*
G37*
G36*
G01*
X170360000Y-116570000D02*
X170360000Y-117170000D01*
G75*
G02*
X170310000Y-117220000I-50000J0D01*
G01*
X169710000Y-117220000D01*
G75*
G02*
X169660000Y-117170000I0J50000D01*
G01*
X169660000Y-116570000D01*
G75*
G02*
X169710000Y-116520000I50000J0D01*
G01*
X170310000Y-116520000D01*
G75*
G02*
X170360000Y-116570000I0J-50000D01*
G01*
G37*
G36*
G01*
X170660000Y-114370000D02*
X170660000Y-115170000D01*
G75*
G02*
X170610000Y-115220000I-50000J0D01*
G01*
X169110000Y-115220000D01*
G75*
G02*
X169060000Y-115170000I0J50000D01*
G01*
X169060000Y-114370000D01*
G75*
G02*
X169110000Y-114320000I50000J0D01*
G01*
X170610000Y-114320000D01*
G75*
G02*
X170660000Y-114370000I0J-50000D01*
G01*
G37*
G36*
G01*
X170660000Y-113270000D02*
X170660000Y-114070000D01*
G75*
G02*
X170610000Y-114120000I-50000J0D01*
G01*
X169110000Y-114120000D01*
G75*
G02*
X169060000Y-114070000I0J50000D01*
G01*
X169060000Y-113270000D01*
G75*
G02*
X169110000Y-113220000I50000J0D01*
G01*
X170610000Y-113220000D01*
G75*
G02*
X170660000Y-113270000I0J-50000D01*
G01*
G37*
G36*
G01*
X170660000Y-112170000D02*
X170660000Y-112970000D01*
G75*
G02*
X170610000Y-113020000I-50000J0D01*
G01*
X169110000Y-113020000D01*
G75*
G02*
X169060000Y-112970000I0J50000D01*
G01*
X169060000Y-112170000D01*
G75*
G02*
X169110000Y-112120000I50000J0D01*
G01*
X170610000Y-112120000D01*
G75*
G02*
X170660000Y-112170000I0J-50000D01*
G01*
G37*
G36*
G01*
X170660000Y-111070000D02*
X170660000Y-111870000D01*
G75*
G02*
X170610000Y-111920000I-50000J0D01*
G01*
X169110000Y-111920000D01*
G75*
G02*
X169060000Y-111870000I0J50000D01*
G01*
X169060000Y-111070000D01*
G75*
G02*
X169110000Y-111020000I50000J0D01*
G01*
X170610000Y-111020000D01*
G75*
G02*
X170660000Y-111070000I0J-50000D01*
G01*
G37*
G36*
G01*
X170660000Y-109970000D02*
X170660000Y-110770000D01*
G75*
G02*
X170610000Y-110820000I-50000J0D01*
G01*
X169110000Y-110820000D01*
G75*
G02*
X169060000Y-110770000I0J50000D01*
G01*
X169060000Y-109970000D01*
G75*
G02*
X169110000Y-109920000I50000J0D01*
G01*
X170610000Y-109920000D01*
G75*
G02*
X170660000Y-109970000I0J-50000D01*
G01*
G37*
G36*
G01*
X170660000Y-108870000D02*
X170660000Y-109670000D01*
G75*
G02*
X170610000Y-109720000I-50000J0D01*
G01*
X169110000Y-109720000D01*
G75*
G02*
X169060000Y-109670000I0J50000D01*
G01*
X169060000Y-108870000D01*
G75*
G02*
X169110000Y-108820000I50000J0D01*
G01*
X170610000Y-108820000D01*
G75*
G02*
X170660000Y-108870000I0J-50000D01*
G01*
G37*
G36*
G01*
X170660000Y-107770000D02*
X170660000Y-108570000D01*
G75*
G02*
X170610000Y-108620000I-50000J0D01*
G01*
X169110000Y-108620000D01*
G75*
G02*
X169060000Y-108570000I0J50000D01*
G01*
X169060000Y-107770000D01*
G75*
G02*
X169110000Y-107720000I50000J0D01*
G01*
X170610000Y-107720000D01*
G75*
G02*
X170660000Y-107770000I0J-50000D01*
G01*
G37*
G36*
G01*
X170660000Y-106670000D02*
X170660000Y-107470000D01*
G75*
G02*
X170610000Y-107520000I-50000J0D01*
G01*
X169110000Y-107520000D01*
G75*
G02*
X169060000Y-107470000I0J50000D01*
G01*
X169060000Y-106670000D01*
G75*
G02*
X169110000Y-106620000I50000J0D01*
G01*
X170610000Y-106620000D01*
G75*
G02*
X170660000Y-106670000I0J-50000D01*
G01*
G37*
G36*
G01*
X170660000Y-105570000D02*
X170660000Y-106370000D01*
G75*
G02*
X170610000Y-106420000I-50000J0D01*
G01*
X169110000Y-106420000D01*
G75*
G02*
X169060000Y-106370000I0J50000D01*
G01*
X169060000Y-105570000D01*
G75*
G02*
X169110000Y-105520000I50000J0D01*
G01*
X170610000Y-105520000D01*
G75*
G02*
X170660000Y-105570000I0J-50000D01*
G01*
G37*
G36*
G01*
X170660000Y-104470000D02*
X170660000Y-105270000D01*
G75*
G02*
X170610000Y-105320000I-50000J0D01*
G01*
X169110000Y-105320000D01*
G75*
G02*
X169060000Y-105270000I0J50000D01*
G01*
X169060000Y-104470000D01*
G75*
G02*
X169110000Y-104420000I50000J0D01*
G01*
X170610000Y-104420000D01*
G75*
G02*
X170660000Y-104470000I0J-50000D01*
G01*
G37*
G36*
G01*
X170660000Y-103370000D02*
X170660000Y-104170000D01*
G75*
G02*
X170610000Y-104220000I-50000J0D01*
G01*
X169110000Y-104220000D01*
G75*
G02*
X169060000Y-104170000I0J50000D01*
G01*
X169060000Y-103370000D01*
G75*
G02*
X169110000Y-103320000I50000J0D01*
G01*
X170610000Y-103320000D01*
G75*
G02*
X170660000Y-103370000I0J-50000D01*
G01*
G37*
G36*
G01*
X170660000Y-102270000D02*
X170660000Y-103070000D01*
G75*
G02*
X170610000Y-103120000I-50000J0D01*
G01*
X169110000Y-103120000D01*
G75*
G02*
X169060000Y-103070000I0J50000D01*
G01*
X169060000Y-102270000D01*
G75*
G02*
X169110000Y-102220000I50000J0D01*
G01*
X170610000Y-102220000D01*
G75*
G02*
X170660000Y-102270000I0J-50000D01*
G01*
G37*
G36*
G01*
X170660000Y-101170000D02*
X170660000Y-101970000D01*
G75*
G02*
X170610000Y-102020000I-50000J0D01*
G01*
X169110000Y-102020000D01*
G75*
G02*
X169060000Y-101970000I0J50000D01*
G01*
X169060000Y-101170000D01*
G75*
G02*
X169110000Y-101120000I50000J0D01*
G01*
X170610000Y-101120000D01*
G75*
G02*
X170660000Y-101170000I0J-50000D01*
G01*
G37*
G36*
G01*
X170660000Y-100070000D02*
X170660000Y-100870000D01*
G75*
G02*
X170610000Y-100920000I-50000J0D01*
G01*
X169110000Y-100920000D01*
G75*
G02*
X169060000Y-100870000I0J50000D01*
G01*
X169060000Y-100070000D01*
G75*
G02*
X169110000Y-100020000I50000J0D01*
G01*
X170610000Y-100020000D01*
G75*
G02*
X170660000Y-100070000I0J-50000D01*
G01*
G37*
G36*
G01*
X170660000Y-98970000D02*
X170660000Y-99770000D01*
G75*
G02*
X170610000Y-99820000I-50000J0D01*
G01*
X169110000Y-99820000D01*
G75*
G02*
X169060000Y-99770000I0J50000D01*
G01*
X169060000Y-98970000D01*
G75*
G02*
X169110000Y-98920000I50000J0D01*
G01*
X170610000Y-98920000D01*
G75*
G02*
X170660000Y-98970000I0J-50000D01*
G01*
G37*
G36*
G01*
X170660000Y-97870000D02*
X170660000Y-98670000D01*
G75*
G02*
X170610000Y-98720000I-50000J0D01*
G01*
X169110000Y-98720000D01*
G75*
G02*
X169060000Y-98670000I0J50000D01*
G01*
X169060000Y-97870000D01*
G75*
G02*
X169110000Y-97820000I50000J0D01*
G01*
X170610000Y-97820000D01*
G75*
G02*
X170660000Y-97870000I0J-50000D01*
G01*
G37*
G36*
G01*
X170660000Y-96770000D02*
X170660000Y-97570000D01*
G75*
G02*
X170610000Y-97620000I-50000J0D01*
G01*
X169110000Y-97620000D01*
G75*
G02*
X169060000Y-97570000I0J50000D01*
G01*
X169060000Y-96770000D01*
G75*
G02*
X169110000Y-96720000I50000J0D01*
G01*
X170610000Y-96720000D01*
G75*
G02*
X170660000Y-96770000I0J-50000D01*
G01*
G37*
G36*
G01*
X170660000Y-95670000D02*
X170660000Y-96470000D01*
G75*
G02*
X170610000Y-96520000I-50000J0D01*
G01*
X169110000Y-96520000D01*
G75*
G02*
X169060000Y-96470000I0J50000D01*
G01*
X169060000Y-95670000D01*
G75*
G02*
X169110000Y-95620000I50000J0D01*
G01*
X170610000Y-95620000D01*
G75*
G02*
X170660000Y-95670000I0J-50000D01*
G01*
G37*
G36*
G01*
X170660000Y-94570000D02*
X170660000Y-95370000D01*
G75*
G02*
X170610000Y-95420000I-50000J0D01*
G01*
X169110000Y-95420000D01*
G75*
G02*
X169060000Y-95370000I0J50000D01*
G01*
X169060000Y-94570000D01*
G75*
G02*
X169110000Y-94520000I50000J0D01*
G01*
X170610000Y-94520000D01*
G75*
G02*
X170660000Y-94570000I0J-50000D01*
G01*
G37*
G36*
G01*
X170660000Y-93470000D02*
X170660000Y-94270000D01*
G75*
G02*
X170610000Y-94320000I-50000J0D01*
G01*
X169110000Y-94320000D01*
G75*
G02*
X169060000Y-94270000I0J50000D01*
G01*
X169060000Y-93470000D01*
G75*
G02*
X169110000Y-93420000I50000J0D01*
G01*
X170610000Y-93420000D01*
G75*
G02*
X170660000Y-93470000I0J-50000D01*
G01*
G37*
G36*
G01*
X168860000Y-92170000D02*
X168860000Y-93670000D01*
G75*
G02*
X168810000Y-93720000I-50000J0D01*
G01*
X168010000Y-93720000D01*
G75*
G02*
X167960000Y-93670000I0J50000D01*
G01*
X167960000Y-92170000D01*
G75*
G02*
X168010000Y-92120000I50000J0D01*
G01*
X168810000Y-92120000D01*
G75*
G02*
X168860000Y-92170000I0J-50000D01*
G01*
G37*
G36*
G01*
X167760000Y-92170000D02*
X167760000Y-93670000D01*
G75*
G02*
X167710000Y-93720000I-50000J0D01*
G01*
X166910000Y-93720000D01*
G75*
G02*
X166860000Y-93670000I0J50000D01*
G01*
X166860000Y-92170000D01*
G75*
G02*
X166910000Y-92120000I50000J0D01*
G01*
X167710000Y-92120000D01*
G75*
G02*
X167760000Y-92170000I0J-50000D01*
G01*
G37*
G36*
G01*
X166660000Y-92170000D02*
X166660000Y-93670000D01*
G75*
G02*
X166610000Y-93720000I-50000J0D01*
G01*
X165810000Y-93720000D01*
G75*
G02*
X165760000Y-93670000I0J50000D01*
G01*
X165760000Y-92170000D01*
G75*
G02*
X165810000Y-92120000I50000J0D01*
G01*
X166610000Y-92120000D01*
G75*
G02*
X166660000Y-92170000I0J-50000D01*
G01*
G37*
G36*
G01*
X165560000Y-92170000D02*
X165560000Y-93670000D01*
G75*
G02*
X165510000Y-93720000I-50000J0D01*
G01*
X164710000Y-93720000D01*
G75*
G02*
X164660000Y-93670000I0J50000D01*
G01*
X164660000Y-92170000D01*
G75*
G02*
X164710000Y-92120000I50000J0D01*
G01*
X165510000Y-92120000D01*
G75*
G02*
X165560000Y-92170000I0J-50000D01*
G01*
G37*
G36*
G01*
X164460000Y-92170000D02*
X164460000Y-93670000D01*
G75*
G02*
X164410000Y-93720000I-50000J0D01*
G01*
X163610000Y-93720000D01*
G75*
G02*
X163560000Y-93670000I0J50000D01*
G01*
X163560000Y-92170000D01*
G75*
G02*
X163610000Y-92120000I50000J0D01*
G01*
X164410000Y-92120000D01*
G75*
G02*
X164460000Y-92170000I0J-50000D01*
G01*
G37*
G36*
G01*
X163360000Y-92170000D02*
X163360000Y-93670000D01*
G75*
G02*
X163310000Y-93720000I-50000J0D01*
G01*
X162510000Y-93720000D01*
G75*
G02*
X162460000Y-93670000I0J50000D01*
G01*
X162460000Y-92170000D01*
G75*
G02*
X162510000Y-92120000I50000J0D01*
G01*
X163310000Y-92120000D01*
G75*
G02*
X163360000Y-92170000I0J-50000D01*
G01*
G37*
G36*
G01*
X162260000Y-92170000D02*
X162260000Y-93670000D01*
G75*
G02*
X162210000Y-93720000I-50000J0D01*
G01*
X161410000Y-93720000D01*
G75*
G02*
X161360000Y-93670000I0J50000D01*
G01*
X161360000Y-92170000D01*
G75*
G02*
X161410000Y-92120000I50000J0D01*
G01*
X162210000Y-92120000D01*
G75*
G02*
X162260000Y-92170000I0J-50000D01*
G01*
G37*
G36*
G01*
X161160000Y-92170000D02*
X161160000Y-93670000D01*
G75*
G02*
X161110000Y-93720000I-50000J0D01*
G01*
X160310000Y-93720000D01*
G75*
G02*
X160260000Y-93670000I0J50000D01*
G01*
X160260000Y-92170000D01*
G75*
G02*
X160310000Y-92120000I50000J0D01*
G01*
X161110000Y-92120000D01*
G75*
G02*
X161160000Y-92170000I0J-50000D01*
G01*
G37*
G36*
G01*
X160060000Y-92170000D02*
X160060000Y-93670000D01*
G75*
G02*
X160010000Y-93720000I-50000J0D01*
G01*
X159210000Y-93720000D01*
G75*
G02*
X159160000Y-93670000I0J50000D01*
G01*
X159160000Y-92170000D01*
G75*
G02*
X159210000Y-92120000I50000J0D01*
G01*
X160010000Y-92120000D01*
G75*
G02*
X160060000Y-92170000I0J-50000D01*
G01*
G37*
G36*
G01*
X158960000Y-92170000D02*
X158960000Y-93670000D01*
G75*
G02*
X158910000Y-93720000I-50000J0D01*
G01*
X158110000Y-93720000D01*
G75*
G02*
X158060000Y-93670000I0J50000D01*
G01*
X158060000Y-92170000D01*
G75*
G02*
X158110000Y-92120000I50000J0D01*
G01*
X158910000Y-92120000D01*
G75*
G02*
X158960000Y-92170000I0J-50000D01*
G01*
G37*
G36*
G01*
X157860000Y-92170000D02*
X157860000Y-93670000D01*
G75*
G02*
X157810000Y-93720000I-50000J0D01*
G01*
X157010000Y-93720000D01*
G75*
G02*
X156960000Y-93670000I0J50000D01*
G01*
X156960000Y-92170000D01*
G75*
G02*
X157010000Y-92120000I50000J0D01*
G01*
X157810000Y-92120000D01*
G75*
G02*
X157860000Y-92170000I0J-50000D01*
G01*
G37*
G36*
G01*
X156760000Y-93470000D02*
X156760000Y-94270000D01*
G75*
G02*
X156710000Y-94320000I-50000J0D01*
G01*
X155210000Y-94320000D01*
G75*
G02*
X155160000Y-94270000I0J50000D01*
G01*
X155160000Y-93470000D01*
G75*
G02*
X155210000Y-93420000I50000J0D01*
G01*
X156710000Y-93420000D01*
G75*
G02*
X156760000Y-93470000I0J-50000D01*
G01*
G37*
G36*
G01*
X156760000Y-94570000D02*
X156760000Y-95370000D01*
G75*
G02*
X156710000Y-95420000I-50000J0D01*
G01*
X155210000Y-95420000D01*
G75*
G02*
X155160000Y-95370000I0J50000D01*
G01*
X155160000Y-94570000D01*
G75*
G02*
X155210000Y-94520000I50000J0D01*
G01*
X156710000Y-94520000D01*
G75*
G02*
X156760000Y-94570000I0J-50000D01*
G01*
G37*
G36*
G01*
X156760000Y-95670000D02*
X156760000Y-96470000D01*
G75*
G02*
X156710000Y-96520000I-50000J0D01*
G01*
X155210000Y-96520000D01*
G75*
G02*
X155160000Y-96470000I0J50000D01*
G01*
X155160000Y-95670000D01*
G75*
G02*
X155210000Y-95620000I50000J0D01*
G01*
X156710000Y-95620000D01*
G75*
G02*
X156760000Y-95670000I0J-50000D01*
G01*
G37*
G36*
G01*
X156760000Y-96770000D02*
X156760000Y-97570000D01*
G75*
G02*
X156710000Y-97620000I-50000J0D01*
G01*
X155210000Y-97620000D01*
G75*
G02*
X155160000Y-97570000I0J50000D01*
G01*
X155160000Y-96770000D01*
G75*
G02*
X155210000Y-96720000I50000J0D01*
G01*
X156710000Y-96720000D01*
G75*
G02*
X156760000Y-96770000I0J-50000D01*
G01*
G37*
G36*
G01*
X156760000Y-97870000D02*
X156760000Y-98670000D01*
G75*
G02*
X156710000Y-98720000I-50000J0D01*
G01*
X155210000Y-98720000D01*
G75*
G02*
X155160000Y-98670000I0J50000D01*
G01*
X155160000Y-97870000D01*
G75*
G02*
X155210000Y-97820000I50000J0D01*
G01*
X156710000Y-97820000D01*
G75*
G02*
X156760000Y-97870000I0J-50000D01*
G01*
G37*
G36*
G01*
X156760000Y-98970000D02*
X156760000Y-99770000D01*
G75*
G02*
X156710000Y-99820000I-50000J0D01*
G01*
X155210000Y-99820000D01*
G75*
G02*
X155160000Y-99770000I0J50000D01*
G01*
X155160000Y-98970000D01*
G75*
G02*
X155210000Y-98920000I50000J0D01*
G01*
X156710000Y-98920000D01*
G75*
G02*
X156760000Y-98970000I0J-50000D01*
G01*
G37*
G36*
G01*
X156760000Y-100070000D02*
X156760000Y-100870000D01*
G75*
G02*
X156710000Y-100920000I-50000J0D01*
G01*
X155210000Y-100920000D01*
G75*
G02*
X155160000Y-100870000I0J50000D01*
G01*
X155160000Y-100070000D01*
G75*
G02*
X155210000Y-100020000I50000J0D01*
G01*
X156710000Y-100020000D01*
G75*
G02*
X156760000Y-100070000I0J-50000D01*
G01*
G37*
G36*
G01*
X156760000Y-101170000D02*
X156760000Y-101970000D01*
G75*
G02*
X156710000Y-102020000I-50000J0D01*
G01*
X155210000Y-102020000D01*
G75*
G02*
X155160000Y-101970000I0J50000D01*
G01*
X155160000Y-101170000D01*
G75*
G02*
X155210000Y-101120000I50000J0D01*
G01*
X156710000Y-101120000D01*
G75*
G02*
X156760000Y-101170000I0J-50000D01*
G01*
G37*
G36*
G01*
X156760000Y-102270000D02*
X156760000Y-103070000D01*
G75*
G02*
X156710000Y-103120000I-50000J0D01*
G01*
X155210000Y-103120000D01*
G75*
G02*
X155160000Y-103070000I0J50000D01*
G01*
X155160000Y-102270000D01*
G75*
G02*
X155210000Y-102220000I50000J0D01*
G01*
X156710000Y-102220000D01*
G75*
G02*
X156760000Y-102270000I0J-50000D01*
G01*
G37*
G36*
G01*
X156760000Y-103370000D02*
X156760000Y-104170000D01*
G75*
G02*
X156710000Y-104220000I-50000J0D01*
G01*
X155210000Y-104220000D01*
G75*
G02*
X155160000Y-104170000I0J50000D01*
G01*
X155160000Y-103370000D01*
G75*
G02*
X155210000Y-103320000I50000J0D01*
G01*
X156710000Y-103320000D01*
G75*
G02*
X156760000Y-103370000I0J-50000D01*
G01*
G37*
G36*
G01*
X156760000Y-104470000D02*
X156760000Y-105270000D01*
G75*
G02*
X156710000Y-105320000I-50000J0D01*
G01*
X155210000Y-105320000D01*
G75*
G02*
X155160000Y-105270000I0J50000D01*
G01*
X155160000Y-104470000D01*
G75*
G02*
X155210000Y-104420000I50000J0D01*
G01*
X156710000Y-104420000D01*
G75*
G02*
X156760000Y-104470000I0J-50000D01*
G01*
G37*
G36*
G01*
X156760000Y-105570000D02*
X156760000Y-106370000D01*
G75*
G02*
X156710000Y-106420000I-50000J0D01*
G01*
X155210000Y-106420000D01*
G75*
G02*
X155160000Y-106370000I0J50000D01*
G01*
X155160000Y-105570000D01*
G75*
G02*
X155210000Y-105520000I50000J0D01*
G01*
X156710000Y-105520000D01*
G75*
G02*
X156760000Y-105570000I0J-50000D01*
G01*
G37*
G36*
G01*
X156760000Y-106670000D02*
X156760000Y-107470000D01*
G75*
G02*
X156710000Y-107520000I-50000J0D01*
G01*
X155210000Y-107520000D01*
G75*
G02*
X155160000Y-107470000I0J50000D01*
G01*
X155160000Y-106670000D01*
G75*
G02*
X155210000Y-106620000I50000J0D01*
G01*
X156710000Y-106620000D01*
G75*
G02*
X156760000Y-106670000I0J-50000D01*
G01*
G37*
G36*
G01*
X156760000Y-107770000D02*
X156760000Y-108570000D01*
G75*
G02*
X156710000Y-108620000I-50000J0D01*
G01*
X155210000Y-108620000D01*
G75*
G02*
X155160000Y-108570000I0J50000D01*
G01*
X155160000Y-107770000D01*
G75*
G02*
X155210000Y-107720000I50000J0D01*
G01*
X156710000Y-107720000D01*
G75*
G02*
X156760000Y-107770000I0J-50000D01*
G01*
G37*
G36*
G01*
X156760000Y-108870000D02*
X156760000Y-109670000D01*
G75*
G02*
X156710000Y-109720000I-50000J0D01*
G01*
X155210000Y-109720000D01*
G75*
G02*
X155160000Y-109670000I0J50000D01*
G01*
X155160000Y-108870000D01*
G75*
G02*
X155210000Y-108820000I50000J0D01*
G01*
X156710000Y-108820000D01*
G75*
G02*
X156760000Y-108870000I0J-50000D01*
G01*
G37*
G36*
G01*
X156760000Y-109970000D02*
X156760000Y-110770000D01*
G75*
G02*
X156710000Y-110820000I-50000J0D01*
G01*
X155210000Y-110820000D01*
G75*
G02*
X155160000Y-110770000I0J50000D01*
G01*
X155160000Y-109970000D01*
G75*
G02*
X155210000Y-109920000I50000J0D01*
G01*
X156710000Y-109920000D01*
G75*
G02*
X156760000Y-109970000I0J-50000D01*
G01*
G37*
G36*
G01*
X156760000Y-111070000D02*
X156760000Y-111870000D01*
G75*
G02*
X156710000Y-111920000I-50000J0D01*
G01*
X155210000Y-111920000D01*
G75*
G02*
X155160000Y-111870000I0J50000D01*
G01*
X155160000Y-111070000D01*
G75*
G02*
X155210000Y-111020000I50000J0D01*
G01*
X156710000Y-111020000D01*
G75*
G02*
X156760000Y-111070000I0J-50000D01*
G01*
G37*
G36*
G01*
X156760000Y-112170000D02*
X156760000Y-112970000D01*
G75*
G02*
X156710000Y-113020000I-50000J0D01*
G01*
X155210000Y-113020000D01*
G75*
G02*
X155160000Y-112970000I0J50000D01*
G01*
X155160000Y-112170000D01*
G75*
G02*
X155210000Y-112120000I50000J0D01*
G01*
X156710000Y-112120000D01*
G75*
G02*
X156760000Y-112170000I0J-50000D01*
G01*
G37*
G36*
G01*
X156760000Y-113270000D02*
X156760000Y-114070000D01*
G75*
G02*
X156710000Y-114120000I-50000J0D01*
G01*
X155210000Y-114120000D01*
G75*
G02*
X155160000Y-114070000I0J50000D01*
G01*
X155160000Y-113270000D01*
G75*
G02*
X155210000Y-113220000I50000J0D01*
G01*
X156710000Y-113220000D01*
G75*
G02*
X156760000Y-113270000I0J-50000D01*
G01*
G37*
G36*
G01*
X156760000Y-114370000D02*
X156760000Y-115170000D01*
G75*
G02*
X156710000Y-115220000I-50000J0D01*
G01*
X155210000Y-115220000D01*
G75*
G02*
X155160000Y-115170000I0J50000D01*
G01*
X155160000Y-114370000D01*
G75*
G02*
X155210000Y-114320000I50000J0D01*
G01*
X156710000Y-114320000D01*
G75*
G02*
X156760000Y-114370000I0J-50000D01*
G01*
G37*
G36*
G01*
X156760000Y-115470000D02*
X156760000Y-116270000D01*
G75*
G02*
X156710000Y-116320000I-50000J0D01*
G01*
X155210000Y-116320000D01*
G75*
G02*
X155160000Y-116270000I0J50000D01*
G01*
X155160000Y-115470000D01*
G75*
G02*
X155210000Y-115420000I50000J0D01*
G01*
X156710000Y-115420000D01*
G75*
G02*
X156760000Y-115470000I0J-50000D01*
G01*
G37*
G36*
G01*
X157860000Y-116070000D02*
X157860000Y-117570000D01*
G75*
G02*
X157810000Y-117620000I-50000J0D01*
G01*
X157010000Y-117620000D01*
G75*
G02*
X156960000Y-117570000I0J50000D01*
G01*
X156960000Y-116070000D01*
G75*
G02*
X157010000Y-116020000I50000J0D01*
G01*
X157810000Y-116020000D01*
G75*
G02*
X157860000Y-116070000I0J-50000D01*
G01*
G37*
G36*
G01*
X158960000Y-116070000D02*
X158960000Y-117570000D01*
G75*
G02*
X158910000Y-117620000I-50000J0D01*
G01*
X158110000Y-117620000D01*
G75*
G02*
X158060000Y-117570000I0J50000D01*
G01*
X158060000Y-116070000D01*
G75*
G02*
X158110000Y-116020000I50000J0D01*
G01*
X158910000Y-116020000D01*
G75*
G02*
X158960000Y-116070000I0J-50000D01*
G01*
G37*
G36*
G01*
X160060000Y-116070000D02*
X160060000Y-117570000D01*
G75*
G02*
X160010000Y-117620000I-50000J0D01*
G01*
X159210000Y-117620000D01*
G75*
G02*
X159160000Y-117570000I0J50000D01*
G01*
X159160000Y-116070000D01*
G75*
G02*
X159210000Y-116020000I50000J0D01*
G01*
X160010000Y-116020000D01*
G75*
G02*
X160060000Y-116070000I0J-50000D01*
G01*
G37*
G36*
G01*
X161160000Y-116070000D02*
X161160000Y-117570000D01*
G75*
G02*
X161110000Y-117620000I-50000J0D01*
G01*
X160310000Y-117620000D01*
G75*
G02*
X160260000Y-117570000I0J50000D01*
G01*
X160260000Y-116070000D01*
G75*
G02*
X160310000Y-116020000I50000J0D01*
G01*
X161110000Y-116020000D01*
G75*
G02*
X161160000Y-116070000I0J-50000D01*
G01*
G37*
G36*
G01*
X162260000Y-116070000D02*
X162260000Y-117570000D01*
G75*
G02*
X162210000Y-117620000I-50000J0D01*
G01*
X161410000Y-117620000D01*
G75*
G02*
X161360000Y-117570000I0J50000D01*
G01*
X161360000Y-116070000D01*
G75*
G02*
X161410000Y-116020000I50000J0D01*
G01*
X162210000Y-116020000D01*
G75*
G02*
X162260000Y-116070000I0J-50000D01*
G01*
G37*
G36*
G01*
X163360000Y-116070000D02*
X163360000Y-117570000D01*
G75*
G02*
X163310000Y-117620000I-50000J0D01*
G01*
X162510000Y-117620000D01*
G75*
G02*
X162460000Y-117570000I0J50000D01*
G01*
X162460000Y-116070000D01*
G75*
G02*
X162510000Y-116020000I50000J0D01*
G01*
X163310000Y-116020000D01*
G75*
G02*
X163360000Y-116070000I0J-50000D01*
G01*
G37*
G36*
G01*
X164460000Y-116070000D02*
X164460000Y-117570000D01*
G75*
G02*
X164410000Y-117620000I-50000J0D01*
G01*
X163610000Y-117620000D01*
G75*
G02*
X163560000Y-117570000I0J50000D01*
G01*
X163560000Y-116070000D01*
G75*
G02*
X163610000Y-116020000I50000J0D01*
G01*
X164410000Y-116020000D01*
G75*
G02*
X164460000Y-116070000I0J-50000D01*
G01*
G37*
G36*
G01*
X165560000Y-116070000D02*
X165560000Y-117570000D01*
G75*
G02*
X165510000Y-117620000I-50000J0D01*
G01*
X164710000Y-117620000D01*
G75*
G02*
X164660000Y-117570000I0J50000D01*
G01*
X164660000Y-116070000D01*
G75*
G02*
X164710000Y-116020000I50000J0D01*
G01*
X165510000Y-116020000D01*
G75*
G02*
X165560000Y-116070000I0J-50000D01*
G01*
G37*
G36*
G01*
X166660000Y-116070000D02*
X166660000Y-117570000D01*
G75*
G02*
X166610000Y-117620000I-50000J0D01*
G01*
X165810000Y-117620000D01*
G75*
G02*
X165760000Y-117570000I0J50000D01*
G01*
X165760000Y-116070000D01*
G75*
G02*
X165810000Y-116020000I50000J0D01*
G01*
X166610000Y-116020000D01*
G75*
G02*
X166660000Y-116070000I0J-50000D01*
G01*
G37*
G36*
G01*
X167760000Y-116070000D02*
X167760000Y-117570000D01*
G75*
G02*
X167710000Y-117620000I-50000J0D01*
G01*
X166910000Y-117620000D01*
G75*
G02*
X166860000Y-117570000I0J50000D01*
G01*
X166860000Y-116070000D01*
G75*
G02*
X166910000Y-116020000I50000J0D01*
G01*
X167710000Y-116020000D01*
G75*
G02*
X167760000Y-116070000I0J-50000D01*
G01*
G37*
G36*
G01*
X168860000Y-116070000D02*
X168860000Y-117570000D01*
G75*
G02*
X168810000Y-117620000I-50000J0D01*
G01*
X168010000Y-117620000D01*
G75*
G02*
X167960000Y-117570000I0J50000D01*
G01*
X167960000Y-116070000D01*
G75*
G02*
X168010000Y-116020000I50000J0D01*
G01*
X168810000Y-116020000D01*
G75*
G02*
X168860000Y-116070000I0J-50000D01*
G01*
G37*
G36*
G01*
X168760000Y-112770000D02*
X168760000Y-113870000D01*
G75*
G02*
X168710000Y-113920000I-50000J0D01*
G01*
X167610000Y-113920000D01*
G75*
G02*
X167560000Y-113870000I0J50000D01*
G01*
X167560000Y-112770000D01*
G75*
G02*
X167610000Y-112720000I50000J0D01*
G01*
X168710000Y-112720000D01*
G75*
G02*
X168760000Y-112770000I0J-50000D01*
G01*
G37*
G36*
G01*
X166660000Y-114570000D02*
X166660000Y-115670000D01*
G75*
G02*
X166610000Y-115720000I-50000J0D01*
G01*
X165510000Y-115720000D01*
G75*
G02*
X165460000Y-115670000I0J50000D01*
G01*
X165460000Y-114570000D01*
G75*
G02*
X165510000Y-114520000I50000J0D01*
G01*
X166610000Y-114520000D01*
G75*
G02*
X166660000Y-114570000I0J-50000D01*
G01*
G37*
G36*
G01*
X168760000Y-110970000D02*
X168760000Y-112070000D01*
G75*
G02*
X168710000Y-112120000I-50000J0D01*
G01*
X167610000Y-112120000D01*
G75*
G02*
X167560000Y-112070000I0J50000D01*
G01*
X167560000Y-110970000D01*
G75*
G02*
X167610000Y-110920000I50000J0D01*
G01*
X168710000Y-110920000D01*
G75*
G02*
X168760000Y-110970000I0J-50000D01*
G01*
G37*
G36*
G01*
X168760000Y-107370000D02*
X168760000Y-108470000D01*
G75*
G02*
X168710000Y-108520000I-50000J0D01*
G01*
X167610000Y-108520000D01*
G75*
G02*
X167560000Y-108470000I0J50000D01*
G01*
X167560000Y-107370000D01*
G75*
G02*
X167610000Y-107320000I50000J0D01*
G01*
X168710000Y-107320000D01*
G75*
G02*
X168760000Y-107370000I0J-50000D01*
G01*
G37*
G36*
G01*
X168760000Y-101270000D02*
X168760000Y-102370000D01*
G75*
G02*
X168710000Y-102420000I-50000J0D01*
G01*
X167610000Y-102420000D01*
G75*
G02*
X167560000Y-102370000I0J50000D01*
G01*
X167560000Y-101270000D01*
G75*
G02*
X167610000Y-101220000I50000J0D01*
G01*
X168710000Y-101220000D01*
G75*
G02*
X168760000Y-101270000I0J-50000D01*
G01*
G37*
G36*
G01*
X168760000Y-94070000D02*
X168760000Y-95170000D01*
G75*
G02*
X168710000Y-95220000I-50000J0D01*
G01*
X167610000Y-95220000D01*
G75*
G02*
X167560000Y-95170000I0J50000D01*
G01*
X167560000Y-94070000D01*
G75*
G02*
X167610000Y-94020000I50000J0D01*
G01*
X168710000Y-94020000D01*
G75*
G02*
X168760000Y-94070000I0J-50000D01*
G01*
G37*
G36*
G01*
X168760000Y-95870000D02*
X168760000Y-96970000D01*
G75*
G02*
X168710000Y-97020000I-50000J0D01*
G01*
X167610000Y-97020000D01*
G75*
G02*
X167560000Y-96970000I0J50000D01*
G01*
X167560000Y-95870000D01*
G75*
G02*
X167610000Y-95820000I50000J0D01*
G01*
X168710000Y-95820000D01*
G75*
G02*
X168760000Y-95870000I0J-50000D01*
G01*
G37*
G36*
G01*
X168760000Y-97670000D02*
X168760000Y-98770000D01*
G75*
G02*
X168710000Y-98820000I-50000J0D01*
G01*
X167610000Y-98820000D01*
G75*
G02*
X167560000Y-98770000I0J50000D01*
G01*
X167560000Y-97670000D01*
G75*
G02*
X167610000Y-97620000I50000J0D01*
G01*
X168710000Y-97620000D01*
G75*
G02*
X168760000Y-97670000I0J-50000D01*
G01*
G37*
G36*
G01*
X166660000Y-94070000D02*
X166660000Y-95170000D01*
G75*
G02*
X166610000Y-95220000I-50000J0D01*
G01*
X165510000Y-95220000D01*
G75*
G02*
X165460000Y-95170000I0J50000D01*
G01*
X165460000Y-94070000D01*
G75*
G02*
X165510000Y-94020000I50000J0D01*
G01*
X166610000Y-94020000D01*
G75*
G02*
X166660000Y-94070000I0J-50000D01*
G01*
G37*
G36*
G01*
X164560000Y-94070000D02*
X164560000Y-95170000D01*
G75*
G02*
X164510000Y-95220000I-50000J0D01*
G01*
X163410000Y-95220000D01*
G75*
G02*
X163360000Y-95170000I0J50000D01*
G01*
X163360000Y-94070000D01*
G75*
G02*
X163410000Y-94020000I50000J0D01*
G01*
X164510000Y-94020000D01*
G75*
G02*
X164560000Y-94070000I0J-50000D01*
G01*
G37*
G36*
G01*
X162460000Y-94070000D02*
X162460000Y-95170000D01*
G75*
G02*
X162410000Y-95220000I-50000J0D01*
G01*
X161310000Y-95220000D01*
G75*
G02*
X161260000Y-95170000I0J50000D01*
G01*
X161260000Y-94070000D01*
G75*
G02*
X161310000Y-94020000I50000J0D01*
G01*
X162410000Y-94020000D01*
G75*
G02*
X162460000Y-94070000I0J-50000D01*
G01*
G37*
G36*
G01*
X160360000Y-94070000D02*
X160360000Y-95170000D01*
G75*
G02*
X160310000Y-95220000I-50000J0D01*
G01*
X159210000Y-95220000D01*
G75*
G02*
X159160000Y-95170000I0J50000D01*
G01*
X159160000Y-94070000D01*
G75*
G02*
X159210000Y-94020000I50000J0D01*
G01*
X160310000Y-94020000D01*
G75*
G02*
X160360000Y-94070000I0J-50000D01*
G01*
G37*
G36*
G01*
X158260000Y-94070000D02*
X158260000Y-95170000D01*
G75*
G02*
X158210000Y-95220000I-50000J0D01*
G01*
X157110000Y-95220000D01*
G75*
G02*
X157060000Y-95170000I0J50000D01*
G01*
X157060000Y-94070000D01*
G75*
G02*
X157110000Y-94020000I50000J0D01*
G01*
X158210000Y-94020000D01*
G75*
G02*
X158260000Y-94070000I0J-50000D01*
G01*
G37*
G36*
G01*
X166660000Y-95870000D02*
X166660000Y-96970000D01*
G75*
G02*
X166610000Y-97020000I-50000J0D01*
G01*
X165510000Y-97020000D01*
G75*
G02*
X165460000Y-96970000I0J50000D01*
G01*
X165460000Y-95870000D01*
G75*
G02*
X165510000Y-95820000I50000J0D01*
G01*
X166610000Y-95820000D01*
G75*
G02*
X166660000Y-95870000I0J-50000D01*
G01*
G37*
G36*
G01*
X164560000Y-95870000D02*
X164560000Y-96970000D01*
G75*
G02*
X164510000Y-97020000I-50000J0D01*
G01*
X163410000Y-97020000D01*
G75*
G02*
X163360000Y-96970000I0J50000D01*
G01*
X163360000Y-95870000D01*
G75*
G02*
X163410000Y-95820000I50000J0D01*
G01*
X164510000Y-95820000D01*
G75*
G02*
X164560000Y-95870000I0J-50000D01*
G01*
G37*
G36*
G01*
X162460000Y-95870000D02*
X162460000Y-96970000D01*
G75*
G02*
X162410000Y-97020000I-50000J0D01*
G01*
X161310000Y-97020000D01*
G75*
G02*
X161260000Y-96970000I0J50000D01*
G01*
X161260000Y-95870000D01*
G75*
G02*
X161310000Y-95820000I50000J0D01*
G01*
X162410000Y-95820000D01*
G75*
G02*
X162460000Y-95870000I0J-50000D01*
G01*
G37*
G36*
G01*
X160360000Y-95870000D02*
X160360000Y-96970000D01*
G75*
G02*
X160310000Y-97020000I-50000J0D01*
G01*
X159210000Y-97020000D01*
G75*
G02*
X159160000Y-96970000I0J50000D01*
G01*
X159160000Y-95870000D01*
G75*
G02*
X159210000Y-95820000I50000J0D01*
G01*
X160310000Y-95820000D01*
G75*
G02*
X160360000Y-95870000I0J-50000D01*
G01*
G37*
G36*
G01*
X158260000Y-95870000D02*
X158260000Y-96970000D01*
G75*
G02*
X158210000Y-97020000I-50000J0D01*
G01*
X157110000Y-97020000D01*
G75*
G02*
X157060000Y-96970000I0J50000D01*
G01*
X157060000Y-95870000D01*
G75*
G02*
X157110000Y-95820000I50000J0D01*
G01*
X158210000Y-95820000D01*
G75*
G02*
X158260000Y-95870000I0J-50000D01*
G01*
G37*
G36*
G01*
X164560000Y-114570000D02*
X164560000Y-115670000D01*
G75*
G02*
X164510000Y-115720000I-50000J0D01*
G01*
X163410000Y-115720000D01*
G75*
G02*
X163360000Y-115670000I0J50000D01*
G01*
X163360000Y-114570000D01*
G75*
G02*
X163410000Y-114520000I50000J0D01*
G01*
X164510000Y-114520000D01*
G75*
G02*
X164560000Y-114570000I0J-50000D01*
G01*
G37*
G36*
G01*
X162460000Y-114570000D02*
X162460000Y-115670000D01*
G75*
G02*
X162410000Y-115720000I-50000J0D01*
G01*
X161310000Y-115720000D01*
G75*
G02*
X161260000Y-115670000I0J50000D01*
G01*
X161260000Y-114570000D01*
G75*
G02*
X161310000Y-114520000I50000J0D01*
G01*
X162410000Y-114520000D01*
G75*
G02*
X162460000Y-114570000I0J-50000D01*
G01*
G37*
G36*
G01*
X160360000Y-114570000D02*
X160360000Y-115670000D01*
G75*
G02*
X160310000Y-115720000I-50000J0D01*
G01*
X159210000Y-115720000D01*
G75*
G02*
X159160000Y-115670000I0J50000D01*
G01*
X159160000Y-114570000D01*
G75*
G02*
X159210000Y-114520000I50000J0D01*
G01*
X160310000Y-114520000D01*
G75*
G02*
X160360000Y-114570000I0J-50000D01*
G01*
G37*
G36*
G01*
X158260000Y-114570000D02*
X158260000Y-115670000D01*
G75*
G02*
X158210000Y-115720000I-50000J0D01*
G01*
X157110000Y-115720000D01*
G75*
G02*
X157060000Y-115670000I0J50000D01*
G01*
X157060000Y-114570000D01*
G75*
G02*
X157110000Y-114520000I50000J0D01*
G01*
X158210000Y-114520000D01*
G75*
G02*
X158260000Y-114570000I0J-50000D01*
G01*
G37*
G36*
G01*
X166660000Y-112770000D02*
X166660000Y-113870000D01*
G75*
G02*
X166610000Y-113920000I-50000J0D01*
G01*
X165510000Y-113920000D01*
G75*
G02*
X165460000Y-113870000I0J50000D01*
G01*
X165460000Y-112770000D01*
G75*
G02*
X165510000Y-112720000I50000J0D01*
G01*
X166610000Y-112720000D01*
G75*
G02*
X166660000Y-112770000I0J-50000D01*
G01*
G37*
G36*
G01*
X164560000Y-112770000D02*
X164560000Y-113870000D01*
G75*
G02*
X164510000Y-113920000I-50000J0D01*
G01*
X163410000Y-113920000D01*
G75*
G02*
X163360000Y-113870000I0J50000D01*
G01*
X163360000Y-112770000D01*
G75*
G02*
X163410000Y-112720000I50000J0D01*
G01*
X164510000Y-112720000D01*
G75*
G02*
X164560000Y-112770000I0J-50000D01*
G01*
G37*
G36*
G01*
X162460000Y-112770000D02*
X162460000Y-113870000D01*
G75*
G02*
X162410000Y-113920000I-50000J0D01*
G01*
X161310000Y-113920000D01*
G75*
G02*
X161260000Y-113870000I0J50000D01*
G01*
X161260000Y-112770000D01*
G75*
G02*
X161310000Y-112720000I50000J0D01*
G01*
X162410000Y-112720000D01*
G75*
G02*
X162460000Y-112770000I0J-50000D01*
G01*
G37*
G36*
G01*
X160360000Y-112770000D02*
X160360000Y-113870000D01*
G75*
G02*
X160310000Y-113920000I-50000J0D01*
G01*
X159210000Y-113920000D01*
G75*
G02*
X159160000Y-113870000I0J50000D01*
G01*
X159160000Y-112770000D01*
G75*
G02*
X159210000Y-112720000I50000J0D01*
G01*
X160310000Y-112720000D01*
G75*
G02*
X160360000Y-112770000I0J-50000D01*
G01*
G37*
G36*
G01*
X158260000Y-112770000D02*
X158260000Y-113870000D01*
G75*
G02*
X158210000Y-113920000I-50000J0D01*
G01*
X157110000Y-113920000D01*
G75*
G02*
X157060000Y-113870000I0J50000D01*
G01*
X157060000Y-112770000D01*
G75*
G02*
X157110000Y-112720000I50000J0D01*
G01*
X158210000Y-112720000D01*
G75*
G02*
X158260000Y-112770000I0J-50000D01*
G01*
G37*
G36*
G01*
X158260000Y-110970000D02*
X158260000Y-112070000D01*
G75*
G02*
X158210000Y-112120000I-50000J0D01*
G01*
X157110000Y-112120000D01*
G75*
G02*
X157060000Y-112070000I0J50000D01*
G01*
X157060000Y-110970000D01*
G75*
G02*
X157110000Y-110920000I50000J0D01*
G01*
X158210000Y-110920000D01*
G75*
G02*
X158260000Y-110970000I0J-50000D01*
G01*
G37*
G36*
G01*
X158260000Y-107370000D02*
X158260000Y-108470000D01*
G75*
G02*
X158210000Y-108520000I-50000J0D01*
G01*
X157110000Y-108520000D01*
G75*
G02*
X157060000Y-108470000I0J50000D01*
G01*
X157060000Y-107370000D01*
G75*
G02*
X157110000Y-107320000I50000J0D01*
G01*
X158210000Y-107320000D01*
G75*
G02*
X158260000Y-107370000I0J-50000D01*
G01*
G37*
G36*
G01*
X158260000Y-101270000D02*
X158260000Y-102370000D01*
G75*
G02*
X158210000Y-102420000I-50000J0D01*
G01*
X157110000Y-102420000D01*
G75*
G02*
X157060000Y-102370000I0J50000D01*
G01*
X157060000Y-101270000D01*
G75*
G02*
X157110000Y-101220000I50000J0D01*
G01*
X158210000Y-101220000D01*
G75*
G02*
X158260000Y-101270000I0J-50000D01*
G01*
G37*
G36*
G01*
X158260000Y-97670000D02*
X158260000Y-98770000D01*
G75*
G02*
X158210000Y-98820000I-50000J0D01*
G01*
X157110000Y-98820000D01*
G75*
G02*
X157060000Y-98770000I0J50000D01*
G01*
X157060000Y-97670000D01*
G75*
G02*
X157110000Y-97620000I50000J0D01*
G01*
X158210000Y-97620000D01*
G75*
G02*
X158260000Y-97670000I0J-50000D01*
G01*
G37*
D14*
X170910000Y-117870000D03*
X154910000Y-91870000D03*
%TD*%
%TO.C,T1*%
G36*
G01*
X165710000Y-73900000D02*
X165710000Y-73000000D01*
G75*
G02*
X165790000Y-72920000I80000J0D01*
G01*
X166490000Y-72920000D01*
G75*
G02*
X166570000Y-73000000I0J-80000D01*
G01*
X166570000Y-73900000D01*
G75*
G02*
X166490000Y-73980000I-80000J0D01*
G01*
X165790000Y-73980000D01*
G75*
G02*
X165710000Y-73900000I0J80000D01*
G01*
G37*
G36*
G01*
X167610000Y-73900000D02*
X167610000Y-73000000D01*
G75*
G02*
X167690000Y-72920000I80000J0D01*
G01*
X168390000Y-72920000D01*
G75*
G02*
X168470000Y-73000000I0J-80000D01*
G01*
X168470000Y-73900000D01*
G75*
G02*
X168390000Y-73980000I-80000J0D01*
G01*
X167690000Y-73980000D01*
G75*
G02*
X167610000Y-73900000I0J80000D01*
G01*
G37*
G36*
G01*
X166660000Y-75900000D02*
X166660000Y-75000000D01*
G75*
G02*
X166740000Y-74920000I80000J0D01*
G01*
X167440000Y-74920000D01*
G75*
G02*
X167520000Y-75000000I0J-80000D01*
G01*
X167520000Y-75900000D01*
G75*
G02*
X167440000Y-75980000I-80000J0D01*
G01*
X166740000Y-75980000D01*
G75*
G02*
X166660000Y-75900000I0J80000D01*
G01*
G37*
%TD*%
%TO.C,U1*%
G36*
G01*
X112800000Y-116710000D02*
X112800000Y-115510000D01*
G75*
G02*
X112850000Y-115460000I50000J0D01*
G01*
X114050000Y-115460000D01*
G75*
G02*
X114100000Y-115510000I0J-50000D01*
G01*
X114100000Y-116710000D01*
G75*
G02*
X114050000Y-116760000I-50000J0D01*
G01*
X112850000Y-116760000D01*
G75*
G02*
X112800000Y-116710000I0J50000D01*
G01*
G37*
G36*
G01*
X112800000Y-115510000D02*
X112800000Y-114310000D01*
G75*
G02*
X112850000Y-114260000I50000J0D01*
G01*
X114050000Y-114260000D01*
G75*
G02*
X114100000Y-114310000I0J-50000D01*
G01*
X114100000Y-115510000D01*
G75*
G02*
X114050000Y-115560000I-50000J0D01*
G01*
X112850000Y-115560000D01*
G75*
G02*
X112800000Y-115510000I0J50000D01*
G01*
G37*
G36*
G01*
X112800000Y-114310000D02*
X112800000Y-113110000D01*
G75*
G02*
X112850000Y-113060000I50000J0D01*
G01*
X114050000Y-113060000D01*
G75*
G02*
X114100000Y-113110000I0J-50000D01*
G01*
X114100000Y-114310000D01*
G75*
G02*
X114050000Y-114360000I-50000J0D01*
G01*
X112850000Y-114360000D01*
G75*
G02*
X112800000Y-114310000I0J50000D01*
G01*
G37*
G36*
G01*
X112800000Y-113110000D02*
X112800000Y-111910000D01*
G75*
G02*
X112850000Y-111860000I50000J0D01*
G01*
X114050000Y-111860000D01*
G75*
G02*
X114100000Y-111910000I0J-50000D01*
G01*
X114100000Y-113110000D01*
G75*
G02*
X114050000Y-113160000I-50000J0D01*
G01*
X112850000Y-113160000D01*
G75*
G02*
X112800000Y-113110000I0J50000D01*
G01*
G37*
G36*
G01*
X112800000Y-111910000D02*
X112800000Y-110710000D01*
G75*
G02*
X112850000Y-110660000I50000J0D01*
G01*
X114050000Y-110660000D01*
G75*
G02*
X114100000Y-110710000I0J-50000D01*
G01*
X114100000Y-111910000D01*
G75*
G02*
X114050000Y-111960000I-50000J0D01*
G01*
X112850000Y-111960000D01*
G75*
G02*
X112800000Y-111910000I0J50000D01*
G01*
G37*
G36*
G01*
X112800000Y-110710000D02*
X112800000Y-109510000D01*
G75*
G02*
X112850000Y-109460000I50000J0D01*
G01*
X114050000Y-109460000D01*
G75*
G02*
X114100000Y-109510000I0J-50000D01*
G01*
X114100000Y-110710000D01*
G75*
G02*
X114050000Y-110760000I-50000J0D01*
G01*
X112850000Y-110760000D01*
G75*
G02*
X112800000Y-110710000I0J50000D01*
G01*
G37*
G36*
G01*
X114000000Y-116710000D02*
X114000000Y-115510000D01*
G75*
G02*
X114050000Y-115460000I50000J0D01*
G01*
X115250000Y-115460000D01*
G75*
G02*
X115300000Y-115510000I0J-50000D01*
G01*
X115300000Y-116710000D01*
G75*
G02*
X115250000Y-116760000I-50000J0D01*
G01*
X114050000Y-116760000D01*
G75*
G02*
X114000000Y-116710000I0J50000D01*
G01*
G37*
G36*
G01*
X114000000Y-115510000D02*
X114000000Y-114310000D01*
G75*
G02*
X114050000Y-114260000I50000J0D01*
G01*
X115250000Y-114260000D01*
G75*
G02*
X115300000Y-114310000I0J-50000D01*
G01*
X115300000Y-115510000D01*
G75*
G02*
X115250000Y-115560000I-50000J0D01*
G01*
X114050000Y-115560000D01*
G75*
G02*
X114000000Y-115510000I0J50000D01*
G01*
G37*
G36*
G01*
X114000000Y-114310000D02*
X114000000Y-113110000D01*
G75*
G02*
X114050000Y-113060000I50000J0D01*
G01*
X115250000Y-113060000D01*
G75*
G02*
X115300000Y-113110000I0J-50000D01*
G01*
X115300000Y-114310000D01*
G75*
G02*
X115250000Y-114360000I-50000J0D01*
G01*
X114050000Y-114360000D01*
G75*
G02*
X114000000Y-114310000I0J50000D01*
G01*
G37*
G36*
G01*
X114000000Y-113110000D02*
X114000000Y-111910000D01*
G75*
G02*
X114050000Y-111860000I50000J0D01*
G01*
X115250000Y-111860000D01*
G75*
G02*
X115300000Y-111910000I0J-50000D01*
G01*
X115300000Y-113110000D01*
G75*
G02*
X115250000Y-113160000I-50000J0D01*
G01*
X114050000Y-113160000D01*
G75*
G02*
X114000000Y-113110000I0J50000D01*
G01*
G37*
G36*
G01*
X114000000Y-111910000D02*
X114000000Y-110710000D01*
G75*
G02*
X114050000Y-110660000I50000J0D01*
G01*
X115250000Y-110660000D01*
G75*
G02*
X115300000Y-110710000I0J-50000D01*
G01*
X115300000Y-111910000D01*
G75*
G02*
X115250000Y-111960000I-50000J0D01*
G01*
X114050000Y-111960000D01*
G75*
G02*
X114000000Y-111910000I0J50000D01*
G01*
G37*
G36*
G01*
X114000000Y-110710000D02*
X114000000Y-109510000D01*
G75*
G02*
X114050000Y-109460000I50000J0D01*
G01*
X115250000Y-109460000D01*
G75*
G02*
X115300000Y-109510000I0J-50000D01*
G01*
X115300000Y-110710000D01*
G75*
G02*
X115250000Y-110760000I-50000J0D01*
G01*
X114050000Y-110760000D01*
G75*
G02*
X114000000Y-110710000I0J50000D01*
G01*
G37*
G36*
G01*
X115200000Y-116710000D02*
X115200000Y-115510000D01*
G75*
G02*
X115250000Y-115460000I50000J0D01*
G01*
X116450000Y-115460000D01*
G75*
G02*
X116500000Y-115510000I0J-50000D01*
G01*
X116500000Y-116710000D01*
G75*
G02*
X116450000Y-116760000I-50000J0D01*
G01*
X115250000Y-116760000D01*
G75*
G02*
X115200000Y-116710000I0J50000D01*
G01*
G37*
G36*
G01*
X115200000Y-115510000D02*
X115200000Y-114310000D01*
G75*
G02*
X115250000Y-114260000I50000J0D01*
G01*
X116450000Y-114260000D01*
G75*
G02*
X116500000Y-114310000I0J-50000D01*
G01*
X116500000Y-115510000D01*
G75*
G02*
X116450000Y-115560000I-50000J0D01*
G01*
X115250000Y-115560000D01*
G75*
G02*
X115200000Y-115510000I0J50000D01*
G01*
G37*
G36*
G01*
X115200000Y-114310000D02*
X115200000Y-113110000D01*
G75*
G02*
X115250000Y-113060000I50000J0D01*
G01*
X116450000Y-113060000D01*
G75*
G02*
X116500000Y-113110000I0J-50000D01*
G01*
X116500000Y-114310000D01*
G75*
G02*
X116450000Y-114360000I-50000J0D01*
G01*
X115250000Y-114360000D01*
G75*
G02*
X115200000Y-114310000I0J50000D01*
G01*
G37*
G36*
G01*
X115200000Y-113110000D02*
X115200000Y-111910000D01*
G75*
G02*
X115250000Y-111860000I50000J0D01*
G01*
X116450000Y-111860000D01*
G75*
G02*
X116500000Y-111910000I0J-50000D01*
G01*
X116500000Y-113110000D01*
G75*
G02*
X116450000Y-113160000I-50000J0D01*
G01*
X115250000Y-113160000D01*
G75*
G02*
X115200000Y-113110000I0J50000D01*
G01*
G37*
G36*
G01*
X115200000Y-111910000D02*
X115200000Y-110710000D01*
G75*
G02*
X115250000Y-110660000I50000J0D01*
G01*
X116450000Y-110660000D01*
G75*
G02*
X116500000Y-110710000I0J-50000D01*
G01*
X116500000Y-111910000D01*
G75*
G02*
X116450000Y-111960000I-50000J0D01*
G01*
X115250000Y-111960000D01*
G75*
G02*
X115200000Y-111910000I0J50000D01*
G01*
G37*
G36*
G01*
X115200000Y-110710000D02*
X115200000Y-109510000D01*
G75*
G02*
X115250000Y-109460000I50000J0D01*
G01*
X116450000Y-109460000D01*
G75*
G02*
X116500000Y-109510000I0J-50000D01*
G01*
X116500000Y-110710000D01*
G75*
G02*
X116450000Y-110760000I-50000J0D01*
G01*
X115250000Y-110760000D01*
G75*
G02*
X115200000Y-110710000I0J50000D01*
G01*
G37*
G36*
G01*
X116400000Y-116710000D02*
X116400000Y-115510000D01*
G75*
G02*
X116450000Y-115460000I50000J0D01*
G01*
X117650000Y-115460000D01*
G75*
G02*
X117700000Y-115510000I0J-50000D01*
G01*
X117700000Y-116710000D01*
G75*
G02*
X117650000Y-116760000I-50000J0D01*
G01*
X116450000Y-116760000D01*
G75*
G02*
X116400000Y-116710000I0J50000D01*
G01*
G37*
G36*
G01*
X116400000Y-115510000D02*
X116400000Y-114310000D01*
G75*
G02*
X116450000Y-114260000I50000J0D01*
G01*
X117650000Y-114260000D01*
G75*
G02*
X117700000Y-114310000I0J-50000D01*
G01*
X117700000Y-115510000D01*
G75*
G02*
X117650000Y-115560000I-50000J0D01*
G01*
X116450000Y-115560000D01*
G75*
G02*
X116400000Y-115510000I0J50000D01*
G01*
G37*
G36*
G01*
X116400000Y-114310000D02*
X116400000Y-113110000D01*
G75*
G02*
X116450000Y-113060000I50000J0D01*
G01*
X117650000Y-113060000D01*
G75*
G02*
X117700000Y-113110000I0J-50000D01*
G01*
X117700000Y-114310000D01*
G75*
G02*
X117650000Y-114360000I-50000J0D01*
G01*
X116450000Y-114360000D01*
G75*
G02*
X116400000Y-114310000I0J50000D01*
G01*
G37*
G36*
G01*
X116400000Y-113110000D02*
X116400000Y-111910000D01*
G75*
G02*
X116450000Y-111860000I50000J0D01*
G01*
X117650000Y-111860000D01*
G75*
G02*
X117700000Y-111910000I0J-50000D01*
G01*
X117700000Y-113110000D01*
G75*
G02*
X117650000Y-113160000I-50000J0D01*
G01*
X116450000Y-113160000D01*
G75*
G02*
X116400000Y-113110000I0J50000D01*
G01*
G37*
G36*
G01*
X116400000Y-111910000D02*
X116400000Y-110710000D01*
G75*
G02*
X116450000Y-110660000I50000J0D01*
G01*
X117650000Y-110660000D01*
G75*
G02*
X117700000Y-110710000I0J-50000D01*
G01*
X117700000Y-111910000D01*
G75*
G02*
X117650000Y-111960000I-50000J0D01*
G01*
X116450000Y-111960000D01*
G75*
G02*
X116400000Y-111910000I0J50000D01*
G01*
G37*
G36*
G01*
X116400000Y-110710000D02*
X116400000Y-109510000D01*
G75*
G02*
X116450000Y-109460000I50000J0D01*
G01*
X117650000Y-109460000D01*
G75*
G02*
X117700000Y-109510000I0J-50000D01*
G01*
X117700000Y-110710000D01*
G75*
G02*
X117650000Y-110760000I-50000J0D01*
G01*
X116450000Y-110760000D01*
G75*
G02*
X116400000Y-110710000I0J50000D01*
G01*
G37*
G36*
G01*
X117600000Y-116710000D02*
X117600000Y-115510000D01*
G75*
G02*
X117650000Y-115460000I50000J0D01*
G01*
X118850000Y-115460000D01*
G75*
G02*
X118900000Y-115510000I0J-50000D01*
G01*
X118900000Y-116710000D01*
G75*
G02*
X118850000Y-116760000I-50000J0D01*
G01*
X117650000Y-116760000D01*
G75*
G02*
X117600000Y-116710000I0J50000D01*
G01*
G37*
G36*
G01*
X117600000Y-115510000D02*
X117600000Y-114310000D01*
G75*
G02*
X117650000Y-114260000I50000J0D01*
G01*
X118850000Y-114260000D01*
G75*
G02*
X118900000Y-114310000I0J-50000D01*
G01*
X118900000Y-115510000D01*
G75*
G02*
X118850000Y-115560000I-50000J0D01*
G01*
X117650000Y-115560000D01*
G75*
G02*
X117600000Y-115510000I0J50000D01*
G01*
G37*
G36*
G01*
X117600000Y-114310000D02*
X117600000Y-113110000D01*
G75*
G02*
X117650000Y-113060000I50000J0D01*
G01*
X118850000Y-113060000D01*
G75*
G02*
X118900000Y-113110000I0J-50000D01*
G01*
X118900000Y-114310000D01*
G75*
G02*
X118850000Y-114360000I-50000J0D01*
G01*
X117650000Y-114360000D01*
G75*
G02*
X117600000Y-114310000I0J50000D01*
G01*
G37*
G36*
G01*
X117600000Y-113110000D02*
X117600000Y-111910000D01*
G75*
G02*
X117650000Y-111860000I50000J0D01*
G01*
X118850000Y-111860000D01*
G75*
G02*
X118900000Y-111910000I0J-50000D01*
G01*
X118900000Y-113110000D01*
G75*
G02*
X118850000Y-113160000I-50000J0D01*
G01*
X117650000Y-113160000D01*
G75*
G02*
X117600000Y-113110000I0J50000D01*
G01*
G37*
G36*
G01*
X117600000Y-111910000D02*
X117600000Y-110710000D01*
G75*
G02*
X117650000Y-110660000I50000J0D01*
G01*
X118850000Y-110660000D01*
G75*
G02*
X118900000Y-110710000I0J-50000D01*
G01*
X118900000Y-111910000D01*
G75*
G02*
X118850000Y-111960000I-50000J0D01*
G01*
X117650000Y-111960000D01*
G75*
G02*
X117600000Y-111910000I0J50000D01*
G01*
G37*
G36*
G01*
X117600000Y-110710000D02*
X117600000Y-109510000D01*
G75*
G02*
X117650000Y-109460000I50000J0D01*
G01*
X118850000Y-109460000D01*
G75*
G02*
X118900000Y-109510000I0J-50000D01*
G01*
X118900000Y-110710000D01*
G75*
G02*
X118850000Y-110760000I-50000J0D01*
G01*
X117650000Y-110760000D01*
G75*
G02*
X117600000Y-110710000I0J50000D01*
G01*
G37*
G36*
G01*
X118800000Y-116710000D02*
X118800000Y-115510000D01*
G75*
G02*
X118850000Y-115460000I50000J0D01*
G01*
X120050000Y-115460000D01*
G75*
G02*
X120100000Y-115510000I0J-50000D01*
G01*
X120100000Y-116710000D01*
G75*
G02*
X120050000Y-116760000I-50000J0D01*
G01*
X118850000Y-116760000D01*
G75*
G02*
X118800000Y-116710000I0J50000D01*
G01*
G37*
G36*
G01*
X118800000Y-115510000D02*
X118800000Y-114310000D01*
G75*
G02*
X118850000Y-114260000I50000J0D01*
G01*
X120050000Y-114260000D01*
G75*
G02*
X120100000Y-114310000I0J-50000D01*
G01*
X120100000Y-115510000D01*
G75*
G02*
X120050000Y-115560000I-50000J0D01*
G01*
X118850000Y-115560000D01*
G75*
G02*
X118800000Y-115510000I0J50000D01*
G01*
G37*
G36*
G01*
X118800000Y-114310000D02*
X118800000Y-113110000D01*
G75*
G02*
X118850000Y-113060000I50000J0D01*
G01*
X120050000Y-113060000D01*
G75*
G02*
X120100000Y-113110000I0J-50000D01*
G01*
X120100000Y-114310000D01*
G75*
G02*
X120050000Y-114360000I-50000J0D01*
G01*
X118850000Y-114360000D01*
G75*
G02*
X118800000Y-114310000I0J50000D01*
G01*
G37*
G36*
G01*
X118800000Y-113110000D02*
X118800000Y-111910000D01*
G75*
G02*
X118850000Y-111860000I50000J0D01*
G01*
X120050000Y-111860000D01*
G75*
G02*
X120100000Y-111910000I0J-50000D01*
G01*
X120100000Y-113110000D01*
G75*
G02*
X120050000Y-113160000I-50000J0D01*
G01*
X118850000Y-113160000D01*
G75*
G02*
X118800000Y-113110000I0J50000D01*
G01*
G37*
G36*
G01*
X118800000Y-111910000D02*
X118800000Y-110710000D01*
G75*
G02*
X118850000Y-110660000I50000J0D01*
G01*
X120050000Y-110660000D01*
G75*
G02*
X120100000Y-110710000I0J-50000D01*
G01*
X120100000Y-111910000D01*
G75*
G02*
X120050000Y-111960000I-50000J0D01*
G01*
X118850000Y-111960000D01*
G75*
G02*
X118800000Y-111910000I0J50000D01*
G01*
G37*
D15*
X112105000Y-109360000D03*
X112105000Y-109860000D03*
X112105000Y-110360000D03*
X112105000Y-110860000D03*
X112105000Y-111360000D03*
X112105000Y-111860000D03*
X112105000Y-112360000D03*
X112105000Y-112860000D03*
X112105000Y-113360000D03*
X112105000Y-113860000D03*
X112105000Y-114360000D03*
X112105000Y-114860000D03*
X112105000Y-115360000D03*
X112105000Y-115860000D03*
X112105000Y-116360000D03*
X112105000Y-116860000D03*
X120795000Y-109360000D03*
X120795000Y-109860000D03*
X120795000Y-110360000D03*
X120795000Y-110860000D03*
X120795000Y-111360000D03*
X120795000Y-111860000D03*
X120795000Y-112360000D03*
X120795000Y-112860000D03*
X120795000Y-113360000D03*
X120795000Y-113860000D03*
X120795000Y-114360000D03*
X120795000Y-114860000D03*
X120795000Y-115360000D03*
X120795000Y-115860000D03*
X120795000Y-116360000D03*
X120795000Y-116860000D03*
D16*
X120200000Y-108765000D03*
X120200000Y-117455000D03*
X119700000Y-108765000D03*
X119700000Y-117455000D03*
X119200000Y-108765000D03*
X119200000Y-117455000D03*
X118700000Y-108765000D03*
X118700000Y-117455000D03*
X118200000Y-108765000D03*
X118200000Y-117455000D03*
X117700000Y-108765000D03*
X117700000Y-117455000D03*
X117200000Y-108765000D03*
X117200000Y-117455000D03*
X116700000Y-108765000D03*
X116700000Y-117455000D03*
X116200000Y-108765000D03*
X116200000Y-117455000D03*
X115700000Y-108765000D03*
X115700000Y-117455000D03*
X115200000Y-108765000D03*
X115200000Y-117455000D03*
X114700000Y-108765000D03*
X114700000Y-117455000D03*
X114200000Y-108765000D03*
X114200000Y-117455000D03*
X113700000Y-108765000D03*
X113700000Y-117455000D03*
X113200000Y-108765000D03*
X113200000Y-117455000D03*
X112700000Y-108765000D03*
X112700000Y-117455000D03*
G36*
G01*
X118800000Y-110710000D02*
X118800000Y-109510000D01*
G75*
G02*
X118850000Y-109460000I50000J0D01*
G01*
X120050000Y-109460000D01*
G75*
G02*
X120100000Y-109510000I0J-50000D01*
G01*
X120100000Y-110710000D01*
G75*
G02*
X120050000Y-110760000I-50000J0D01*
G01*
X118850000Y-110760000D01*
G75*
G02*
X118800000Y-110710000I0J50000D01*
G01*
G37*
%TD*%
D17*
%TO.C,U4*%
X160240000Y-80100000D03*
X160240000Y-81200000D03*
X160240000Y-82300000D03*
X160240000Y-83400000D03*
X160240000Y-84500000D03*
X169440000Y-80100000D03*
X169440000Y-81200000D03*
X169440000Y-82300000D03*
X169440000Y-83400000D03*
X169440000Y-84500000D03*
X160240000Y-85600000D03*
X160240000Y-86700000D03*
X160240000Y-87800000D03*
X160240000Y-88900000D03*
X169440000Y-87800000D03*
X169440000Y-88900000D03*
X169440000Y-85600000D03*
X169440000Y-86700000D03*
%TD*%
%TO.C,X1*%
G36*
G01*
X117130000Y-103510000D02*
X117130000Y-105910000D01*
G75*
G02*
X117030000Y-106010000I-100000J0D01*
G01*
X115130000Y-106010000D01*
G75*
G02*
X115030000Y-105910000I0J100000D01*
G01*
X115030000Y-103510000D01*
G75*
G02*
X115130000Y-103410000I100000J0D01*
G01*
X117030000Y-103410000D01*
G75*
G02*
X117130000Y-103510000I0J-100000D01*
G01*
G37*
G36*
G01*
X113030001Y-103510000D02*
X113030001Y-105910000D01*
G75*
G02*
X112930001Y-106010000I-100000J0D01*
G01*
X111030001Y-106010000D01*
G75*
G02*
X110930001Y-105910000I0J100000D01*
G01*
X110930001Y-103510000D01*
G75*
G02*
X111030001Y-103410000I100000J0D01*
G01*
X112930001Y-103410000D01*
G75*
G02*
X113030001Y-103510000I0J-100000D01*
G01*
G37*
%TD*%
%TO.C,C39*%
G36*
G01*
X154880000Y-88940000D02*
X155880000Y-88940000D01*
G75*
G02*
X155890000Y-88950000I0J-10000D01*
G01*
X155890000Y-89550000D01*
G75*
G02*
X155880000Y-89560000I-10000J0D01*
G01*
X154880000Y-89560000D01*
G75*
G02*
X154870000Y-89550000I0J10000D01*
G01*
X154870000Y-88950000D01*
G75*
G02*
X154880000Y-88940000I10000J0D01*
G01*
G37*
G36*
G01*
X154880000Y-87540000D02*
X155880000Y-87540000D01*
G75*
G02*
X155890000Y-87550000I0J-10000D01*
G01*
X155890000Y-88150000D01*
G75*
G02*
X155880000Y-88160000I-10000J0D01*
G01*
X154880000Y-88160000D01*
G75*
G02*
X154870000Y-88150000I0J10000D01*
G01*
X154870000Y-87550000D01*
G75*
G02*
X154880000Y-87540000I10000J0D01*
G01*
G37*
%TD*%
%TO.C,C40*%
G36*
G01*
X153490000Y-88940000D02*
X154490000Y-88940000D01*
G75*
G02*
X154500000Y-88950000I0J-10000D01*
G01*
X154500000Y-89550000D01*
G75*
G02*
X154490000Y-89560000I-10000J0D01*
G01*
X153490000Y-89560000D01*
G75*
G02*
X153480000Y-89550000I0J10000D01*
G01*
X153480000Y-88950000D01*
G75*
G02*
X153490000Y-88940000I10000J0D01*
G01*
G37*
G36*
G01*
X153490000Y-87540000D02*
X154490000Y-87540000D01*
G75*
G02*
X154500000Y-87550000I0J-10000D01*
G01*
X154500000Y-88150000D01*
G75*
G02*
X154490000Y-88160000I-10000J0D01*
G01*
X153490000Y-88160000D01*
G75*
G02*
X153480000Y-88150000I0J10000D01*
G01*
X153480000Y-87550000D01*
G75*
G02*
X153490000Y-87540000I10000J0D01*
G01*
G37*
%TD*%
%TO.C,C41*%
G36*
G01*
X155810000Y-79610000D02*
X154810000Y-79610000D01*
G75*
G02*
X154800000Y-79600000I0J10000D01*
G01*
X154800000Y-79000000D01*
G75*
G02*
X154810000Y-78990000I10000J0D01*
G01*
X155810000Y-78990000D01*
G75*
G02*
X155820000Y-79000000I0J-10000D01*
G01*
X155820000Y-79600000D01*
G75*
G02*
X155810000Y-79610000I-10000J0D01*
G01*
G37*
G36*
G01*
X155810000Y-78210000D02*
X154810000Y-78210000D01*
G75*
G02*
X154800000Y-78200000I0J10000D01*
G01*
X154800000Y-77600000D01*
G75*
G02*
X154810000Y-77590000I10000J0D01*
G01*
X155810000Y-77590000D01*
G75*
G02*
X155820000Y-77600000I0J-10000D01*
G01*
X155820000Y-78200000D01*
G75*
G02*
X155810000Y-78210000I-10000J0D01*
G01*
G37*
%TD*%
%TO.C,C42*%
G36*
G01*
X154420000Y-79610000D02*
X153420000Y-79610000D01*
G75*
G02*
X153410000Y-79600000I0J10000D01*
G01*
X153410000Y-79000000D01*
G75*
G02*
X153420000Y-78990000I10000J0D01*
G01*
X154420000Y-78990000D01*
G75*
G02*
X154430000Y-79000000I0J-10000D01*
G01*
X154430000Y-79600000D01*
G75*
G02*
X154420000Y-79610000I-10000J0D01*
G01*
G37*
G36*
G01*
X154420000Y-78210000D02*
X153420000Y-78210000D01*
G75*
G02*
X153410000Y-78200000I0J10000D01*
G01*
X153410000Y-77600000D01*
G75*
G02*
X153420000Y-77590000I10000J0D01*
G01*
X154420000Y-77590000D01*
G75*
G02*
X154430000Y-77600000I0J-10000D01*
G01*
X154430000Y-78200000D01*
G75*
G02*
X154420000Y-78210000I-10000J0D01*
G01*
G37*
%TD*%
D18*
%TO.C,U5*%
X157805000Y-80540000D03*
X157155000Y-80540000D03*
X156505000Y-80540000D03*
X155855000Y-80540000D03*
X155205000Y-80540000D03*
X154555000Y-80540000D03*
X153905000Y-80540000D03*
X153905000Y-86340000D03*
X154555000Y-86340000D03*
X155205000Y-86340000D03*
X155855000Y-86340000D03*
X156505000Y-86340000D03*
X157155000Y-86340000D03*
X157805000Y-86340000D03*
%TD*%
%TO.C,C43*%
G36*
G01*
X109587000Y-82416000D02*
X109587000Y-80384000D01*
G75*
G02*
X109637000Y-80334000I50000J0D01*
G01*
X111161000Y-80334000D01*
G75*
G02*
X111211000Y-80384000I0J-50000D01*
G01*
X111211000Y-82416000D01*
G75*
G02*
X111161000Y-82466000I-50000J0D01*
G01*
X109637000Y-82466000D01*
G75*
G02*
X109587000Y-82416000I0J50000D01*
G01*
G37*
G36*
G01*
X112889000Y-82416000D02*
X112889000Y-80384000D01*
G75*
G02*
X112939000Y-80334000I50000J0D01*
G01*
X114463000Y-80334000D01*
G75*
G02*
X114513000Y-80384000I0J-50000D01*
G01*
X114513000Y-82416000D01*
G75*
G02*
X114463000Y-82466000I-50000J0D01*
G01*
X112939000Y-82466000D01*
G75*
G02*
X112889000Y-82416000I0J50000D01*
G01*
G37*
%TD*%
%TO.C,L6*%
G36*
G01*
X122650000Y-106550000D02*
X122050000Y-106550000D01*
G75*
G02*
X122020000Y-106520000I0J30000D01*
G01*
X122020000Y-106120000D01*
G75*
G02*
X122050000Y-106090000I30000J0D01*
G01*
X122650000Y-106090000D01*
G75*
G02*
X122680000Y-106120000I0J-30000D01*
G01*
X122680000Y-106520000D01*
G75*
G02*
X122650000Y-106550000I-30000J0D01*
G01*
G37*
G36*
G01*
X122650000Y-107450000D02*
X122050000Y-107450000D01*
G75*
G02*
X122020000Y-107420000I0J30000D01*
G01*
X122020000Y-107020000D01*
G75*
G02*
X122050000Y-106990000I30000J0D01*
G01*
X122650000Y-106990000D01*
G75*
G02*
X122680000Y-107020000I0J-30000D01*
G01*
X122680000Y-107420000D01*
G75*
G02*
X122650000Y-107450000I-30000J0D01*
G01*
G37*
%TD*%
%TO.C,C50*%
G36*
G01*
X104507000Y-116546000D02*
X104507000Y-114514000D01*
G75*
G02*
X104557000Y-114464000I50000J0D01*
G01*
X106081000Y-114464000D01*
G75*
G02*
X106131000Y-114514000I0J-50000D01*
G01*
X106131000Y-116546000D01*
G75*
G02*
X106081000Y-116596000I-50000J0D01*
G01*
X104557000Y-116596000D01*
G75*
G02*
X104507000Y-116546000I0J50000D01*
G01*
G37*
G36*
G01*
X107809000Y-116546000D02*
X107809000Y-114514000D01*
G75*
G02*
X107859000Y-114464000I50000J0D01*
G01*
X109383000Y-114464000D01*
G75*
G02*
X109433000Y-114514000I0J-50000D01*
G01*
X109433000Y-116546000D01*
G75*
G02*
X109383000Y-116596000I-50000J0D01*
G01*
X107859000Y-116596000D01*
G75*
G02*
X107809000Y-116546000I0J50000D01*
G01*
G37*
%TD*%
%TO.C,C52*%
G36*
G01*
X123020000Y-119260000D02*
X122020000Y-119260000D01*
G75*
G02*
X122010000Y-119250000I0J10000D01*
G01*
X122010000Y-118650000D01*
G75*
G02*
X122020000Y-118640000I10000J0D01*
G01*
X123020000Y-118640000D01*
G75*
G02*
X123030000Y-118650000I0J-10000D01*
G01*
X123030000Y-119250000D01*
G75*
G02*
X123020000Y-119260000I-10000J0D01*
G01*
G37*
G36*
G01*
X123020000Y-117860000D02*
X122020000Y-117860000D01*
G75*
G02*
X122010000Y-117850000I0J10000D01*
G01*
X122010000Y-117250000D01*
G75*
G02*
X122020000Y-117240000I10000J0D01*
G01*
X123020000Y-117240000D01*
G75*
G02*
X123030000Y-117250000I0J-10000D01*
G01*
X123030000Y-117850000D01*
G75*
G02*
X123020000Y-117860000I-10000J0D01*
G01*
G37*
%TD*%
%TO.C,Con3*%
G36*
G01*
X108564540Y-106126720D02*
X109264540Y-106126720D01*
G75*
G02*
X109314540Y-106176720I0J-50000D01*
G01*
X109314540Y-106526720D01*
G75*
G02*
X109264540Y-106576720I-50000J0D01*
G01*
X108564540Y-106576720D01*
G75*
G02*
X108514540Y-106526720I0J50000D01*
G01*
X108514540Y-106176720D01*
G75*
G02*
X108564540Y-106126720I50000J0D01*
G01*
G37*
G36*
G01*
X108564540Y-106627100D02*
X109264540Y-106627100D01*
G75*
G02*
X109314540Y-106677100I0J-50000D01*
G01*
X109314540Y-107027100D01*
G75*
G02*
X109264540Y-107077100I-50000J0D01*
G01*
X108564540Y-107077100D01*
G75*
G02*
X108514540Y-107027100I0J50000D01*
G01*
X108514540Y-106677100D01*
G75*
G02*
X108564540Y-106627100I50000J0D01*
G01*
G37*
G36*
G01*
X108564540Y-107127480D02*
X109264540Y-107127480D01*
G75*
G02*
X109314540Y-107177480I0J-50000D01*
G01*
X109314540Y-107527480D01*
G75*
G02*
X109264540Y-107577480I-50000J0D01*
G01*
X108564540Y-107577480D01*
G75*
G02*
X108514540Y-107527480I0J50000D01*
G01*
X108514540Y-107177480D01*
G75*
G02*
X108564540Y-107127480I50000J0D01*
G01*
G37*
G36*
G01*
X108564540Y-107625320D02*
X109264540Y-107625320D01*
G75*
G02*
X109314540Y-107675320I0J-50000D01*
G01*
X109314540Y-108025320D01*
G75*
G02*
X109264540Y-108075320I-50000J0D01*
G01*
X108564540Y-108075320D01*
G75*
G02*
X108514540Y-108025320I0J50000D01*
G01*
X108514540Y-107675320D01*
G75*
G02*
X108564540Y-107625320I50000J0D01*
G01*
G37*
G36*
G01*
X108564540Y-108125700D02*
X109264540Y-108125700D01*
G75*
G02*
X109314540Y-108175700I0J-50000D01*
G01*
X109314540Y-108525700D01*
G75*
G02*
X109264540Y-108575700I-50000J0D01*
G01*
X108564540Y-108575700D01*
G75*
G02*
X108514540Y-108525700I0J50000D01*
G01*
X108514540Y-108175700D01*
G75*
G02*
X108564540Y-108125700I50000J0D01*
G01*
G37*
G36*
G01*
X108564540Y-108626080D02*
X109264540Y-108626080D01*
G75*
G02*
X109314540Y-108676080I0J-50000D01*
G01*
X109314540Y-109026080D01*
G75*
G02*
X109264540Y-109076080I-50000J0D01*
G01*
X108564540Y-109076080D01*
G75*
G02*
X108514540Y-109026080I0J50000D01*
G01*
X108514540Y-108676080D01*
G75*
G02*
X108564540Y-108626080I50000J0D01*
G01*
G37*
G36*
G01*
X108564540Y-109123920D02*
X109264540Y-109123920D01*
G75*
G02*
X109314540Y-109173920I0J-50000D01*
G01*
X109314540Y-109523920D01*
G75*
G02*
X109264540Y-109573920I-50000J0D01*
G01*
X108564540Y-109573920D01*
G75*
G02*
X108514540Y-109523920I0J50000D01*
G01*
X108514540Y-109173920D01*
G75*
G02*
X108564540Y-109123920I50000J0D01*
G01*
G37*
G36*
G01*
X108564540Y-109624300D02*
X109264540Y-109624300D01*
G75*
G02*
X109314540Y-109674300I0J-50000D01*
G01*
X109314540Y-110024300D01*
G75*
G02*
X109264540Y-110074300I-50000J0D01*
G01*
X108564540Y-110074300D01*
G75*
G02*
X108514540Y-110024300I0J50000D01*
G01*
X108514540Y-109674300D01*
G75*
G02*
X108564540Y-109624300I50000J0D01*
G01*
G37*
G36*
G01*
X108564540Y-110124680D02*
X109264540Y-110124680D01*
G75*
G02*
X109314540Y-110174680I0J-50000D01*
G01*
X109314540Y-110524680D01*
G75*
G02*
X109264540Y-110574680I-50000J0D01*
G01*
X108564540Y-110574680D01*
G75*
G02*
X108514540Y-110524680I0J50000D01*
G01*
X108514540Y-110174680D01*
G75*
G02*
X108564540Y-110124680I50000J0D01*
G01*
G37*
G36*
G01*
X108564540Y-110622520D02*
X109264540Y-110622520D01*
G75*
G02*
X109314540Y-110672520I0J-50000D01*
G01*
X109314540Y-111022520D01*
G75*
G02*
X109264540Y-111072520I-50000J0D01*
G01*
X108564540Y-111072520D01*
G75*
G02*
X108514540Y-111022520I0J50000D01*
G01*
X108514540Y-110672520D01*
G75*
G02*
X108564540Y-110622520I50000J0D01*
G01*
G37*
G36*
G01*
X108564540Y-111122900D02*
X109264540Y-111122900D01*
G75*
G02*
X109314540Y-111172900I0J-50000D01*
G01*
X109314540Y-111522900D01*
G75*
G02*
X109264540Y-111572900I-50000J0D01*
G01*
X108564540Y-111572900D01*
G75*
G02*
X108514540Y-111522900I0J50000D01*
G01*
X108514540Y-111172900D01*
G75*
G02*
X108564540Y-111122900I50000J0D01*
G01*
G37*
G36*
G01*
X108564540Y-111623280D02*
X109264540Y-111623280D01*
G75*
G02*
X109314540Y-111673280I0J-50000D01*
G01*
X109314540Y-112023280D01*
G75*
G02*
X109264540Y-112073280I-50000J0D01*
G01*
X108564540Y-112073280D01*
G75*
G02*
X108514540Y-112023280I0J50000D01*
G01*
X108514540Y-111673280D01*
G75*
G02*
X108564540Y-111623280I50000J0D01*
G01*
G37*
D19*
X107804560Y-112148000D03*
D20*
X107103520Y-111497760D03*
X107103520Y-110697660D03*
X107804560Y-110298880D03*
X107103520Y-109897560D03*
X107804560Y-109498780D03*
X107804560Y-108701220D03*
X107103520Y-108302440D03*
X107804560Y-107901120D03*
X107103520Y-107502340D03*
X107103520Y-106702240D03*
D19*
X107804560Y-106052000D03*
D21*
X108604660Y-104601660D03*
X108604660Y-113598340D03*
X103105560Y-103026860D03*
X103105560Y-115173140D03*
D20*
X107103520Y-105376360D03*
X107103520Y-112823640D03*
%TD*%
%TO.C,R28*%
G36*
G01*
X110280000Y-109850000D02*
X110280000Y-110450000D01*
G75*
G02*
X110250000Y-110480000I-30000J0D01*
G01*
X109850000Y-110480000D01*
G75*
G02*
X109820000Y-110450000I0J30000D01*
G01*
X109820000Y-109850000D01*
G75*
G02*
X109850000Y-109820000I30000J0D01*
G01*
X110250000Y-109820000D01*
G75*
G02*
X110280000Y-109850000I0J-30000D01*
G01*
G37*
G36*
G01*
X111180000Y-109850000D02*
X111180000Y-110450000D01*
G75*
G02*
X111150000Y-110480000I-30000J0D01*
G01*
X110750000Y-110480000D01*
G75*
G02*
X110720000Y-110450000I0J30000D01*
G01*
X110720000Y-109850000D01*
G75*
G02*
X110750000Y-109820000I30000J0D01*
G01*
X111150000Y-109820000D01*
G75*
G02*
X111180000Y-109850000I0J-30000D01*
G01*
G37*
%TD*%
%TO.C,R29*%
G36*
G01*
X110280000Y-108420000D02*
X110280000Y-109020000D01*
G75*
G02*
X110250000Y-109050000I-30000J0D01*
G01*
X109850000Y-109050000D01*
G75*
G02*
X109820000Y-109020000I0J30000D01*
G01*
X109820000Y-108420000D01*
G75*
G02*
X109850000Y-108390000I30000J0D01*
G01*
X110250000Y-108390000D01*
G75*
G02*
X110280000Y-108420000I0J-30000D01*
G01*
G37*
G36*
G01*
X111180000Y-108420000D02*
X111180000Y-109020000D01*
G75*
G02*
X111150000Y-109050000I-30000J0D01*
G01*
X110750000Y-109050000D01*
G75*
G02*
X110720000Y-109020000I0J30000D01*
G01*
X110720000Y-108420000D01*
G75*
G02*
X110750000Y-108390000I30000J0D01*
G01*
X111150000Y-108390000D01*
G75*
G02*
X111180000Y-108420000I0J-30000D01*
G01*
G37*
%TD*%
%TO.C,R30*%
G36*
G01*
X160970000Y-91500000D02*
X160370000Y-91500000D01*
G75*
G02*
X160340000Y-91470000I0J30000D01*
G01*
X160340000Y-91070000D01*
G75*
G02*
X160370000Y-91040000I30000J0D01*
G01*
X160970000Y-91040000D01*
G75*
G02*
X161000000Y-91070000I0J-30000D01*
G01*
X161000000Y-91470000D01*
G75*
G02*
X160970000Y-91500000I-30000J0D01*
G01*
G37*
G36*
G01*
X160970000Y-90600000D02*
X160370000Y-90600000D01*
G75*
G02*
X160340000Y-90570000I0J30000D01*
G01*
X160340000Y-90170000D01*
G75*
G02*
X160370000Y-90140000I30000J0D01*
G01*
X160970000Y-90140000D01*
G75*
G02*
X161000000Y-90170000I0J-30000D01*
G01*
X161000000Y-90570000D01*
G75*
G02*
X160970000Y-90600000I-30000J0D01*
G01*
G37*
%TD*%
%TO.C,R31*%
G36*
G01*
X162140000Y-91500000D02*
X161540000Y-91500000D01*
G75*
G02*
X161510000Y-91470000I0J30000D01*
G01*
X161510000Y-91070000D01*
G75*
G02*
X161540000Y-91040000I30000J0D01*
G01*
X162140000Y-91040000D01*
G75*
G02*
X162170000Y-91070000I0J-30000D01*
G01*
X162170000Y-91470000D01*
G75*
G02*
X162140000Y-91500000I-30000J0D01*
G01*
G37*
G36*
G01*
X162140000Y-90600000D02*
X161540000Y-90600000D01*
G75*
G02*
X161510000Y-90570000I0J30000D01*
G01*
X161510000Y-90170000D01*
G75*
G02*
X161540000Y-90140000I30000J0D01*
G01*
X162140000Y-90140000D01*
G75*
G02*
X162170000Y-90170000I0J-30000D01*
G01*
X162170000Y-90570000D01*
G75*
G02*
X162140000Y-90600000I-30000J0D01*
G01*
G37*
%TD*%
%TO.C,U3*%
G36*
G01*
X123585000Y-110760000D02*
X124735000Y-110760000D01*
G75*
G02*
X124745000Y-110770000I0J-10000D01*
G01*
X124745000Y-111470000D01*
G75*
G02*
X124735000Y-111480000I-10000J0D01*
G01*
X123585000Y-111480000D01*
G75*
G02*
X123575000Y-111470000I0J10000D01*
G01*
X123575000Y-110770000D01*
G75*
G02*
X123585000Y-110760000I10000J0D01*
G01*
G37*
G36*
G01*
X123585000Y-111760000D02*
X124735000Y-111760000D01*
G75*
G02*
X124745000Y-111770000I0J-10000D01*
G01*
X124745000Y-112470000D01*
G75*
G02*
X124735000Y-112480000I-10000J0D01*
G01*
X123585000Y-112480000D01*
G75*
G02*
X123575000Y-112470000I0J10000D01*
G01*
X123575000Y-111770000D01*
G75*
G02*
X123585000Y-111760000I10000J0D01*
G01*
G37*
G36*
G01*
X123585000Y-112760000D02*
X124735000Y-112760000D01*
G75*
G02*
X124745000Y-112770000I0J-10000D01*
G01*
X124745000Y-113470000D01*
G75*
G02*
X124735000Y-113480000I-10000J0D01*
G01*
X123585000Y-113480000D01*
G75*
G02*
X123575000Y-113470000I0J10000D01*
G01*
X123575000Y-112770000D01*
G75*
G02*
X123585000Y-112760000I10000J0D01*
G01*
G37*
G36*
G01*
X123585000Y-113760000D02*
X124735000Y-113760000D01*
G75*
G02*
X124745000Y-113770000I0J-10000D01*
G01*
X124745000Y-114470000D01*
G75*
G02*
X124735000Y-114480000I-10000J0D01*
G01*
X123585000Y-114480000D01*
G75*
G02*
X123575000Y-114470000I0J10000D01*
G01*
X123575000Y-113770000D01*
G75*
G02*
X123585000Y-113760000I10000J0D01*
G01*
G37*
G36*
G01*
X123585000Y-114760000D02*
X124735000Y-114760000D01*
G75*
G02*
X124745000Y-114770000I0J-10000D01*
G01*
X124745000Y-115470000D01*
G75*
G02*
X124735000Y-115480000I-10000J0D01*
G01*
X123585000Y-115480000D01*
G75*
G02*
X123575000Y-115470000I0J10000D01*
G01*
X123575000Y-114770000D01*
G75*
G02*
X123585000Y-114760000I10000J0D01*
G01*
G37*
G36*
G01*
X123585000Y-115760000D02*
X124735000Y-115760000D01*
G75*
G02*
X124745000Y-115770000I0J-10000D01*
G01*
X124745000Y-116470000D01*
G75*
G02*
X124735000Y-116480000I-10000J0D01*
G01*
X123585000Y-116480000D01*
G75*
G02*
X123575000Y-116470000I0J10000D01*
G01*
X123575000Y-115770000D01*
G75*
G02*
X123585000Y-115760000I10000J0D01*
G01*
G37*
G36*
G01*
X123585000Y-116760000D02*
X124735000Y-116760000D01*
G75*
G02*
X124745000Y-116770000I0J-10000D01*
G01*
X124745000Y-117470000D01*
G75*
G02*
X124735000Y-117480000I-10000J0D01*
G01*
X123585000Y-117480000D01*
G75*
G02*
X123575000Y-117470000I0J10000D01*
G01*
X123575000Y-116770000D01*
G75*
G02*
X123585000Y-116760000I10000J0D01*
G01*
G37*
G36*
G01*
X123585000Y-117760000D02*
X124735000Y-117760000D01*
G75*
G02*
X124745000Y-117770000I0J-10000D01*
G01*
X124745000Y-118470000D01*
G75*
G02*
X124735000Y-118480000I-10000J0D01*
G01*
X123585000Y-118480000D01*
G75*
G02*
X123575000Y-118470000I0J10000D01*
G01*
X123575000Y-117770000D01*
G75*
G02*
X123585000Y-117760000I10000J0D01*
G01*
G37*
G36*
G01*
X123585000Y-119760000D02*
X124735000Y-119760000D01*
G75*
G02*
X124745000Y-119770000I0J-10000D01*
G01*
X124745000Y-120470000D01*
G75*
G02*
X124735000Y-120480000I-10000J0D01*
G01*
X123585000Y-120480000D01*
G75*
G02*
X123575000Y-120470000I0J10000D01*
G01*
X123575000Y-119770000D01*
G75*
G02*
X123585000Y-119760000I10000J0D01*
G01*
G37*
G36*
G01*
X132585000Y-113760000D02*
X133735000Y-113760000D01*
G75*
G02*
X133745000Y-113770000I0J-10000D01*
G01*
X133745000Y-114470000D01*
G75*
G02*
X133735000Y-114480000I-10000J0D01*
G01*
X132585000Y-114480000D01*
G75*
G02*
X132575000Y-114470000I0J10000D01*
G01*
X132575000Y-113770000D01*
G75*
G02*
X132585000Y-113760000I10000J0D01*
G01*
G37*
G36*
G01*
X132585000Y-111760000D02*
X133735000Y-111760000D01*
G75*
G02*
X133745000Y-111770000I0J-10000D01*
G01*
X133745000Y-112470000D01*
G75*
G02*
X133735000Y-112480000I-10000J0D01*
G01*
X132585000Y-112480000D01*
G75*
G02*
X132575000Y-112470000I0J10000D01*
G01*
X132575000Y-111770000D01*
G75*
G02*
X132585000Y-111760000I10000J0D01*
G01*
G37*
G36*
G01*
X132585000Y-116760000D02*
X133735000Y-116760000D01*
G75*
G02*
X133745000Y-116770000I0J-10000D01*
G01*
X133745000Y-117470000D01*
G75*
G02*
X133735000Y-117480000I-10000J0D01*
G01*
X132585000Y-117480000D01*
G75*
G02*
X132575000Y-117470000I0J10000D01*
G01*
X132575000Y-116770000D01*
G75*
G02*
X132585000Y-116760000I10000J0D01*
G01*
G37*
G36*
G01*
X132585000Y-112760000D02*
X133735000Y-112760000D01*
G75*
G02*
X133745000Y-112770000I0J-10000D01*
G01*
X133745000Y-113470000D01*
G75*
G02*
X133735000Y-113480000I-10000J0D01*
G01*
X132585000Y-113480000D01*
G75*
G02*
X132575000Y-113470000I0J10000D01*
G01*
X132575000Y-112770000D01*
G75*
G02*
X132585000Y-112760000I10000J0D01*
G01*
G37*
G36*
G01*
X132585000Y-110760000D02*
X133735000Y-110760000D01*
G75*
G02*
X133745000Y-110770000I0J-10000D01*
G01*
X133745000Y-111470000D01*
G75*
G02*
X133735000Y-111480000I-10000J0D01*
G01*
X132585000Y-111480000D01*
G75*
G02*
X132575000Y-111470000I0J10000D01*
G01*
X132575000Y-110770000D01*
G75*
G02*
X132585000Y-110760000I10000J0D01*
G01*
G37*
G36*
G01*
X132585000Y-118760000D02*
X133735000Y-118760000D01*
G75*
G02*
X133745000Y-118770000I0J-10000D01*
G01*
X133745000Y-119470000D01*
G75*
G02*
X133735000Y-119480000I-10000J0D01*
G01*
X132585000Y-119480000D01*
G75*
G02*
X132575000Y-119470000I0J10000D01*
G01*
X132575000Y-118770000D01*
G75*
G02*
X132585000Y-118760000I10000J0D01*
G01*
G37*
G36*
G01*
X132585000Y-114760000D02*
X133735000Y-114760000D01*
G75*
G02*
X133745000Y-114770000I0J-10000D01*
G01*
X133745000Y-115470000D01*
G75*
G02*
X133735000Y-115480000I-10000J0D01*
G01*
X132585000Y-115480000D01*
G75*
G02*
X132575000Y-115470000I0J10000D01*
G01*
X132575000Y-114770000D01*
G75*
G02*
X132585000Y-114760000I10000J0D01*
G01*
G37*
G36*
G01*
X132585000Y-115760000D02*
X133735000Y-115760000D01*
G75*
G02*
X133745000Y-115770000I0J-10000D01*
G01*
X133745000Y-116470000D01*
G75*
G02*
X133735000Y-116480000I-10000J0D01*
G01*
X132585000Y-116480000D01*
G75*
G02*
X132575000Y-116470000I0J10000D01*
G01*
X132575000Y-115770000D01*
G75*
G02*
X132585000Y-115760000I10000J0D01*
G01*
G37*
G36*
G01*
X132585000Y-117760000D02*
X133735000Y-117760000D01*
G75*
G02*
X133745000Y-117770000I0J-10000D01*
G01*
X133745000Y-118470000D01*
G75*
G02*
X133735000Y-118480000I-10000J0D01*
G01*
X132585000Y-118480000D01*
G75*
G02*
X132575000Y-118470000I0J10000D01*
G01*
X132575000Y-117770000D01*
G75*
G02*
X132585000Y-117760000I10000J0D01*
G01*
G37*
G36*
G01*
X123585000Y-118760000D02*
X124735000Y-118760000D01*
G75*
G02*
X124745000Y-118770000I0J-10000D01*
G01*
X124745000Y-119470000D01*
G75*
G02*
X124735000Y-119480000I-10000J0D01*
G01*
X123585000Y-119480000D01*
G75*
G02*
X123575000Y-119470000I0J10000D01*
G01*
X123575000Y-118770000D01*
G75*
G02*
X123585000Y-118760000I10000J0D01*
G01*
G37*
G36*
G01*
X132585000Y-119760000D02*
X133735000Y-119760000D01*
G75*
G02*
X133745000Y-119770000I0J-10000D01*
G01*
X133745000Y-120470000D01*
G75*
G02*
X133735000Y-120480000I-10000J0D01*
G01*
X132585000Y-120480000D01*
G75*
G02*
X132575000Y-120470000I0J10000D01*
G01*
X132575000Y-119770000D01*
G75*
G02*
X132585000Y-119760000I10000J0D01*
G01*
G37*
G36*
G01*
X126300000Y-111395000D02*
X126300000Y-110245000D01*
G75*
G02*
X126310000Y-110235000I10000J0D01*
G01*
X127010000Y-110235000D01*
G75*
G02*
X127020000Y-110245000I0J-10000D01*
G01*
X127020000Y-111395000D01*
G75*
G02*
X127010000Y-111405000I-10000J0D01*
G01*
X126310000Y-111405000D01*
G75*
G02*
X126300000Y-111395000I0J10000D01*
G01*
G37*
G36*
G01*
X127300000Y-111395000D02*
X127300000Y-110245000D01*
G75*
G02*
X127310000Y-110235000I10000J0D01*
G01*
X128010000Y-110235000D01*
G75*
G02*
X128020000Y-110245000I0J-10000D01*
G01*
X128020000Y-111395000D01*
G75*
G02*
X128010000Y-111405000I-10000J0D01*
G01*
X127310000Y-111405000D01*
G75*
G02*
X127300000Y-111395000I0J10000D01*
G01*
G37*
G36*
G01*
X128300000Y-111395000D02*
X128300000Y-110245000D01*
G75*
G02*
X128310000Y-110235000I10000J0D01*
G01*
X129010000Y-110235000D01*
G75*
G02*
X129020000Y-110245000I0J-10000D01*
G01*
X129020000Y-111395000D01*
G75*
G02*
X129010000Y-111405000I-10000J0D01*
G01*
X128310000Y-111405000D01*
G75*
G02*
X128300000Y-111395000I0J10000D01*
G01*
G37*
G36*
G01*
X129300000Y-111395000D02*
X129300000Y-110245000D01*
G75*
G02*
X129310000Y-110235000I10000J0D01*
G01*
X130010000Y-110235000D01*
G75*
G02*
X130020000Y-110245000I0J-10000D01*
G01*
X130020000Y-111395000D01*
G75*
G02*
X130010000Y-111405000I-10000J0D01*
G01*
X129310000Y-111405000D01*
G75*
G02*
X129300000Y-111395000I0J10000D01*
G01*
G37*
G36*
G01*
X130300000Y-111395000D02*
X130300000Y-110245000D01*
G75*
G02*
X130310000Y-110235000I10000J0D01*
G01*
X131010000Y-110235000D01*
G75*
G02*
X131020000Y-110245000I0J-10000D01*
G01*
X131020000Y-111395000D01*
G75*
G02*
X131010000Y-111405000I-10000J0D01*
G01*
X130310000Y-111405000D01*
G75*
G02*
X130300000Y-111395000I0J10000D01*
G01*
G37*
G36*
G01*
X127620000Y-115280000D02*
X127620000Y-114580000D01*
G75*
G02*
X127630000Y-114570000I10000J0D01*
G01*
X128330000Y-114570000D01*
G75*
G02*
X128340000Y-114580000I0J-10000D01*
G01*
X128340000Y-115280000D01*
G75*
G02*
X128330000Y-115290000I-10000J0D01*
G01*
X127630000Y-115290000D01*
G75*
G02*
X127620000Y-115280000I0J10000D01*
G01*
G37*
G36*
G01*
X128700000Y-115280000D02*
X128700000Y-114580000D01*
G75*
G02*
X128710000Y-114570000I10000J0D01*
G01*
X129410000Y-114570000D01*
G75*
G02*
X129420000Y-114580000I0J-10000D01*
G01*
X129420000Y-115280000D01*
G75*
G02*
X129410000Y-115290000I-10000J0D01*
G01*
X128710000Y-115290000D01*
G75*
G02*
X128700000Y-115280000I0J10000D01*
G01*
G37*
G36*
G01*
X127620000Y-117440000D02*
X127620000Y-116740000D01*
G75*
G02*
X127630000Y-116730000I10000J0D01*
G01*
X128330000Y-116730000D01*
G75*
G02*
X128340000Y-116740000I0J-10000D01*
G01*
X128340000Y-117440000D01*
G75*
G02*
X128330000Y-117450000I-10000J0D01*
G01*
X127630000Y-117450000D01*
G75*
G02*
X127620000Y-117440000I0J10000D01*
G01*
G37*
G36*
G01*
X128700000Y-117440000D02*
X128700000Y-116740000D01*
G75*
G02*
X128710000Y-116730000I10000J0D01*
G01*
X129410000Y-116730000D01*
G75*
G02*
X129420000Y-116740000I0J-10000D01*
G01*
X129420000Y-117440000D01*
G75*
G02*
X129410000Y-117450000I-10000J0D01*
G01*
X128710000Y-117450000D01*
G75*
G02*
X128700000Y-117440000I0J10000D01*
G01*
G37*
G36*
G01*
X127620000Y-116360000D02*
X127620000Y-115660000D01*
G75*
G02*
X127630000Y-115650000I10000J0D01*
G01*
X128330000Y-115650000D01*
G75*
G02*
X128340000Y-115660000I0J-10000D01*
G01*
X128340000Y-116360000D01*
G75*
G02*
X128330000Y-116370000I-10000J0D01*
G01*
X127630000Y-116370000D01*
G75*
G02*
X127620000Y-116360000I0J10000D01*
G01*
G37*
G36*
G01*
X128700000Y-116360000D02*
X128700000Y-115660000D01*
G75*
G02*
X128710000Y-115650000I10000J0D01*
G01*
X129410000Y-115650000D01*
G75*
G02*
X129420000Y-115660000I0J-10000D01*
G01*
X129420000Y-116360000D01*
G75*
G02*
X129410000Y-116370000I-10000J0D01*
G01*
X128710000Y-116370000D01*
G75*
G02*
X128700000Y-116360000I0J10000D01*
G01*
G37*
G36*
G01*
X129780000Y-117440000D02*
X129780000Y-116740000D01*
G75*
G02*
X129790000Y-116730000I10000J0D01*
G01*
X130490000Y-116730000D01*
G75*
G02*
X130500000Y-116740000I0J-10000D01*
G01*
X130500000Y-117440000D01*
G75*
G02*
X130490000Y-117450000I-10000J0D01*
G01*
X129790000Y-117450000D01*
G75*
G02*
X129780000Y-117440000I0J10000D01*
G01*
G37*
G36*
G01*
X126540000Y-117440000D02*
X126540000Y-116740000D01*
G75*
G02*
X126550000Y-116730000I10000J0D01*
G01*
X127250000Y-116730000D01*
G75*
G02*
X127260000Y-116740000I0J-10000D01*
G01*
X127260000Y-117440000D01*
G75*
G02*
X127250000Y-117450000I-10000J0D01*
G01*
X126550000Y-117450000D01*
G75*
G02*
X126540000Y-117440000I0J10000D01*
G01*
G37*
G36*
G01*
X129780000Y-115280000D02*
X129780000Y-114580000D01*
G75*
G02*
X129790000Y-114570000I10000J0D01*
G01*
X130490000Y-114570000D01*
G75*
G02*
X130500000Y-114580000I0J-10000D01*
G01*
X130500000Y-115280000D01*
G75*
G02*
X130490000Y-115290000I-10000J0D01*
G01*
X129790000Y-115290000D01*
G75*
G02*
X129780000Y-115280000I0J10000D01*
G01*
G37*
G36*
G01*
X126540000Y-115280000D02*
X126540000Y-114580000D01*
G75*
G02*
X126550000Y-114570000I10000J0D01*
G01*
X127250000Y-114570000D01*
G75*
G02*
X127260000Y-114580000I0J-10000D01*
G01*
X127260000Y-115280000D01*
G75*
G02*
X127250000Y-115290000I-10000J0D01*
G01*
X126550000Y-115290000D01*
G75*
G02*
X126540000Y-115280000I0J10000D01*
G01*
G37*
G36*
G01*
X129780000Y-116360000D02*
X129780000Y-115660000D01*
G75*
G02*
X129790000Y-115650000I10000J0D01*
G01*
X130490000Y-115650000D01*
G75*
G02*
X130500000Y-115660000I0J-10000D01*
G01*
X130500000Y-116360000D01*
G75*
G02*
X130490000Y-116370000I-10000J0D01*
G01*
X129790000Y-116370000D01*
G75*
G02*
X129780000Y-116360000I0J10000D01*
G01*
G37*
G36*
G01*
X126540000Y-116360000D02*
X126540000Y-115660000D01*
G75*
G02*
X126550000Y-115650000I10000J0D01*
G01*
X127250000Y-115650000D01*
G75*
G02*
X127260000Y-115660000I0J-10000D01*
G01*
X127260000Y-116360000D01*
G75*
G02*
X127250000Y-116370000I-10000J0D01*
G01*
X126550000Y-116370000D01*
G75*
G02*
X126540000Y-116360000I0J10000D01*
G01*
G37*
%TD*%
%TO.C,C51*%
G36*
G01*
X121651500Y-122968000D02*
X123048500Y-122968000D01*
G75*
G02*
X123058500Y-122978000I0J-10000D01*
G01*
X123058500Y-123867000D01*
G75*
G02*
X123048500Y-123877000I-10000J0D01*
G01*
X121651500Y-123877000D01*
G75*
G02*
X121641500Y-123867000I0J10000D01*
G01*
X121641500Y-122978000D01*
G75*
G02*
X121651500Y-122968000I10000J0D01*
G01*
G37*
G36*
G01*
X121651500Y-121063000D02*
X123048500Y-121063000D01*
G75*
G02*
X123058500Y-121073000I0J-10000D01*
G01*
X123058500Y-121962000D01*
G75*
G02*
X123048500Y-121972000I-10000J0D01*
G01*
X121651500Y-121972000D01*
G75*
G02*
X121641500Y-121962000I0J10000D01*
G01*
X121641500Y-121073000D01*
G75*
G02*
X121651500Y-121063000I10000J0D01*
G01*
G37*
%TD*%
%TO.C,C53*%
G36*
G01*
X116510000Y-74410000D02*
X116510000Y-73810000D01*
G75*
G02*
X116540000Y-73780000I30000J0D01*
G01*
X116940000Y-73780000D01*
G75*
G02*
X116970000Y-73810000I0J-30000D01*
G01*
X116970000Y-74410000D01*
G75*
G02*
X116940000Y-74440000I-30000J0D01*
G01*
X116540000Y-74440000D01*
G75*
G02*
X116510000Y-74410000I0J30000D01*
G01*
G37*
G36*
G01*
X117410000Y-74410000D02*
X117410000Y-73810000D01*
G75*
G02*
X117440000Y-73780000I30000J0D01*
G01*
X117840000Y-73780000D01*
G75*
G02*
X117870000Y-73810000I0J-30000D01*
G01*
X117870000Y-74410000D01*
G75*
G02*
X117840000Y-74440000I-30000J0D01*
G01*
X117440000Y-74440000D01*
G75*
G02*
X117410000Y-74410000I0J30000D01*
G01*
G37*
%TD*%
%TO.C,C54*%
G36*
G01*
X120090000Y-102830000D02*
X120690000Y-102830000D01*
G75*
G02*
X120720000Y-102860000I0J-30000D01*
G01*
X120720000Y-103260000D01*
G75*
G02*
X120690000Y-103290000I-30000J0D01*
G01*
X120090000Y-103290000D01*
G75*
G02*
X120060000Y-103260000I0J30000D01*
G01*
X120060000Y-102860000D01*
G75*
G02*
X120090000Y-102830000I30000J0D01*
G01*
G37*
G36*
G01*
X120090000Y-101930000D02*
X120690000Y-101930000D01*
G75*
G02*
X120720000Y-101960000I0J-30000D01*
G01*
X120720000Y-102360000D01*
G75*
G02*
X120690000Y-102390000I-30000J0D01*
G01*
X120090000Y-102390000D01*
G75*
G02*
X120060000Y-102360000I0J30000D01*
G01*
X120060000Y-101960000D01*
G75*
G02*
X120090000Y-101930000I30000J0D01*
G01*
G37*
%TD*%
%TO.C,C55*%
G36*
G01*
X123270000Y-99320000D02*
X123270000Y-98720000D01*
G75*
G02*
X123300000Y-98690000I30000J0D01*
G01*
X123700000Y-98690000D01*
G75*
G02*
X123730000Y-98720000I0J-30000D01*
G01*
X123730000Y-99320000D01*
G75*
G02*
X123700000Y-99350000I-30000J0D01*
G01*
X123300000Y-99350000D01*
G75*
G02*
X123270000Y-99320000I0J30000D01*
G01*
G37*
G36*
G01*
X122370000Y-99320000D02*
X122370000Y-98720000D01*
G75*
G02*
X122400000Y-98690000I30000J0D01*
G01*
X122800000Y-98690000D01*
G75*
G02*
X122830000Y-98720000I0J-30000D01*
G01*
X122830000Y-99320000D01*
G75*
G02*
X122800000Y-99350000I-30000J0D01*
G01*
X122400000Y-99350000D01*
G75*
G02*
X122370000Y-99320000I0J30000D01*
G01*
G37*
%TD*%
%TO.C,C56*%
G36*
G01*
X120940000Y-80050000D02*
X121940000Y-80050000D01*
G75*
G02*
X121950000Y-80060000I0J-10000D01*
G01*
X121950000Y-80660000D01*
G75*
G02*
X121940000Y-80670000I-10000J0D01*
G01*
X120940000Y-80670000D01*
G75*
G02*
X120930000Y-80660000I0J10000D01*
G01*
X120930000Y-80060000D01*
G75*
G02*
X120940000Y-80050000I10000J0D01*
G01*
G37*
G36*
G01*
X120940000Y-81450000D02*
X121940000Y-81450000D01*
G75*
G02*
X121950000Y-81460000I0J-10000D01*
G01*
X121950000Y-82060000D01*
G75*
G02*
X121940000Y-82070000I-10000J0D01*
G01*
X120940000Y-82070000D01*
G75*
G02*
X120930000Y-82060000I0J10000D01*
G01*
X120930000Y-81460000D01*
G75*
G02*
X120940000Y-81450000I10000J0D01*
G01*
G37*
%TD*%
%TO.C,C57*%
G36*
G01*
X119860000Y-80310000D02*
X120460000Y-80310000D01*
G75*
G02*
X120490000Y-80340000I0J-30000D01*
G01*
X120490000Y-80740000D01*
G75*
G02*
X120460000Y-80770000I-30000J0D01*
G01*
X119860000Y-80770000D01*
G75*
G02*
X119830000Y-80740000I0J30000D01*
G01*
X119830000Y-80340000D01*
G75*
G02*
X119860000Y-80310000I30000J0D01*
G01*
G37*
G36*
G01*
X119860000Y-81210000D02*
X120460000Y-81210000D01*
G75*
G02*
X120490000Y-81240000I0J-30000D01*
G01*
X120490000Y-81640000D01*
G75*
G02*
X120460000Y-81670000I-30000J0D01*
G01*
X119860000Y-81670000D01*
G75*
G02*
X119830000Y-81640000I0J30000D01*
G01*
X119830000Y-81240000D01*
G75*
G02*
X119860000Y-81210000I30000J0D01*
G01*
G37*
%TD*%
%TO.C,D2*%
G36*
G01*
X152930000Y-104800000D02*
X151930000Y-104800000D01*
G75*
G02*
X151920000Y-104790000I0J10000D01*
G01*
X151920000Y-104190000D01*
G75*
G02*
X151930000Y-104180000I10000J0D01*
G01*
X152930000Y-104180000D01*
G75*
G02*
X152940000Y-104190000I0J-10000D01*
G01*
X152940000Y-104790000D01*
G75*
G02*
X152930000Y-104800000I-10000J0D01*
G01*
G37*
G36*
G01*
X152930000Y-106200000D02*
X151930000Y-106200000D01*
G75*
G02*
X151920000Y-106190000I0J10000D01*
G01*
X151920000Y-105590000D01*
G75*
G02*
X151930000Y-105580000I10000J0D01*
G01*
X152930000Y-105580000D01*
G75*
G02*
X152940000Y-105590000I0J-10000D01*
G01*
X152940000Y-106190000D01*
G75*
G02*
X152930000Y-106200000I-10000J0D01*
G01*
G37*
%TD*%
%TO.C,D3*%
G36*
G01*
X117310000Y-80245000D02*
X117310000Y-80695000D01*
G75*
G02*
X117260000Y-80745000I-50000J0D01*
G01*
X116660000Y-80745000D01*
G75*
G02*
X116610000Y-80695000I0J50000D01*
G01*
X116610000Y-80245000D01*
G75*
G02*
X116660000Y-80195000I50000J0D01*
G01*
X117260000Y-80195000D01*
G75*
G02*
X117310000Y-80245000I0J-50000D01*
G01*
G37*
G36*
G01*
X119410000Y-80245000D02*
X119410000Y-80695000D01*
G75*
G02*
X119360000Y-80745000I-50000J0D01*
G01*
X118760000Y-80745000D01*
G75*
G02*
X118710000Y-80695000I0J50000D01*
G01*
X118710000Y-80245000D01*
G75*
G02*
X118760000Y-80195000I50000J0D01*
G01*
X119360000Y-80195000D01*
G75*
G02*
X119410000Y-80245000I0J-50000D01*
G01*
G37*
%TD*%
%TO.C,R32*%
G36*
G01*
X152690000Y-107060000D02*
X152090000Y-107060000D01*
G75*
G02*
X152060000Y-107030000I0J30000D01*
G01*
X152060000Y-106630000D01*
G75*
G02*
X152090000Y-106600000I30000J0D01*
G01*
X152690000Y-106600000D01*
G75*
G02*
X152720000Y-106630000I0J-30000D01*
G01*
X152720000Y-107030000D01*
G75*
G02*
X152690000Y-107060000I-30000J0D01*
G01*
G37*
G36*
G01*
X152690000Y-107960000D02*
X152090000Y-107960000D01*
G75*
G02*
X152060000Y-107930000I0J30000D01*
G01*
X152060000Y-107530000D01*
G75*
G02*
X152090000Y-107500000I30000J0D01*
G01*
X152690000Y-107500000D01*
G75*
G02*
X152720000Y-107530000I0J-30000D01*
G01*
X152720000Y-107930000D01*
G75*
G02*
X152690000Y-107960000I-30000J0D01*
G01*
G37*
%TD*%
%TO.C,R33*%
G36*
G01*
X123480000Y-78110000D02*
X123480000Y-77510000D01*
G75*
G02*
X123510000Y-77480000I30000J0D01*
G01*
X123910000Y-77480000D01*
G75*
G02*
X123940000Y-77510000I0J-30000D01*
G01*
X123940000Y-78110000D01*
G75*
G02*
X123910000Y-78140000I-30000J0D01*
G01*
X123510000Y-78140000D01*
G75*
G02*
X123480000Y-78110000I0J30000D01*
G01*
G37*
G36*
G01*
X122580000Y-78110000D02*
X122580000Y-77510000D01*
G75*
G02*
X122610000Y-77480000I30000J0D01*
G01*
X123010000Y-77480000D01*
G75*
G02*
X123040000Y-77510000I0J-30000D01*
G01*
X123040000Y-78110000D01*
G75*
G02*
X123010000Y-78140000I-30000J0D01*
G01*
X122610000Y-78140000D01*
G75*
G02*
X122580000Y-78110000I0J30000D01*
G01*
G37*
%TD*%
%TO.C,R34*%
G36*
G01*
X120340000Y-78940000D02*
X120340000Y-79540000D01*
G75*
G02*
X120310000Y-79570000I-30000J0D01*
G01*
X119910000Y-79570000D01*
G75*
G02*
X119880000Y-79540000I0J30000D01*
G01*
X119880000Y-78940000D01*
G75*
G02*
X119910000Y-78910000I30000J0D01*
G01*
X120310000Y-78910000D01*
G75*
G02*
X120340000Y-78940000I0J-30000D01*
G01*
G37*
G36*
G01*
X121240000Y-78940000D02*
X121240000Y-79540000D01*
G75*
G02*
X121210000Y-79570000I-30000J0D01*
G01*
X120810000Y-79570000D01*
G75*
G02*
X120780000Y-79540000I0J30000D01*
G01*
X120780000Y-78940000D01*
G75*
G02*
X120810000Y-78910000I30000J0D01*
G01*
X121210000Y-78910000D01*
G75*
G02*
X121240000Y-78940000I0J-30000D01*
G01*
G37*
%TD*%
%TO.C,R35*%
G36*
G01*
X122910000Y-80520000D02*
X122310000Y-80520000D01*
G75*
G02*
X122280000Y-80490000I0J30000D01*
G01*
X122280000Y-80090000D01*
G75*
G02*
X122310000Y-80060000I30000J0D01*
G01*
X122910000Y-80060000D01*
G75*
G02*
X122940000Y-80090000I0J-30000D01*
G01*
X122940000Y-80490000D01*
G75*
G02*
X122910000Y-80520000I-30000J0D01*
G01*
G37*
G36*
G01*
X122910000Y-81420000D02*
X122310000Y-81420000D01*
G75*
G02*
X122280000Y-81390000I0J30000D01*
G01*
X122280000Y-80990000D01*
G75*
G02*
X122310000Y-80960000I30000J0D01*
G01*
X122910000Y-80960000D01*
G75*
G02*
X122940000Y-80990000I0J-30000D01*
G01*
X122940000Y-81390000D01*
G75*
G02*
X122910000Y-81420000I-30000J0D01*
G01*
G37*
%TD*%
%TO.C,U6*%
G36*
G01*
X122068800Y-99733800D02*
X122983200Y-99733800D01*
G75*
G02*
X123063200Y-99813800I0J-80000D01*
G01*
X123063200Y-100728200D01*
G75*
G02*
X122983200Y-100808200I-80000J0D01*
G01*
X122068800Y-100808200D01*
G75*
G02*
X121988800Y-100728200I0J80000D01*
G01*
X121988800Y-99813800D01*
G75*
G02*
X122068800Y-99733800I80000J0D01*
G01*
G37*
G36*
G01*
X122068800Y-101511800D02*
X122983200Y-101511800D01*
G75*
G02*
X123063200Y-101591800I0J-80000D01*
G01*
X123063200Y-102506200D01*
G75*
G02*
X122983200Y-102586200I-80000J0D01*
G01*
X122068800Y-102586200D01*
G75*
G02*
X121988800Y-102506200I0J80000D01*
G01*
X121988800Y-101591800D01*
G75*
G02*
X122068800Y-101511800I80000J0D01*
G01*
G37*
G36*
G01*
X120036800Y-100622800D02*
X120951200Y-100622800D01*
G75*
G02*
X121031200Y-100702800I0J-80000D01*
G01*
X121031200Y-101617200D01*
G75*
G02*
X120951200Y-101697200I-80000J0D01*
G01*
X120036800Y-101697200D01*
G75*
G02*
X119956800Y-101617200I0J80000D01*
G01*
X119956800Y-100702800D01*
G75*
G02*
X120036800Y-100622800I80000J0D01*
G01*
G37*
%TD*%
%TO.C,U7*%
G36*
G01*
X115940170Y-79411480D02*
X114139310Y-79411480D01*
G75*
G02*
X114089310Y-79361480I0J50000D01*
G01*
X114089310Y-78061000D01*
G75*
G02*
X114139310Y-78011000I50000J0D01*
G01*
X115940170Y-78011000D01*
G75*
G02*
X115990170Y-78061000I0J-50000D01*
G01*
X115990170Y-79361480D01*
G75*
G02*
X115940170Y-79411480I-50000J0D01*
G01*
G37*
G36*
G01*
X115940170Y-77110240D02*
X114139310Y-77110240D01*
G75*
G02*
X114089310Y-77060240I0J50000D01*
G01*
X114089310Y-75759760D01*
G75*
G02*
X114139310Y-75709760I50000J0D01*
G01*
X115940170Y-75709760D01*
G75*
G02*
X115990170Y-75759760I0J-50000D01*
G01*
X115990170Y-77060240D01*
G75*
G02*
X115940170Y-77110240I-50000J0D01*
G01*
G37*
G36*
G01*
X115940170Y-74809000D02*
X114139310Y-74809000D01*
G75*
G02*
X114089310Y-74759000I0J50000D01*
G01*
X114089310Y-73458520D01*
G75*
G02*
X114139310Y-73408520I50000J0D01*
G01*
X115940170Y-73408520D01*
G75*
G02*
X115990170Y-73458520I0J-50000D01*
G01*
X115990170Y-74759000D01*
G75*
G02*
X115940170Y-74809000I-50000J0D01*
G01*
G37*
G36*
G01*
X109940690Y-78359920D02*
X108139830Y-78359920D01*
G75*
G02*
X108089830Y-78309920I0J50000D01*
G01*
X108089830Y-74510080D01*
G75*
G02*
X108139830Y-74460080I50000J0D01*
G01*
X109940690Y-74460080D01*
G75*
G02*
X109990690Y-74510080I0J-50000D01*
G01*
X109990690Y-78309920D01*
G75*
G02*
X109940690Y-78359920I-50000J0D01*
G01*
G37*
%TD*%
%TO.C,C44*%
G36*
G01*
X120530000Y-104690000D02*
X119930000Y-104690000D01*
G75*
G02*
X119900000Y-104660000I0J30000D01*
G01*
X119900000Y-104260000D01*
G75*
G02*
X119930000Y-104230000I30000J0D01*
G01*
X120530000Y-104230000D01*
G75*
G02*
X120560000Y-104260000I0J-30000D01*
G01*
X120560000Y-104660000D01*
G75*
G02*
X120530000Y-104690000I-30000J0D01*
G01*
G37*
G36*
G01*
X120530000Y-105590000D02*
X119930000Y-105590000D01*
G75*
G02*
X119900000Y-105560000I0J30000D01*
G01*
X119900000Y-105160000D01*
G75*
G02*
X119930000Y-105130000I30000J0D01*
G01*
X120530000Y-105130000D01*
G75*
G02*
X120560000Y-105160000I0J-30000D01*
G01*
X120560000Y-105560000D01*
G75*
G02*
X120530000Y-105590000I-30000J0D01*
G01*
G37*
%TD*%
%TO.C,C45*%
G36*
G01*
X121440000Y-104690000D02*
X120840000Y-104690000D01*
G75*
G02*
X120810000Y-104660000I0J30000D01*
G01*
X120810000Y-104260000D01*
G75*
G02*
X120840000Y-104230000I30000J0D01*
G01*
X121440000Y-104230000D01*
G75*
G02*
X121470000Y-104260000I0J-30000D01*
G01*
X121470000Y-104660000D01*
G75*
G02*
X121440000Y-104690000I-30000J0D01*
G01*
G37*
G36*
G01*
X121440000Y-105590000D02*
X120840000Y-105590000D01*
G75*
G02*
X120810000Y-105560000I0J30000D01*
G01*
X120810000Y-105160000D01*
G75*
G02*
X120840000Y-105130000I30000J0D01*
G01*
X121440000Y-105130000D01*
G75*
G02*
X121470000Y-105160000I0J-30000D01*
G01*
X121470000Y-105560000D01*
G75*
G02*
X121440000Y-105590000I-30000J0D01*
G01*
G37*
%TD*%
%TO.C,C47*%
G36*
G01*
X119620000Y-105590000D02*
X119020000Y-105590000D01*
G75*
G02*
X118990000Y-105560000I0J30000D01*
G01*
X118990000Y-105160000D01*
G75*
G02*
X119020000Y-105130000I30000J0D01*
G01*
X119620000Y-105130000D01*
G75*
G02*
X119650000Y-105160000I0J-30000D01*
G01*
X119650000Y-105560000D01*
G75*
G02*
X119620000Y-105590000I-30000J0D01*
G01*
G37*
G36*
G01*
X119620000Y-104690000D02*
X119020000Y-104690000D01*
G75*
G02*
X118990000Y-104660000I0J30000D01*
G01*
X118990000Y-104260000D01*
G75*
G02*
X119020000Y-104230000I30000J0D01*
G01*
X119620000Y-104230000D01*
G75*
G02*
X119650000Y-104260000I0J-30000D01*
G01*
X119650000Y-104660000D01*
G75*
G02*
X119620000Y-104690000I-30000J0D01*
G01*
G37*
%TD*%
%TO.C,R14*%
G36*
G01*
X120530000Y-107470000D02*
X119930000Y-107470000D01*
G75*
G02*
X119900000Y-107440000I0J30000D01*
G01*
X119900000Y-107040000D01*
G75*
G02*
X119930000Y-107010000I30000J0D01*
G01*
X120530000Y-107010000D01*
G75*
G02*
X120560000Y-107040000I0J-30000D01*
G01*
X120560000Y-107440000D01*
G75*
G02*
X120530000Y-107470000I-30000J0D01*
G01*
G37*
G36*
G01*
X120530000Y-106570000D02*
X119930000Y-106570000D01*
G75*
G02*
X119900000Y-106540000I0J30000D01*
G01*
X119900000Y-106140000D01*
G75*
G02*
X119930000Y-106110000I30000J0D01*
G01*
X120530000Y-106110000D01*
G75*
G02*
X120560000Y-106140000I0J-30000D01*
G01*
X120560000Y-106540000D01*
G75*
G02*
X120530000Y-106570000I-30000J0D01*
G01*
G37*
%TD*%
%TO.C,R24*%
G36*
G01*
X121440000Y-106570000D02*
X120840000Y-106570000D01*
G75*
G02*
X120810000Y-106540000I0J30000D01*
G01*
X120810000Y-106140000D01*
G75*
G02*
X120840000Y-106110000I30000J0D01*
G01*
X121440000Y-106110000D01*
G75*
G02*
X121470000Y-106140000I0J-30000D01*
G01*
X121470000Y-106540000D01*
G75*
G02*
X121440000Y-106570000I-30000J0D01*
G01*
G37*
G36*
G01*
X121440000Y-107470000D02*
X120840000Y-107470000D01*
G75*
G02*
X120810000Y-107440000I0J30000D01*
G01*
X120810000Y-107040000D01*
G75*
G02*
X120840000Y-107010000I30000J0D01*
G01*
X121440000Y-107010000D01*
G75*
G02*
X121470000Y-107040000I0J-30000D01*
G01*
X121470000Y-107440000D01*
G75*
G02*
X121440000Y-107470000I-30000J0D01*
G01*
G37*
%TD*%
%TO.C,R25*%
G36*
G01*
X118710000Y-107470000D02*
X118110000Y-107470000D01*
G75*
G02*
X118080000Y-107440000I0J30000D01*
G01*
X118080000Y-107040000D01*
G75*
G02*
X118110000Y-107010000I30000J0D01*
G01*
X118710000Y-107010000D01*
G75*
G02*
X118740000Y-107040000I0J-30000D01*
G01*
X118740000Y-107440000D01*
G75*
G02*
X118710000Y-107470000I-30000J0D01*
G01*
G37*
G36*
G01*
X118710000Y-106570000D02*
X118110000Y-106570000D01*
G75*
G02*
X118080000Y-106540000I0J30000D01*
G01*
X118080000Y-106140000D01*
G75*
G02*
X118110000Y-106110000I30000J0D01*
G01*
X118710000Y-106110000D01*
G75*
G02*
X118740000Y-106140000I0J-30000D01*
G01*
X118740000Y-106540000D01*
G75*
G02*
X118710000Y-106570000I-30000J0D01*
G01*
G37*
%TD*%
%TO.C,R26*%
G36*
G01*
X119620000Y-106570000D02*
X119020000Y-106570000D01*
G75*
G02*
X118990000Y-106540000I0J30000D01*
G01*
X118990000Y-106140000D01*
G75*
G02*
X119020000Y-106110000I30000J0D01*
G01*
X119620000Y-106110000D01*
G75*
G02*
X119650000Y-106140000I0J-30000D01*
G01*
X119650000Y-106540000D01*
G75*
G02*
X119620000Y-106570000I-30000J0D01*
G01*
G37*
G36*
G01*
X119620000Y-107470000D02*
X119020000Y-107470000D01*
G75*
G02*
X118990000Y-107440000I0J30000D01*
G01*
X118990000Y-107040000D01*
G75*
G02*
X119020000Y-107010000I30000J0D01*
G01*
X119620000Y-107010000D01*
G75*
G02*
X119650000Y-107040000I0J-30000D01*
G01*
X119650000Y-107440000D01*
G75*
G02*
X119620000Y-107470000I-30000J0D01*
G01*
G37*
%TD*%
%TO.C,R27*%
G36*
G01*
X122650000Y-104940000D02*
X122050000Y-104940000D01*
G75*
G02*
X122020000Y-104910000I0J30000D01*
G01*
X122020000Y-104510000D01*
G75*
G02*
X122050000Y-104480000I30000J0D01*
G01*
X122650000Y-104480000D01*
G75*
G02*
X122680000Y-104510000I0J-30000D01*
G01*
X122680000Y-104910000D01*
G75*
G02*
X122650000Y-104940000I-30000J0D01*
G01*
G37*
G36*
G01*
X122650000Y-105840000D02*
X122050000Y-105840000D01*
G75*
G02*
X122020000Y-105810000I0J30000D01*
G01*
X122020000Y-105410000D01*
G75*
G02*
X122050000Y-105380000I30000J0D01*
G01*
X122650000Y-105380000D01*
G75*
G02*
X122680000Y-105410000I0J-30000D01*
G01*
X122680000Y-105810000D01*
G75*
G02*
X122650000Y-105840000I-30000J0D01*
G01*
G37*
%TD*%
%TO.C,C48*%
G36*
G01*
X122650000Y-104220000D02*
X122050000Y-104220000D01*
G75*
G02*
X122020000Y-104190000I0J30000D01*
G01*
X122020000Y-103790000D01*
G75*
G02*
X122050000Y-103760000I30000J0D01*
G01*
X122650000Y-103760000D01*
G75*
G02*
X122680000Y-103790000I0J-30000D01*
G01*
X122680000Y-104190000D01*
G75*
G02*
X122650000Y-104220000I-30000J0D01*
G01*
G37*
G36*
G01*
X122650000Y-103320000D02*
X122050000Y-103320000D01*
G75*
G02*
X122020000Y-103290000I0J30000D01*
G01*
X122020000Y-102890000D01*
G75*
G02*
X122050000Y-102860000I30000J0D01*
G01*
X122650000Y-102860000D01*
G75*
G02*
X122680000Y-102890000I0J-30000D01*
G01*
X122680000Y-103290000D01*
G75*
G02*
X122650000Y-103320000I-30000J0D01*
G01*
G37*
%TD*%
%TO.C,C49*%
G36*
G01*
X123560000Y-103320000D02*
X122960000Y-103320000D01*
G75*
G02*
X122930000Y-103290000I0J30000D01*
G01*
X122930000Y-102890000D01*
G75*
G02*
X122960000Y-102860000I30000J0D01*
G01*
X123560000Y-102860000D01*
G75*
G02*
X123590000Y-102890000I0J-30000D01*
G01*
X123590000Y-103290000D01*
G75*
G02*
X123560000Y-103320000I-30000J0D01*
G01*
G37*
G36*
G01*
X123560000Y-104220000D02*
X122960000Y-104220000D01*
G75*
G02*
X122930000Y-104190000I0J30000D01*
G01*
X122930000Y-103790000D01*
G75*
G02*
X122960000Y-103760000I30000J0D01*
G01*
X123560000Y-103760000D01*
G75*
G02*
X123590000Y-103790000I0J-30000D01*
G01*
X123590000Y-104190000D01*
G75*
G02*
X123560000Y-104220000I-30000J0D01*
G01*
G37*
%TD*%
%TO.C,R21*%
G36*
G01*
X170020000Y-90140000D02*
X170020000Y-90740000D01*
G75*
G02*
X169990000Y-90770000I-30000J0D01*
G01*
X169590000Y-90770000D01*
G75*
G02*
X169560000Y-90740000I0J30000D01*
G01*
X169560000Y-90140000D01*
G75*
G02*
X169590000Y-90110000I30000J0D01*
G01*
X169990000Y-90110000D01*
G75*
G02*
X170020000Y-90140000I0J-30000D01*
G01*
G37*
G36*
G01*
X170920000Y-90140000D02*
X170920000Y-90740000D01*
G75*
G02*
X170890000Y-90770000I-30000J0D01*
G01*
X170490000Y-90770000D01*
G75*
G02*
X170460000Y-90740000I0J30000D01*
G01*
X170460000Y-90140000D01*
G75*
G02*
X170490000Y-90110000I30000J0D01*
G01*
X170890000Y-90110000D01*
G75*
G02*
X170920000Y-90140000I0J-30000D01*
G01*
G37*
%TD*%
M02*
