%TF.GenerationSoftware,KiCad,Pcbnew,5.1.8-db9833491~88~ubuntu20.04.1*%
%TF.CreationDate,2020-12-01T22:06:41+01:00*%
%TF.ProjectId,licheepinano_sarau270,6c696368-6565-4706-996e-616e6f5f7361,V1.0*%
%TF.SameCoordinates,Original*%
%TF.FileFunction,Profile,NP*%
%FSLAX46Y46*%
G04 Gerber Fmt 4.6, Leading zero omitted, Abs format (unit mm)*
G04 Created by KiCad (PCBNEW 5.1.8-db9833491~88~ubuntu20.04.1) date 2020-12-01 22:06:41*
%MOMM*%
%LPD*%
G01*
G04 APERTURE LIST*
%TA.AperFunction,Profile*%
%ADD10C,0.050000*%
%TD*%
G04 APERTURE END LIST*
D10*
X113200000Y-83240000D02*
X99230058Y-83240000D01*
X99230000Y-113820000D02*
X99230058Y-116397747D01*
X99230000Y-113820000D02*
X106559942Y-113820000D01*
X106559942Y-113820000D02*
X106560000Y-104410000D01*
X99230058Y-104410000D02*
X106560000Y-104410000D01*
X99230000Y-99090000D02*
X99230058Y-104410000D01*
X113200000Y-99090000D02*
X99230000Y-99090000D01*
X113200000Y-83240000D02*
X113200000Y-99090000D01*
X130550000Y-88930000D02*
X130550000Y-72450000D01*
X146290000Y-88920000D02*
X130550000Y-88930000D01*
X146290000Y-72450000D02*
X146290000Y-88920000D01*
X146290000Y-72450000D02*
X172800000Y-72450000D01*
X149670000Y-101120000D02*
X146380000Y-101120000D01*
X149670000Y-107420000D02*
X149670000Y-101120000D01*
X146380000Y-107420000D02*
X149670000Y-107420000D01*
X146380000Y-101120000D02*
X146380000Y-107420000D01*
X118380334Y-119070440D02*
X119700000Y-119070440D01*
X119700000Y-119070440D02*
G75*
G02*
X119729666Y-121070000I29666J-999560D01*
G01*
X118410000Y-121070000D02*
G75*
G02*
X118380334Y-119070440I-29666J999560D01*
G01*
X118410000Y-121070000D02*
X119729666Y-121070000D01*
X160000334Y-119060440D02*
X161320000Y-119060440D01*
X161320000Y-119060440D02*
G75*
G02*
X161349666Y-121060000I29666J-999560D01*
G01*
X160030000Y-121060000D02*
X161349666Y-121060000D01*
X160030000Y-121060000D02*
G75*
G02*
X160000334Y-119060440I-29666J999560D01*
G01*
X118350334Y-75660440D02*
X119670000Y-75660440D01*
X119670000Y-75660440D02*
G75*
G02*
X119699666Y-77660000I29666J-999560D01*
G01*
X118380000Y-77660000D02*
X119699666Y-77660000D01*
X118380000Y-77660000D02*
G75*
G02*
X118350334Y-75660440I-29666J999560D01*
G01*
X161350000Y-75730440D02*
G75*
G02*
X161379666Y-77730000I29666J-999560D01*
G01*
X160060000Y-77730000D02*
X161379666Y-77730000D01*
X160030334Y-75730440D02*
X161350000Y-75730440D01*
X160060000Y-77730000D02*
G75*
G02*
X160030334Y-75730440I-29666J999560D01*
G01*
X106977805Y-124367689D02*
X172777805Y-124367689D01*
X99230058Y-116397747D02*
X102750058Y-116397747D01*
X106977805Y-120647689D02*
X106977805Y-124367689D01*
X102750058Y-116397747D02*
G75*
G02*
X106977805Y-120647689I-22253J-4249942D01*
G01*
X172777805Y-124367689D02*
X172777805Y-120647689D01*
X177027747Y-116419942D02*
X180547747Y-116419942D01*
X172777805Y-120647689D02*
G75*
G02*
X177027747Y-116419942I4249942J-22253D01*
G01*
X180547747Y-80419942D02*
X177027747Y-80419942D01*
X172800000Y-76170000D02*
X172800000Y-72450000D01*
X177027747Y-80419942D02*
G75*
G02*
X172800000Y-76170000I22253J4249942D01*
G01*
X107000000Y-72450000D02*
X107000000Y-76170000D01*
X102750058Y-80397747D02*
X99230058Y-80397747D01*
X107000000Y-76170000D02*
G75*
G02*
X102750058Y-80397747I-4249942J22253D01*
G01*
X99230058Y-80397747D02*
X99230058Y-83240000D01*
X180547747Y-80419942D02*
X180547747Y-116419942D01*
X107000000Y-72450000D02*
X130550000Y-72450000D01*
M02*
