%TF.GenerationSoftware,KiCad,Pcbnew,5.1.8-db9833491~88~ubuntu20.04.1*%
%TF.CreationDate,2020-12-08T22:22:39+01:00*%
%TF.ProjectId,licheepinano_sarau270,6c696368-6565-4706-996e-616e6f5f7361,V1.0*%
%TF.SameCoordinates,Original*%
%TF.FileFunction,Legend,Top*%
%TF.FilePolarity,Positive*%
%FSLAX46Y46*%
G04 Gerber Fmt 4.6, Leading zero omitted, Abs format (unit mm)*
G04 Created by KiCad (PCBNEW 5.1.8-db9833491~88~ubuntu20.04.1) date 2020-12-08 22:22:39*
%MOMM*%
%LPD*%
G01*
G04 APERTURE LIST*
%ADD10C,0.100000*%
%ADD11C,0.198120*%
%ADD12C,0.120000*%
%ADD13C,0.150000*%
%ADD14C,0.381000*%
%ADD15C,0.254000*%
%ADD16C,0.127000*%
%ADD17C,0.250000*%
%ADD18C,0.317500*%
%ADD19C,0.050800*%
%ADD20C,0.076200*%
%ADD21C,0.158750*%
%ADD22C,0.211138*%
%ADD23C,0.203200*%
%ADD24C,0.025400*%
%ADD25C,0.000001*%
G04 APERTURE END LIST*
D10*
%TO.C,C46*%
X118810000Y-105660000D02*
X118010000Y-105660000D01*
X118810000Y-105660000D02*
X118810000Y-105160000D01*
X118010000Y-105160000D02*
X118010000Y-105660000D01*
X118010000Y-104160000D02*
X118010000Y-104660000D01*
X118810000Y-104160000D02*
X118010000Y-104160000D01*
X118810000Y-104660000D02*
X118810000Y-104160000D01*
%TO.C,R20*%
X168300000Y-78360000D02*
X167500000Y-78360000D01*
X168300000Y-78360000D02*
X168300000Y-77860000D01*
X167500000Y-77860000D02*
X167500000Y-78360000D01*
X167500000Y-76860000D02*
X167500000Y-77360000D01*
X168300000Y-76860000D02*
X167500000Y-76860000D01*
X168300000Y-77360000D02*
X168300000Y-76860000D01*
D11*
%TO.C,Con2*%
X99231680Y-99074800D02*
X105541040Y-99074800D01*
X121268720Y-83850040D02*
X121268720Y-83225200D01*
X121268720Y-99074800D02*
X121268720Y-98449960D01*
X99231680Y-83225200D02*
X105541040Y-83225200D01*
X99231680Y-99074800D02*
X99231680Y-83225200D01*
X109140220Y-83225200D02*
X121268720Y-83225200D01*
X109140220Y-99074800D02*
X121268720Y-99074800D01*
D12*
%TO.C,SOM1*%
X151400000Y-76020000D02*
X151400000Y-75130000D01*
X151400000Y-75130000D02*
X145950000Y-75130000D01*
X125500000Y-75130000D02*
X125500000Y-76020000D01*
X151260000Y-108430000D02*
X151400000Y-108430000D01*
X130950000Y-75130000D02*
X125500000Y-75130000D01*
X130950000Y-75130000D02*
X130950000Y-72430000D01*
X145950000Y-75130000D02*
X145950000Y-72430000D01*
X130950000Y-72430000D02*
X145950000Y-72430000D01*
X125500000Y-103730000D02*
X125500000Y-108430000D01*
X151400000Y-103730000D02*
X151400000Y-108430000D01*
X125500000Y-108430000D02*
X125640000Y-108430000D01*
D13*
%TO.C,Ant1*%
X180150000Y-116010000D02*
X180150000Y-91010000D01*
X180150000Y-91010000D02*
X174650000Y-91010000D01*
X174650000Y-91010000D02*
X174650000Y-116010000D01*
X174650000Y-116010000D02*
X180150000Y-116010000D01*
%TO.C,C1*%
X113070000Y-120500000D02*
X113770000Y-120500000D01*
X113770000Y-120500000D02*
X113770000Y-119300000D01*
X113770000Y-119300000D02*
X113070000Y-119300000D01*
X112170000Y-120500000D02*
X111470000Y-120500000D01*
X111470000Y-120500000D02*
X111470000Y-119300000D01*
X111470000Y-119300000D02*
X112170000Y-119300000D01*
D10*
%TO.C,C2*%
X112770000Y-118330000D02*
X112270000Y-118330000D01*
X112270000Y-118330000D02*
X112270000Y-119130000D01*
X112270000Y-119130000D02*
X112770000Y-119130000D01*
X113270000Y-119130000D02*
X113770000Y-119130000D01*
X113770000Y-118330000D02*
X113270000Y-118330000D01*
X113770000Y-118330000D02*
X113770000Y-119130000D01*
%TO.C,C3*%
X110360000Y-102730000D02*
X110360000Y-102230000D01*
X110360000Y-102230000D02*
X109560000Y-102230000D01*
X109560000Y-102230000D02*
X109560000Y-102730000D01*
X109560000Y-103230000D02*
X109560000Y-103730000D01*
X110360000Y-103730000D02*
X110360000Y-103230000D01*
X110360000Y-103730000D02*
X109560000Y-103730000D01*
%TO.C,C4*%
X119140000Y-102540000D02*
X119140000Y-103340000D01*
X119140000Y-102540000D02*
X118640000Y-102540000D01*
X118640000Y-103340000D02*
X119140000Y-103340000D01*
X117640000Y-103340000D02*
X118140000Y-103340000D01*
X117640000Y-102540000D02*
X117640000Y-103340000D01*
X118140000Y-102540000D02*
X117640000Y-102540000D01*
%TO.C,C5*%
X116410000Y-118450000D02*
X115910000Y-118450000D01*
X115910000Y-118450000D02*
X115910000Y-119250000D01*
X115910000Y-119250000D02*
X116410000Y-119250000D01*
X116910000Y-119250000D02*
X117410000Y-119250000D01*
X117410000Y-118450000D02*
X116910000Y-118450000D01*
X117410000Y-118450000D02*
X117410000Y-119250000D01*
%TO.C,C6*%
X121590000Y-116780000D02*
X121590000Y-115980000D01*
X121590000Y-116780000D02*
X122090000Y-116780000D01*
X122090000Y-115980000D02*
X121590000Y-115980000D01*
X123090000Y-115980000D02*
X122590000Y-115980000D01*
X123090000Y-116780000D02*
X123090000Y-115980000D01*
X122590000Y-116780000D02*
X123090000Y-116780000D01*
D13*
%TO.C,C7*%
X108780000Y-119210000D02*
X108780000Y-118510000D01*
X109980000Y-119210000D02*
X108780000Y-119210000D01*
X109980000Y-118510000D02*
X109980000Y-119210000D01*
X108780000Y-116910000D02*
X108780000Y-117610000D01*
X109980000Y-116910000D02*
X108780000Y-116910000D01*
X109980000Y-117610000D02*
X109980000Y-116910000D01*
D10*
%TO.C,C8*%
X121570000Y-111350000D02*
X121570000Y-111850000D01*
X121570000Y-111850000D02*
X122370000Y-111850000D01*
X122370000Y-111850000D02*
X122370000Y-111350000D01*
X122370000Y-110850000D02*
X122370000Y-110350000D01*
X121570000Y-110350000D02*
X121570000Y-110850000D01*
X121570000Y-110350000D02*
X122370000Y-110350000D01*
%TO.C,C9*%
X110220000Y-117770000D02*
X111020000Y-117770000D01*
X110220000Y-117770000D02*
X110220000Y-118270000D01*
X111020000Y-118270000D02*
X111020000Y-117770000D01*
X111020000Y-119270000D02*
X111020000Y-118770000D01*
X110220000Y-119270000D02*
X111020000Y-119270000D01*
X110220000Y-118770000D02*
X110220000Y-119270000D01*
D13*
%TO.C,C10*%
X124060000Y-108770000D02*
X123360000Y-108770000D01*
X123360000Y-108770000D02*
X123360000Y-109970000D01*
X123360000Y-109970000D02*
X124060000Y-109970000D01*
X124960000Y-108770000D02*
X125660000Y-108770000D01*
X125660000Y-108770000D02*
X125660000Y-109970000D01*
X125660000Y-109970000D02*
X124960000Y-109970000D01*
D10*
%TO.C,C11*%
X121500000Y-114280000D02*
X121500000Y-113480000D01*
X121500000Y-114280000D02*
X122000000Y-114280000D01*
X122000000Y-113480000D02*
X121500000Y-113480000D01*
X123000000Y-113480000D02*
X122500000Y-113480000D01*
X123000000Y-114280000D02*
X123000000Y-113480000D01*
X122500000Y-114280000D02*
X123000000Y-114280000D01*
%TO.C,C12*%
X111020000Y-116650000D02*
X111020000Y-116150000D01*
X111020000Y-116150000D02*
X110220000Y-116150000D01*
X110220000Y-116150000D02*
X110220000Y-116650000D01*
X110220000Y-117150000D02*
X110220000Y-117650000D01*
X111020000Y-117650000D02*
X111020000Y-117150000D01*
X111020000Y-117650000D02*
X110220000Y-117650000D01*
%TO.C,C13*%
X124640000Y-106750000D02*
X123840000Y-106750000D01*
X124640000Y-106750000D02*
X124640000Y-106250000D01*
X123840000Y-106250000D02*
X123840000Y-106750000D01*
X123840000Y-105250000D02*
X123840000Y-105750000D01*
X124640000Y-105250000D02*
X123840000Y-105250000D01*
X124640000Y-105750000D02*
X124640000Y-105250000D01*
%TO.C,C14*%
X110200000Y-115190000D02*
X109700000Y-115190000D01*
X109700000Y-115190000D02*
X109700000Y-115990000D01*
X109700000Y-115990000D02*
X110200000Y-115990000D01*
X110700000Y-115990000D02*
X111200000Y-115990000D01*
X111200000Y-115190000D02*
X110700000Y-115190000D01*
X111200000Y-115190000D02*
X111200000Y-115990000D01*
%TO.C,C15*%
X111150000Y-110820000D02*
X111150000Y-111620000D01*
X111150000Y-110820000D02*
X110650000Y-110820000D01*
X110650000Y-111620000D02*
X111150000Y-111620000D01*
X109650000Y-111620000D02*
X110150000Y-111620000D01*
X109650000Y-110820000D02*
X109650000Y-111620000D01*
X110150000Y-110820000D02*
X109650000Y-110820000D01*
%TO.C,C16*%
X109980000Y-113130000D02*
X110780000Y-113130000D01*
X109980000Y-113130000D02*
X109980000Y-113630000D01*
X110780000Y-113630000D02*
X110780000Y-113130000D01*
X110780000Y-114630000D02*
X110780000Y-114130000D01*
X109980000Y-114630000D02*
X110780000Y-114630000D01*
X109980000Y-114130000D02*
X109980000Y-114630000D01*
%TO.C,C17*%
X122260000Y-108470000D02*
X122760000Y-108470000D01*
X122760000Y-108470000D02*
X122760000Y-107670000D01*
X122760000Y-107670000D02*
X122260000Y-107670000D01*
X121760000Y-107670000D02*
X121260000Y-107670000D01*
X121260000Y-108470000D02*
X121760000Y-108470000D01*
X121260000Y-108470000D02*
X121260000Y-107670000D01*
%TO.C,C18*%
X123720000Y-106750000D02*
X122920000Y-106750000D01*
X123720000Y-106750000D02*
X123720000Y-106250000D01*
X122920000Y-106250000D02*
X122920000Y-106750000D01*
X122920000Y-105250000D02*
X122920000Y-105750000D01*
X123720000Y-105250000D02*
X122920000Y-105250000D01*
X123720000Y-105750000D02*
X123720000Y-105250000D01*
%TO.C,C19*%
X116620000Y-108070000D02*
X115820000Y-108070000D01*
X116620000Y-108070000D02*
X116620000Y-107570000D01*
X115820000Y-107570000D02*
X115820000Y-108070000D01*
X115820000Y-106570000D02*
X115820000Y-107070000D01*
X116620000Y-106570000D02*
X115820000Y-106570000D01*
X116620000Y-107070000D02*
X116620000Y-106570000D01*
%TO.C,C20*%
X111900000Y-107070000D02*
X111900000Y-106570000D01*
X111900000Y-106570000D02*
X111100000Y-106570000D01*
X111100000Y-106570000D02*
X111100000Y-107070000D01*
X111100000Y-107570000D02*
X111100000Y-108070000D01*
X111900000Y-108070000D02*
X111900000Y-107570000D01*
X111900000Y-108070000D02*
X111100000Y-108070000D01*
%TO.C,C21*%
X110960000Y-107070000D02*
X110960000Y-106570000D01*
X110960000Y-106570000D02*
X110160000Y-106570000D01*
X110160000Y-106570000D02*
X110160000Y-107070000D01*
X110160000Y-107570000D02*
X110160000Y-108070000D01*
X110960000Y-108070000D02*
X110960000Y-107570000D01*
X110960000Y-108070000D02*
X110160000Y-108070000D01*
%TO.C,C23*%
X146370000Y-122200000D02*
X145870000Y-122200000D01*
X145870000Y-122200000D02*
X145870000Y-123000000D01*
X145870000Y-123000000D02*
X146370000Y-123000000D01*
X146870000Y-123000000D02*
X147370000Y-123000000D01*
X147370000Y-122200000D02*
X146870000Y-122200000D01*
X147370000Y-122200000D02*
X147370000Y-123000000D01*
%TO.C,C24*%
X147100000Y-113190000D02*
X147900000Y-113190000D01*
X147100000Y-113190000D02*
X147100000Y-113690000D01*
X147900000Y-113690000D02*
X147900000Y-113190000D01*
X147900000Y-114690000D02*
X147900000Y-114190000D01*
X147100000Y-114690000D02*
X147900000Y-114690000D01*
X147100000Y-114190000D02*
X147100000Y-114690000D01*
%TO.C,C25*%
X135130000Y-120240000D02*
X135630000Y-120240000D01*
X135630000Y-120240000D02*
X135630000Y-119440000D01*
X135630000Y-119440000D02*
X135130000Y-119440000D01*
X134630000Y-119440000D02*
X134130000Y-119440000D01*
X134130000Y-120240000D02*
X134630000Y-120240000D01*
X134130000Y-120240000D02*
X134130000Y-119440000D01*
%TO.C,C26*%
X134520000Y-111580000D02*
X135320000Y-111580000D01*
X134520000Y-111580000D02*
X134520000Y-112080000D01*
X135320000Y-112080000D02*
X135320000Y-111580000D01*
X135320000Y-113080000D02*
X135320000Y-112580000D01*
X134520000Y-113080000D02*
X135320000Y-113080000D01*
X134520000Y-112580000D02*
X134520000Y-113080000D01*
D14*
%TO.C,C27*%
X152488980Y-117109800D02*
X152488980Y-115611200D01*
X153289080Y-116408760D02*
X151688880Y-116408760D01*
D15*
X147740000Y-123910000D02*
X153740000Y-123910000D01*
X147740000Y-115060000D02*
X147740000Y-123910000D01*
X153740000Y-115060000D02*
X147740000Y-115060000D01*
X153740000Y-123910000D02*
X153740000Y-115060000D01*
X149490000Y-115060000D02*
X149490000Y-114760000D01*
X151990000Y-115060000D02*
X151990000Y-114760000D01*
D13*
%TO.C,C28*%
X172470000Y-94920000D02*
X172470000Y-95620000D01*
X171270000Y-94920000D02*
X172470000Y-94920000D01*
X171270000Y-95620000D02*
X171270000Y-94920000D01*
X172470000Y-97220000D02*
X172470000Y-96520000D01*
X171270000Y-97220000D02*
X172470000Y-97220000D01*
X171270000Y-96520000D02*
X171270000Y-97220000D01*
D16*
%TO.C,C29*%
X151200000Y-112283000D02*
X151200000Y-109997000D01*
X151200000Y-109997000D02*
X149549000Y-109997000D01*
X147771000Y-112283000D02*
X146120000Y-112283000D01*
X146120000Y-112283000D02*
X146120000Y-109997000D01*
X146120000Y-109997000D02*
X147771000Y-109997000D01*
X149549000Y-112283000D02*
X151200000Y-112283000D01*
D13*
%TO.C,C30*%
X152420000Y-111070000D02*
X151720000Y-111070000D01*
X151720000Y-111070000D02*
X151720000Y-112270000D01*
X151720000Y-112270000D02*
X152420000Y-112270000D01*
X153320000Y-111070000D02*
X154020000Y-111070000D01*
X154020000Y-111070000D02*
X154020000Y-112270000D01*
X154020000Y-112270000D02*
X153320000Y-112270000D01*
%TO.C,C31*%
X152420000Y-109700000D02*
X151720000Y-109700000D01*
X151720000Y-109700000D02*
X151720000Y-110900000D01*
X151720000Y-110900000D02*
X152420000Y-110900000D01*
X153320000Y-109700000D02*
X154020000Y-109700000D01*
X154020000Y-109700000D02*
X154020000Y-110900000D01*
X154020000Y-110900000D02*
X153320000Y-110900000D01*
%TO.C,C32*%
X152400000Y-108320000D02*
X151700000Y-108320000D01*
X151700000Y-108320000D02*
X151700000Y-109520000D01*
X151700000Y-109520000D02*
X152400000Y-109520000D01*
X153300000Y-108320000D02*
X154000000Y-108320000D01*
X154000000Y-108320000D02*
X154000000Y-109520000D01*
X154000000Y-109520000D02*
X153300000Y-109520000D01*
%TO.C,C33*%
X166520000Y-120730000D02*
X167220000Y-120730000D01*
X167220000Y-120730000D02*
X167220000Y-119530000D01*
X167220000Y-119530000D02*
X166520000Y-119530000D01*
X165620000Y-120730000D02*
X164920000Y-120730000D01*
X164920000Y-120730000D02*
X164920000Y-119530000D01*
X164920000Y-119530000D02*
X165620000Y-119530000D01*
%TO.C,C34*%
X166350000Y-76240000D02*
X166350000Y-75540000D01*
X166350000Y-75540000D02*
X165150000Y-75540000D01*
X165150000Y-75540000D02*
X165150000Y-76240000D01*
X166350000Y-77140000D02*
X166350000Y-77840000D01*
X166350000Y-77840000D02*
X165150000Y-77840000D01*
X165150000Y-77840000D02*
X165150000Y-77140000D01*
D10*
%TO.C,C35*%
X164180000Y-76530000D02*
X164180000Y-77030000D01*
X164180000Y-77030000D02*
X164980000Y-77030000D01*
X164980000Y-77030000D02*
X164980000Y-76530000D01*
X164980000Y-76030000D02*
X164980000Y-75530000D01*
X164180000Y-75530000D02*
X164180000Y-76030000D01*
X164180000Y-75530000D02*
X164980000Y-75530000D01*
%TO.C,C36*%
X163590000Y-79120000D02*
X162790000Y-79120000D01*
X163590000Y-79120000D02*
X163590000Y-78620000D01*
X162790000Y-78620000D02*
X162790000Y-79120000D01*
X162790000Y-77620000D02*
X162790000Y-78120000D01*
X163590000Y-77620000D02*
X162790000Y-77620000D01*
X163590000Y-78120000D02*
X163590000Y-77620000D01*
%TO.C,C37*%
X165640000Y-90760000D02*
X166140000Y-90760000D01*
X166140000Y-90760000D02*
X166140000Y-89960000D01*
X166140000Y-89960000D02*
X165640000Y-89960000D01*
X165140000Y-89960000D02*
X164640000Y-89960000D01*
X164640000Y-90760000D02*
X165140000Y-90760000D01*
X164640000Y-90760000D02*
X164640000Y-89960000D01*
D13*
%TO.C,C38*%
X171170000Y-91990000D02*
X171170000Y-91290000D01*
X172370000Y-91990000D02*
X171170000Y-91990000D01*
X172370000Y-91290000D02*
X172370000Y-91990000D01*
X171170000Y-89690000D02*
X171170000Y-90390000D01*
X172370000Y-89690000D02*
X171170000Y-89690000D01*
X172370000Y-90390000D02*
X172370000Y-89690000D01*
D12*
%TO.C,Con1*%
X136900000Y-111400000D02*
X136000000Y-112300000D01*
X145540000Y-111400000D02*
X143920000Y-111400000D01*
X143920000Y-123600000D02*
X145540000Y-123600000D01*
X137620000Y-111400000D02*
X136900000Y-111400000D01*
X145540000Y-123600000D02*
X145540000Y-111400000D01*
X136000000Y-123600000D02*
X137620000Y-123600000D01*
X136000000Y-112300000D02*
X136000000Y-123600000D01*
D13*
%TO.C,D1*%
X115350000Y-118690000D02*
X115350000Y-119390000D01*
X114150000Y-118690000D02*
X115350000Y-118690000D01*
X114150000Y-119390000D02*
X114150000Y-118690000D01*
X115350000Y-120990000D02*
X115350000Y-120290000D01*
X114150000Y-120990000D02*
X115350000Y-120990000D01*
X114150000Y-120290000D02*
X114150000Y-120990000D01*
X114450000Y-120090000D02*
X115050000Y-120090000D01*
X114450000Y-120090000D02*
X114750000Y-119590000D01*
X114750000Y-119590000D02*
X115050000Y-120090000D01*
X114350000Y-119590000D02*
X115150000Y-119590000D01*
%TO.C,D4*%
X145960000Y-120960000D02*
X145960000Y-121885000D01*
X145960000Y-121885000D02*
X146960000Y-121885000D01*
X146960000Y-121885000D02*
X146960000Y-120960000D01*
X146960000Y-120510000D02*
X146960000Y-119535000D01*
X146960000Y-119535000D02*
X145960000Y-119535000D01*
X145960000Y-119535000D02*
X145960000Y-120510000D01*
%TO.C,D5*%
X145830000Y-112925000D02*
X145830000Y-113900000D01*
X146830000Y-112925000D02*
X145830000Y-112925000D01*
X146830000Y-113900000D02*
X146830000Y-112925000D01*
X146830000Y-115275000D02*
X146830000Y-114350000D01*
X145830000Y-115275000D02*
X146830000Y-115275000D01*
X145830000Y-114350000D02*
X145830000Y-115275000D01*
%TO.C,D6*%
X135300000Y-121550000D02*
X135300000Y-120625000D01*
X135300000Y-120625000D02*
X134300000Y-120625000D01*
X134300000Y-120625000D02*
X134300000Y-121550000D01*
X134300000Y-122000000D02*
X134300000Y-122975000D01*
X134300000Y-122975000D02*
X135300000Y-122975000D01*
X135300000Y-122975000D02*
X135300000Y-122000000D01*
%TO.C,D7*%
X135420000Y-115675000D02*
X135420000Y-114700000D01*
X134420000Y-115675000D02*
X135420000Y-115675000D01*
X134420000Y-114700000D02*
X134420000Y-115675000D01*
X134420000Y-113325000D02*
X134420000Y-114250000D01*
X135420000Y-113325000D02*
X134420000Y-113325000D01*
X135420000Y-114250000D02*
X135420000Y-113325000D01*
%TO.C,D8*%
X156770000Y-119650000D02*
X155970000Y-119650000D01*
X156370000Y-119650000D02*
X156070000Y-119150000D01*
X156670000Y-119150000D02*
X156370000Y-119650000D01*
X156670000Y-119150000D02*
X156070000Y-119150000D01*
X156970000Y-118950000D02*
X156970000Y-118250000D01*
X156970000Y-118250000D02*
X155770000Y-118250000D01*
X155770000Y-118250000D02*
X155770000Y-118950000D01*
X156970000Y-119850000D02*
X156970000Y-120550000D01*
X156970000Y-120550000D02*
X155770000Y-120550000D01*
X155770000Y-120550000D02*
X155770000Y-119850000D01*
D16*
%TO.C,L1*%
X123749480Y-107119760D02*
X122949380Y-107119760D01*
X122949380Y-107119760D02*
X122949380Y-108420240D01*
X122949380Y-108420240D02*
X123701220Y-108420240D01*
X124498780Y-108420240D02*
X125250620Y-108420240D01*
X125250620Y-108420240D02*
X125250620Y-107119760D01*
X125250620Y-107119760D02*
X124498780Y-107119760D01*
%TO.C,L3*%
X119620240Y-101980620D02*
X119620240Y-101228780D01*
X118319760Y-101980620D02*
X119620240Y-101980620D01*
X118319760Y-101228780D02*
X118319760Y-101980620D01*
X118319760Y-99679380D02*
X118319760Y-100431220D01*
X119620240Y-99679380D02*
X118319760Y-99679380D01*
X119620240Y-100479480D02*
X119620240Y-99679380D01*
%TO.C,L4*%
X169050240Y-119079480D02*
X169050240Y-118279380D01*
X169050240Y-118279380D02*
X167749760Y-118279380D01*
X167749760Y-118279380D02*
X167749760Y-119031220D01*
X167749760Y-119828780D02*
X167749760Y-120580620D01*
X167749760Y-120580620D02*
X169050240Y-120580620D01*
X169050240Y-120580620D02*
X169050240Y-119828780D01*
%TO.C,L5*%
X175190620Y-89499760D02*
X174438780Y-89499760D01*
X175190620Y-90800240D02*
X175190620Y-89499760D01*
X174438780Y-90800240D02*
X175190620Y-90800240D01*
X172889380Y-90800240D02*
X173641220Y-90800240D01*
X172889380Y-89499760D02*
X172889380Y-90800240D01*
X173689480Y-89499760D02*
X172889380Y-89499760D01*
D13*
%TO.C,P1*%
X171730000Y-89290000D02*
X180530000Y-89290000D01*
X171730000Y-80490000D02*
X180530000Y-80490000D01*
X171730000Y-89290000D02*
X171730000Y-80490000D01*
X180530000Y-89290000D02*
X180530000Y-80490000D01*
D16*
%TO.C,Q1*%
X157884000Y-121680000D02*
X157884000Y-123180000D01*
X154836000Y-123180000D02*
X154836000Y-121680000D01*
D13*
X156910000Y-123180000D02*
X157860000Y-123180000D01*
X155810000Y-123180000D02*
X154860000Y-123180000D01*
%TO.C,Q2*%
X170620000Y-76580000D02*
X171570000Y-76580000D01*
X169520000Y-76580000D02*
X168570000Y-76580000D01*
D16*
X171594000Y-76580000D02*
X171594000Y-78080000D01*
X168546000Y-78080000D02*
X168546000Y-76580000D01*
D10*
%TO.C,R1*%
X122550000Y-109430000D02*
X123050000Y-109430000D01*
X123050000Y-109430000D02*
X123050000Y-108630000D01*
X123050000Y-108630000D02*
X122550000Y-108630000D01*
X122050000Y-108630000D02*
X121550000Y-108630000D01*
X121550000Y-109430000D02*
X122050000Y-109430000D01*
X121550000Y-109430000D02*
X121550000Y-108630000D01*
%TO.C,R2*%
X121540000Y-113030000D02*
X121540000Y-112230000D01*
X121540000Y-113030000D02*
X122040000Y-113030000D01*
X122040000Y-112230000D02*
X121540000Y-112230000D01*
X123040000Y-112230000D02*
X122540000Y-112230000D01*
X123040000Y-113030000D02*
X123040000Y-112230000D01*
X122540000Y-113030000D02*
X123040000Y-113030000D01*
%TO.C,R3*%
X113120000Y-102750000D02*
X113120000Y-101950000D01*
X113120000Y-102750000D02*
X113620000Y-102750000D01*
X113620000Y-101950000D02*
X113120000Y-101950000D01*
X114620000Y-101950000D02*
X114120000Y-101950000D01*
X114620000Y-102750000D02*
X114620000Y-101950000D01*
X114120000Y-102750000D02*
X114620000Y-102750000D01*
%TO.C,R4*%
X112040000Y-107570000D02*
X112040000Y-108070000D01*
X112040000Y-108070000D02*
X112840000Y-108070000D01*
X112840000Y-108070000D02*
X112840000Y-107570000D01*
X112840000Y-107070000D02*
X112840000Y-106570000D01*
X112040000Y-106570000D02*
X112040000Y-107070000D01*
X112040000Y-106570000D02*
X112840000Y-106570000D01*
%TO.C,R7*%
X116020000Y-120220000D02*
X115520000Y-120220000D01*
X115520000Y-120220000D02*
X115520000Y-121020000D01*
X115520000Y-121020000D02*
X116020000Y-121020000D01*
X116520000Y-121020000D02*
X117020000Y-121020000D01*
X117020000Y-120220000D02*
X116520000Y-120220000D01*
X117020000Y-120220000D02*
X117020000Y-121020000D01*
%TO.C,R8*%
X122930000Y-95450000D02*
X123730000Y-95450000D01*
X122930000Y-95450000D02*
X122930000Y-95950000D01*
X123730000Y-95950000D02*
X123730000Y-95450000D01*
X123730000Y-96950000D02*
X123730000Y-96450000D01*
X122930000Y-96950000D02*
X123730000Y-96950000D01*
X122930000Y-96450000D02*
X122930000Y-96950000D01*
%TO.C,R9*%
X121790000Y-83740000D02*
X121790000Y-82940000D01*
X121790000Y-83740000D02*
X122290000Y-83740000D01*
X122290000Y-82940000D02*
X121790000Y-82940000D01*
X123290000Y-82940000D02*
X122790000Y-82940000D01*
X123290000Y-83740000D02*
X123290000Y-82940000D01*
X122790000Y-83740000D02*
X123290000Y-83740000D01*
%TO.C,R10*%
X171250000Y-111360000D02*
X172050000Y-111360000D01*
X171250000Y-111360000D02*
X171250000Y-111860000D01*
X172050000Y-111860000D02*
X172050000Y-111360000D01*
X172050000Y-112860000D02*
X172050000Y-112360000D01*
X171250000Y-112860000D02*
X172050000Y-112860000D01*
X171250000Y-112360000D02*
X171250000Y-112860000D01*
%TO.C,R11*%
X171180000Y-107500000D02*
X171180000Y-106700000D01*
X171180000Y-107500000D02*
X171680000Y-107500000D01*
X171680000Y-106700000D02*
X171180000Y-106700000D01*
X172680000Y-106700000D02*
X172180000Y-106700000D01*
X172680000Y-107500000D02*
X172680000Y-106700000D01*
X172180000Y-107500000D02*
X172680000Y-107500000D01*
%TO.C,R12*%
X172190000Y-106390000D02*
X172690000Y-106390000D01*
X172690000Y-106390000D02*
X172690000Y-105590000D01*
X172690000Y-105590000D02*
X172190000Y-105590000D01*
X171690000Y-105590000D02*
X171190000Y-105590000D01*
X171190000Y-106390000D02*
X171690000Y-106390000D01*
X171190000Y-106390000D02*
X171190000Y-105590000D01*
%TO.C,R13*%
X172060000Y-115060000D02*
X171260000Y-115060000D01*
X172060000Y-115060000D02*
X172060000Y-114560000D01*
X171260000Y-114560000D02*
X171260000Y-115060000D01*
X171260000Y-113560000D02*
X171260000Y-114060000D01*
X172060000Y-113560000D02*
X171260000Y-113560000D01*
X172060000Y-114060000D02*
X172060000Y-113560000D01*
%TO.C,R15*%
X158040000Y-119690000D02*
X158040000Y-119190000D01*
X158040000Y-119190000D02*
X157240000Y-119190000D01*
X157240000Y-119190000D02*
X157240000Y-119690000D01*
X157240000Y-120190000D02*
X157240000Y-120690000D01*
X158040000Y-120690000D02*
X158040000Y-120190000D01*
X158040000Y-120690000D02*
X157240000Y-120690000D01*
%TO.C,R16*%
X154710000Y-120190000D02*
X154710000Y-120690000D01*
X154710000Y-120690000D02*
X155510000Y-120690000D01*
X155510000Y-120690000D02*
X155510000Y-120190000D01*
X155510000Y-119690000D02*
X155510000Y-119190000D01*
X154710000Y-119190000D02*
X154710000Y-119690000D01*
X154710000Y-119190000D02*
X155510000Y-119190000D01*
%TO.C,R17*%
X155050000Y-118990000D02*
X155550000Y-118990000D01*
X155550000Y-118990000D02*
X155550000Y-118190000D01*
X155550000Y-118190000D02*
X155050000Y-118190000D01*
X154550000Y-118190000D02*
X154050000Y-118190000D01*
X154050000Y-118990000D02*
X154550000Y-118990000D01*
X154050000Y-118990000D02*
X154050000Y-118190000D01*
%TO.C,R18*%
X168370000Y-75530000D02*
X167870000Y-75530000D01*
X167870000Y-75530000D02*
X167870000Y-76330000D01*
X167870000Y-76330000D02*
X168370000Y-76330000D01*
X168870000Y-76330000D02*
X169370000Y-76330000D01*
X169370000Y-75530000D02*
X168870000Y-75530000D01*
X169370000Y-75530000D02*
X169370000Y-76330000D01*
%TO.C,R19*%
X166580000Y-78140000D02*
X166580000Y-78640000D01*
X166580000Y-78640000D02*
X167380000Y-78640000D01*
X167380000Y-78640000D02*
X167380000Y-78140000D01*
X167380000Y-77640000D02*
X167380000Y-77140000D01*
X166580000Y-77140000D02*
X166580000Y-77640000D01*
X166580000Y-77140000D02*
X167380000Y-77140000D01*
%TO.C,R22*%
X163290000Y-90580000D02*
X163290000Y-90080000D01*
X163290000Y-90080000D02*
X162490000Y-90080000D01*
X162490000Y-90080000D02*
X162490000Y-90580000D01*
X162490000Y-91080000D02*
X162490000Y-91580000D01*
X163290000Y-91580000D02*
X163290000Y-91080000D01*
X163290000Y-91580000D02*
X162490000Y-91580000D01*
%TO.C,R23*%
X164410000Y-91580000D02*
X163610000Y-91580000D01*
X164410000Y-91580000D02*
X164410000Y-91080000D01*
X163610000Y-91080000D02*
X163610000Y-91580000D01*
X163610000Y-90080000D02*
X163610000Y-90580000D01*
X164410000Y-90080000D02*
X163610000Y-90080000D01*
X164410000Y-90580000D02*
X164410000Y-90080000D01*
D16*
%TO.C,Modem1*%
X170649206Y-117430000D02*
G75*
G03*
X170649206Y-117430000I-179603J0D01*
G01*
D13*
X170910000Y-117870000D02*
X170910000Y-91870000D01*
X170910000Y-91870000D02*
X154910000Y-91870000D01*
X154910000Y-91870000D02*
X154910000Y-117870000D01*
X154910000Y-117870000D02*
X170910000Y-117870000D01*
D16*
%TO.C,T1*%
X168614000Y-73700000D02*
X168614000Y-75200000D01*
X165566000Y-75200000D02*
X165566000Y-73700000D01*
D13*
X167640000Y-75200000D02*
X168590000Y-75200000D01*
X166540000Y-75200000D02*
X165590000Y-75200000D01*
%TO.C,U1*%
X112350000Y-108460000D02*
X111800000Y-109010000D01*
G36*
X111850000Y-108510000D02*
G01*
X111850000Y-108910000D01*
X112250000Y-108510000D01*
X111850000Y-108510000D01*
G37*
X111850000Y-108510000D02*
X111850000Y-108910000D01*
X112250000Y-108510000D01*
X111850000Y-108510000D01*
X121100000Y-108460000D02*
X121100000Y-109010000D01*
X121100000Y-117210000D02*
X121100000Y-117760000D01*
X111800000Y-117210000D02*
X111800000Y-117760000D01*
X111800000Y-108460000D02*
X111800000Y-109010000D01*
X112350000Y-108460000D02*
X111800000Y-108460000D01*
X112350000Y-117760000D02*
X111800000Y-117760000D01*
X121100000Y-117760000D02*
X120550000Y-117760000D01*
X111573607Y-109360000D02*
G75*
G03*
X111573607Y-109360000I-223607J0D01*
G01*
X121100000Y-108460000D02*
X120550000Y-108460000D01*
D17*
%TO.C,U4*%
X162554001Y-80309000D02*
G75*
G03*
X162554001Y-80309000I-475079J0D01*
G01*
X160240000Y-89550000D02*
X169440000Y-89550000D01*
X169440000Y-79450000D02*
X160240000Y-79450000D01*
X160240000Y-79450000D02*
X160240000Y-79540000D01*
X160240000Y-89460000D02*
X160240000Y-89550000D01*
X169440000Y-89460000D02*
X169440000Y-89550000D01*
X169440000Y-79455000D02*
X169440000Y-79545000D01*
D13*
%TO.C,X1*%
X117430000Y-106410000D02*
X110630000Y-106410000D01*
X110630000Y-106410000D02*
X110630000Y-103010000D01*
X110630000Y-103010000D02*
X117430000Y-103010000D01*
X117430000Y-106410000D02*
X117430000Y-103010000D01*
%TO.C,C39*%
X155980000Y-88100000D02*
X155980000Y-87400000D01*
X155980000Y-87400000D02*
X154780000Y-87400000D01*
X154780000Y-87400000D02*
X154780000Y-88100000D01*
X155980000Y-89000000D02*
X155980000Y-89700000D01*
X155980000Y-89700000D02*
X154780000Y-89700000D01*
X154780000Y-89700000D02*
X154780000Y-89000000D01*
%TO.C,C40*%
X154590000Y-88100000D02*
X154590000Y-87400000D01*
X154590000Y-87400000D02*
X153390000Y-87400000D01*
X153390000Y-87400000D02*
X153390000Y-88100000D01*
X154590000Y-89000000D02*
X154590000Y-89700000D01*
X154590000Y-89700000D02*
X153390000Y-89700000D01*
X153390000Y-89700000D02*
X153390000Y-89000000D01*
%TO.C,C41*%
X155910000Y-77450000D02*
X155910000Y-78150000D01*
X154710000Y-77450000D02*
X155910000Y-77450000D01*
X154710000Y-78150000D02*
X154710000Y-77450000D01*
X155910000Y-79750000D02*
X155910000Y-79050000D01*
X154710000Y-79750000D02*
X155910000Y-79750000D01*
X154710000Y-79050000D02*
X154710000Y-79750000D01*
%TO.C,C42*%
X154520000Y-77450000D02*
X154520000Y-78150000D01*
X153320000Y-77450000D02*
X154520000Y-77450000D01*
X153320000Y-78150000D02*
X153320000Y-77450000D01*
X154520000Y-79750000D02*
X154520000Y-79050000D01*
X153320000Y-79750000D02*
X154520000Y-79750000D01*
X153320000Y-79050000D02*
X153320000Y-79750000D01*
D15*
%TO.C,U5*%
X153420000Y-85350000D02*
X153720000Y-85650000D01*
X158290000Y-81190000D02*
X153390000Y-81190000D01*
X158290000Y-85690000D02*
X153390000Y-85690000D01*
X153530000Y-84540000D02*
X154630000Y-85640000D01*
X153530000Y-84740000D02*
X154430000Y-85640000D01*
X153530000Y-84940000D02*
X154230000Y-85640000D01*
X153530000Y-85140000D02*
X154030000Y-85640000D01*
X153530000Y-85340000D02*
X153830000Y-85640000D01*
X153390000Y-81190000D02*
X153390000Y-85690000D01*
X158290000Y-85690000D02*
X158290000Y-81190000D01*
D16*
%TO.C,C43*%
X111161000Y-80257000D02*
X109510000Y-80257000D01*
X114590000Y-82543000D02*
X112939000Y-82543000D01*
X114590000Y-80257000D02*
X114590000Y-82543000D01*
X112939000Y-80257000D02*
X114590000Y-80257000D01*
X109510000Y-82543000D02*
X111161000Y-82543000D01*
X109510000Y-80257000D02*
X109510000Y-82543000D01*
D10*
%TO.C,L6*%
X122750000Y-106520000D02*
X122750000Y-106020000D01*
X122750000Y-106020000D02*
X121950000Y-106020000D01*
X121950000Y-106020000D02*
X121950000Y-106520000D01*
X121950000Y-107020000D02*
X121950000Y-107520000D01*
X122750000Y-107520000D02*
X122750000Y-107020000D01*
X122750000Y-107520000D02*
X121950000Y-107520000D01*
D16*
%TO.C,C50*%
X104430000Y-114387000D02*
X104430000Y-116673000D01*
X104430000Y-116673000D02*
X106081000Y-116673000D01*
X107859000Y-114387000D02*
X109510000Y-114387000D01*
X109510000Y-114387000D02*
X109510000Y-116673000D01*
X109510000Y-116673000D02*
X107859000Y-116673000D01*
X106081000Y-114387000D02*
X104430000Y-114387000D01*
D13*
%TO.C,C52*%
X121920000Y-118700000D02*
X121920000Y-119400000D01*
X121920000Y-119400000D02*
X123120000Y-119400000D01*
X123120000Y-119400000D02*
X123120000Y-118700000D01*
X121920000Y-117800000D02*
X121920000Y-117100000D01*
X121920000Y-117100000D02*
X123120000Y-117100000D01*
X123120000Y-117100000D02*
X123120000Y-117800000D01*
D11*
%TO.C,Con3*%
X107403240Y-104177480D02*
X106704740Y-104177480D01*
X106704740Y-114022520D02*
X107403240Y-114022520D01*
X101706020Y-104401000D02*
X99247300Y-104401000D01*
X99247300Y-104401000D02*
X99247300Y-113799000D01*
X99247300Y-113799000D02*
X101706020Y-113799000D01*
D10*
%TO.C,R28*%
X111250000Y-109750000D02*
X111250000Y-110550000D01*
X111250000Y-109750000D02*
X110750000Y-109750000D01*
X110750000Y-110550000D02*
X111250000Y-110550000D01*
X109750000Y-110550000D02*
X110250000Y-110550000D01*
X109750000Y-109750000D02*
X109750000Y-110550000D01*
X110250000Y-109750000D02*
X109750000Y-109750000D01*
%TO.C,R29*%
X111250000Y-108320000D02*
X111250000Y-109120000D01*
X111250000Y-108320000D02*
X110750000Y-108320000D01*
X110750000Y-109120000D02*
X111250000Y-109120000D01*
X109750000Y-109120000D02*
X110250000Y-109120000D01*
X109750000Y-108320000D02*
X109750000Y-109120000D01*
X110250000Y-108320000D02*
X109750000Y-108320000D01*
%TO.C,R30*%
X161070000Y-90570000D02*
X161070000Y-90070000D01*
X161070000Y-90070000D02*
X160270000Y-90070000D01*
X160270000Y-90070000D02*
X160270000Y-90570000D01*
X160270000Y-91070000D02*
X160270000Y-91570000D01*
X161070000Y-91570000D02*
X161070000Y-91070000D01*
X161070000Y-91570000D02*
X160270000Y-91570000D01*
%TO.C,R31*%
X162240000Y-90570000D02*
X162240000Y-90070000D01*
X162240000Y-90070000D02*
X161440000Y-90070000D01*
X161440000Y-90070000D02*
X161440000Y-90570000D01*
X161440000Y-91070000D02*
X161440000Y-91570000D01*
X162240000Y-91570000D02*
X162240000Y-91070000D01*
X162240000Y-91570000D02*
X161440000Y-91570000D01*
D13*
%TO.C,U3*%
X133660000Y-110320000D02*
X131110000Y-110320000D01*
X123660000Y-120570000D02*
X123660000Y-124320000D01*
X123660000Y-124320000D02*
X133660000Y-124320000D01*
X123660000Y-110320000D02*
X123660000Y-110670000D01*
X133660000Y-120570000D02*
X133660000Y-124320000D01*
X133660000Y-110320000D02*
X133660000Y-110670000D01*
X126210000Y-110320000D02*
X123660000Y-110320000D01*
D16*
%TO.C,C51*%
X123162800Y-121954380D02*
X123162800Y-120938380D01*
X121534660Y-120938380D02*
X121534660Y-121962000D01*
X121539740Y-120933300D02*
X123150100Y-120933300D01*
X121539740Y-123999080D02*
X123150100Y-123999080D01*
X121534660Y-123994000D02*
X121534660Y-122970380D01*
X123162800Y-122978000D02*
X123162800Y-123994000D01*
D10*
%TO.C,C53*%
X116440000Y-74510000D02*
X116440000Y-73710000D01*
X116440000Y-74510000D02*
X116940000Y-74510000D01*
X116940000Y-73710000D02*
X116440000Y-73710000D01*
X117940000Y-73710000D02*
X117440000Y-73710000D01*
X117940000Y-74510000D02*
X117940000Y-73710000D01*
X117440000Y-74510000D02*
X117940000Y-74510000D01*
%TO.C,C54*%
X119990000Y-102860000D02*
X119990000Y-103360000D01*
X119990000Y-103360000D02*
X120790000Y-103360000D01*
X120790000Y-103360000D02*
X120790000Y-102860000D01*
X120790000Y-102360000D02*
X120790000Y-101860000D01*
X119990000Y-101860000D02*
X119990000Y-102360000D01*
X119990000Y-101860000D02*
X120790000Y-101860000D01*
%TO.C,C55*%
X123300000Y-99420000D02*
X123800000Y-99420000D01*
X123800000Y-99420000D02*
X123800000Y-98620000D01*
X123800000Y-98620000D02*
X123300000Y-98620000D01*
X122800000Y-98620000D02*
X122300000Y-98620000D01*
X122300000Y-99420000D02*
X122800000Y-99420000D01*
X122300000Y-99420000D02*
X122300000Y-98620000D01*
D13*
%TO.C,C56*%
X120840000Y-82210000D02*
X120840000Y-81510000D01*
X122040000Y-82210000D02*
X120840000Y-82210000D01*
X122040000Y-81510000D02*
X122040000Y-82210000D01*
X120840000Y-79910000D02*
X120840000Y-80610000D01*
X122040000Y-79910000D02*
X120840000Y-79910000D01*
X122040000Y-80610000D02*
X122040000Y-79910000D01*
D10*
%TO.C,C57*%
X119760000Y-80240000D02*
X120560000Y-80240000D01*
X119760000Y-80240000D02*
X119760000Y-80740000D01*
X120560000Y-80740000D02*
X120560000Y-80240000D01*
X120560000Y-81740000D02*
X120560000Y-81240000D01*
X119760000Y-81740000D02*
X120560000Y-81740000D01*
X119760000Y-81240000D02*
X119760000Y-81740000D01*
D13*
%TO.C,D2*%
X152030000Y-104940000D02*
X152830000Y-104940000D01*
X152430000Y-104940000D02*
X152730000Y-105440000D01*
X152130000Y-105440000D02*
X152430000Y-104940000D01*
X152130000Y-105440000D02*
X152730000Y-105440000D01*
X151830000Y-105640000D02*
X151830000Y-106340000D01*
X151830000Y-106340000D02*
X153030000Y-106340000D01*
X153030000Y-106340000D02*
X153030000Y-105640000D01*
X151830000Y-104740000D02*
X151830000Y-104040000D01*
X151830000Y-104040000D02*
X153030000Y-104040000D01*
X153030000Y-104040000D02*
X153030000Y-104740000D01*
D10*
%TO.C,D3*%
X118910000Y-80120000D02*
X118910000Y-79770000D01*
X117110000Y-80120000D02*
X117110000Y-79770000D01*
D12*
X119510000Y-81320000D02*
X119510000Y-79620000D01*
D10*
X117810000Y-80470000D02*
X117560000Y-80470000D01*
X117810000Y-80120000D02*
X118310000Y-80470000D01*
X117810000Y-80820000D02*
X117810000Y-80120000D01*
X118310000Y-80470000D02*
X117810000Y-80820000D01*
X118310000Y-80470000D02*
X118510000Y-80470000D01*
X118310000Y-80820000D02*
X118310000Y-80120000D01*
X118910000Y-80820000D02*
X118910000Y-81170000D01*
X117110000Y-79770000D02*
X118910000Y-79770000D01*
X117110000Y-81170000D02*
X117110000Y-80820000D01*
X118910000Y-81170000D02*
X117110000Y-81170000D01*
D12*
X119510000Y-79620000D02*
X116960000Y-79620000D01*
X119510000Y-81320000D02*
X116960000Y-81320000D01*
D10*
%TO.C,R32*%
X152790000Y-107030000D02*
X152790000Y-106530000D01*
X152790000Y-106530000D02*
X151990000Y-106530000D01*
X151990000Y-106530000D02*
X151990000Y-107030000D01*
X151990000Y-107530000D02*
X151990000Y-108030000D01*
X152790000Y-108030000D02*
X152790000Y-107530000D01*
X152790000Y-108030000D02*
X151990000Y-108030000D01*
%TO.C,R33*%
X123510000Y-78210000D02*
X124010000Y-78210000D01*
X124010000Y-78210000D02*
X124010000Y-77410000D01*
X124010000Y-77410000D02*
X123510000Y-77410000D01*
X123010000Y-77410000D02*
X122510000Y-77410000D01*
X122510000Y-78210000D02*
X123010000Y-78210000D01*
X122510000Y-78210000D02*
X122510000Y-77410000D01*
%TO.C,R34*%
X120310000Y-78840000D02*
X119810000Y-78840000D01*
X119810000Y-78840000D02*
X119810000Y-79640000D01*
X119810000Y-79640000D02*
X120310000Y-79640000D01*
X120810000Y-79640000D02*
X121310000Y-79640000D01*
X121310000Y-78840000D02*
X120810000Y-78840000D01*
X121310000Y-78840000D02*
X121310000Y-79640000D01*
%TO.C,R35*%
X123010000Y-80490000D02*
X123010000Y-79990000D01*
X123010000Y-79990000D02*
X122210000Y-79990000D01*
X122210000Y-79990000D02*
X122210000Y-80490000D01*
X122210000Y-80990000D02*
X122210000Y-81490000D01*
X123010000Y-81490000D02*
X123010000Y-80990000D01*
X123010000Y-81490000D02*
X122210000Y-81490000D01*
D15*
%TO.C,U6*%
X121110000Y-99660000D02*
X121910000Y-99660000D01*
X121110000Y-102660000D02*
X121110000Y-99660000D01*
X121210000Y-102660000D02*
X121110000Y-102660000D01*
X121910000Y-102660000D02*
X121210000Y-102660000D01*
X121910000Y-99660000D02*
X121910000Y-102660000D01*
%TO.C,U7*%
X110240000Y-79710000D02*
X110240000Y-73110000D01*
X110240000Y-73110000D02*
X113840000Y-73110000D01*
X113840000Y-73110000D02*
X113840000Y-79710000D01*
X113840000Y-79710000D02*
X110240000Y-79710000D01*
D10*
%TO.C,C44*%
X120630000Y-104660000D02*
X120630000Y-104160000D01*
X120630000Y-104160000D02*
X119830000Y-104160000D01*
X119830000Y-104160000D02*
X119830000Y-104660000D01*
X119830000Y-105160000D02*
X119830000Y-105660000D01*
X120630000Y-105660000D02*
X120630000Y-105160000D01*
X120630000Y-105660000D02*
X119830000Y-105660000D01*
%TO.C,C45*%
X121540000Y-104660000D02*
X121540000Y-104160000D01*
X121540000Y-104160000D02*
X120740000Y-104160000D01*
X120740000Y-104160000D02*
X120740000Y-104660000D01*
X120740000Y-105160000D02*
X120740000Y-105660000D01*
X121540000Y-105660000D02*
X121540000Y-105160000D01*
X121540000Y-105660000D02*
X120740000Y-105660000D01*
%TO.C,C47*%
X119720000Y-105660000D02*
X118920000Y-105660000D01*
X119720000Y-105660000D02*
X119720000Y-105160000D01*
X118920000Y-105160000D02*
X118920000Y-105660000D01*
X118920000Y-104160000D02*
X118920000Y-104660000D01*
X119720000Y-104160000D02*
X118920000Y-104160000D01*
X119720000Y-104660000D02*
X119720000Y-104160000D01*
%TO.C,R14*%
X120630000Y-107540000D02*
X119830000Y-107540000D01*
X120630000Y-107540000D02*
X120630000Y-107040000D01*
X119830000Y-107040000D02*
X119830000Y-107540000D01*
X119830000Y-106040000D02*
X119830000Y-106540000D01*
X120630000Y-106040000D02*
X119830000Y-106040000D01*
X120630000Y-106540000D02*
X120630000Y-106040000D01*
%TO.C,R24*%
X121540000Y-106540000D02*
X121540000Y-106040000D01*
X121540000Y-106040000D02*
X120740000Y-106040000D01*
X120740000Y-106040000D02*
X120740000Y-106540000D01*
X120740000Y-107040000D02*
X120740000Y-107540000D01*
X121540000Y-107540000D02*
X121540000Y-107040000D01*
X121540000Y-107540000D02*
X120740000Y-107540000D01*
%TO.C,R25*%
X118810000Y-107540000D02*
X118010000Y-107540000D01*
X118810000Y-107540000D02*
X118810000Y-107040000D01*
X118010000Y-107040000D02*
X118010000Y-107540000D01*
X118010000Y-106040000D02*
X118010000Y-106540000D01*
X118810000Y-106040000D02*
X118010000Y-106040000D01*
X118810000Y-106540000D02*
X118810000Y-106040000D01*
%TO.C,R26*%
X119720000Y-106540000D02*
X119720000Y-106040000D01*
X119720000Y-106040000D02*
X118920000Y-106040000D01*
X118920000Y-106040000D02*
X118920000Y-106540000D01*
X118920000Y-107040000D02*
X118920000Y-107540000D01*
X119720000Y-107540000D02*
X119720000Y-107040000D01*
X119720000Y-107540000D02*
X118920000Y-107540000D01*
%TO.C,R27*%
X122750000Y-104910000D02*
X122750000Y-104410000D01*
X122750000Y-104410000D02*
X121950000Y-104410000D01*
X121950000Y-104410000D02*
X121950000Y-104910000D01*
X121950000Y-105410000D02*
X121950000Y-105910000D01*
X122750000Y-105910000D02*
X122750000Y-105410000D01*
X122750000Y-105910000D02*
X121950000Y-105910000D01*
%TO.C,C48*%
X122750000Y-104290000D02*
X121950000Y-104290000D01*
X122750000Y-104290000D02*
X122750000Y-103790000D01*
X121950000Y-103790000D02*
X121950000Y-104290000D01*
X121950000Y-102790000D02*
X121950000Y-103290000D01*
X122750000Y-102790000D02*
X121950000Y-102790000D01*
X122750000Y-103290000D02*
X122750000Y-102790000D01*
%TO.C,C49*%
X123660000Y-103290000D02*
X123660000Y-102790000D01*
X123660000Y-102790000D02*
X122860000Y-102790000D01*
X122860000Y-102790000D02*
X122860000Y-103290000D01*
X122860000Y-103790000D02*
X122860000Y-104290000D01*
X123660000Y-104290000D02*
X123660000Y-103790000D01*
X123660000Y-104290000D02*
X122860000Y-104290000D01*
%TO.C,R21*%
X169990000Y-90040000D02*
X169490000Y-90040000D01*
X169490000Y-90040000D02*
X169490000Y-90840000D01*
X169490000Y-90840000D02*
X169990000Y-90840000D01*
X170490000Y-90840000D02*
X170990000Y-90840000D01*
X170990000Y-90040000D02*
X170490000Y-90040000D01*
X170990000Y-90040000D02*
X170990000Y-90840000D01*
%TO.C,C46*%
D13*
X116071785Y-102786785D02*
X116041547Y-102817023D01*
X115950833Y-102847261D01*
X115890357Y-102847261D01*
X115799642Y-102817023D01*
X115739166Y-102756547D01*
X115708928Y-102696071D01*
X115678690Y-102575119D01*
X115678690Y-102484404D01*
X115708928Y-102363452D01*
X115739166Y-102302976D01*
X115799642Y-102242500D01*
X115890357Y-102212261D01*
X115950833Y-102212261D01*
X116041547Y-102242500D01*
X116071785Y-102272738D01*
X116616071Y-102423928D02*
X116616071Y-102847261D01*
X116464880Y-102182023D02*
X116313690Y-102635595D01*
X116706785Y-102635595D01*
X117220833Y-102212261D02*
X117099880Y-102212261D01*
X117039404Y-102242500D01*
X117009166Y-102272738D01*
X116948690Y-102363452D01*
X116918452Y-102484404D01*
X116918452Y-102726309D01*
X116948690Y-102786785D01*
X116978928Y-102817023D01*
X117039404Y-102847261D01*
X117160357Y-102847261D01*
X117220833Y-102817023D01*
X117251071Y-102786785D01*
X117281309Y-102726309D01*
X117281309Y-102575119D01*
X117251071Y-102514642D01*
X117220833Y-102484404D01*
X117160357Y-102454166D01*
X117039404Y-102454166D01*
X116978928Y-102484404D01*
X116948690Y-102514642D01*
X116918452Y-102575119D01*
%TO.C,R20*%
X169121785Y-77587261D02*
X168910119Y-77284880D01*
X168758928Y-77587261D02*
X168758928Y-76952261D01*
X169000833Y-76952261D01*
X169061309Y-76982500D01*
X169091547Y-77012738D01*
X169121785Y-77073214D01*
X169121785Y-77163928D01*
X169091547Y-77224404D01*
X169061309Y-77254642D01*
X169000833Y-77284880D01*
X168758928Y-77284880D01*
X169363690Y-77012738D02*
X169393928Y-76982500D01*
X169454404Y-76952261D01*
X169605595Y-76952261D01*
X169666071Y-76982500D01*
X169696309Y-77012738D01*
X169726547Y-77073214D01*
X169726547Y-77133690D01*
X169696309Y-77224404D01*
X169333452Y-77587261D01*
X169726547Y-77587261D01*
X170119642Y-76952261D02*
X170180119Y-76952261D01*
X170240595Y-76982500D01*
X170270833Y-77012738D01*
X170301071Y-77073214D01*
X170331309Y-77194166D01*
X170331309Y-77345357D01*
X170301071Y-77466309D01*
X170270833Y-77526785D01*
X170240595Y-77557023D01*
X170180119Y-77587261D01*
X170119642Y-77587261D01*
X170059166Y-77557023D01*
X170028928Y-77526785D01*
X169998690Y-77466309D01*
X169968452Y-77345357D01*
X169968452Y-77194166D01*
X169998690Y-77073214D01*
X170028928Y-77012738D01*
X170059166Y-76982500D01*
X170119642Y-76952261D01*
%TO.C,Con2*%
D18*
X100979285Y-82493571D02*
X100918809Y-82554047D01*
X100737380Y-82614523D01*
X100616428Y-82614523D01*
X100435000Y-82554047D01*
X100314047Y-82433095D01*
X100253571Y-82312142D01*
X100193095Y-82070238D01*
X100193095Y-81888809D01*
X100253571Y-81646904D01*
X100314047Y-81525952D01*
X100435000Y-81405000D01*
X100616428Y-81344523D01*
X100737380Y-81344523D01*
X100918809Y-81405000D01*
X100979285Y-81465476D01*
X101705000Y-82614523D02*
X101584047Y-82554047D01*
X101523571Y-82493571D01*
X101463095Y-82372619D01*
X101463095Y-82009761D01*
X101523571Y-81888809D01*
X101584047Y-81828333D01*
X101705000Y-81767857D01*
X101886428Y-81767857D01*
X102007380Y-81828333D01*
X102067857Y-81888809D01*
X102128333Y-82009761D01*
X102128333Y-82372619D01*
X102067857Y-82493571D01*
X102007380Y-82554047D01*
X101886428Y-82614523D01*
X101705000Y-82614523D01*
X102672619Y-81767857D02*
X102672619Y-82614523D01*
X102672619Y-81888809D02*
X102733095Y-81828333D01*
X102854047Y-81767857D01*
X103035476Y-81767857D01*
X103156428Y-81828333D01*
X103216904Y-81949285D01*
X103216904Y-82614523D01*
X103761190Y-81465476D02*
X103821666Y-81405000D01*
X103942619Y-81344523D01*
X104245000Y-81344523D01*
X104365952Y-81405000D01*
X104426428Y-81465476D01*
X104486904Y-81586428D01*
X104486904Y-81707380D01*
X104426428Y-81888809D01*
X103700714Y-82614523D01*
X104486904Y-82614523D01*
D19*
X119210231Y-96755054D02*
X119210231Y-97103397D01*
X119210231Y-96929225D02*
X118600631Y-96929225D01*
X118687717Y-96987282D01*
X118745774Y-97045340D01*
X118774802Y-97103397D01*
X118658688Y-96522825D02*
X118629660Y-96493797D01*
X118600631Y-96435740D01*
X118600631Y-96290597D01*
X118629660Y-96232540D01*
X118658688Y-96203511D01*
X118716745Y-96174482D01*
X118774802Y-96174482D01*
X118861888Y-96203511D01*
X119210231Y-96551854D01*
X119210231Y-96174482D01*
D20*
X119200555Y-94410271D02*
X119200555Y-94874728D01*
X119200555Y-94642500D02*
X118387755Y-94642500D01*
X118503869Y-94719909D01*
X118581279Y-94797319D01*
X118619983Y-94874728D01*
X118736098Y-87562189D02*
X118697393Y-87639599D01*
X118658688Y-87678303D01*
X118581279Y-87717008D01*
X118542574Y-87717008D01*
X118465164Y-87678303D01*
X118426460Y-87639599D01*
X118387755Y-87562189D01*
X118387755Y-87407370D01*
X118426460Y-87329960D01*
X118465164Y-87291256D01*
X118542574Y-87252551D01*
X118581279Y-87252551D01*
X118658688Y-87291256D01*
X118697393Y-87329960D01*
X118736098Y-87407370D01*
X118736098Y-87562189D01*
X118774802Y-87639599D01*
X118813507Y-87678303D01*
X118890917Y-87717008D01*
X119045736Y-87717008D01*
X119123145Y-87678303D01*
X119161850Y-87639599D01*
X119200555Y-87562189D01*
X119200555Y-87407370D01*
X119161850Y-87329960D01*
X119123145Y-87291256D01*
X119045736Y-87252551D01*
X118890917Y-87252551D01*
X118813507Y-87291256D01*
X118774802Y-87329960D01*
X118736098Y-87407370D01*
D19*
X119210231Y-85703514D02*
X119210231Y-85587400D01*
X119181202Y-85529342D01*
X119152174Y-85500314D01*
X119065088Y-85442257D01*
X118948974Y-85413228D01*
X118716745Y-85413228D01*
X118658688Y-85442257D01*
X118629660Y-85471285D01*
X118600631Y-85529342D01*
X118600631Y-85645457D01*
X118629660Y-85703514D01*
X118658688Y-85732542D01*
X118716745Y-85761571D01*
X118861888Y-85761571D01*
X118919945Y-85732542D01*
X118948974Y-85703514D01*
X118978002Y-85645457D01*
X118978002Y-85529342D01*
X118948974Y-85471285D01*
X118919945Y-85442257D01*
X118861888Y-85413228D01*
X119210231Y-84557974D02*
X119210231Y-84906317D01*
X119210231Y-84732145D02*
X118600631Y-84732145D01*
X118687717Y-84790202D01*
X118745774Y-84848260D01*
X118774802Y-84906317D01*
X118600631Y-84180602D02*
X118600631Y-84122545D01*
X118629660Y-84064488D01*
X118658688Y-84035460D01*
X118716745Y-84006431D01*
X118832860Y-83977402D01*
X118978002Y-83977402D01*
X119094117Y-84006431D01*
X119152174Y-84035460D01*
X119181202Y-84064488D01*
X119210231Y-84122545D01*
X119210231Y-84180602D01*
X119181202Y-84238660D01*
X119152174Y-84267688D01*
X119094117Y-84296717D01*
X118978002Y-84325745D01*
X118832860Y-84325745D01*
X118716745Y-84296717D01*
X118658688Y-84267688D01*
X118629660Y-84238660D01*
X118600631Y-84180602D01*
X119210231Y-97755814D02*
X119210231Y-98104157D01*
X119210231Y-97929985D02*
X118600631Y-97929985D01*
X118687717Y-97988042D01*
X118745774Y-98046100D01*
X118774802Y-98104157D01*
X119210231Y-97175242D02*
X119210231Y-97523585D01*
X119210231Y-97349414D02*
X118600631Y-97349414D01*
X118687717Y-97407471D01*
X118745774Y-97465528D01*
X118774802Y-97523585D01*
%TO.C,SOM1*%
D13*
X136592857Y-92184761D02*
X136735714Y-92232380D01*
X136973809Y-92232380D01*
X137069047Y-92184761D01*
X137116666Y-92137142D01*
X137164285Y-92041904D01*
X137164285Y-91946666D01*
X137116666Y-91851428D01*
X137069047Y-91803809D01*
X136973809Y-91756190D01*
X136783333Y-91708571D01*
X136688095Y-91660952D01*
X136640476Y-91613333D01*
X136592857Y-91518095D01*
X136592857Y-91422857D01*
X136640476Y-91327619D01*
X136688095Y-91280000D01*
X136783333Y-91232380D01*
X137021428Y-91232380D01*
X137164285Y-91280000D01*
X137783333Y-91232380D02*
X137973809Y-91232380D01*
X138069047Y-91280000D01*
X138164285Y-91375238D01*
X138211904Y-91565714D01*
X138211904Y-91899047D01*
X138164285Y-92089523D01*
X138069047Y-92184761D01*
X137973809Y-92232380D01*
X137783333Y-92232380D01*
X137688095Y-92184761D01*
X137592857Y-92089523D01*
X137545238Y-91899047D01*
X137545238Y-91565714D01*
X137592857Y-91375238D01*
X137688095Y-91280000D01*
X137783333Y-91232380D01*
X138640476Y-92232380D02*
X138640476Y-91232380D01*
X138973809Y-91946666D01*
X139307142Y-91232380D01*
X139307142Y-92232380D01*
X140307142Y-92232380D02*
X139735714Y-92232380D01*
X140021428Y-92232380D02*
X140021428Y-91232380D01*
X139926190Y-91375238D01*
X139830952Y-91470476D01*
X139735714Y-91518095D01*
%TO.C,Ant1*%
X173656666Y-104592380D02*
X173656666Y-104116190D01*
X173942380Y-104687619D02*
X172942380Y-104354285D01*
X173942380Y-104020952D01*
X173275714Y-103687619D02*
X173942380Y-103687619D01*
X173370952Y-103687619D02*
X173323333Y-103640000D01*
X173275714Y-103544761D01*
X173275714Y-103401904D01*
X173323333Y-103306666D01*
X173418571Y-103259047D01*
X173942380Y-103259047D01*
X173275714Y-102925714D02*
X173275714Y-102544761D01*
X172942380Y-102782857D02*
X173799523Y-102782857D01*
X173894761Y-102735238D01*
X173942380Y-102640000D01*
X173942380Y-102544761D01*
X173942380Y-101687619D02*
X173942380Y-102259047D01*
X173942380Y-101973333D02*
X172942380Y-101973333D01*
X173085238Y-102068571D01*
X173180476Y-102163809D01*
X173228095Y-102259047D01*
%TO.C,C1*%
D16*
X112514166Y-121276785D02*
X112483928Y-121307023D01*
X112393214Y-121337261D01*
X112332738Y-121337261D01*
X112242023Y-121307023D01*
X112181547Y-121246547D01*
X112151309Y-121186071D01*
X112121071Y-121065119D01*
X112121071Y-120974404D01*
X112151309Y-120853452D01*
X112181547Y-120792976D01*
X112242023Y-120732500D01*
X112332738Y-120702261D01*
X112393214Y-120702261D01*
X112483928Y-120732500D01*
X112514166Y-120762738D01*
X113118928Y-121337261D02*
X112756071Y-121337261D01*
X112937500Y-121337261D02*
X112937500Y-120702261D01*
X112877023Y-120792976D01*
X112816547Y-120853452D01*
X112756071Y-120883690D01*
%TO.C,C2*%
D13*
X111244166Y-121256785D02*
X111213928Y-121287023D01*
X111123214Y-121317261D01*
X111062738Y-121317261D01*
X110972023Y-121287023D01*
X110911547Y-121226547D01*
X110881309Y-121166071D01*
X110851071Y-121045119D01*
X110851071Y-120954404D01*
X110881309Y-120833452D01*
X110911547Y-120772976D01*
X110972023Y-120712500D01*
X111062738Y-120682261D01*
X111123214Y-120682261D01*
X111213928Y-120712500D01*
X111244166Y-120742738D01*
X111486071Y-120742738D02*
X111516309Y-120712500D01*
X111576785Y-120682261D01*
X111727976Y-120682261D01*
X111788452Y-120712500D01*
X111818690Y-120742738D01*
X111848928Y-120803214D01*
X111848928Y-120863690D01*
X111818690Y-120954404D01*
X111455833Y-121317261D01*
X111848928Y-121317261D01*
%TO.C,C3*%
X108916785Y-103085833D02*
X108947023Y-103116071D01*
X108977261Y-103206785D01*
X108977261Y-103267261D01*
X108947023Y-103357976D01*
X108886547Y-103418452D01*
X108826071Y-103448690D01*
X108705119Y-103478928D01*
X108614404Y-103478928D01*
X108493452Y-103448690D01*
X108432976Y-103418452D01*
X108372500Y-103357976D01*
X108342261Y-103267261D01*
X108342261Y-103206785D01*
X108372500Y-103116071D01*
X108402738Y-103085833D01*
X108342261Y-102874166D02*
X108342261Y-102481071D01*
X108584166Y-102692738D01*
X108584166Y-102602023D01*
X108614404Y-102541547D01*
X108644642Y-102511309D01*
X108705119Y-102481071D01*
X108856309Y-102481071D01*
X108916785Y-102511309D01*
X108947023Y-102541547D01*
X108977261Y-102602023D01*
X108977261Y-102783452D01*
X108947023Y-102843928D01*
X108916785Y-102874166D01*
%TO.C,C4*%
X117404166Y-102136785D02*
X117373928Y-102167023D01*
X117283214Y-102197261D01*
X117222738Y-102197261D01*
X117132023Y-102167023D01*
X117071547Y-102106547D01*
X117041309Y-102046071D01*
X117011071Y-101925119D01*
X117011071Y-101834404D01*
X117041309Y-101713452D01*
X117071547Y-101652976D01*
X117132023Y-101592500D01*
X117222738Y-101562261D01*
X117283214Y-101562261D01*
X117373928Y-101592500D01*
X117404166Y-101622738D01*
X117948452Y-101773928D02*
X117948452Y-102197261D01*
X117797261Y-101532023D02*
X117646071Y-101985595D01*
X118039166Y-101985595D01*
%TO.C,C5*%
X117944166Y-118686785D02*
X117913928Y-118717023D01*
X117823214Y-118747261D01*
X117762738Y-118747261D01*
X117672023Y-118717023D01*
X117611547Y-118656547D01*
X117581309Y-118596071D01*
X117551071Y-118475119D01*
X117551071Y-118384404D01*
X117581309Y-118263452D01*
X117611547Y-118202976D01*
X117672023Y-118142500D01*
X117762738Y-118112261D01*
X117823214Y-118112261D01*
X117913928Y-118142500D01*
X117944166Y-118172738D01*
X118518690Y-118112261D02*
X118216309Y-118112261D01*
X118186071Y-118414642D01*
X118216309Y-118384404D01*
X118276785Y-118354166D01*
X118427976Y-118354166D01*
X118488452Y-118384404D01*
X118518690Y-118414642D01*
X118548928Y-118475119D01*
X118548928Y-118626309D01*
X118518690Y-118686785D01*
X118488452Y-118717023D01*
X118427976Y-118747261D01*
X118276785Y-118747261D01*
X118216309Y-118717023D01*
X118186071Y-118686785D01*
%TO.C,C6*%
X122054166Y-115776785D02*
X122023928Y-115807023D01*
X121933214Y-115837261D01*
X121872738Y-115837261D01*
X121782023Y-115807023D01*
X121721547Y-115746547D01*
X121691309Y-115686071D01*
X121661071Y-115565119D01*
X121661071Y-115474404D01*
X121691309Y-115353452D01*
X121721547Y-115292976D01*
X121782023Y-115232500D01*
X121872738Y-115202261D01*
X121933214Y-115202261D01*
X122023928Y-115232500D01*
X122054166Y-115262738D01*
X122598452Y-115202261D02*
X122477500Y-115202261D01*
X122417023Y-115232500D01*
X122386785Y-115262738D01*
X122326309Y-115353452D01*
X122296071Y-115474404D01*
X122296071Y-115716309D01*
X122326309Y-115776785D01*
X122356547Y-115807023D01*
X122417023Y-115837261D01*
X122537976Y-115837261D01*
X122598452Y-115807023D01*
X122628690Y-115776785D01*
X122658928Y-115716309D01*
X122658928Y-115565119D01*
X122628690Y-115504642D01*
X122598452Y-115474404D01*
X122537976Y-115444166D01*
X122417023Y-115444166D01*
X122356547Y-115474404D01*
X122326309Y-115504642D01*
X122296071Y-115565119D01*
%TO.C,C7*%
D16*
X109394166Y-120106785D02*
X109363928Y-120137023D01*
X109273214Y-120167261D01*
X109212738Y-120167261D01*
X109122023Y-120137023D01*
X109061547Y-120076547D01*
X109031309Y-120016071D01*
X109001071Y-119895119D01*
X109001071Y-119804404D01*
X109031309Y-119683452D01*
X109061547Y-119622976D01*
X109122023Y-119562500D01*
X109212738Y-119532261D01*
X109273214Y-119532261D01*
X109363928Y-119562500D01*
X109394166Y-119592738D01*
X109605833Y-119532261D02*
X110029166Y-119532261D01*
X109757023Y-120167261D01*
%TO.C,C8*%
D13*
X123166785Y-110725833D02*
X123197023Y-110756071D01*
X123227261Y-110846785D01*
X123227261Y-110907261D01*
X123197023Y-110997976D01*
X123136547Y-111058452D01*
X123076071Y-111088690D01*
X122955119Y-111118928D01*
X122864404Y-111118928D01*
X122743452Y-111088690D01*
X122682976Y-111058452D01*
X122622500Y-110997976D01*
X122592261Y-110907261D01*
X122592261Y-110846785D01*
X122622500Y-110756071D01*
X122652738Y-110725833D01*
X122864404Y-110362976D02*
X122834166Y-110423452D01*
X122803928Y-110453690D01*
X122743452Y-110483928D01*
X122713214Y-110483928D01*
X122652738Y-110453690D01*
X122622500Y-110423452D01*
X122592261Y-110362976D01*
X122592261Y-110242023D01*
X122622500Y-110181547D01*
X122652738Y-110151309D01*
X122713214Y-110121071D01*
X122743452Y-110121071D01*
X122803928Y-110151309D01*
X122834166Y-110181547D01*
X122864404Y-110242023D01*
X122864404Y-110362976D01*
X122894642Y-110423452D01*
X122924880Y-110453690D01*
X122985357Y-110483928D01*
X123106309Y-110483928D01*
X123166785Y-110453690D01*
X123197023Y-110423452D01*
X123227261Y-110362976D01*
X123227261Y-110242023D01*
X123197023Y-110181547D01*
X123166785Y-110151309D01*
X123106309Y-110121071D01*
X122985357Y-110121071D01*
X122924880Y-110151309D01*
X122894642Y-110181547D01*
X122864404Y-110242023D01*
%TO.C,C9*%
X111766785Y-118505833D02*
X111797023Y-118536071D01*
X111827261Y-118626785D01*
X111827261Y-118687261D01*
X111797023Y-118777976D01*
X111736547Y-118838452D01*
X111676071Y-118868690D01*
X111555119Y-118898928D01*
X111464404Y-118898928D01*
X111343452Y-118868690D01*
X111282976Y-118838452D01*
X111222500Y-118777976D01*
X111192261Y-118687261D01*
X111192261Y-118626785D01*
X111222500Y-118536071D01*
X111252738Y-118505833D01*
X111827261Y-118203452D02*
X111827261Y-118082500D01*
X111797023Y-118022023D01*
X111766785Y-117991785D01*
X111676071Y-117931309D01*
X111555119Y-117901071D01*
X111313214Y-117901071D01*
X111252738Y-117931309D01*
X111222500Y-117961547D01*
X111192261Y-118022023D01*
X111192261Y-118142976D01*
X111222500Y-118203452D01*
X111252738Y-118233690D01*
X111313214Y-118263928D01*
X111464404Y-118263928D01*
X111524880Y-118233690D01*
X111555119Y-118203452D01*
X111585357Y-118142976D01*
X111585357Y-118022023D01*
X111555119Y-117961547D01*
X111524880Y-117931309D01*
X111464404Y-117901071D01*
%TO.C,C10*%
D16*
X129281785Y-110016785D02*
X129251547Y-110047023D01*
X129160833Y-110077261D01*
X129100357Y-110077261D01*
X129009642Y-110047023D01*
X128949166Y-109986547D01*
X128918928Y-109926071D01*
X128888690Y-109805119D01*
X128888690Y-109714404D01*
X128918928Y-109593452D01*
X128949166Y-109532976D01*
X129009642Y-109472500D01*
X129100357Y-109442261D01*
X129160833Y-109442261D01*
X129251547Y-109472500D01*
X129281785Y-109502738D01*
X129886547Y-110077261D02*
X129523690Y-110077261D01*
X129705119Y-110077261D02*
X129705119Y-109442261D01*
X129644642Y-109532976D01*
X129584166Y-109593452D01*
X129523690Y-109623690D01*
X130279642Y-109442261D02*
X130340119Y-109442261D01*
X130400595Y-109472500D01*
X130430833Y-109502738D01*
X130461071Y-109563214D01*
X130491309Y-109684166D01*
X130491309Y-109835357D01*
X130461071Y-109956309D01*
X130430833Y-110016785D01*
X130400595Y-110047023D01*
X130340119Y-110077261D01*
X130279642Y-110077261D01*
X130219166Y-110047023D01*
X130188928Y-110016785D01*
X130158690Y-109956309D01*
X130128452Y-109835357D01*
X130128452Y-109684166D01*
X130158690Y-109563214D01*
X130188928Y-109502738D01*
X130219166Y-109472500D01*
X130279642Y-109442261D01*
%TO.C,C11*%
D13*
X122131785Y-114976785D02*
X122101547Y-115007023D01*
X122010833Y-115037261D01*
X121950357Y-115037261D01*
X121859642Y-115007023D01*
X121799166Y-114946547D01*
X121768928Y-114886071D01*
X121738690Y-114765119D01*
X121738690Y-114674404D01*
X121768928Y-114553452D01*
X121799166Y-114492976D01*
X121859642Y-114432500D01*
X121950357Y-114402261D01*
X122010833Y-114402261D01*
X122101547Y-114432500D01*
X122131785Y-114462738D01*
X122736547Y-115037261D02*
X122373690Y-115037261D01*
X122555119Y-115037261D02*
X122555119Y-114402261D01*
X122494642Y-114492976D01*
X122434166Y-114553452D01*
X122373690Y-114583690D01*
X123341309Y-115037261D02*
X122978452Y-115037261D01*
X123159880Y-115037261D02*
X123159880Y-114402261D01*
X123099404Y-114492976D01*
X123038928Y-114553452D01*
X122978452Y-114583690D01*
%TO.C,C12*%
X108526785Y-119008214D02*
X108557023Y-119038452D01*
X108587261Y-119129166D01*
X108587261Y-119189642D01*
X108557023Y-119280357D01*
X108496547Y-119340833D01*
X108436071Y-119371071D01*
X108315119Y-119401309D01*
X108224404Y-119401309D01*
X108103452Y-119371071D01*
X108042976Y-119340833D01*
X107982500Y-119280357D01*
X107952261Y-119189642D01*
X107952261Y-119129166D01*
X107982500Y-119038452D01*
X108012738Y-119008214D01*
X108587261Y-118403452D02*
X108587261Y-118766309D01*
X108587261Y-118584880D02*
X107952261Y-118584880D01*
X108042976Y-118645357D01*
X108103452Y-118705833D01*
X108133690Y-118766309D01*
X108012738Y-118161547D02*
X107982500Y-118131309D01*
X107952261Y-118070833D01*
X107952261Y-117919642D01*
X107982500Y-117859166D01*
X108012738Y-117828928D01*
X108073214Y-117798690D01*
X108133690Y-117798690D01*
X108224404Y-117828928D01*
X108587261Y-118191785D01*
X108587261Y-117798690D01*
%TO.C,C13*%
X125336785Y-106488214D02*
X125367023Y-106518452D01*
X125397261Y-106609166D01*
X125397261Y-106669642D01*
X125367023Y-106760357D01*
X125306547Y-106820833D01*
X125246071Y-106851071D01*
X125125119Y-106881309D01*
X125034404Y-106881309D01*
X124913452Y-106851071D01*
X124852976Y-106820833D01*
X124792500Y-106760357D01*
X124762261Y-106669642D01*
X124762261Y-106609166D01*
X124792500Y-106518452D01*
X124822738Y-106488214D01*
X125397261Y-105883452D02*
X125397261Y-106246309D01*
X125397261Y-106064880D02*
X124762261Y-106064880D01*
X124852976Y-106125357D01*
X124913452Y-106185833D01*
X124943690Y-106246309D01*
X124762261Y-105671785D02*
X124762261Y-105278690D01*
X125004166Y-105490357D01*
X125004166Y-105399642D01*
X125034404Y-105339166D01*
X125064642Y-105308928D01*
X125125119Y-105278690D01*
X125276309Y-105278690D01*
X125336785Y-105308928D01*
X125367023Y-105339166D01*
X125397261Y-105399642D01*
X125397261Y-105581071D01*
X125367023Y-105641547D01*
X125336785Y-105671785D01*
%TO.C,C14*%
X107391785Y-117496785D02*
X107361547Y-117527023D01*
X107270833Y-117557261D01*
X107210357Y-117557261D01*
X107119642Y-117527023D01*
X107059166Y-117466547D01*
X107028928Y-117406071D01*
X106998690Y-117285119D01*
X106998690Y-117194404D01*
X107028928Y-117073452D01*
X107059166Y-117012976D01*
X107119642Y-116952500D01*
X107210357Y-116922261D01*
X107270833Y-116922261D01*
X107361547Y-116952500D01*
X107391785Y-116982738D01*
X107996547Y-117557261D02*
X107633690Y-117557261D01*
X107815119Y-117557261D02*
X107815119Y-116922261D01*
X107754642Y-117012976D01*
X107694166Y-117073452D01*
X107633690Y-117103690D01*
X108540833Y-117133928D02*
X108540833Y-117557261D01*
X108389642Y-116892023D02*
X108238452Y-117345595D01*
X108631547Y-117345595D01*
%TO.C,C15*%
X110421785Y-112296785D02*
X110391547Y-112327023D01*
X110300833Y-112357261D01*
X110240357Y-112357261D01*
X110149642Y-112327023D01*
X110089166Y-112266547D01*
X110058928Y-112206071D01*
X110028690Y-112085119D01*
X110028690Y-111994404D01*
X110058928Y-111873452D01*
X110089166Y-111812976D01*
X110149642Y-111752500D01*
X110240357Y-111722261D01*
X110300833Y-111722261D01*
X110391547Y-111752500D01*
X110421785Y-111782738D01*
X111026547Y-112357261D02*
X110663690Y-112357261D01*
X110845119Y-112357261D02*
X110845119Y-111722261D01*
X110784642Y-111812976D01*
X110724166Y-111873452D01*
X110663690Y-111903690D01*
X111601071Y-111722261D02*
X111298690Y-111722261D01*
X111268452Y-112024642D01*
X111298690Y-111994404D01*
X111359166Y-111964166D01*
X111510357Y-111964166D01*
X111570833Y-111994404D01*
X111601071Y-112024642D01*
X111631309Y-112085119D01*
X111631309Y-112236309D01*
X111601071Y-112296785D01*
X111570833Y-112327023D01*
X111510357Y-112357261D01*
X111359166Y-112357261D01*
X111298690Y-112327023D01*
X111268452Y-112296785D01*
%TO.C,C16*%
X111526785Y-114608214D02*
X111557023Y-114638452D01*
X111587261Y-114729166D01*
X111587261Y-114789642D01*
X111557023Y-114880357D01*
X111496547Y-114940833D01*
X111436071Y-114971071D01*
X111315119Y-115001309D01*
X111224404Y-115001309D01*
X111103452Y-114971071D01*
X111042976Y-114940833D01*
X110982500Y-114880357D01*
X110952261Y-114789642D01*
X110952261Y-114729166D01*
X110982500Y-114638452D01*
X111012738Y-114608214D01*
X111587261Y-114003452D02*
X111587261Y-114366309D01*
X111587261Y-114184880D02*
X110952261Y-114184880D01*
X111042976Y-114245357D01*
X111103452Y-114305833D01*
X111133690Y-114366309D01*
X110952261Y-113459166D02*
X110952261Y-113580119D01*
X110982500Y-113640595D01*
X111012738Y-113670833D01*
X111103452Y-113731309D01*
X111224404Y-113761547D01*
X111466309Y-113761547D01*
X111526785Y-113731309D01*
X111557023Y-113701071D01*
X111587261Y-113640595D01*
X111587261Y-113519642D01*
X111557023Y-113459166D01*
X111526785Y-113428928D01*
X111466309Y-113398690D01*
X111315119Y-113398690D01*
X111254642Y-113428928D01*
X111224404Y-113459166D01*
X111194166Y-113519642D01*
X111194166Y-113640595D01*
X111224404Y-113701071D01*
X111254642Y-113731309D01*
X111315119Y-113761547D01*
%TO.C,C17*%
X126141785Y-106886785D02*
X126111547Y-106917023D01*
X126020833Y-106947261D01*
X125960357Y-106947261D01*
X125869642Y-106917023D01*
X125809166Y-106856547D01*
X125778928Y-106796071D01*
X125748690Y-106675119D01*
X125748690Y-106584404D01*
X125778928Y-106463452D01*
X125809166Y-106402976D01*
X125869642Y-106342500D01*
X125960357Y-106312261D01*
X126020833Y-106312261D01*
X126111547Y-106342500D01*
X126141785Y-106372738D01*
X126746547Y-106947261D02*
X126383690Y-106947261D01*
X126565119Y-106947261D02*
X126565119Y-106312261D01*
X126504642Y-106402976D01*
X126444166Y-106463452D01*
X126383690Y-106493690D01*
X126958214Y-106312261D02*
X127381547Y-106312261D01*
X127109404Y-106947261D01*
%TO.C,C18*%
X127461785Y-109996785D02*
X127431547Y-110027023D01*
X127340833Y-110057261D01*
X127280357Y-110057261D01*
X127189642Y-110027023D01*
X127129166Y-109966547D01*
X127098928Y-109906071D01*
X127068690Y-109785119D01*
X127068690Y-109694404D01*
X127098928Y-109573452D01*
X127129166Y-109512976D01*
X127189642Y-109452500D01*
X127280357Y-109422261D01*
X127340833Y-109422261D01*
X127431547Y-109452500D01*
X127461785Y-109482738D01*
X128066547Y-110057261D02*
X127703690Y-110057261D01*
X127885119Y-110057261D02*
X127885119Y-109422261D01*
X127824642Y-109512976D01*
X127764166Y-109573452D01*
X127703690Y-109603690D01*
X128429404Y-109694404D02*
X128368928Y-109664166D01*
X128338690Y-109633928D01*
X128308452Y-109573452D01*
X128308452Y-109543214D01*
X128338690Y-109482738D01*
X128368928Y-109452500D01*
X128429404Y-109422261D01*
X128550357Y-109422261D01*
X128610833Y-109452500D01*
X128641071Y-109482738D01*
X128671309Y-109543214D01*
X128671309Y-109573452D01*
X128641071Y-109633928D01*
X128610833Y-109664166D01*
X128550357Y-109694404D01*
X128429404Y-109694404D01*
X128368928Y-109724642D01*
X128338690Y-109754880D01*
X128308452Y-109815357D01*
X128308452Y-109936309D01*
X128338690Y-109996785D01*
X128368928Y-110027023D01*
X128429404Y-110057261D01*
X128550357Y-110057261D01*
X128610833Y-110027023D01*
X128641071Y-109996785D01*
X128671309Y-109936309D01*
X128671309Y-109815357D01*
X128641071Y-109754880D01*
X128610833Y-109724642D01*
X128550357Y-109694404D01*
%TO.C,C19*%
X115186785Y-107828214D02*
X115217023Y-107858452D01*
X115247261Y-107949166D01*
X115247261Y-108009642D01*
X115217023Y-108100357D01*
X115156547Y-108160833D01*
X115096071Y-108191071D01*
X114975119Y-108221309D01*
X114884404Y-108221309D01*
X114763452Y-108191071D01*
X114702976Y-108160833D01*
X114642500Y-108100357D01*
X114612261Y-108009642D01*
X114612261Y-107949166D01*
X114642500Y-107858452D01*
X114672738Y-107828214D01*
X115247261Y-107223452D02*
X115247261Y-107586309D01*
X115247261Y-107404880D02*
X114612261Y-107404880D01*
X114702976Y-107465357D01*
X114763452Y-107525833D01*
X114793690Y-107586309D01*
X115247261Y-106921071D02*
X115247261Y-106800119D01*
X115217023Y-106739642D01*
X115186785Y-106709404D01*
X115096071Y-106648928D01*
X114975119Y-106618690D01*
X114733214Y-106618690D01*
X114672738Y-106648928D01*
X114642500Y-106679166D01*
X114612261Y-106739642D01*
X114612261Y-106860595D01*
X114642500Y-106921071D01*
X114672738Y-106951309D01*
X114733214Y-106981547D01*
X114884404Y-106981547D01*
X114944880Y-106951309D01*
X114975119Y-106921071D01*
X115005357Y-106860595D01*
X115005357Y-106739642D01*
X114975119Y-106679166D01*
X114944880Y-106648928D01*
X114884404Y-106618690D01*
%TO.C,C20*%
X114366785Y-107818214D02*
X114397023Y-107848452D01*
X114427261Y-107939166D01*
X114427261Y-107999642D01*
X114397023Y-108090357D01*
X114336547Y-108150833D01*
X114276071Y-108181071D01*
X114155119Y-108211309D01*
X114064404Y-108211309D01*
X113943452Y-108181071D01*
X113882976Y-108150833D01*
X113822500Y-108090357D01*
X113792261Y-107999642D01*
X113792261Y-107939166D01*
X113822500Y-107848452D01*
X113852738Y-107818214D01*
X113852738Y-107576309D02*
X113822500Y-107546071D01*
X113792261Y-107485595D01*
X113792261Y-107334404D01*
X113822500Y-107273928D01*
X113852738Y-107243690D01*
X113913214Y-107213452D01*
X113973690Y-107213452D01*
X114064404Y-107243690D01*
X114427261Y-107606547D01*
X114427261Y-107213452D01*
X113792261Y-106820357D02*
X113792261Y-106759880D01*
X113822500Y-106699404D01*
X113852738Y-106669166D01*
X113913214Y-106638928D01*
X114034166Y-106608690D01*
X114185357Y-106608690D01*
X114306309Y-106638928D01*
X114366785Y-106669166D01*
X114397023Y-106699404D01*
X114427261Y-106759880D01*
X114427261Y-106820357D01*
X114397023Y-106880833D01*
X114366785Y-106911071D01*
X114306309Y-106941309D01*
X114185357Y-106971547D01*
X114034166Y-106971547D01*
X113913214Y-106941309D01*
X113852738Y-106911071D01*
X113822500Y-106880833D01*
X113792261Y-106820357D01*
%TO.C,C21*%
X110416785Y-105388214D02*
X110447023Y-105418452D01*
X110477261Y-105509166D01*
X110477261Y-105569642D01*
X110447023Y-105660357D01*
X110386547Y-105720833D01*
X110326071Y-105751071D01*
X110205119Y-105781309D01*
X110114404Y-105781309D01*
X109993452Y-105751071D01*
X109932976Y-105720833D01*
X109872500Y-105660357D01*
X109842261Y-105569642D01*
X109842261Y-105509166D01*
X109872500Y-105418452D01*
X109902738Y-105388214D01*
X109902738Y-105146309D02*
X109872500Y-105116071D01*
X109842261Y-105055595D01*
X109842261Y-104904404D01*
X109872500Y-104843928D01*
X109902738Y-104813690D01*
X109963214Y-104783452D01*
X110023690Y-104783452D01*
X110114404Y-104813690D01*
X110477261Y-105176547D01*
X110477261Y-104783452D01*
X110477261Y-104178690D02*
X110477261Y-104541547D01*
X110477261Y-104360119D02*
X109842261Y-104360119D01*
X109932976Y-104420595D01*
X109993452Y-104481071D01*
X110023690Y-104541547D01*
%TO.C,C23*%
X146181785Y-123816785D02*
X146151547Y-123847023D01*
X146060833Y-123877261D01*
X146000357Y-123877261D01*
X145909642Y-123847023D01*
X145849166Y-123786547D01*
X145818928Y-123726071D01*
X145788690Y-123605119D01*
X145788690Y-123514404D01*
X145818928Y-123393452D01*
X145849166Y-123332976D01*
X145909642Y-123272500D01*
X146000357Y-123242261D01*
X146060833Y-123242261D01*
X146151547Y-123272500D01*
X146181785Y-123302738D01*
X146423690Y-123302738D02*
X146453928Y-123272500D01*
X146514404Y-123242261D01*
X146665595Y-123242261D01*
X146726071Y-123272500D01*
X146756309Y-123302738D01*
X146786547Y-123363214D01*
X146786547Y-123423690D01*
X146756309Y-123514404D01*
X146393452Y-123877261D01*
X146786547Y-123877261D01*
X146998214Y-123242261D02*
X147391309Y-123242261D01*
X147179642Y-123484166D01*
X147270357Y-123484166D01*
X147330833Y-123514404D01*
X147361071Y-123544642D01*
X147391309Y-123605119D01*
X147391309Y-123756309D01*
X147361071Y-123816785D01*
X147330833Y-123847023D01*
X147270357Y-123877261D01*
X147088928Y-123877261D01*
X147028452Y-123847023D01*
X146998214Y-123816785D01*
%TO.C,C24*%
X147416785Y-116608214D02*
X147447023Y-116638452D01*
X147477261Y-116729166D01*
X147477261Y-116789642D01*
X147447023Y-116880357D01*
X147386547Y-116940833D01*
X147326071Y-116971071D01*
X147205119Y-117001309D01*
X147114404Y-117001309D01*
X146993452Y-116971071D01*
X146932976Y-116940833D01*
X146872500Y-116880357D01*
X146842261Y-116789642D01*
X146842261Y-116729166D01*
X146872500Y-116638452D01*
X146902738Y-116608214D01*
X146902738Y-116366309D02*
X146872500Y-116336071D01*
X146842261Y-116275595D01*
X146842261Y-116124404D01*
X146872500Y-116063928D01*
X146902738Y-116033690D01*
X146963214Y-116003452D01*
X147023690Y-116003452D01*
X147114404Y-116033690D01*
X147477261Y-116396547D01*
X147477261Y-116003452D01*
X147053928Y-115459166D02*
X147477261Y-115459166D01*
X146812023Y-115610357D02*
X147265595Y-115761547D01*
X147265595Y-115368452D01*
%TO.C,C25*%
X134556785Y-118818214D02*
X134587023Y-118848452D01*
X134617261Y-118939166D01*
X134617261Y-118999642D01*
X134587023Y-119090357D01*
X134526547Y-119150833D01*
X134466071Y-119181071D01*
X134345119Y-119211309D01*
X134254404Y-119211309D01*
X134133452Y-119181071D01*
X134072976Y-119150833D01*
X134012500Y-119090357D01*
X133982261Y-118999642D01*
X133982261Y-118939166D01*
X134012500Y-118848452D01*
X134042738Y-118818214D01*
X134042738Y-118576309D02*
X134012500Y-118546071D01*
X133982261Y-118485595D01*
X133982261Y-118334404D01*
X134012500Y-118273928D01*
X134042738Y-118243690D01*
X134103214Y-118213452D01*
X134163690Y-118213452D01*
X134254404Y-118243690D01*
X134617261Y-118606547D01*
X134617261Y-118213452D01*
X133982261Y-117638928D02*
X133982261Y-117941309D01*
X134284642Y-117971547D01*
X134254404Y-117941309D01*
X134224166Y-117880833D01*
X134224166Y-117729642D01*
X134254404Y-117669166D01*
X134284642Y-117638928D01*
X134345119Y-117608690D01*
X134496309Y-117608690D01*
X134556785Y-117638928D01*
X134587023Y-117669166D01*
X134617261Y-117729642D01*
X134617261Y-117880833D01*
X134587023Y-117941309D01*
X134556785Y-117971547D01*
%TO.C,C26*%
X136406785Y-111278214D02*
X136437023Y-111308452D01*
X136467261Y-111399166D01*
X136467261Y-111459642D01*
X136437023Y-111550357D01*
X136376547Y-111610833D01*
X136316071Y-111641071D01*
X136195119Y-111671309D01*
X136104404Y-111671309D01*
X135983452Y-111641071D01*
X135922976Y-111610833D01*
X135862500Y-111550357D01*
X135832261Y-111459642D01*
X135832261Y-111399166D01*
X135862500Y-111308452D01*
X135892738Y-111278214D01*
X135892738Y-111036309D02*
X135862500Y-111006071D01*
X135832261Y-110945595D01*
X135832261Y-110794404D01*
X135862500Y-110733928D01*
X135892738Y-110703690D01*
X135953214Y-110673452D01*
X136013690Y-110673452D01*
X136104404Y-110703690D01*
X136467261Y-111066547D01*
X136467261Y-110673452D01*
X135832261Y-110129166D02*
X135832261Y-110250119D01*
X135862500Y-110310595D01*
X135892738Y-110340833D01*
X135983452Y-110401309D01*
X136104404Y-110431547D01*
X136346309Y-110431547D01*
X136406785Y-110401309D01*
X136437023Y-110371071D01*
X136467261Y-110310595D01*
X136467261Y-110189642D01*
X136437023Y-110129166D01*
X136406785Y-110098928D01*
X136346309Y-110068690D01*
X136195119Y-110068690D01*
X136134642Y-110098928D01*
X136104404Y-110129166D01*
X136074166Y-110189642D01*
X136074166Y-110310595D01*
X136104404Y-110371071D01*
X136134642Y-110401309D01*
X136195119Y-110431547D01*
%TO.C,C27*%
D21*
X153501785Y-114696785D02*
X153471547Y-114727023D01*
X153380833Y-114757261D01*
X153320357Y-114757261D01*
X153229642Y-114727023D01*
X153169166Y-114666547D01*
X153138928Y-114606071D01*
X153108690Y-114485119D01*
X153108690Y-114394404D01*
X153138928Y-114273452D01*
X153169166Y-114212976D01*
X153229642Y-114152500D01*
X153320357Y-114122261D01*
X153380833Y-114122261D01*
X153471547Y-114152500D01*
X153501785Y-114182738D01*
X153743690Y-114182738D02*
X153773928Y-114152500D01*
X153834404Y-114122261D01*
X153985595Y-114122261D01*
X154046071Y-114152500D01*
X154076309Y-114182738D01*
X154106547Y-114243214D01*
X154106547Y-114303690D01*
X154076309Y-114394404D01*
X153713452Y-114757261D01*
X154106547Y-114757261D01*
X154318214Y-114122261D02*
X154741547Y-114122261D01*
X154469404Y-114757261D01*
%TO.C,C28*%
D16*
X173266785Y-96488214D02*
X173297023Y-96518452D01*
X173327261Y-96609166D01*
X173327261Y-96669642D01*
X173297023Y-96760357D01*
X173236547Y-96820833D01*
X173176071Y-96851071D01*
X173055119Y-96881309D01*
X172964404Y-96881309D01*
X172843452Y-96851071D01*
X172782976Y-96820833D01*
X172722500Y-96760357D01*
X172692261Y-96669642D01*
X172692261Y-96609166D01*
X172722500Y-96518452D01*
X172752738Y-96488214D01*
X172752738Y-96246309D02*
X172722500Y-96216071D01*
X172692261Y-96155595D01*
X172692261Y-96004404D01*
X172722500Y-95943928D01*
X172752738Y-95913690D01*
X172813214Y-95883452D01*
X172873690Y-95883452D01*
X172964404Y-95913690D01*
X173327261Y-96276547D01*
X173327261Y-95883452D01*
X172964404Y-95520595D02*
X172934166Y-95581071D01*
X172903928Y-95611309D01*
X172843452Y-95641547D01*
X172813214Y-95641547D01*
X172752738Y-95611309D01*
X172722500Y-95581071D01*
X172692261Y-95520595D01*
X172692261Y-95399642D01*
X172722500Y-95339166D01*
X172752738Y-95308928D01*
X172813214Y-95278690D01*
X172843452Y-95278690D01*
X172903928Y-95308928D01*
X172934166Y-95339166D01*
X172964404Y-95399642D01*
X172964404Y-95520595D01*
X172994642Y-95581071D01*
X173024880Y-95611309D01*
X173085357Y-95641547D01*
X173206309Y-95641547D01*
X173266785Y-95611309D01*
X173297023Y-95581071D01*
X173327261Y-95520595D01*
X173327261Y-95399642D01*
X173297023Y-95339166D01*
X173266785Y-95308928D01*
X173206309Y-95278690D01*
X173085357Y-95278690D01*
X173024880Y-95308928D01*
X172994642Y-95339166D01*
X172964404Y-95399642D01*
%TO.C,C29*%
D21*
X144571785Y-110216785D02*
X144541547Y-110247023D01*
X144450833Y-110277261D01*
X144390357Y-110277261D01*
X144299642Y-110247023D01*
X144239166Y-110186547D01*
X144208928Y-110126071D01*
X144178690Y-110005119D01*
X144178690Y-109914404D01*
X144208928Y-109793452D01*
X144239166Y-109732976D01*
X144299642Y-109672500D01*
X144390357Y-109642261D01*
X144450833Y-109642261D01*
X144541547Y-109672500D01*
X144571785Y-109702738D01*
X144813690Y-109702738D02*
X144843928Y-109672500D01*
X144904404Y-109642261D01*
X145055595Y-109642261D01*
X145116071Y-109672500D01*
X145146309Y-109702738D01*
X145176547Y-109763214D01*
X145176547Y-109823690D01*
X145146309Y-109914404D01*
X144783452Y-110277261D01*
X145176547Y-110277261D01*
X145478928Y-110277261D02*
X145599880Y-110277261D01*
X145660357Y-110247023D01*
X145690595Y-110216785D01*
X145751071Y-110126071D01*
X145781309Y-110005119D01*
X145781309Y-109763214D01*
X145751071Y-109702738D01*
X145720833Y-109672500D01*
X145660357Y-109642261D01*
X145539404Y-109642261D01*
X145478928Y-109672500D01*
X145448690Y-109702738D01*
X145418452Y-109763214D01*
X145418452Y-109914404D01*
X145448690Y-109974880D01*
X145478928Y-110005119D01*
X145539404Y-110035357D01*
X145660357Y-110035357D01*
X145720833Y-110005119D01*
X145751071Y-109974880D01*
X145781309Y-109914404D01*
%TO.C,C30*%
D16*
X153491785Y-113076785D02*
X153461547Y-113107023D01*
X153370833Y-113137261D01*
X153310357Y-113137261D01*
X153219642Y-113107023D01*
X153159166Y-113046547D01*
X153128928Y-112986071D01*
X153098690Y-112865119D01*
X153098690Y-112774404D01*
X153128928Y-112653452D01*
X153159166Y-112592976D01*
X153219642Y-112532500D01*
X153310357Y-112502261D01*
X153370833Y-112502261D01*
X153461547Y-112532500D01*
X153491785Y-112562738D01*
X153703452Y-112502261D02*
X154096547Y-112502261D01*
X153884880Y-112744166D01*
X153975595Y-112744166D01*
X154036071Y-112774404D01*
X154066309Y-112804642D01*
X154096547Y-112865119D01*
X154096547Y-113016309D01*
X154066309Y-113076785D01*
X154036071Y-113107023D01*
X153975595Y-113137261D01*
X153794166Y-113137261D01*
X153733690Y-113107023D01*
X153703452Y-113076785D01*
X154489642Y-112502261D02*
X154550119Y-112502261D01*
X154610595Y-112532500D01*
X154640833Y-112562738D01*
X154671071Y-112623214D01*
X154701309Y-112744166D01*
X154701309Y-112895357D01*
X154671071Y-113016309D01*
X154640833Y-113076785D01*
X154610595Y-113107023D01*
X154550119Y-113137261D01*
X154489642Y-113137261D01*
X154429166Y-113107023D01*
X154398928Y-113076785D01*
X154368690Y-113016309D01*
X154338452Y-112895357D01*
X154338452Y-112744166D01*
X154368690Y-112623214D01*
X154398928Y-112562738D01*
X154429166Y-112532500D01*
X154489642Y-112502261D01*
%TO.C,C31*%
X154716785Y-110678214D02*
X154747023Y-110708452D01*
X154777261Y-110799166D01*
X154777261Y-110859642D01*
X154747023Y-110950357D01*
X154686547Y-111010833D01*
X154626071Y-111041071D01*
X154505119Y-111071309D01*
X154414404Y-111071309D01*
X154293452Y-111041071D01*
X154232976Y-111010833D01*
X154172500Y-110950357D01*
X154142261Y-110859642D01*
X154142261Y-110799166D01*
X154172500Y-110708452D01*
X154202738Y-110678214D01*
X154142261Y-110466547D02*
X154142261Y-110073452D01*
X154384166Y-110285119D01*
X154384166Y-110194404D01*
X154414404Y-110133928D01*
X154444642Y-110103690D01*
X154505119Y-110073452D01*
X154656309Y-110073452D01*
X154716785Y-110103690D01*
X154747023Y-110133928D01*
X154777261Y-110194404D01*
X154777261Y-110375833D01*
X154747023Y-110436309D01*
X154716785Y-110466547D01*
X154777261Y-109468690D02*
X154777261Y-109831547D01*
X154777261Y-109650119D02*
X154142261Y-109650119D01*
X154232976Y-109710595D01*
X154293452Y-109771071D01*
X154323690Y-109831547D01*
%TO.C,C32*%
X153391785Y-107896785D02*
X153361547Y-107927023D01*
X153270833Y-107957261D01*
X153210357Y-107957261D01*
X153119642Y-107927023D01*
X153059166Y-107866547D01*
X153028928Y-107806071D01*
X152998690Y-107685119D01*
X152998690Y-107594404D01*
X153028928Y-107473452D01*
X153059166Y-107412976D01*
X153119642Y-107352500D01*
X153210357Y-107322261D01*
X153270833Y-107322261D01*
X153361547Y-107352500D01*
X153391785Y-107382738D01*
X153603452Y-107322261D02*
X153996547Y-107322261D01*
X153784880Y-107564166D01*
X153875595Y-107564166D01*
X153936071Y-107594404D01*
X153966309Y-107624642D01*
X153996547Y-107685119D01*
X153996547Y-107836309D01*
X153966309Y-107896785D01*
X153936071Y-107927023D01*
X153875595Y-107957261D01*
X153694166Y-107957261D01*
X153633690Y-107927023D01*
X153603452Y-107896785D01*
X154238452Y-107382738D02*
X154268690Y-107352500D01*
X154329166Y-107322261D01*
X154480357Y-107322261D01*
X154540833Y-107352500D01*
X154571071Y-107382738D01*
X154601309Y-107443214D01*
X154601309Y-107503690D01*
X154571071Y-107594404D01*
X154208214Y-107957261D01*
X154601309Y-107957261D01*
%TO.C,C33*%
X165661785Y-121556785D02*
X165631547Y-121587023D01*
X165540833Y-121617261D01*
X165480357Y-121617261D01*
X165389642Y-121587023D01*
X165329166Y-121526547D01*
X165298928Y-121466071D01*
X165268690Y-121345119D01*
X165268690Y-121254404D01*
X165298928Y-121133452D01*
X165329166Y-121072976D01*
X165389642Y-121012500D01*
X165480357Y-120982261D01*
X165540833Y-120982261D01*
X165631547Y-121012500D01*
X165661785Y-121042738D01*
X165873452Y-120982261D02*
X166266547Y-120982261D01*
X166054880Y-121224166D01*
X166145595Y-121224166D01*
X166206071Y-121254404D01*
X166236309Y-121284642D01*
X166266547Y-121345119D01*
X166266547Y-121496309D01*
X166236309Y-121556785D01*
X166206071Y-121587023D01*
X166145595Y-121617261D01*
X165964166Y-121617261D01*
X165903690Y-121587023D01*
X165873452Y-121556785D01*
X166478214Y-120982261D02*
X166871309Y-120982261D01*
X166659642Y-121224166D01*
X166750357Y-121224166D01*
X166810833Y-121254404D01*
X166841071Y-121284642D01*
X166871309Y-121345119D01*
X166871309Y-121496309D01*
X166841071Y-121556785D01*
X166810833Y-121587023D01*
X166750357Y-121617261D01*
X166568928Y-121617261D01*
X166508452Y-121587023D01*
X166478214Y-121556785D01*
%TO.C,C34*%
X166731785Y-76716785D02*
X166701547Y-76747023D01*
X166610833Y-76777261D01*
X166550357Y-76777261D01*
X166459642Y-76747023D01*
X166399166Y-76686547D01*
X166368928Y-76626071D01*
X166338690Y-76505119D01*
X166338690Y-76414404D01*
X166368928Y-76293452D01*
X166399166Y-76232976D01*
X166459642Y-76172500D01*
X166550357Y-76142261D01*
X166610833Y-76142261D01*
X166701547Y-76172500D01*
X166731785Y-76202738D01*
X166943452Y-76142261D02*
X167336547Y-76142261D01*
X167124880Y-76384166D01*
X167215595Y-76384166D01*
X167276071Y-76414404D01*
X167306309Y-76444642D01*
X167336547Y-76505119D01*
X167336547Y-76656309D01*
X167306309Y-76716785D01*
X167276071Y-76747023D01*
X167215595Y-76777261D01*
X167034166Y-76777261D01*
X166973690Y-76747023D01*
X166943452Y-76716785D01*
X167880833Y-76353928D02*
X167880833Y-76777261D01*
X167729642Y-76112023D02*
X167578452Y-76565595D01*
X167971547Y-76565595D01*
%TO.C,C35*%
D13*
X163976785Y-76778214D02*
X164007023Y-76808452D01*
X164037261Y-76899166D01*
X164037261Y-76959642D01*
X164007023Y-77050357D01*
X163946547Y-77110833D01*
X163886071Y-77141071D01*
X163765119Y-77171309D01*
X163674404Y-77171309D01*
X163553452Y-77141071D01*
X163492976Y-77110833D01*
X163432500Y-77050357D01*
X163402261Y-76959642D01*
X163402261Y-76899166D01*
X163432500Y-76808452D01*
X163462738Y-76778214D01*
X163402261Y-76566547D02*
X163402261Y-76173452D01*
X163644166Y-76385119D01*
X163644166Y-76294404D01*
X163674404Y-76233928D01*
X163704642Y-76203690D01*
X163765119Y-76173452D01*
X163916309Y-76173452D01*
X163976785Y-76203690D01*
X164007023Y-76233928D01*
X164037261Y-76294404D01*
X164037261Y-76475833D01*
X164007023Y-76536309D01*
X163976785Y-76566547D01*
X163402261Y-75598928D02*
X163402261Y-75901309D01*
X163704642Y-75931547D01*
X163674404Y-75901309D01*
X163644166Y-75840833D01*
X163644166Y-75689642D01*
X163674404Y-75629166D01*
X163704642Y-75598928D01*
X163765119Y-75568690D01*
X163916309Y-75568690D01*
X163976785Y-75598928D01*
X164007023Y-75629166D01*
X164037261Y-75689642D01*
X164037261Y-75840833D01*
X164007023Y-75901309D01*
X163976785Y-75931547D01*
%TO.C,C36*%
X164386785Y-78768214D02*
X164417023Y-78798452D01*
X164447261Y-78889166D01*
X164447261Y-78949642D01*
X164417023Y-79040357D01*
X164356547Y-79100833D01*
X164296071Y-79131071D01*
X164175119Y-79161309D01*
X164084404Y-79161309D01*
X163963452Y-79131071D01*
X163902976Y-79100833D01*
X163842500Y-79040357D01*
X163812261Y-78949642D01*
X163812261Y-78889166D01*
X163842500Y-78798452D01*
X163872738Y-78768214D01*
X163812261Y-78556547D02*
X163812261Y-78163452D01*
X164054166Y-78375119D01*
X164054166Y-78284404D01*
X164084404Y-78223928D01*
X164114642Y-78193690D01*
X164175119Y-78163452D01*
X164326309Y-78163452D01*
X164386785Y-78193690D01*
X164417023Y-78223928D01*
X164447261Y-78284404D01*
X164447261Y-78465833D01*
X164417023Y-78526309D01*
X164386785Y-78556547D01*
X163812261Y-77619166D02*
X163812261Y-77740119D01*
X163842500Y-77800595D01*
X163872738Y-77830833D01*
X163963452Y-77891309D01*
X164084404Y-77921547D01*
X164326309Y-77921547D01*
X164386785Y-77891309D01*
X164417023Y-77861071D01*
X164447261Y-77800595D01*
X164447261Y-77679642D01*
X164417023Y-77619166D01*
X164386785Y-77588928D01*
X164326309Y-77558690D01*
X164175119Y-77558690D01*
X164114642Y-77588928D01*
X164084404Y-77619166D01*
X164054166Y-77679642D01*
X164054166Y-77800595D01*
X164084404Y-77861071D01*
X164114642Y-77891309D01*
X164175119Y-77921547D01*
%TO.C,C37*%
X166721785Y-90406785D02*
X166691547Y-90437023D01*
X166600833Y-90467261D01*
X166540357Y-90467261D01*
X166449642Y-90437023D01*
X166389166Y-90376547D01*
X166358928Y-90316071D01*
X166328690Y-90195119D01*
X166328690Y-90104404D01*
X166358928Y-89983452D01*
X166389166Y-89922976D01*
X166449642Y-89862500D01*
X166540357Y-89832261D01*
X166600833Y-89832261D01*
X166691547Y-89862500D01*
X166721785Y-89892738D01*
X166933452Y-89832261D02*
X167326547Y-89832261D01*
X167114880Y-90074166D01*
X167205595Y-90074166D01*
X167266071Y-90104404D01*
X167296309Y-90134642D01*
X167326547Y-90195119D01*
X167326547Y-90346309D01*
X167296309Y-90406785D01*
X167266071Y-90437023D01*
X167205595Y-90467261D01*
X167024166Y-90467261D01*
X166963690Y-90437023D01*
X166933452Y-90406785D01*
X167538214Y-89832261D02*
X167961547Y-89832261D01*
X167689404Y-90467261D01*
%TO.C,C38*%
D16*
X172971785Y-91736785D02*
X172941547Y-91767023D01*
X172850833Y-91797261D01*
X172790357Y-91797261D01*
X172699642Y-91767023D01*
X172639166Y-91706547D01*
X172608928Y-91646071D01*
X172578690Y-91525119D01*
X172578690Y-91434404D01*
X172608928Y-91313452D01*
X172639166Y-91252976D01*
X172699642Y-91192500D01*
X172790357Y-91162261D01*
X172850833Y-91162261D01*
X172941547Y-91192500D01*
X172971785Y-91222738D01*
X173183452Y-91162261D02*
X173576547Y-91162261D01*
X173364880Y-91404166D01*
X173455595Y-91404166D01*
X173516071Y-91434404D01*
X173546309Y-91464642D01*
X173576547Y-91525119D01*
X173576547Y-91676309D01*
X173546309Y-91736785D01*
X173516071Y-91767023D01*
X173455595Y-91797261D01*
X173274166Y-91797261D01*
X173213690Y-91767023D01*
X173183452Y-91736785D01*
X173939404Y-91434404D02*
X173878928Y-91404166D01*
X173848690Y-91373928D01*
X173818452Y-91313452D01*
X173818452Y-91283214D01*
X173848690Y-91222738D01*
X173878928Y-91192500D01*
X173939404Y-91162261D01*
X174060357Y-91162261D01*
X174120833Y-91192500D01*
X174151071Y-91222738D01*
X174181309Y-91283214D01*
X174181309Y-91313452D01*
X174151071Y-91373928D01*
X174120833Y-91404166D01*
X174060357Y-91434404D01*
X173939404Y-91434404D01*
X173878928Y-91464642D01*
X173848690Y-91494880D01*
X173818452Y-91555357D01*
X173818452Y-91676309D01*
X173848690Y-91736785D01*
X173878928Y-91767023D01*
X173939404Y-91797261D01*
X174060357Y-91797261D01*
X174120833Y-91767023D01*
X174151071Y-91736785D01*
X174181309Y-91676309D01*
X174181309Y-91555357D01*
X174151071Y-91494880D01*
X174120833Y-91464642D01*
X174060357Y-91434404D01*
%TO.C,Con1*%
D17*
X138878571Y-110527142D02*
X138830952Y-110574761D01*
X138688095Y-110622380D01*
X138592857Y-110622380D01*
X138450000Y-110574761D01*
X138354761Y-110479523D01*
X138307142Y-110384285D01*
X138259523Y-110193809D01*
X138259523Y-110050952D01*
X138307142Y-109860476D01*
X138354761Y-109765238D01*
X138450000Y-109670000D01*
X138592857Y-109622380D01*
X138688095Y-109622380D01*
X138830952Y-109670000D01*
X138878571Y-109717619D01*
X139450000Y-110622380D02*
X139354761Y-110574761D01*
X139307142Y-110527142D01*
X139259523Y-110431904D01*
X139259523Y-110146190D01*
X139307142Y-110050952D01*
X139354761Y-110003333D01*
X139450000Y-109955714D01*
X139592857Y-109955714D01*
X139688095Y-110003333D01*
X139735714Y-110050952D01*
X139783333Y-110146190D01*
X139783333Y-110431904D01*
X139735714Y-110527142D01*
X139688095Y-110574761D01*
X139592857Y-110622380D01*
X139450000Y-110622380D01*
X140211904Y-109955714D02*
X140211904Y-110622380D01*
X140211904Y-110050952D02*
X140259523Y-110003333D01*
X140354761Y-109955714D01*
X140497619Y-109955714D01*
X140592857Y-110003333D01*
X140640476Y-110098571D01*
X140640476Y-110622380D01*
X141640476Y-110622380D02*
X141069047Y-110622380D01*
X141354761Y-110622380D02*
X141354761Y-109622380D01*
X141259523Y-109765238D01*
X141164285Y-109860476D01*
X141069047Y-109908095D01*
%TO.C,D1*%
D21*
X114281309Y-121807261D02*
X114281309Y-121172261D01*
X114432500Y-121172261D01*
X114523214Y-121202500D01*
X114583690Y-121262976D01*
X114613928Y-121323452D01*
X114644166Y-121444404D01*
X114644166Y-121535119D01*
X114613928Y-121656071D01*
X114583690Y-121716547D01*
X114523214Y-121777023D01*
X114432500Y-121807261D01*
X114281309Y-121807261D01*
X115248928Y-121807261D02*
X114886071Y-121807261D01*
X115067500Y-121807261D02*
X115067500Y-121172261D01*
X115007023Y-121262976D01*
X114946547Y-121323452D01*
X114886071Y-121353690D01*
%TO.C,D4*%
X147477261Y-119278690D02*
X146842261Y-119278690D01*
X146842261Y-119127500D01*
X146872500Y-119036785D01*
X146932976Y-118976309D01*
X146993452Y-118946071D01*
X147114404Y-118915833D01*
X147205119Y-118915833D01*
X147326071Y-118946071D01*
X147386547Y-118976309D01*
X147447023Y-119036785D01*
X147477261Y-119127500D01*
X147477261Y-119278690D01*
X147053928Y-118371547D02*
X147477261Y-118371547D01*
X146812023Y-118522738D02*
X147265595Y-118673928D01*
X147265595Y-118280833D01*
%TO.C,D5*%
X147141309Y-113037261D02*
X147141309Y-112402261D01*
X147292500Y-112402261D01*
X147383214Y-112432500D01*
X147443690Y-112492976D01*
X147473928Y-112553452D01*
X147504166Y-112674404D01*
X147504166Y-112765119D01*
X147473928Y-112886071D01*
X147443690Y-112946547D01*
X147383214Y-113007023D01*
X147292500Y-113037261D01*
X147141309Y-113037261D01*
X148078690Y-112402261D02*
X147776309Y-112402261D01*
X147746071Y-112704642D01*
X147776309Y-112674404D01*
X147836785Y-112644166D01*
X147987976Y-112644166D01*
X148048452Y-112674404D01*
X148078690Y-112704642D01*
X148108928Y-112765119D01*
X148108928Y-112916309D01*
X148078690Y-112976785D01*
X148048452Y-113007023D01*
X147987976Y-113037261D01*
X147836785Y-113037261D01*
X147776309Y-113007023D01*
X147746071Y-112976785D01*
%TO.C,D6*%
X134361309Y-123817261D02*
X134361309Y-123182261D01*
X134512500Y-123182261D01*
X134603214Y-123212500D01*
X134663690Y-123272976D01*
X134693928Y-123333452D01*
X134724166Y-123454404D01*
X134724166Y-123545119D01*
X134693928Y-123666071D01*
X134663690Y-123726547D01*
X134603214Y-123787023D01*
X134512500Y-123817261D01*
X134361309Y-123817261D01*
X135268452Y-123182261D02*
X135147500Y-123182261D01*
X135087023Y-123212500D01*
X135056785Y-123242738D01*
X134996309Y-123333452D01*
X134966071Y-123454404D01*
X134966071Y-123696309D01*
X134996309Y-123756785D01*
X135026547Y-123787023D01*
X135087023Y-123817261D01*
X135207976Y-123817261D01*
X135268452Y-123787023D01*
X135298690Y-123756785D01*
X135328928Y-123696309D01*
X135328928Y-123545119D01*
X135298690Y-123484642D01*
X135268452Y-123454404D01*
X135207976Y-123424166D01*
X135087023Y-123424166D01*
X135026547Y-123454404D01*
X134996309Y-123484642D01*
X134966071Y-123545119D01*
%TO.C,D7*%
X134687261Y-116968690D02*
X134052261Y-116968690D01*
X134052261Y-116817500D01*
X134082500Y-116726785D01*
X134142976Y-116666309D01*
X134203452Y-116636071D01*
X134324404Y-116605833D01*
X134415119Y-116605833D01*
X134536071Y-116636071D01*
X134596547Y-116666309D01*
X134657023Y-116726785D01*
X134687261Y-116817500D01*
X134687261Y-116968690D01*
X134052261Y-116394166D02*
X134052261Y-115970833D01*
X134687261Y-116242976D01*
%TO.C,D8*%
D16*
X154647261Y-121758690D02*
X154012261Y-121758690D01*
X154012261Y-121607500D01*
X154042500Y-121516785D01*
X154102976Y-121456309D01*
X154163452Y-121426071D01*
X154284404Y-121395833D01*
X154375119Y-121395833D01*
X154496071Y-121426071D01*
X154556547Y-121456309D01*
X154617023Y-121516785D01*
X154647261Y-121607500D01*
X154647261Y-121758690D01*
X154284404Y-121032976D02*
X154254166Y-121093452D01*
X154223928Y-121123690D01*
X154163452Y-121153928D01*
X154133214Y-121153928D01*
X154072738Y-121123690D01*
X154042500Y-121093452D01*
X154012261Y-121032976D01*
X154012261Y-120912023D01*
X154042500Y-120851547D01*
X154072738Y-120821309D01*
X154133214Y-120791071D01*
X154163452Y-120791071D01*
X154223928Y-120821309D01*
X154254166Y-120851547D01*
X154284404Y-120912023D01*
X154284404Y-121032976D01*
X154314642Y-121093452D01*
X154344880Y-121123690D01*
X154405357Y-121153928D01*
X154526309Y-121153928D01*
X154586785Y-121123690D01*
X154617023Y-121093452D01*
X154647261Y-121032976D01*
X154647261Y-120912023D01*
X154617023Y-120851547D01*
X154586785Y-120821309D01*
X154526309Y-120791071D01*
X154405357Y-120791071D01*
X154344880Y-120821309D01*
X154314642Y-120851547D01*
X154284404Y-120912023D01*
%TO.C,L1*%
D21*
X121924166Y-110187261D02*
X121621785Y-110187261D01*
X121621785Y-109552261D01*
X122468452Y-110187261D02*
X122105595Y-110187261D01*
X122287023Y-110187261D02*
X122287023Y-109552261D01*
X122226547Y-109642976D01*
X122166071Y-109703452D01*
X122105595Y-109733690D01*
%TO.C,L3*%
X117564166Y-101157261D02*
X117261785Y-101157261D01*
X117261785Y-100522261D01*
X117715357Y-100522261D02*
X118108452Y-100522261D01*
X117896785Y-100764166D01*
X117987500Y-100764166D01*
X118047976Y-100794404D01*
X118078214Y-100824642D01*
X118108452Y-100885119D01*
X118108452Y-101036309D01*
X118078214Y-101096785D01*
X118047976Y-101127023D01*
X117987500Y-101157261D01*
X117806071Y-101157261D01*
X117745595Y-101127023D01*
X117715357Y-101096785D01*
%TO.C,L4*%
X168314166Y-121597261D02*
X168011785Y-121597261D01*
X168011785Y-120962261D01*
X168797976Y-121173928D02*
X168797976Y-121597261D01*
X168646785Y-120932023D02*
X168495595Y-121385595D01*
X168888690Y-121385595D01*
%TO.C,L5*%
X176474166Y-90637261D02*
X176171785Y-90637261D01*
X176171785Y-90002261D01*
X176988214Y-90002261D02*
X176685833Y-90002261D01*
X176655595Y-90304642D01*
X176685833Y-90274404D01*
X176746309Y-90244166D01*
X176897500Y-90244166D01*
X176957976Y-90274404D01*
X176988214Y-90304642D01*
X177018452Y-90365119D01*
X177018452Y-90516309D01*
X176988214Y-90576785D01*
X176957976Y-90607023D01*
X176897500Y-90637261D01*
X176746309Y-90637261D01*
X176685833Y-90607023D01*
X176655595Y-90576785D01*
%TO.C,P1*%
D13*
X171382380Y-85628095D02*
X170382380Y-85628095D01*
X170382380Y-85247142D01*
X170430000Y-85151904D01*
X170477619Y-85104285D01*
X170572857Y-85056666D01*
X170715714Y-85056666D01*
X170810952Y-85104285D01*
X170858571Y-85151904D01*
X170906190Y-85247142D01*
X170906190Y-85628095D01*
X171382380Y-84104285D02*
X171382380Y-84675714D01*
X171382380Y-84390000D02*
X170382380Y-84390000D01*
X170525238Y-84485238D01*
X170620476Y-84580476D01*
X170668095Y-84675714D01*
%TO.C,Q1*%
D21*
X154819523Y-124067738D02*
X154759047Y-124037500D01*
X154698571Y-123977023D01*
X154607857Y-123886309D01*
X154547380Y-123856071D01*
X154486904Y-123856071D01*
X154517142Y-124007261D02*
X154456666Y-123977023D01*
X154396190Y-123916547D01*
X154365952Y-123795595D01*
X154365952Y-123583928D01*
X154396190Y-123462976D01*
X154456666Y-123402500D01*
X154517142Y-123372261D01*
X154638095Y-123372261D01*
X154698571Y-123402500D01*
X154759047Y-123462976D01*
X154789285Y-123583928D01*
X154789285Y-123795595D01*
X154759047Y-123916547D01*
X154698571Y-123977023D01*
X154638095Y-124007261D01*
X154517142Y-124007261D01*
X155394047Y-124007261D02*
X155031190Y-124007261D01*
X155212619Y-124007261D02*
X155212619Y-123372261D01*
X155152142Y-123462976D01*
X155091666Y-123523452D01*
X155031190Y-123553690D01*
%TO.C,Q2*%
X171109523Y-76357738D02*
X171049047Y-76327500D01*
X170988571Y-76267023D01*
X170897857Y-76176309D01*
X170837380Y-76146071D01*
X170776904Y-76146071D01*
X170807142Y-76297261D02*
X170746666Y-76267023D01*
X170686190Y-76206547D01*
X170655952Y-76085595D01*
X170655952Y-75873928D01*
X170686190Y-75752976D01*
X170746666Y-75692500D01*
X170807142Y-75662261D01*
X170928095Y-75662261D01*
X170988571Y-75692500D01*
X171049047Y-75752976D01*
X171079285Y-75873928D01*
X171079285Y-76085595D01*
X171049047Y-76206547D01*
X170988571Y-76267023D01*
X170928095Y-76297261D01*
X170807142Y-76297261D01*
X171321190Y-75722738D02*
X171351428Y-75692500D01*
X171411904Y-75662261D01*
X171563095Y-75662261D01*
X171623571Y-75692500D01*
X171653809Y-75722738D01*
X171684047Y-75783214D01*
X171684047Y-75843690D01*
X171653809Y-75934404D01*
X171290952Y-76297261D01*
X171684047Y-76297261D01*
%TO.C,R1*%
D13*
X126254166Y-109967261D02*
X126042500Y-109664880D01*
X125891309Y-109967261D02*
X125891309Y-109332261D01*
X126133214Y-109332261D01*
X126193690Y-109362500D01*
X126223928Y-109392738D01*
X126254166Y-109453214D01*
X126254166Y-109543928D01*
X126223928Y-109604404D01*
X126193690Y-109634642D01*
X126133214Y-109664880D01*
X125891309Y-109664880D01*
X126858928Y-109967261D02*
X126496071Y-109967261D01*
X126677500Y-109967261D02*
X126677500Y-109332261D01*
X126617023Y-109422976D01*
X126556547Y-109483452D01*
X126496071Y-109513690D01*
%TO.C,R2*%
X122874166Y-111997261D02*
X122662500Y-111694880D01*
X122511309Y-111997261D02*
X122511309Y-111362261D01*
X122753214Y-111362261D01*
X122813690Y-111392500D01*
X122843928Y-111422738D01*
X122874166Y-111483214D01*
X122874166Y-111573928D01*
X122843928Y-111634404D01*
X122813690Y-111664642D01*
X122753214Y-111694880D01*
X122511309Y-111694880D01*
X123116071Y-111422738D02*
X123146309Y-111392500D01*
X123206785Y-111362261D01*
X123357976Y-111362261D01*
X123418452Y-111392500D01*
X123448690Y-111422738D01*
X123478928Y-111483214D01*
X123478928Y-111543690D01*
X123448690Y-111634404D01*
X123085833Y-111997261D01*
X123478928Y-111997261D01*
%TO.C,R3*%
X115224166Y-101867261D02*
X115012500Y-101564880D01*
X114861309Y-101867261D02*
X114861309Y-101232261D01*
X115103214Y-101232261D01*
X115163690Y-101262500D01*
X115193928Y-101292738D01*
X115224166Y-101353214D01*
X115224166Y-101443928D01*
X115193928Y-101504404D01*
X115163690Y-101534642D01*
X115103214Y-101564880D01*
X114861309Y-101564880D01*
X115435833Y-101232261D02*
X115828928Y-101232261D01*
X115617261Y-101474166D01*
X115707976Y-101474166D01*
X115768452Y-101504404D01*
X115798690Y-101534642D01*
X115828928Y-101595119D01*
X115828928Y-101746309D01*
X115798690Y-101806785D01*
X115768452Y-101837023D01*
X115707976Y-101867261D01*
X115526547Y-101867261D01*
X115466071Y-101837023D01*
X115435833Y-101806785D01*
%TO.C,R4*%
X113637261Y-107415833D02*
X113334880Y-107627500D01*
X113637261Y-107778690D02*
X113002261Y-107778690D01*
X113002261Y-107536785D01*
X113032500Y-107476309D01*
X113062738Y-107446071D01*
X113123214Y-107415833D01*
X113213928Y-107415833D01*
X113274404Y-107446071D01*
X113304642Y-107476309D01*
X113334880Y-107536785D01*
X113334880Y-107778690D01*
X113213928Y-106871547D02*
X113637261Y-106871547D01*
X112972023Y-107022738D02*
X113425595Y-107173928D01*
X113425595Y-106780833D01*
%TO.C,R7*%
X116204166Y-121827261D02*
X115992500Y-121524880D01*
X115841309Y-121827261D02*
X115841309Y-121192261D01*
X116083214Y-121192261D01*
X116143690Y-121222500D01*
X116173928Y-121252738D01*
X116204166Y-121313214D01*
X116204166Y-121403928D01*
X116173928Y-121464404D01*
X116143690Y-121494642D01*
X116083214Y-121524880D01*
X115841309Y-121524880D01*
X116415833Y-121192261D02*
X116839166Y-121192261D01*
X116567023Y-121827261D01*
%TO.C,R8*%
X123324166Y-97847261D02*
X123112500Y-97544880D01*
X122961309Y-97847261D02*
X122961309Y-97212261D01*
X123203214Y-97212261D01*
X123263690Y-97242500D01*
X123293928Y-97272738D01*
X123324166Y-97333214D01*
X123324166Y-97423928D01*
X123293928Y-97484404D01*
X123263690Y-97514642D01*
X123203214Y-97544880D01*
X122961309Y-97544880D01*
X123687023Y-97484404D02*
X123626547Y-97454166D01*
X123596309Y-97423928D01*
X123566071Y-97363452D01*
X123566071Y-97333214D01*
X123596309Y-97272738D01*
X123626547Y-97242500D01*
X123687023Y-97212261D01*
X123807976Y-97212261D01*
X123868452Y-97242500D01*
X123898690Y-97272738D01*
X123928928Y-97333214D01*
X123928928Y-97363452D01*
X123898690Y-97423928D01*
X123868452Y-97454166D01*
X123807976Y-97484404D01*
X123687023Y-97484404D01*
X123626547Y-97514642D01*
X123596309Y-97544880D01*
X123566071Y-97605357D01*
X123566071Y-97726309D01*
X123596309Y-97786785D01*
X123626547Y-97817023D01*
X123687023Y-97847261D01*
X123807976Y-97847261D01*
X123868452Y-97817023D01*
X123898690Y-97786785D01*
X123928928Y-97726309D01*
X123928928Y-97605357D01*
X123898690Y-97544880D01*
X123868452Y-97514642D01*
X123807976Y-97484404D01*
%TO.C,R9*%
X122634166Y-82777261D02*
X122422500Y-82474880D01*
X122271309Y-82777261D02*
X122271309Y-82142261D01*
X122513214Y-82142261D01*
X122573690Y-82172500D01*
X122603928Y-82202738D01*
X122634166Y-82263214D01*
X122634166Y-82353928D01*
X122603928Y-82414404D01*
X122573690Y-82444642D01*
X122513214Y-82474880D01*
X122271309Y-82474880D01*
X122936547Y-82777261D02*
X123057500Y-82777261D01*
X123117976Y-82747023D01*
X123148214Y-82716785D01*
X123208690Y-82626071D01*
X123238928Y-82505119D01*
X123238928Y-82263214D01*
X123208690Y-82202738D01*
X123178452Y-82172500D01*
X123117976Y-82142261D01*
X122997023Y-82142261D01*
X122936547Y-82172500D01*
X122906309Y-82202738D01*
X122876071Y-82263214D01*
X122876071Y-82414404D01*
X122906309Y-82474880D01*
X122936547Y-82505119D01*
X122997023Y-82535357D01*
X123117976Y-82535357D01*
X123178452Y-82505119D01*
X123208690Y-82474880D01*
X123238928Y-82414404D01*
%TO.C,R10*%
X172977261Y-112488214D02*
X172674880Y-112699880D01*
X172977261Y-112851071D02*
X172342261Y-112851071D01*
X172342261Y-112609166D01*
X172372500Y-112548690D01*
X172402738Y-112518452D01*
X172463214Y-112488214D01*
X172553928Y-112488214D01*
X172614404Y-112518452D01*
X172644642Y-112548690D01*
X172674880Y-112609166D01*
X172674880Y-112851071D01*
X172977261Y-111883452D02*
X172977261Y-112246309D01*
X172977261Y-112064880D02*
X172342261Y-112064880D01*
X172432976Y-112125357D01*
X172493452Y-112185833D01*
X172523690Y-112246309D01*
X172342261Y-111490357D02*
X172342261Y-111429880D01*
X172372500Y-111369404D01*
X172402738Y-111339166D01*
X172463214Y-111308928D01*
X172584166Y-111278690D01*
X172735357Y-111278690D01*
X172856309Y-111308928D01*
X172916785Y-111339166D01*
X172947023Y-111369404D01*
X172977261Y-111429880D01*
X172977261Y-111490357D01*
X172947023Y-111550833D01*
X172916785Y-111581071D01*
X172856309Y-111611309D01*
X172735357Y-111641547D01*
X172584166Y-111641547D01*
X172463214Y-111611309D01*
X172402738Y-111581071D01*
X172372500Y-111550833D01*
X172342261Y-111490357D01*
%TO.C,R11*%
X171571785Y-108317261D02*
X171360119Y-108014880D01*
X171208928Y-108317261D02*
X171208928Y-107682261D01*
X171450833Y-107682261D01*
X171511309Y-107712500D01*
X171541547Y-107742738D01*
X171571785Y-107803214D01*
X171571785Y-107893928D01*
X171541547Y-107954404D01*
X171511309Y-107984642D01*
X171450833Y-108014880D01*
X171208928Y-108014880D01*
X172176547Y-108317261D02*
X171813690Y-108317261D01*
X171995119Y-108317261D02*
X171995119Y-107682261D01*
X171934642Y-107772976D01*
X171874166Y-107833452D01*
X171813690Y-107863690D01*
X172781309Y-108317261D02*
X172418452Y-108317261D01*
X172599880Y-108317261D02*
X172599880Y-107682261D01*
X172539404Y-107772976D01*
X172478928Y-107833452D01*
X172418452Y-107863690D01*
%TO.C,R12*%
X171551785Y-105397261D02*
X171340119Y-105094880D01*
X171188928Y-105397261D02*
X171188928Y-104762261D01*
X171430833Y-104762261D01*
X171491309Y-104792500D01*
X171521547Y-104822738D01*
X171551785Y-104883214D01*
X171551785Y-104973928D01*
X171521547Y-105034404D01*
X171491309Y-105064642D01*
X171430833Y-105094880D01*
X171188928Y-105094880D01*
X172156547Y-105397261D02*
X171793690Y-105397261D01*
X171975119Y-105397261D02*
X171975119Y-104762261D01*
X171914642Y-104852976D01*
X171854166Y-104913452D01*
X171793690Y-104943690D01*
X172398452Y-104822738D02*
X172428690Y-104792500D01*
X172489166Y-104762261D01*
X172640357Y-104762261D01*
X172700833Y-104792500D01*
X172731071Y-104822738D01*
X172761309Y-104883214D01*
X172761309Y-104943690D01*
X172731071Y-105034404D01*
X172368214Y-105397261D01*
X172761309Y-105397261D01*
%TO.C,R13*%
X173017261Y-114718214D02*
X172714880Y-114929880D01*
X173017261Y-115081071D02*
X172382261Y-115081071D01*
X172382261Y-114839166D01*
X172412500Y-114778690D01*
X172442738Y-114748452D01*
X172503214Y-114718214D01*
X172593928Y-114718214D01*
X172654404Y-114748452D01*
X172684642Y-114778690D01*
X172714880Y-114839166D01*
X172714880Y-115081071D01*
X173017261Y-114113452D02*
X173017261Y-114476309D01*
X173017261Y-114294880D02*
X172382261Y-114294880D01*
X172472976Y-114355357D01*
X172533452Y-114415833D01*
X172563690Y-114476309D01*
X172382261Y-113901785D02*
X172382261Y-113508690D01*
X172624166Y-113720357D01*
X172624166Y-113629642D01*
X172654404Y-113569166D01*
X172684642Y-113538928D01*
X172745119Y-113508690D01*
X172896309Y-113508690D01*
X172956785Y-113538928D01*
X172987023Y-113569166D01*
X173017261Y-113629642D01*
X173017261Y-113811071D01*
X172987023Y-113871547D01*
X172956785Y-113901785D01*
%TO.C,R15*%
X158837261Y-119308214D02*
X158534880Y-119519880D01*
X158837261Y-119671071D02*
X158202261Y-119671071D01*
X158202261Y-119429166D01*
X158232500Y-119368690D01*
X158262738Y-119338452D01*
X158323214Y-119308214D01*
X158413928Y-119308214D01*
X158474404Y-119338452D01*
X158504642Y-119368690D01*
X158534880Y-119429166D01*
X158534880Y-119671071D01*
X158837261Y-118703452D02*
X158837261Y-119066309D01*
X158837261Y-118884880D02*
X158202261Y-118884880D01*
X158292976Y-118945357D01*
X158353452Y-119005833D01*
X158383690Y-119066309D01*
X158202261Y-118128928D02*
X158202261Y-118431309D01*
X158504642Y-118461547D01*
X158474404Y-118431309D01*
X158444166Y-118370833D01*
X158444166Y-118219642D01*
X158474404Y-118159166D01*
X158504642Y-118128928D01*
X158565119Y-118098690D01*
X158716309Y-118098690D01*
X158776785Y-118128928D01*
X158807023Y-118159166D01*
X158837261Y-118219642D01*
X158837261Y-118370833D01*
X158807023Y-118431309D01*
X158776785Y-118461547D01*
%TO.C,R16*%
X158511785Y-123227261D02*
X158300119Y-122924880D01*
X158148928Y-123227261D02*
X158148928Y-122592261D01*
X158390833Y-122592261D01*
X158451309Y-122622500D01*
X158481547Y-122652738D01*
X158511785Y-122713214D01*
X158511785Y-122803928D01*
X158481547Y-122864404D01*
X158451309Y-122894642D01*
X158390833Y-122924880D01*
X158148928Y-122924880D01*
X159116547Y-123227261D02*
X158753690Y-123227261D01*
X158935119Y-123227261D02*
X158935119Y-122592261D01*
X158874642Y-122682976D01*
X158814166Y-122743452D01*
X158753690Y-122773690D01*
X159660833Y-122592261D02*
X159539880Y-122592261D01*
X159479404Y-122622500D01*
X159449166Y-122652738D01*
X159388690Y-122743452D01*
X159358452Y-122864404D01*
X159358452Y-123106309D01*
X159388690Y-123166785D01*
X159418928Y-123197023D01*
X159479404Y-123227261D01*
X159600357Y-123227261D01*
X159660833Y-123197023D01*
X159691071Y-123166785D01*
X159721309Y-123106309D01*
X159721309Y-122955119D01*
X159691071Y-122894642D01*
X159660833Y-122864404D01*
X159600357Y-122834166D01*
X159479404Y-122834166D01*
X159418928Y-122864404D01*
X159388690Y-122894642D01*
X159358452Y-122955119D01*
%TO.C,R17*%
X154687261Y-117468214D02*
X154384880Y-117679880D01*
X154687261Y-117831071D02*
X154052261Y-117831071D01*
X154052261Y-117589166D01*
X154082500Y-117528690D01*
X154112738Y-117498452D01*
X154173214Y-117468214D01*
X154263928Y-117468214D01*
X154324404Y-117498452D01*
X154354642Y-117528690D01*
X154384880Y-117589166D01*
X154384880Y-117831071D01*
X154687261Y-116863452D02*
X154687261Y-117226309D01*
X154687261Y-117044880D02*
X154052261Y-117044880D01*
X154142976Y-117105357D01*
X154203452Y-117165833D01*
X154233690Y-117226309D01*
X154052261Y-116651785D02*
X154052261Y-116228452D01*
X154687261Y-116500595D01*
%TO.C,R18*%
X169831785Y-75387261D02*
X169620119Y-75084880D01*
X169468928Y-75387261D02*
X169468928Y-74752261D01*
X169710833Y-74752261D01*
X169771309Y-74782500D01*
X169801547Y-74812738D01*
X169831785Y-74873214D01*
X169831785Y-74963928D01*
X169801547Y-75024404D01*
X169771309Y-75054642D01*
X169710833Y-75084880D01*
X169468928Y-75084880D01*
X170436547Y-75387261D02*
X170073690Y-75387261D01*
X170255119Y-75387261D02*
X170255119Y-74752261D01*
X170194642Y-74842976D01*
X170134166Y-74903452D01*
X170073690Y-74933690D01*
X170799404Y-75024404D02*
X170738928Y-74994166D01*
X170708690Y-74963928D01*
X170678452Y-74903452D01*
X170678452Y-74873214D01*
X170708690Y-74812738D01*
X170738928Y-74782500D01*
X170799404Y-74752261D01*
X170920357Y-74752261D01*
X170980833Y-74782500D01*
X171011071Y-74812738D01*
X171041309Y-74873214D01*
X171041309Y-74903452D01*
X171011071Y-74963928D01*
X170980833Y-74994166D01*
X170920357Y-75024404D01*
X170799404Y-75024404D01*
X170738928Y-75054642D01*
X170708690Y-75084880D01*
X170678452Y-75145357D01*
X170678452Y-75266309D01*
X170708690Y-75326785D01*
X170738928Y-75357023D01*
X170799404Y-75387261D01*
X170920357Y-75387261D01*
X170980833Y-75357023D01*
X171011071Y-75326785D01*
X171041309Y-75266309D01*
X171041309Y-75145357D01*
X171011071Y-75084880D01*
X170980833Y-75054642D01*
X170920357Y-75024404D01*
%TO.C,R19*%
X165111785Y-78937261D02*
X164900119Y-78634880D01*
X164748928Y-78937261D02*
X164748928Y-78302261D01*
X164990833Y-78302261D01*
X165051309Y-78332500D01*
X165081547Y-78362738D01*
X165111785Y-78423214D01*
X165111785Y-78513928D01*
X165081547Y-78574404D01*
X165051309Y-78604642D01*
X164990833Y-78634880D01*
X164748928Y-78634880D01*
X165716547Y-78937261D02*
X165353690Y-78937261D01*
X165535119Y-78937261D02*
X165535119Y-78302261D01*
X165474642Y-78392976D01*
X165414166Y-78453452D01*
X165353690Y-78483690D01*
X166018928Y-78937261D02*
X166139880Y-78937261D01*
X166200357Y-78907023D01*
X166230595Y-78876785D01*
X166291071Y-78786071D01*
X166321309Y-78665119D01*
X166321309Y-78423214D01*
X166291071Y-78362738D01*
X166260833Y-78332500D01*
X166200357Y-78302261D01*
X166079404Y-78302261D01*
X166018928Y-78332500D01*
X165988690Y-78362738D01*
X165958452Y-78423214D01*
X165958452Y-78574404D01*
X165988690Y-78634880D01*
X166018928Y-78665119D01*
X166079404Y-78695357D01*
X166200357Y-78695357D01*
X166260833Y-78665119D01*
X166291071Y-78634880D01*
X166321309Y-78574404D01*
%TO.C,R22*%
X160027261Y-91218214D02*
X159724880Y-91429880D01*
X160027261Y-91581071D02*
X159392261Y-91581071D01*
X159392261Y-91339166D01*
X159422500Y-91278690D01*
X159452738Y-91248452D01*
X159513214Y-91218214D01*
X159603928Y-91218214D01*
X159664404Y-91248452D01*
X159694642Y-91278690D01*
X159724880Y-91339166D01*
X159724880Y-91581071D01*
X159452738Y-90976309D02*
X159422500Y-90946071D01*
X159392261Y-90885595D01*
X159392261Y-90734404D01*
X159422500Y-90673928D01*
X159452738Y-90643690D01*
X159513214Y-90613452D01*
X159573690Y-90613452D01*
X159664404Y-90643690D01*
X160027261Y-91006547D01*
X160027261Y-90613452D01*
X159452738Y-90371547D02*
X159422500Y-90341309D01*
X159392261Y-90280833D01*
X159392261Y-90129642D01*
X159422500Y-90069166D01*
X159452738Y-90038928D01*
X159513214Y-90008690D01*
X159573690Y-90008690D01*
X159664404Y-90038928D01*
X160027261Y-90401785D01*
X160027261Y-90008690D01*
%TO.C,R23*%
X165071785Y-91597261D02*
X164860119Y-91294880D01*
X164708928Y-91597261D02*
X164708928Y-90962261D01*
X164950833Y-90962261D01*
X165011309Y-90992500D01*
X165041547Y-91022738D01*
X165071785Y-91083214D01*
X165071785Y-91173928D01*
X165041547Y-91234404D01*
X165011309Y-91264642D01*
X164950833Y-91294880D01*
X164708928Y-91294880D01*
X165313690Y-91022738D02*
X165343928Y-90992500D01*
X165404404Y-90962261D01*
X165555595Y-90962261D01*
X165616071Y-90992500D01*
X165646309Y-91022738D01*
X165676547Y-91083214D01*
X165676547Y-91143690D01*
X165646309Y-91234404D01*
X165283452Y-91597261D01*
X165676547Y-91597261D01*
X165888214Y-90962261D02*
X166281309Y-90962261D01*
X166069642Y-91204166D01*
X166160357Y-91204166D01*
X166220833Y-91234404D01*
X166251071Y-91264642D01*
X166281309Y-91325119D01*
X166281309Y-91476309D01*
X166251071Y-91536785D01*
X166220833Y-91567023D01*
X166160357Y-91597261D01*
X165978928Y-91597261D01*
X165918452Y-91567023D01*
X165888214Y-91536785D01*
%TO.C,Modem1*%
D22*
X154059783Y-101643889D02*
X153215233Y-101643889D01*
X153818483Y-101362373D01*
X153215233Y-101080856D01*
X154059783Y-101080856D01*
X154059783Y-100558039D02*
X154019566Y-100638473D01*
X153979350Y-100678689D01*
X153898916Y-100718906D01*
X153657616Y-100718906D01*
X153577183Y-100678689D01*
X153536966Y-100638473D01*
X153496750Y-100558039D01*
X153496750Y-100437389D01*
X153536966Y-100356956D01*
X153577183Y-100316739D01*
X153657616Y-100276523D01*
X153898916Y-100276523D01*
X153979350Y-100316739D01*
X154019566Y-100356956D01*
X154059783Y-100437389D01*
X154059783Y-100558039D01*
X154059783Y-99552623D02*
X153215233Y-99552623D01*
X154019566Y-99552623D02*
X154059783Y-99633056D01*
X154059783Y-99793923D01*
X154019566Y-99874356D01*
X153979350Y-99914573D01*
X153898916Y-99954789D01*
X153657616Y-99954789D01*
X153577183Y-99914573D01*
X153536966Y-99874356D01*
X153496750Y-99793923D01*
X153496750Y-99633056D01*
X153536966Y-99552623D01*
X154019566Y-98828723D02*
X154059783Y-98909156D01*
X154059783Y-99070023D01*
X154019566Y-99150456D01*
X153939133Y-99190673D01*
X153617400Y-99190673D01*
X153536966Y-99150456D01*
X153496750Y-99070023D01*
X153496750Y-98909156D01*
X153536966Y-98828723D01*
X153617400Y-98788506D01*
X153697833Y-98788506D01*
X153778266Y-99190673D01*
X154059783Y-98426556D02*
X153496750Y-98426556D01*
X153577183Y-98426556D02*
X153536966Y-98386339D01*
X153496750Y-98305906D01*
X153496750Y-98185256D01*
X153536966Y-98104823D01*
X153617400Y-98064606D01*
X154059783Y-98064606D01*
X153617400Y-98064606D02*
X153536966Y-98024389D01*
X153496750Y-97943956D01*
X153496750Y-97823306D01*
X153536966Y-97742873D01*
X153617400Y-97702656D01*
X154059783Y-97702656D01*
X154059783Y-96858106D02*
X154059783Y-97340706D01*
X154059783Y-97099406D02*
X153215233Y-97099406D01*
X153335883Y-97179839D01*
X153416316Y-97260273D01*
X153456533Y-97340706D01*
%TO.C,T1*%
D21*
X168936190Y-73352261D02*
X169299047Y-73352261D01*
X169117619Y-73987261D02*
X169117619Y-73352261D01*
X169843333Y-73987261D02*
X169480476Y-73987261D01*
X169661904Y-73987261D02*
X169661904Y-73352261D01*
X169601428Y-73442976D01*
X169540952Y-73503452D01*
X169480476Y-73533690D01*
%TO.C,U1*%
X119386190Y-118132261D02*
X119386190Y-118646309D01*
X119416428Y-118706785D01*
X119446666Y-118737023D01*
X119507142Y-118767261D01*
X119628095Y-118767261D01*
X119688571Y-118737023D01*
X119718809Y-118706785D01*
X119749047Y-118646309D01*
X119749047Y-118132261D01*
X120384047Y-118767261D02*
X120021190Y-118767261D01*
X120202619Y-118767261D02*
X120202619Y-118132261D01*
X120142142Y-118222976D01*
X120081666Y-118283452D01*
X120021190Y-118313690D01*
%TO.C,U4*%
X158796190Y-78332261D02*
X158796190Y-78846309D01*
X158826428Y-78906785D01*
X158856666Y-78937023D01*
X158917142Y-78967261D01*
X159038095Y-78967261D01*
X159098571Y-78937023D01*
X159128809Y-78906785D01*
X159159047Y-78846309D01*
X159159047Y-78332261D01*
X159733571Y-78543928D02*
X159733571Y-78967261D01*
X159582380Y-78302023D02*
X159431190Y-78755595D01*
X159824285Y-78755595D01*
%TO.C,X1*%
X111175952Y-101492261D02*
X111599285Y-102127261D01*
X111599285Y-101492261D02*
X111175952Y-102127261D01*
X112173809Y-102127261D02*
X111810952Y-102127261D01*
X111992380Y-102127261D02*
X111992380Y-101492261D01*
X111931904Y-101582976D01*
X111871428Y-101643452D01*
X111810952Y-101673690D01*
%TO.C,C39*%
D16*
X156806785Y-88978214D02*
X156837023Y-89008452D01*
X156867261Y-89099166D01*
X156867261Y-89159642D01*
X156837023Y-89250357D01*
X156776547Y-89310833D01*
X156716071Y-89341071D01*
X156595119Y-89371309D01*
X156504404Y-89371309D01*
X156383452Y-89341071D01*
X156322976Y-89310833D01*
X156262500Y-89250357D01*
X156232261Y-89159642D01*
X156232261Y-89099166D01*
X156262500Y-89008452D01*
X156292738Y-88978214D01*
X156232261Y-88766547D02*
X156232261Y-88373452D01*
X156474166Y-88585119D01*
X156474166Y-88494404D01*
X156504404Y-88433928D01*
X156534642Y-88403690D01*
X156595119Y-88373452D01*
X156746309Y-88373452D01*
X156806785Y-88403690D01*
X156837023Y-88433928D01*
X156867261Y-88494404D01*
X156867261Y-88675833D01*
X156837023Y-88736309D01*
X156806785Y-88766547D01*
X156867261Y-88071071D02*
X156867261Y-87950119D01*
X156837023Y-87889642D01*
X156806785Y-87859404D01*
X156716071Y-87798928D01*
X156595119Y-87768690D01*
X156353214Y-87768690D01*
X156292738Y-87798928D01*
X156262500Y-87829166D01*
X156232261Y-87889642D01*
X156232261Y-88010595D01*
X156262500Y-88071071D01*
X156292738Y-88101309D01*
X156353214Y-88131547D01*
X156504404Y-88131547D01*
X156564880Y-88101309D01*
X156595119Y-88071071D01*
X156625357Y-88010595D01*
X156625357Y-87889642D01*
X156595119Y-87829166D01*
X156564880Y-87798928D01*
X156504404Y-87768690D01*
%TO.C,C40*%
X154146785Y-91058214D02*
X154177023Y-91088452D01*
X154207261Y-91179166D01*
X154207261Y-91239642D01*
X154177023Y-91330357D01*
X154116547Y-91390833D01*
X154056071Y-91421071D01*
X153935119Y-91451309D01*
X153844404Y-91451309D01*
X153723452Y-91421071D01*
X153662976Y-91390833D01*
X153602500Y-91330357D01*
X153572261Y-91239642D01*
X153572261Y-91179166D01*
X153602500Y-91088452D01*
X153632738Y-91058214D01*
X153783928Y-90513928D02*
X154207261Y-90513928D01*
X153542023Y-90665119D02*
X153995595Y-90816309D01*
X153995595Y-90423214D01*
X153572261Y-90060357D02*
X153572261Y-89999880D01*
X153602500Y-89939404D01*
X153632738Y-89909166D01*
X153693214Y-89878928D01*
X153814166Y-89848690D01*
X153965357Y-89848690D01*
X154086309Y-89878928D01*
X154146785Y-89909166D01*
X154177023Y-89939404D01*
X154207261Y-89999880D01*
X154207261Y-90060357D01*
X154177023Y-90120833D01*
X154146785Y-90151071D01*
X154086309Y-90181309D01*
X153965357Y-90211547D01*
X153814166Y-90211547D01*
X153693214Y-90181309D01*
X153632738Y-90151071D01*
X153602500Y-90120833D01*
X153572261Y-90060357D01*
%TO.C,C41*%
X155576785Y-76788214D02*
X155607023Y-76818452D01*
X155637261Y-76909166D01*
X155637261Y-76969642D01*
X155607023Y-77060357D01*
X155546547Y-77120833D01*
X155486071Y-77151071D01*
X155365119Y-77181309D01*
X155274404Y-77181309D01*
X155153452Y-77151071D01*
X155092976Y-77120833D01*
X155032500Y-77060357D01*
X155002261Y-76969642D01*
X155002261Y-76909166D01*
X155032500Y-76818452D01*
X155062738Y-76788214D01*
X155213928Y-76243928D02*
X155637261Y-76243928D01*
X154972023Y-76395119D02*
X155425595Y-76546309D01*
X155425595Y-76153214D01*
X155637261Y-75578690D02*
X155637261Y-75941547D01*
X155637261Y-75760119D02*
X155002261Y-75760119D01*
X155092976Y-75820595D01*
X155153452Y-75881071D01*
X155183690Y-75941547D01*
%TO.C,C42*%
X154216785Y-76888214D02*
X154247023Y-76918452D01*
X154277261Y-77009166D01*
X154277261Y-77069642D01*
X154247023Y-77160357D01*
X154186547Y-77220833D01*
X154126071Y-77251071D01*
X154005119Y-77281309D01*
X153914404Y-77281309D01*
X153793452Y-77251071D01*
X153732976Y-77220833D01*
X153672500Y-77160357D01*
X153642261Y-77069642D01*
X153642261Y-77009166D01*
X153672500Y-76918452D01*
X153702738Y-76888214D01*
X153853928Y-76343928D02*
X154277261Y-76343928D01*
X153612023Y-76495119D02*
X154065595Y-76646309D01*
X154065595Y-76253214D01*
X153702738Y-76041547D02*
X153672500Y-76011309D01*
X153642261Y-75950833D01*
X153642261Y-75799642D01*
X153672500Y-75739166D01*
X153702738Y-75708928D01*
X153763214Y-75678690D01*
X153823690Y-75678690D01*
X153914404Y-75708928D01*
X154277261Y-76071785D01*
X154277261Y-75678690D01*
%TO.C,U5*%
D13*
X157616190Y-87312261D02*
X157616190Y-87826309D01*
X157646428Y-87886785D01*
X157676666Y-87917023D01*
X157737142Y-87947261D01*
X157858095Y-87947261D01*
X157918571Y-87917023D01*
X157948809Y-87886785D01*
X157979047Y-87826309D01*
X157979047Y-87312261D01*
X158583809Y-87312261D02*
X158281428Y-87312261D01*
X158251190Y-87614642D01*
X158281428Y-87584404D01*
X158341904Y-87554166D01*
X158493095Y-87554166D01*
X158553571Y-87584404D01*
X158583809Y-87614642D01*
X158614047Y-87675119D01*
X158614047Y-87826309D01*
X158583809Y-87886785D01*
X158553571Y-87917023D01*
X158493095Y-87947261D01*
X158341904Y-87947261D01*
X158281428Y-87917023D01*
X158251190Y-87886785D01*
%TO.C,C43*%
D17*
X106837142Y-80657142D02*
X106789523Y-80704761D01*
X106646666Y-80752380D01*
X106551428Y-80752380D01*
X106408571Y-80704761D01*
X106313333Y-80609523D01*
X106265714Y-80514285D01*
X106218095Y-80323809D01*
X106218095Y-80180952D01*
X106265714Y-79990476D01*
X106313333Y-79895238D01*
X106408571Y-79800000D01*
X106551428Y-79752380D01*
X106646666Y-79752380D01*
X106789523Y-79800000D01*
X106837142Y-79847619D01*
X107694285Y-80085714D02*
X107694285Y-80752380D01*
X107456190Y-79704761D02*
X107218095Y-80419047D01*
X107837142Y-80419047D01*
X108122857Y-79752380D02*
X108741904Y-79752380D01*
X108408571Y-80133333D01*
X108551428Y-80133333D01*
X108646666Y-80180952D01*
X108694285Y-80228571D01*
X108741904Y-80323809D01*
X108741904Y-80561904D01*
X108694285Y-80657142D01*
X108646666Y-80704761D01*
X108551428Y-80752380D01*
X108265714Y-80752380D01*
X108170476Y-80704761D01*
X108122857Y-80657142D01*
%TO.C,L6*%
D13*
X128514166Y-106667261D02*
X128211785Y-106667261D01*
X128211785Y-106032261D01*
X128997976Y-106032261D02*
X128877023Y-106032261D01*
X128816547Y-106062500D01*
X128786309Y-106092738D01*
X128725833Y-106183452D01*
X128695595Y-106304404D01*
X128695595Y-106546309D01*
X128725833Y-106606785D01*
X128756071Y-106637023D01*
X128816547Y-106667261D01*
X128937500Y-106667261D01*
X128997976Y-106637023D01*
X129028214Y-106606785D01*
X129058452Y-106546309D01*
X129058452Y-106395119D01*
X129028214Y-106334642D01*
X128997976Y-106304404D01*
X128937500Y-106274166D01*
X128816547Y-106274166D01*
X128756071Y-106304404D01*
X128725833Y-106334642D01*
X128695595Y-106395119D01*
%TO.C,C50*%
D21*
X100481785Y-115746785D02*
X100451547Y-115777023D01*
X100360833Y-115807261D01*
X100300357Y-115807261D01*
X100209642Y-115777023D01*
X100149166Y-115716547D01*
X100118928Y-115656071D01*
X100088690Y-115535119D01*
X100088690Y-115444404D01*
X100118928Y-115323452D01*
X100149166Y-115262976D01*
X100209642Y-115202500D01*
X100300357Y-115172261D01*
X100360833Y-115172261D01*
X100451547Y-115202500D01*
X100481785Y-115232738D01*
X101056309Y-115172261D02*
X100753928Y-115172261D01*
X100723690Y-115474642D01*
X100753928Y-115444404D01*
X100814404Y-115414166D01*
X100965595Y-115414166D01*
X101026071Y-115444404D01*
X101056309Y-115474642D01*
X101086547Y-115535119D01*
X101086547Y-115686309D01*
X101056309Y-115746785D01*
X101026071Y-115777023D01*
X100965595Y-115807261D01*
X100814404Y-115807261D01*
X100753928Y-115777023D01*
X100723690Y-115746785D01*
X101479642Y-115172261D02*
X101540119Y-115172261D01*
X101600595Y-115202500D01*
X101630833Y-115232738D01*
X101661071Y-115293214D01*
X101691309Y-115414166D01*
X101691309Y-115565357D01*
X101661071Y-115686309D01*
X101630833Y-115746785D01*
X101600595Y-115777023D01*
X101540119Y-115807261D01*
X101479642Y-115807261D01*
X101419166Y-115777023D01*
X101388928Y-115746785D01*
X101358690Y-115686309D01*
X101328452Y-115565357D01*
X101328452Y-115414166D01*
X101358690Y-115293214D01*
X101388928Y-115232738D01*
X101419166Y-115202500D01*
X101479642Y-115172261D01*
%TO.C,C52*%
D16*
X121626785Y-119098214D02*
X121657023Y-119128452D01*
X121687261Y-119219166D01*
X121687261Y-119279642D01*
X121657023Y-119370357D01*
X121596547Y-119430833D01*
X121536071Y-119461071D01*
X121415119Y-119491309D01*
X121324404Y-119491309D01*
X121203452Y-119461071D01*
X121142976Y-119430833D01*
X121082500Y-119370357D01*
X121052261Y-119279642D01*
X121052261Y-119219166D01*
X121082500Y-119128452D01*
X121112738Y-119098214D01*
X121052261Y-118523690D02*
X121052261Y-118826071D01*
X121354642Y-118856309D01*
X121324404Y-118826071D01*
X121294166Y-118765595D01*
X121294166Y-118614404D01*
X121324404Y-118553928D01*
X121354642Y-118523690D01*
X121415119Y-118493452D01*
X121566309Y-118493452D01*
X121626785Y-118523690D01*
X121657023Y-118553928D01*
X121687261Y-118614404D01*
X121687261Y-118765595D01*
X121657023Y-118826071D01*
X121626785Y-118856309D01*
X121112738Y-118251547D02*
X121082500Y-118221309D01*
X121052261Y-118160833D01*
X121052261Y-118009642D01*
X121082500Y-117949166D01*
X121112738Y-117918928D01*
X121173214Y-117888690D01*
X121233690Y-117888690D01*
X121324404Y-117918928D01*
X121687261Y-118281785D01*
X121687261Y-117888690D01*
%TO.C,Con3*%
D23*
X105029142Y-103680285D02*
X104990438Y-103718990D01*
X104874323Y-103757695D01*
X104796914Y-103757695D01*
X104680800Y-103718990D01*
X104603390Y-103641580D01*
X104564685Y-103564171D01*
X104525980Y-103409352D01*
X104525980Y-103293238D01*
X104564685Y-103138419D01*
X104603390Y-103061009D01*
X104680800Y-102983600D01*
X104796914Y-102944895D01*
X104874323Y-102944895D01*
X104990438Y-102983600D01*
X105029142Y-103022304D01*
X105493600Y-103757695D02*
X105416190Y-103718990D01*
X105377485Y-103680285D01*
X105338780Y-103602876D01*
X105338780Y-103370647D01*
X105377485Y-103293238D01*
X105416190Y-103254533D01*
X105493600Y-103215828D01*
X105609714Y-103215828D01*
X105687123Y-103254533D01*
X105725828Y-103293238D01*
X105764533Y-103370647D01*
X105764533Y-103602876D01*
X105725828Y-103680285D01*
X105687123Y-103718990D01*
X105609714Y-103757695D01*
X105493600Y-103757695D01*
X106112876Y-103215828D02*
X106112876Y-103757695D01*
X106112876Y-103293238D02*
X106151580Y-103254533D01*
X106228990Y-103215828D01*
X106345104Y-103215828D01*
X106422514Y-103254533D01*
X106461219Y-103331942D01*
X106461219Y-103757695D01*
X106770857Y-102944895D02*
X107274019Y-102944895D01*
X107003085Y-103254533D01*
X107119200Y-103254533D01*
X107196609Y-103293238D01*
X107235314Y-103331942D01*
X107274019Y-103409352D01*
X107274019Y-103602876D01*
X107235314Y-103680285D01*
X107196609Y-103718990D01*
X107119200Y-103757695D01*
X106886971Y-103757695D01*
X106809561Y-103718990D01*
X106770857Y-103680285D01*
D24*
X108974653Y-106098445D02*
X108974653Y-105904921D01*
X109090767Y-106137150D02*
X108684367Y-106001683D01*
X109090767Y-105866217D01*
X109090767Y-105517874D02*
X109090767Y-105750102D01*
X109090767Y-105633988D02*
X108684367Y-105633988D01*
X108742424Y-105672693D01*
X108781129Y-105711398D01*
X108800481Y-105750102D01*
D25*
X107084772Y-114023850D02*
X106957772Y-114023850D01*
X106957772Y-113975469D01*
X106963820Y-113963374D01*
X106969867Y-113957326D01*
X106981962Y-113951279D01*
X107000105Y-113951279D01*
X107012200Y-113957326D01*
X107018248Y-113963374D01*
X107024296Y-113975469D01*
X107024296Y-114023850D01*
X107072677Y-113824279D02*
X107078724Y-113830326D01*
X107084772Y-113848469D01*
X107084772Y-113860564D01*
X107078724Y-113878707D01*
X107066629Y-113890802D01*
X107054534Y-113896850D01*
X107030343Y-113902898D01*
X107012200Y-113902898D01*
X106988010Y-113896850D01*
X106975915Y-113890802D01*
X106963820Y-113878707D01*
X106957772Y-113860564D01*
X106957772Y-113848469D01*
X106963820Y-113830326D01*
X106969867Y-113824279D01*
X107018248Y-113727517D02*
X107024296Y-113709374D01*
X107030343Y-113703326D01*
X107042439Y-113697279D01*
X107060581Y-113697279D01*
X107072677Y-113703326D01*
X107078724Y-113709374D01*
X107084772Y-113721469D01*
X107084772Y-113769850D01*
X106957772Y-113769850D01*
X106957772Y-113727517D01*
X106963820Y-113715421D01*
X106969867Y-113709374D01*
X106981962Y-113703326D01*
X106994058Y-113703326D01*
X107006153Y-113709374D01*
X107012200Y-113715421D01*
X107018248Y-113727517D01*
X107018248Y-113769850D01*
X107078724Y-113491660D02*
X107084772Y-113503755D01*
X107084772Y-113527945D01*
X107078724Y-113540040D01*
X107072677Y-113546088D01*
X107060581Y-113552136D01*
X107024296Y-113552136D01*
X107012200Y-113546088D01*
X107006153Y-113540040D01*
X107000105Y-113527945D01*
X107000105Y-113503755D01*
X107006153Y-113491660D01*
X107000105Y-113382802D02*
X107084772Y-113382802D01*
X107000105Y-113437231D02*
X107066629Y-113437231D01*
X107078724Y-113431183D01*
X107084772Y-113419088D01*
X107084772Y-113400945D01*
X107078724Y-113388850D01*
X107072677Y-113382802D01*
X107000105Y-113340469D02*
X107000105Y-113292088D01*
X106957772Y-113322326D02*
X107066629Y-113322326D01*
X107078724Y-113316279D01*
X107084772Y-113304183D01*
X107084772Y-113292088D01*
D19*
X105395771Y-112791142D02*
X104786171Y-112791142D01*
X104786171Y-112558914D01*
X104815200Y-112500857D01*
X104844228Y-112471828D01*
X104902285Y-112442800D01*
X104989371Y-112442800D01*
X105047428Y-112471828D01*
X105076457Y-112500857D01*
X105105485Y-112558914D01*
X105105485Y-112791142D01*
X105337714Y-111833200D02*
X105366742Y-111862228D01*
X105395771Y-111949314D01*
X105395771Y-112007371D01*
X105366742Y-112094457D01*
X105308685Y-112152514D01*
X105250628Y-112181542D01*
X105134514Y-112210571D01*
X105047428Y-112210571D01*
X104931314Y-112181542D01*
X104873257Y-112152514D01*
X104815200Y-112094457D01*
X104786171Y-112007371D01*
X104786171Y-111949314D01*
X104815200Y-111862228D01*
X104844228Y-111833200D01*
X105076457Y-111368742D02*
X105105485Y-111281657D01*
X105134514Y-111252628D01*
X105192571Y-111223600D01*
X105279657Y-111223600D01*
X105337714Y-111252628D01*
X105366742Y-111281657D01*
X105395771Y-111339714D01*
X105395771Y-111571942D01*
X104786171Y-111571942D01*
X104786171Y-111368742D01*
X104815200Y-111310685D01*
X104844228Y-111281657D01*
X104902285Y-111252628D01*
X104960342Y-111252628D01*
X105018400Y-111281657D01*
X105047428Y-111310685D01*
X105076457Y-111368742D01*
X105076457Y-111571942D01*
X105337714Y-110149542D02*
X105366742Y-110178571D01*
X105395771Y-110265657D01*
X105395771Y-110323714D01*
X105366742Y-110410800D01*
X105308685Y-110468857D01*
X105250628Y-110497885D01*
X105134514Y-110526914D01*
X105047428Y-110526914D01*
X104931314Y-110497885D01*
X104873257Y-110468857D01*
X104815200Y-110410800D01*
X104786171Y-110323714D01*
X104786171Y-110265657D01*
X104815200Y-110178571D01*
X104844228Y-110149542D01*
X104989371Y-109627028D02*
X105395771Y-109627028D01*
X104989371Y-109888285D02*
X105308685Y-109888285D01*
X105366742Y-109859257D01*
X105395771Y-109801200D01*
X105395771Y-109714114D01*
X105366742Y-109656057D01*
X105337714Y-109627028D01*
X104989371Y-109423828D02*
X104989371Y-109191600D01*
X104786171Y-109336742D02*
X105308685Y-109336742D01*
X105366742Y-109307714D01*
X105395771Y-109249657D01*
X105395771Y-109191600D01*
X105395771Y-108901314D02*
X105366742Y-108959371D01*
X105337714Y-108988400D01*
X105279657Y-109017428D01*
X105105485Y-109017428D01*
X105047428Y-108988400D01*
X105018400Y-108959371D01*
X104989371Y-108901314D01*
X104989371Y-108814228D01*
X105018400Y-108756171D01*
X105047428Y-108727142D01*
X105105485Y-108698114D01*
X105279657Y-108698114D01*
X105337714Y-108727142D01*
X105366742Y-108756171D01*
X105395771Y-108814228D01*
X105395771Y-108901314D01*
X104989371Y-108175600D02*
X105395771Y-108175600D01*
X104989371Y-108436857D02*
X105308685Y-108436857D01*
X105366742Y-108407828D01*
X105395771Y-108349771D01*
X105395771Y-108262685D01*
X105366742Y-108204628D01*
X105337714Y-108175600D01*
X104989371Y-107972400D02*
X104989371Y-107740171D01*
X104786171Y-107885314D02*
X105308685Y-107885314D01*
X105366742Y-107856285D01*
X105395771Y-107798228D01*
X105395771Y-107740171D01*
X105221600Y-107101542D02*
X105221600Y-106811257D01*
X105395771Y-107159600D02*
X104786171Y-106956400D01*
X105395771Y-106753200D01*
X105395771Y-106550000D02*
X104989371Y-106550000D01*
X105105485Y-106550000D02*
X105047428Y-106520971D01*
X105018400Y-106491942D01*
X104989371Y-106433885D01*
X104989371Y-106375828D01*
X105366742Y-105940400D02*
X105395771Y-105998457D01*
X105395771Y-106114571D01*
X105366742Y-106172628D01*
X105308685Y-106201657D01*
X105076457Y-106201657D01*
X105018400Y-106172628D01*
X104989371Y-106114571D01*
X104989371Y-105998457D01*
X105018400Y-105940400D01*
X105076457Y-105911371D01*
X105134514Y-105911371D01*
X105192571Y-106201657D01*
X105395771Y-105388857D02*
X105076457Y-105388857D01*
X105018400Y-105417885D01*
X104989371Y-105475942D01*
X104989371Y-105592057D01*
X105018400Y-105650114D01*
X105366742Y-105388857D02*
X105395771Y-105446914D01*
X105395771Y-105592057D01*
X105366742Y-105650114D01*
X105308685Y-105679142D01*
X105250628Y-105679142D01*
X105192571Y-105650114D01*
X105163542Y-105592057D01*
X105163542Y-105446914D01*
X105134514Y-105388857D01*
D24*
X104300971Y-109264495D02*
X104320323Y-109206438D01*
X104339676Y-109187085D01*
X104378380Y-109167733D01*
X104436438Y-109167733D01*
X104475142Y-109187085D01*
X104494495Y-109206438D01*
X104513847Y-109245142D01*
X104513847Y-109399961D01*
X104107447Y-109399961D01*
X104107447Y-109264495D01*
X104126800Y-109225790D01*
X104146152Y-109206438D01*
X104184857Y-109187085D01*
X104223561Y-109187085D01*
X104262266Y-109206438D01*
X104281619Y-109225790D01*
X104300971Y-109264495D01*
X104300971Y-109399961D01*
X104513847Y-108780685D02*
X104513847Y-109012914D01*
X104513847Y-108896800D02*
X104107447Y-108896800D01*
X104165504Y-108935504D01*
X104204209Y-108974209D01*
X104223561Y-109012914D01*
%TO.C,R28*%
D13*
X110071785Y-113077261D02*
X109860119Y-112774880D01*
X109708928Y-113077261D02*
X109708928Y-112442261D01*
X109950833Y-112442261D01*
X110011309Y-112472500D01*
X110041547Y-112502738D01*
X110071785Y-112563214D01*
X110071785Y-112653928D01*
X110041547Y-112714404D01*
X110011309Y-112744642D01*
X109950833Y-112774880D01*
X109708928Y-112774880D01*
X110313690Y-112502738D02*
X110343928Y-112472500D01*
X110404404Y-112442261D01*
X110555595Y-112442261D01*
X110616071Y-112472500D01*
X110646309Y-112502738D01*
X110676547Y-112563214D01*
X110676547Y-112623690D01*
X110646309Y-112714404D01*
X110283452Y-113077261D01*
X110676547Y-113077261D01*
X111039404Y-112714404D02*
X110978928Y-112684166D01*
X110948690Y-112653928D01*
X110918452Y-112593452D01*
X110918452Y-112563214D01*
X110948690Y-112502738D01*
X110978928Y-112472500D01*
X111039404Y-112442261D01*
X111160357Y-112442261D01*
X111220833Y-112472500D01*
X111251071Y-112502738D01*
X111281309Y-112563214D01*
X111281309Y-112593452D01*
X111251071Y-112653928D01*
X111220833Y-112684166D01*
X111160357Y-112714404D01*
X111039404Y-112714404D01*
X110978928Y-112744642D01*
X110948690Y-112774880D01*
X110918452Y-112835357D01*
X110918452Y-112956309D01*
X110948690Y-113016785D01*
X110978928Y-113047023D01*
X111039404Y-113077261D01*
X111160357Y-113077261D01*
X111220833Y-113047023D01*
X111251071Y-113016785D01*
X111281309Y-112956309D01*
X111281309Y-112835357D01*
X111251071Y-112774880D01*
X111220833Y-112744642D01*
X111160357Y-112714404D01*
%TO.C,R29*%
X109871785Y-109747261D02*
X109660119Y-109444880D01*
X109508928Y-109747261D02*
X109508928Y-109112261D01*
X109750833Y-109112261D01*
X109811309Y-109142500D01*
X109841547Y-109172738D01*
X109871785Y-109233214D01*
X109871785Y-109323928D01*
X109841547Y-109384404D01*
X109811309Y-109414642D01*
X109750833Y-109444880D01*
X109508928Y-109444880D01*
X110113690Y-109172738D02*
X110143928Y-109142500D01*
X110204404Y-109112261D01*
X110355595Y-109112261D01*
X110416071Y-109142500D01*
X110446309Y-109172738D01*
X110476547Y-109233214D01*
X110476547Y-109293690D01*
X110446309Y-109384404D01*
X110083452Y-109747261D01*
X110476547Y-109747261D01*
X110778928Y-109747261D02*
X110899880Y-109747261D01*
X110960357Y-109717023D01*
X110990595Y-109686785D01*
X111051071Y-109596071D01*
X111081309Y-109475119D01*
X111081309Y-109233214D01*
X111051071Y-109172738D01*
X111020833Y-109142500D01*
X110960357Y-109112261D01*
X110839404Y-109112261D01*
X110778928Y-109142500D01*
X110748690Y-109172738D01*
X110718452Y-109233214D01*
X110718452Y-109384404D01*
X110748690Y-109444880D01*
X110778928Y-109475119D01*
X110839404Y-109505357D01*
X110960357Y-109505357D01*
X111020833Y-109475119D01*
X111051071Y-109444880D01*
X111081309Y-109384404D01*
%TO.C,R30*%
X158267261Y-91248214D02*
X157964880Y-91459880D01*
X158267261Y-91611071D02*
X157632261Y-91611071D01*
X157632261Y-91369166D01*
X157662500Y-91308690D01*
X157692738Y-91278452D01*
X157753214Y-91248214D01*
X157843928Y-91248214D01*
X157904404Y-91278452D01*
X157934642Y-91308690D01*
X157964880Y-91369166D01*
X157964880Y-91611071D01*
X157632261Y-91036547D02*
X157632261Y-90643452D01*
X157874166Y-90855119D01*
X157874166Y-90764404D01*
X157904404Y-90703928D01*
X157934642Y-90673690D01*
X157995119Y-90643452D01*
X158146309Y-90643452D01*
X158206785Y-90673690D01*
X158237023Y-90703928D01*
X158267261Y-90764404D01*
X158267261Y-90945833D01*
X158237023Y-91006309D01*
X158206785Y-91036547D01*
X157632261Y-90250357D02*
X157632261Y-90189880D01*
X157662500Y-90129404D01*
X157692738Y-90099166D01*
X157753214Y-90068928D01*
X157874166Y-90038690D01*
X158025357Y-90038690D01*
X158146309Y-90068928D01*
X158206785Y-90099166D01*
X158237023Y-90129404D01*
X158267261Y-90189880D01*
X158267261Y-90250357D01*
X158237023Y-90310833D01*
X158206785Y-90341071D01*
X158146309Y-90371309D01*
X158025357Y-90401547D01*
X157874166Y-90401547D01*
X157753214Y-90371309D01*
X157692738Y-90341071D01*
X157662500Y-90310833D01*
X157632261Y-90250357D01*
%TO.C,R31*%
X159147261Y-91228214D02*
X158844880Y-91439880D01*
X159147261Y-91591071D02*
X158512261Y-91591071D01*
X158512261Y-91349166D01*
X158542500Y-91288690D01*
X158572738Y-91258452D01*
X158633214Y-91228214D01*
X158723928Y-91228214D01*
X158784404Y-91258452D01*
X158814642Y-91288690D01*
X158844880Y-91349166D01*
X158844880Y-91591071D01*
X158512261Y-91016547D02*
X158512261Y-90623452D01*
X158754166Y-90835119D01*
X158754166Y-90744404D01*
X158784404Y-90683928D01*
X158814642Y-90653690D01*
X158875119Y-90623452D01*
X159026309Y-90623452D01*
X159086785Y-90653690D01*
X159117023Y-90683928D01*
X159147261Y-90744404D01*
X159147261Y-90925833D01*
X159117023Y-90986309D01*
X159086785Y-91016547D01*
X159147261Y-90018690D02*
X159147261Y-90381547D01*
X159147261Y-90200119D02*
X158512261Y-90200119D01*
X158602976Y-90260595D01*
X158663452Y-90321071D01*
X158693690Y-90381547D01*
%TO.C,U3*%
D17*
X133998095Y-109792380D02*
X133998095Y-110601904D01*
X134045714Y-110697142D01*
X134093333Y-110744761D01*
X134188571Y-110792380D01*
X134379047Y-110792380D01*
X134474285Y-110744761D01*
X134521904Y-110697142D01*
X134569523Y-110601904D01*
X134569523Y-109792380D01*
X134950476Y-109792380D02*
X135569523Y-109792380D01*
X135236190Y-110173333D01*
X135379047Y-110173333D01*
X135474285Y-110220952D01*
X135521904Y-110268571D01*
X135569523Y-110363809D01*
X135569523Y-110601904D01*
X135521904Y-110697142D01*
X135474285Y-110744761D01*
X135379047Y-110792380D01*
X135093333Y-110792380D01*
X134998095Y-110744761D01*
X134950476Y-110697142D01*
%TO.C,C51*%
D16*
X121256785Y-122798214D02*
X121287023Y-122828452D01*
X121317261Y-122919166D01*
X121317261Y-122979642D01*
X121287023Y-123070357D01*
X121226547Y-123130833D01*
X121166071Y-123161071D01*
X121045119Y-123191309D01*
X120954404Y-123191309D01*
X120833452Y-123161071D01*
X120772976Y-123130833D01*
X120712500Y-123070357D01*
X120682261Y-122979642D01*
X120682261Y-122919166D01*
X120712500Y-122828452D01*
X120742738Y-122798214D01*
X120682261Y-122223690D02*
X120682261Y-122526071D01*
X120984642Y-122556309D01*
X120954404Y-122526071D01*
X120924166Y-122465595D01*
X120924166Y-122314404D01*
X120954404Y-122253928D01*
X120984642Y-122223690D01*
X121045119Y-122193452D01*
X121196309Y-122193452D01*
X121256785Y-122223690D01*
X121287023Y-122253928D01*
X121317261Y-122314404D01*
X121317261Y-122465595D01*
X121287023Y-122526071D01*
X121256785Y-122556309D01*
X121317261Y-121588690D02*
X121317261Y-121951547D01*
X121317261Y-121770119D02*
X120682261Y-121770119D01*
X120772976Y-121830595D01*
X120833452Y-121891071D01*
X120863690Y-121951547D01*
%TO.C,C53*%
D13*
X116751785Y-75336785D02*
X116721547Y-75367023D01*
X116630833Y-75397261D01*
X116570357Y-75397261D01*
X116479642Y-75367023D01*
X116419166Y-75306547D01*
X116388928Y-75246071D01*
X116358690Y-75125119D01*
X116358690Y-75034404D01*
X116388928Y-74913452D01*
X116419166Y-74852976D01*
X116479642Y-74792500D01*
X116570357Y-74762261D01*
X116630833Y-74762261D01*
X116721547Y-74792500D01*
X116751785Y-74822738D01*
X117326309Y-74762261D02*
X117023928Y-74762261D01*
X116993690Y-75064642D01*
X117023928Y-75034404D01*
X117084404Y-75004166D01*
X117235595Y-75004166D01*
X117296071Y-75034404D01*
X117326309Y-75064642D01*
X117356547Y-75125119D01*
X117356547Y-75276309D01*
X117326309Y-75336785D01*
X117296071Y-75367023D01*
X117235595Y-75397261D01*
X117084404Y-75397261D01*
X117023928Y-75367023D01*
X116993690Y-75336785D01*
X117568214Y-74762261D02*
X117961309Y-74762261D01*
X117749642Y-75004166D01*
X117840357Y-75004166D01*
X117900833Y-75034404D01*
X117931071Y-75064642D01*
X117961309Y-75125119D01*
X117961309Y-75276309D01*
X117931071Y-75336785D01*
X117900833Y-75367023D01*
X117840357Y-75397261D01*
X117658928Y-75397261D01*
X117598452Y-75367023D01*
X117568214Y-75336785D01*
%TO.C,C54*%
X119846785Y-103328214D02*
X119877023Y-103358452D01*
X119907261Y-103449166D01*
X119907261Y-103509642D01*
X119877023Y-103600357D01*
X119816547Y-103660833D01*
X119756071Y-103691071D01*
X119635119Y-103721309D01*
X119544404Y-103721309D01*
X119423452Y-103691071D01*
X119362976Y-103660833D01*
X119302500Y-103600357D01*
X119272261Y-103509642D01*
X119272261Y-103449166D01*
X119302500Y-103358452D01*
X119332738Y-103328214D01*
X119272261Y-102753690D02*
X119272261Y-103056071D01*
X119574642Y-103086309D01*
X119544404Y-103056071D01*
X119514166Y-102995595D01*
X119514166Y-102844404D01*
X119544404Y-102783928D01*
X119574642Y-102753690D01*
X119635119Y-102723452D01*
X119786309Y-102723452D01*
X119846785Y-102753690D01*
X119877023Y-102783928D01*
X119907261Y-102844404D01*
X119907261Y-102995595D01*
X119877023Y-103056071D01*
X119846785Y-103086309D01*
X119483928Y-102179166D02*
X119907261Y-102179166D01*
X119242023Y-102330357D02*
X119695595Y-102481547D01*
X119695595Y-102088452D01*
%TO.C,C55*%
X124236785Y-100648214D02*
X124267023Y-100678452D01*
X124297261Y-100769166D01*
X124297261Y-100829642D01*
X124267023Y-100920357D01*
X124206547Y-100980833D01*
X124146071Y-101011071D01*
X124025119Y-101041309D01*
X123934404Y-101041309D01*
X123813452Y-101011071D01*
X123752976Y-100980833D01*
X123692500Y-100920357D01*
X123662261Y-100829642D01*
X123662261Y-100769166D01*
X123692500Y-100678452D01*
X123722738Y-100648214D01*
X123662261Y-100073690D02*
X123662261Y-100376071D01*
X123964642Y-100406309D01*
X123934404Y-100376071D01*
X123904166Y-100315595D01*
X123904166Y-100164404D01*
X123934404Y-100103928D01*
X123964642Y-100073690D01*
X124025119Y-100043452D01*
X124176309Y-100043452D01*
X124236785Y-100073690D01*
X124267023Y-100103928D01*
X124297261Y-100164404D01*
X124297261Y-100315595D01*
X124267023Y-100376071D01*
X124236785Y-100406309D01*
X123662261Y-99468928D02*
X123662261Y-99771309D01*
X123964642Y-99801547D01*
X123934404Y-99771309D01*
X123904166Y-99710833D01*
X123904166Y-99559642D01*
X123934404Y-99499166D01*
X123964642Y-99468928D01*
X124025119Y-99438690D01*
X124176309Y-99438690D01*
X124236785Y-99468928D01*
X124267023Y-99499166D01*
X124297261Y-99559642D01*
X124297261Y-99710833D01*
X124267023Y-99771309D01*
X124236785Y-99801547D01*
%TO.C,C56*%
D16*
X120231785Y-82966785D02*
X120201547Y-82997023D01*
X120110833Y-83027261D01*
X120050357Y-83027261D01*
X119959642Y-82997023D01*
X119899166Y-82936547D01*
X119868928Y-82876071D01*
X119838690Y-82755119D01*
X119838690Y-82664404D01*
X119868928Y-82543452D01*
X119899166Y-82482976D01*
X119959642Y-82422500D01*
X120050357Y-82392261D01*
X120110833Y-82392261D01*
X120201547Y-82422500D01*
X120231785Y-82452738D01*
X120806309Y-82392261D02*
X120503928Y-82392261D01*
X120473690Y-82694642D01*
X120503928Y-82664404D01*
X120564404Y-82634166D01*
X120715595Y-82634166D01*
X120776071Y-82664404D01*
X120806309Y-82694642D01*
X120836547Y-82755119D01*
X120836547Y-82906309D01*
X120806309Y-82966785D01*
X120776071Y-82997023D01*
X120715595Y-83027261D01*
X120564404Y-83027261D01*
X120503928Y-82997023D01*
X120473690Y-82966785D01*
X121380833Y-82392261D02*
X121259880Y-82392261D01*
X121199404Y-82422500D01*
X121169166Y-82452738D01*
X121108690Y-82543452D01*
X121078452Y-82664404D01*
X121078452Y-82906309D01*
X121108690Y-82966785D01*
X121138928Y-82997023D01*
X121199404Y-83027261D01*
X121320357Y-83027261D01*
X121380833Y-82997023D01*
X121411071Y-82966785D01*
X121441309Y-82906309D01*
X121441309Y-82755119D01*
X121411071Y-82694642D01*
X121380833Y-82664404D01*
X121320357Y-82634166D01*
X121199404Y-82634166D01*
X121138928Y-82664404D01*
X121108690Y-82694642D01*
X121078452Y-82755119D01*
%TO.C,C57*%
D13*
X118311785Y-82106785D02*
X118281547Y-82137023D01*
X118190833Y-82167261D01*
X118130357Y-82167261D01*
X118039642Y-82137023D01*
X117979166Y-82076547D01*
X117948928Y-82016071D01*
X117918690Y-81895119D01*
X117918690Y-81804404D01*
X117948928Y-81683452D01*
X117979166Y-81622976D01*
X118039642Y-81562500D01*
X118130357Y-81532261D01*
X118190833Y-81532261D01*
X118281547Y-81562500D01*
X118311785Y-81592738D01*
X118886309Y-81532261D02*
X118583928Y-81532261D01*
X118553690Y-81834642D01*
X118583928Y-81804404D01*
X118644404Y-81774166D01*
X118795595Y-81774166D01*
X118856071Y-81804404D01*
X118886309Y-81834642D01*
X118916547Y-81895119D01*
X118916547Y-82046309D01*
X118886309Y-82106785D01*
X118856071Y-82137023D01*
X118795595Y-82167261D01*
X118644404Y-82167261D01*
X118583928Y-82137023D01*
X118553690Y-82106785D01*
X119128214Y-81532261D02*
X119551547Y-81532261D01*
X119279404Y-82167261D01*
%TO.C,D2*%
D16*
X153917261Y-105658690D02*
X153282261Y-105658690D01*
X153282261Y-105507500D01*
X153312500Y-105416785D01*
X153372976Y-105356309D01*
X153433452Y-105326071D01*
X153554404Y-105295833D01*
X153645119Y-105295833D01*
X153766071Y-105326071D01*
X153826547Y-105356309D01*
X153887023Y-105416785D01*
X153917261Y-105507500D01*
X153917261Y-105658690D01*
X153342738Y-105053928D02*
X153312500Y-105023690D01*
X153282261Y-104963214D01*
X153282261Y-104812023D01*
X153312500Y-104751547D01*
X153342738Y-104721309D01*
X153403214Y-104691071D01*
X153463690Y-104691071D01*
X153554404Y-104721309D01*
X153917261Y-105084166D01*
X153917261Y-104691071D01*
%TO.C,D3*%
D21*
X116511309Y-82547261D02*
X116511309Y-81912261D01*
X116662500Y-81912261D01*
X116753214Y-81942500D01*
X116813690Y-82002976D01*
X116843928Y-82063452D01*
X116874166Y-82184404D01*
X116874166Y-82275119D01*
X116843928Y-82396071D01*
X116813690Y-82456547D01*
X116753214Y-82517023D01*
X116662500Y-82547261D01*
X116511309Y-82547261D01*
X117085833Y-81912261D02*
X117478928Y-81912261D01*
X117267261Y-82154166D01*
X117357976Y-82154166D01*
X117418452Y-82184404D01*
X117448690Y-82214642D01*
X117478928Y-82275119D01*
X117478928Y-82426309D01*
X117448690Y-82486785D01*
X117418452Y-82517023D01*
X117357976Y-82547261D01*
X117176547Y-82547261D01*
X117116071Y-82517023D01*
X117085833Y-82486785D01*
%TO.C,R32*%
D13*
X153561785Y-106577261D02*
X153350119Y-106274880D01*
X153198928Y-106577261D02*
X153198928Y-105942261D01*
X153440833Y-105942261D01*
X153501309Y-105972500D01*
X153531547Y-106002738D01*
X153561785Y-106063214D01*
X153561785Y-106153928D01*
X153531547Y-106214404D01*
X153501309Y-106244642D01*
X153440833Y-106274880D01*
X153198928Y-106274880D01*
X153773452Y-105942261D02*
X154166547Y-105942261D01*
X153954880Y-106184166D01*
X154045595Y-106184166D01*
X154106071Y-106214404D01*
X154136309Y-106244642D01*
X154166547Y-106305119D01*
X154166547Y-106456309D01*
X154136309Y-106516785D01*
X154106071Y-106547023D01*
X154045595Y-106577261D01*
X153864166Y-106577261D01*
X153803690Y-106547023D01*
X153773452Y-106516785D01*
X154408452Y-106002738D02*
X154438690Y-105972500D01*
X154499166Y-105942261D01*
X154650357Y-105942261D01*
X154710833Y-105972500D01*
X154741071Y-106002738D01*
X154771309Y-106063214D01*
X154771309Y-106123690D01*
X154741071Y-106214404D01*
X154378214Y-106577261D01*
X154771309Y-106577261D01*
%TO.C,R33*%
X122851785Y-77187261D02*
X122640119Y-76884880D01*
X122488928Y-77187261D02*
X122488928Y-76552261D01*
X122730833Y-76552261D01*
X122791309Y-76582500D01*
X122821547Y-76612738D01*
X122851785Y-76673214D01*
X122851785Y-76763928D01*
X122821547Y-76824404D01*
X122791309Y-76854642D01*
X122730833Y-76884880D01*
X122488928Y-76884880D01*
X123063452Y-76552261D02*
X123456547Y-76552261D01*
X123244880Y-76794166D01*
X123335595Y-76794166D01*
X123396071Y-76824404D01*
X123426309Y-76854642D01*
X123456547Y-76915119D01*
X123456547Y-77066309D01*
X123426309Y-77126785D01*
X123396071Y-77157023D01*
X123335595Y-77187261D01*
X123154166Y-77187261D01*
X123093690Y-77157023D01*
X123063452Y-77126785D01*
X123668214Y-76552261D02*
X124061309Y-76552261D01*
X123849642Y-76794166D01*
X123940357Y-76794166D01*
X124000833Y-76824404D01*
X124031071Y-76854642D01*
X124061309Y-76915119D01*
X124061309Y-77066309D01*
X124031071Y-77126785D01*
X124000833Y-77157023D01*
X123940357Y-77187261D01*
X123758928Y-77187261D01*
X123698452Y-77157023D01*
X123668214Y-77126785D01*
%TO.C,R34*%
X119601785Y-78637261D02*
X119390119Y-78334880D01*
X119238928Y-78637261D02*
X119238928Y-78002261D01*
X119480833Y-78002261D01*
X119541309Y-78032500D01*
X119571547Y-78062738D01*
X119601785Y-78123214D01*
X119601785Y-78213928D01*
X119571547Y-78274404D01*
X119541309Y-78304642D01*
X119480833Y-78334880D01*
X119238928Y-78334880D01*
X119813452Y-78002261D02*
X120206547Y-78002261D01*
X119994880Y-78244166D01*
X120085595Y-78244166D01*
X120146071Y-78274404D01*
X120176309Y-78304642D01*
X120206547Y-78365119D01*
X120206547Y-78516309D01*
X120176309Y-78576785D01*
X120146071Y-78607023D01*
X120085595Y-78637261D01*
X119904166Y-78637261D01*
X119843690Y-78607023D01*
X119813452Y-78576785D01*
X120750833Y-78213928D02*
X120750833Y-78637261D01*
X120599642Y-77972023D02*
X120448452Y-78425595D01*
X120841547Y-78425595D01*
%TO.C,R35*%
X122341785Y-79707261D02*
X122130119Y-79404880D01*
X121978928Y-79707261D02*
X121978928Y-79072261D01*
X122220833Y-79072261D01*
X122281309Y-79102500D01*
X122311547Y-79132738D01*
X122341785Y-79193214D01*
X122341785Y-79283928D01*
X122311547Y-79344404D01*
X122281309Y-79374642D01*
X122220833Y-79404880D01*
X121978928Y-79404880D01*
X122553452Y-79072261D02*
X122946547Y-79072261D01*
X122734880Y-79314166D01*
X122825595Y-79314166D01*
X122886071Y-79344404D01*
X122916309Y-79374642D01*
X122946547Y-79435119D01*
X122946547Y-79586309D01*
X122916309Y-79646785D01*
X122886071Y-79677023D01*
X122825595Y-79707261D01*
X122644166Y-79707261D01*
X122583690Y-79677023D01*
X122553452Y-79646785D01*
X123521071Y-79072261D02*
X123218690Y-79072261D01*
X123188452Y-79374642D01*
X123218690Y-79344404D01*
X123279166Y-79314166D01*
X123430357Y-79314166D01*
X123490833Y-79344404D01*
X123521071Y-79374642D01*
X123551309Y-79435119D01*
X123551309Y-79586309D01*
X123521071Y-79646785D01*
X123490833Y-79677023D01*
X123430357Y-79707261D01*
X123279166Y-79707261D01*
X123218690Y-79677023D01*
X123188452Y-79646785D01*
%TO.C,U6*%
D21*
X116976190Y-99472261D02*
X116976190Y-99986309D01*
X117006428Y-100046785D01*
X117036666Y-100077023D01*
X117097142Y-100107261D01*
X117218095Y-100107261D01*
X117278571Y-100077023D01*
X117308809Y-100046785D01*
X117339047Y-99986309D01*
X117339047Y-99472261D01*
X117913571Y-99472261D02*
X117792619Y-99472261D01*
X117732142Y-99502500D01*
X117701904Y-99532738D01*
X117641428Y-99623452D01*
X117611190Y-99744404D01*
X117611190Y-99986309D01*
X117641428Y-100046785D01*
X117671666Y-100077023D01*
X117732142Y-100107261D01*
X117853095Y-100107261D01*
X117913571Y-100077023D01*
X117943809Y-100046785D01*
X117974047Y-99986309D01*
X117974047Y-99835119D01*
X117943809Y-99774642D01*
X117913571Y-99744404D01*
X117853095Y-99714166D01*
X117732142Y-99714166D01*
X117671666Y-99744404D01*
X117641428Y-99774642D01*
X117611190Y-99835119D01*
%TO.C,U7*%
D17*
X108198095Y-73012380D02*
X108198095Y-73821904D01*
X108245714Y-73917142D01*
X108293333Y-73964761D01*
X108388571Y-74012380D01*
X108579047Y-74012380D01*
X108674285Y-73964761D01*
X108721904Y-73917142D01*
X108769523Y-73821904D01*
X108769523Y-73012380D01*
X109150476Y-73012380D02*
X109817142Y-73012380D01*
X109388571Y-74012380D01*
%TO.C,C44*%
D13*
X118021785Y-104006785D02*
X117991547Y-104037023D01*
X117900833Y-104067261D01*
X117840357Y-104067261D01*
X117749642Y-104037023D01*
X117689166Y-103976547D01*
X117658928Y-103916071D01*
X117628690Y-103795119D01*
X117628690Y-103704404D01*
X117658928Y-103583452D01*
X117689166Y-103522976D01*
X117749642Y-103462500D01*
X117840357Y-103432261D01*
X117900833Y-103432261D01*
X117991547Y-103462500D01*
X118021785Y-103492738D01*
X118566071Y-103643928D02*
X118566071Y-104067261D01*
X118414880Y-103402023D02*
X118263690Y-103855595D01*
X118656785Y-103855595D01*
X119170833Y-103643928D02*
X119170833Y-104067261D01*
X119019642Y-103402023D02*
X118868452Y-103855595D01*
X119261547Y-103855595D01*
%TO.C,C45*%
X120571785Y-103996785D02*
X120541547Y-104027023D01*
X120450833Y-104057261D01*
X120390357Y-104057261D01*
X120299642Y-104027023D01*
X120239166Y-103966547D01*
X120208928Y-103906071D01*
X120178690Y-103785119D01*
X120178690Y-103694404D01*
X120208928Y-103573452D01*
X120239166Y-103512976D01*
X120299642Y-103452500D01*
X120390357Y-103422261D01*
X120450833Y-103422261D01*
X120541547Y-103452500D01*
X120571785Y-103482738D01*
X121116071Y-103633928D02*
X121116071Y-104057261D01*
X120964880Y-103392023D02*
X120813690Y-103845595D01*
X121206785Y-103845595D01*
X121751071Y-103422261D02*
X121448690Y-103422261D01*
X121418452Y-103724642D01*
X121448690Y-103694404D01*
X121509166Y-103664166D01*
X121660357Y-103664166D01*
X121720833Y-103694404D01*
X121751071Y-103724642D01*
X121781309Y-103785119D01*
X121781309Y-103936309D01*
X121751071Y-103996785D01*
X121720833Y-104027023D01*
X121660357Y-104057261D01*
X121509166Y-104057261D01*
X121448690Y-104027023D01*
X121418452Y-103996785D01*
%TO.C,C47*%
X118201785Y-108266785D02*
X118171547Y-108297023D01*
X118080833Y-108327261D01*
X118020357Y-108327261D01*
X117929642Y-108297023D01*
X117869166Y-108236547D01*
X117838928Y-108176071D01*
X117808690Y-108055119D01*
X117808690Y-107964404D01*
X117838928Y-107843452D01*
X117869166Y-107782976D01*
X117929642Y-107722500D01*
X118020357Y-107692261D01*
X118080833Y-107692261D01*
X118171547Y-107722500D01*
X118201785Y-107752738D01*
X118746071Y-107903928D02*
X118746071Y-108327261D01*
X118594880Y-107662023D02*
X118443690Y-108115595D01*
X118836785Y-108115595D01*
X119018214Y-107692261D02*
X119441547Y-107692261D01*
X119169404Y-108327261D01*
%TO.C,R14*%
X130927261Y-106938214D02*
X130624880Y-107149880D01*
X130927261Y-107301071D02*
X130292261Y-107301071D01*
X130292261Y-107059166D01*
X130322500Y-106998690D01*
X130352738Y-106968452D01*
X130413214Y-106938214D01*
X130503928Y-106938214D01*
X130564404Y-106968452D01*
X130594642Y-106998690D01*
X130624880Y-107059166D01*
X130624880Y-107301071D01*
X130927261Y-106333452D02*
X130927261Y-106696309D01*
X130927261Y-106514880D02*
X130292261Y-106514880D01*
X130382976Y-106575357D01*
X130443452Y-106635833D01*
X130473690Y-106696309D01*
X130503928Y-105789166D02*
X130927261Y-105789166D01*
X130262023Y-105940357D02*
X130715595Y-106091547D01*
X130715595Y-105698452D01*
%TO.C,R24*%
X131877261Y-106998214D02*
X131574880Y-107209880D01*
X131877261Y-107361071D02*
X131242261Y-107361071D01*
X131242261Y-107119166D01*
X131272500Y-107058690D01*
X131302738Y-107028452D01*
X131363214Y-106998214D01*
X131453928Y-106998214D01*
X131514404Y-107028452D01*
X131544642Y-107058690D01*
X131574880Y-107119166D01*
X131574880Y-107361071D01*
X131302738Y-106756309D02*
X131272500Y-106726071D01*
X131242261Y-106665595D01*
X131242261Y-106514404D01*
X131272500Y-106453928D01*
X131302738Y-106423690D01*
X131363214Y-106393452D01*
X131423690Y-106393452D01*
X131514404Y-106423690D01*
X131877261Y-106786547D01*
X131877261Y-106393452D01*
X131453928Y-105849166D02*
X131877261Y-105849166D01*
X131212023Y-106000357D02*
X131665595Y-106151547D01*
X131665595Y-105758452D01*
%TO.C,R25*%
X117517261Y-107728214D02*
X117214880Y-107939880D01*
X117517261Y-108091071D02*
X116882261Y-108091071D01*
X116882261Y-107849166D01*
X116912500Y-107788690D01*
X116942738Y-107758452D01*
X117003214Y-107728214D01*
X117093928Y-107728214D01*
X117154404Y-107758452D01*
X117184642Y-107788690D01*
X117214880Y-107849166D01*
X117214880Y-108091071D01*
X116942738Y-107486309D02*
X116912500Y-107456071D01*
X116882261Y-107395595D01*
X116882261Y-107244404D01*
X116912500Y-107183928D01*
X116942738Y-107153690D01*
X117003214Y-107123452D01*
X117063690Y-107123452D01*
X117154404Y-107153690D01*
X117517261Y-107516547D01*
X117517261Y-107123452D01*
X116882261Y-106548928D02*
X116882261Y-106851309D01*
X117184642Y-106881547D01*
X117154404Y-106851309D01*
X117124166Y-106790833D01*
X117124166Y-106639642D01*
X117154404Y-106579166D01*
X117184642Y-106548928D01*
X117245119Y-106518690D01*
X117396309Y-106518690D01*
X117456785Y-106548928D01*
X117487023Y-106579166D01*
X117517261Y-106639642D01*
X117517261Y-106790833D01*
X117487023Y-106851309D01*
X117456785Y-106881547D01*
%TO.C,R26*%
X129987261Y-106938214D02*
X129684880Y-107149880D01*
X129987261Y-107301071D02*
X129352261Y-107301071D01*
X129352261Y-107059166D01*
X129382500Y-106998690D01*
X129412738Y-106968452D01*
X129473214Y-106938214D01*
X129563928Y-106938214D01*
X129624404Y-106968452D01*
X129654642Y-106998690D01*
X129684880Y-107059166D01*
X129684880Y-107301071D01*
X129412738Y-106696309D02*
X129382500Y-106666071D01*
X129352261Y-106605595D01*
X129352261Y-106454404D01*
X129382500Y-106393928D01*
X129412738Y-106363690D01*
X129473214Y-106333452D01*
X129533690Y-106333452D01*
X129624404Y-106363690D01*
X129987261Y-106726547D01*
X129987261Y-106333452D01*
X129352261Y-105789166D02*
X129352261Y-105910119D01*
X129382500Y-105970595D01*
X129412738Y-106000833D01*
X129503452Y-106061309D01*
X129624404Y-106091547D01*
X129866309Y-106091547D01*
X129926785Y-106061309D01*
X129957023Y-106031071D01*
X129987261Y-105970595D01*
X129987261Y-105849642D01*
X129957023Y-105789166D01*
X129926785Y-105758928D01*
X129866309Y-105728690D01*
X129715119Y-105728690D01*
X129654642Y-105758928D01*
X129624404Y-105789166D01*
X129594166Y-105849642D01*
X129594166Y-105970595D01*
X129624404Y-106031071D01*
X129654642Y-106061309D01*
X129715119Y-106091547D01*
%TO.C,R27*%
X123281785Y-105077261D02*
X123070119Y-104774880D01*
X122918928Y-105077261D02*
X122918928Y-104442261D01*
X123160833Y-104442261D01*
X123221309Y-104472500D01*
X123251547Y-104502738D01*
X123281785Y-104563214D01*
X123281785Y-104653928D01*
X123251547Y-104714404D01*
X123221309Y-104744642D01*
X123160833Y-104774880D01*
X122918928Y-104774880D01*
X123523690Y-104502738D02*
X123553928Y-104472500D01*
X123614404Y-104442261D01*
X123765595Y-104442261D01*
X123826071Y-104472500D01*
X123856309Y-104502738D01*
X123886547Y-104563214D01*
X123886547Y-104623690D01*
X123856309Y-104714404D01*
X123493452Y-105077261D01*
X123886547Y-105077261D01*
X124098214Y-104442261D02*
X124521547Y-104442261D01*
X124249404Y-105077261D01*
%TO.C,C48*%
X123706785Y-102288214D02*
X123737023Y-102318452D01*
X123767261Y-102409166D01*
X123767261Y-102469642D01*
X123737023Y-102560357D01*
X123676547Y-102620833D01*
X123616071Y-102651071D01*
X123495119Y-102681309D01*
X123404404Y-102681309D01*
X123283452Y-102651071D01*
X123222976Y-102620833D01*
X123162500Y-102560357D01*
X123132261Y-102469642D01*
X123132261Y-102409166D01*
X123162500Y-102318452D01*
X123192738Y-102288214D01*
X123343928Y-101743928D02*
X123767261Y-101743928D01*
X123102023Y-101895119D02*
X123555595Y-102046309D01*
X123555595Y-101653214D01*
X123404404Y-101320595D02*
X123374166Y-101381071D01*
X123343928Y-101411309D01*
X123283452Y-101441547D01*
X123253214Y-101441547D01*
X123192738Y-101411309D01*
X123162500Y-101381071D01*
X123132261Y-101320595D01*
X123132261Y-101199642D01*
X123162500Y-101139166D01*
X123192738Y-101108928D01*
X123253214Y-101078690D01*
X123283452Y-101078690D01*
X123343928Y-101108928D01*
X123374166Y-101139166D01*
X123404404Y-101199642D01*
X123404404Y-101320595D01*
X123434642Y-101381071D01*
X123464880Y-101411309D01*
X123525357Y-101441547D01*
X123646309Y-101441547D01*
X123706785Y-101411309D01*
X123737023Y-101381071D01*
X123767261Y-101320595D01*
X123767261Y-101199642D01*
X123737023Y-101139166D01*
X123706785Y-101108928D01*
X123646309Y-101078690D01*
X123525357Y-101078690D01*
X123464880Y-101108928D01*
X123434642Y-101139166D01*
X123404404Y-101199642D01*
%TO.C,C49*%
X124171785Y-104306785D02*
X124141547Y-104337023D01*
X124050833Y-104367261D01*
X123990357Y-104367261D01*
X123899642Y-104337023D01*
X123839166Y-104276547D01*
X123808928Y-104216071D01*
X123778690Y-104095119D01*
X123778690Y-104004404D01*
X123808928Y-103883452D01*
X123839166Y-103822976D01*
X123899642Y-103762500D01*
X123990357Y-103732261D01*
X124050833Y-103732261D01*
X124141547Y-103762500D01*
X124171785Y-103792738D01*
X124716071Y-103943928D02*
X124716071Y-104367261D01*
X124564880Y-103702023D02*
X124413690Y-104155595D01*
X124806785Y-104155595D01*
X125078928Y-104367261D02*
X125199880Y-104367261D01*
X125260357Y-104337023D01*
X125290595Y-104306785D01*
X125351071Y-104216071D01*
X125381309Y-104095119D01*
X125381309Y-103853214D01*
X125351071Y-103792738D01*
X125320833Y-103762500D01*
X125260357Y-103732261D01*
X125139404Y-103732261D01*
X125078928Y-103762500D01*
X125048690Y-103792738D01*
X125018452Y-103853214D01*
X125018452Y-104004404D01*
X125048690Y-104064880D01*
X125078928Y-104095119D01*
X125139404Y-104125357D01*
X125260357Y-104125357D01*
X125320833Y-104095119D01*
X125351071Y-104064880D01*
X125381309Y-104004404D01*
%TO.C,R21*%
X169271785Y-91637261D02*
X169060119Y-91334880D01*
X168908928Y-91637261D02*
X168908928Y-91002261D01*
X169150833Y-91002261D01*
X169211309Y-91032500D01*
X169241547Y-91062738D01*
X169271785Y-91123214D01*
X169271785Y-91213928D01*
X169241547Y-91274404D01*
X169211309Y-91304642D01*
X169150833Y-91334880D01*
X168908928Y-91334880D01*
X169513690Y-91062738D02*
X169543928Y-91032500D01*
X169604404Y-91002261D01*
X169755595Y-91002261D01*
X169816071Y-91032500D01*
X169846309Y-91062738D01*
X169876547Y-91123214D01*
X169876547Y-91183690D01*
X169846309Y-91274404D01*
X169483452Y-91637261D01*
X169876547Y-91637261D01*
X170481309Y-91637261D02*
X170118452Y-91637261D01*
X170299880Y-91637261D02*
X170299880Y-91002261D01*
X170239404Y-91092976D01*
X170178928Y-91153452D01*
X170118452Y-91183690D01*
%TD*%
M02*
