%TF.GenerationSoftware,KiCad,Pcbnew,5.1.9-73d0e3b20d~88~ubuntu20.04.1*%
%TF.CreationDate,2021-01-03T20:47:06+01:00*%
%TF.ProjectId,licheepinano_sarau270,6c696368-6565-4706-996e-616e6f5f7361,V1.0*%
%TF.SameCoordinates,Original*%
%TF.FileFunction,Legend,Bot*%
%TF.FilePolarity,Positive*%
%FSLAX46Y46*%
G04 Gerber Fmt 4.6, Leading zero omitted, Abs format (unit mm)*
G04 Created by KiCad (PCBNEW 5.1.9-73d0e3b20d~88~ubuntu20.04.1) date 2021-01-03 20:47:06*
%MOMM*%
%LPD*%
G01*
G04 APERTURE LIST*
%ADD10C,0.250000*%
%ADD11C,0.120000*%
%ADD12C,0.254000*%
G04 APERTURE END LIST*
D10*
%TO.C,DIS1*%
X171620000Y-76930000D02*
X171620000Y-78290000D01*
X170620000Y-76930000D02*
X171620000Y-76930000D01*
X111360000Y-76930000D02*
X112360000Y-76930000D01*
X111360000Y-78290000D02*
X111360000Y-76930000D01*
X111360000Y-119650000D02*
X112360000Y-119650000D01*
X111360000Y-118290000D02*
X111360000Y-119650000D01*
X171620000Y-119650000D02*
X170620000Y-119650000D01*
X171620000Y-118290000D02*
X171620000Y-119650000D01*
D11*
X171620000Y-119650000D02*
X171620000Y-118290000D01*
D12*
X176074523Y-96385476D02*
X174804523Y-96385476D01*
X174804523Y-96687857D01*
X174865000Y-96869285D01*
X174985952Y-96990238D01*
X175106904Y-97050714D01*
X175348809Y-97111190D01*
X175530238Y-97111190D01*
X175772142Y-97050714D01*
X175893095Y-96990238D01*
X176014047Y-96869285D01*
X176074523Y-96687857D01*
X176074523Y-96385476D01*
X176074523Y-97655476D02*
X174804523Y-97655476D01*
X176014047Y-98199761D02*
X176074523Y-98381190D01*
X176074523Y-98683571D01*
X176014047Y-98804523D01*
X175953571Y-98865000D01*
X175832619Y-98925476D01*
X175711666Y-98925476D01*
X175590714Y-98865000D01*
X175530238Y-98804523D01*
X175469761Y-98683571D01*
X175409285Y-98441666D01*
X175348809Y-98320714D01*
X175288333Y-98260238D01*
X175167380Y-98199761D01*
X175046428Y-98199761D01*
X174925476Y-98260238D01*
X174865000Y-98320714D01*
X174804523Y-98441666D01*
X174804523Y-98744047D01*
X174865000Y-98925476D01*
X176074523Y-100135000D02*
X176074523Y-99409285D01*
X176074523Y-99772142D02*
X174804523Y-99772142D01*
X174985952Y-99651190D01*
X175106904Y-99530238D01*
X175167380Y-99409285D01*
%TD*%
M02*
