%TF.GenerationSoftware,KiCad,Pcbnew,5.1.8-db9833491~88~ubuntu20.04.1*%
%TF.CreationDate,2020-12-01T09:18:30+01:00*%
%TF.ProjectId,licheepinano_sarau270,6c696368-6565-4706-996e-616e6f5f7361,V1.0*%
%TF.SameCoordinates,Original*%
%TF.FileFunction,Copper,L4,Bot*%
%TF.FilePolarity,Positive*%
%FSLAX46Y46*%
G04 Gerber Fmt 4.6, Leading zero omitted, Abs format (unit mm)*
G04 Created by KiCad (PCBNEW 5.1.8-db9833491~88~ubuntu20.04.1) date 2020-12-01 09:18:30*
%MOMM*%
%LPD*%
G01*
G04 APERTURE LIST*
%TA.AperFunction,ComponentPad*%
%ADD10C,2.000000*%
%TD*%
%TA.AperFunction,ComponentPad*%
%ADD11C,2.600000*%
%TD*%
%TA.AperFunction,ComponentPad*%
%ADD12C,3.000000*%
%TD*%
%TA.AperFunction,ComponentPad*%
%ADD13R,1.200000X1.200000*%
%TD*%
%TA.AperFunction,ComponentPad*%
%ADD14O,0.647700X1.297940*%
%TD*%
%TA.AperFunction,ComponentPad*%
%ADD15C,0.650000*%
%TD*%
%TA.AperFunction,ComponentPad*%
%ADD16O,1.998980X0.998220*%
%TD*%
%TA.AperFunction,ViaPad*%
%ADD17C,0.450000*%
%TD*%
%TA.AperFunction,ViaPad*%
%ADD18C,0.800000*%
%TD*%
%TA.AperFunction,Conductor*%
%ADD19C,0.508000*%
%TD*%
%TA.AperFunction,Conductor*%
%ADD20C,0.254000*%
%TD*%
%TA.AperFunction,Conductor*%
%ADD21C,0.200000*%
%TD*%
%TA.AperFunction,Conductor*%
%ADD22C,0.762000*%
%TD*%
%TA.AperFunction,Conductor*%
%ADD23C,0.127000*%
%TD*%
%TA.AperFunction,Conductor*%
%ADD24C,0.100000*%
%TD*%
G04 APERTURE END LIST*
%TO.P,DIS1,1*%
%TO.N,GND*%
%TA.AperFunction,SMDPad,CuDef*%
G36*
G01*
X130852500Y-105365000D02*
X128127500Y-105365000D01*
G75*
G02*
X127990000Y-105227500I0J137500D01*
G01*
X127990000Y-104952500D01*
G75*
G02*
X128127500Y-104815000I137500J0D01*
G01*
X130852500Y-104815000D01*
G75*
G02*
X130990000Y-104952500I0J-137500D01*
G01*
X130990000Y-105227500D01*
G75*
G02*
X130852500Y-105365000I-137500J0D01*
G01*
G37*
%TD.AperFunction*%
%TO.P,DIS1,2*%
%TO.N,/LicheePi Nano SOM/GPIO_PD19*%
%TA.AperFunction,SMDPad,CuDef*%
G36*
G01*
X130852500Y-104565000D02*
X128127500Y-104565000D01*
G75*
G02*
X127990000Y-104427500I0J137500D01*
G01*
X127990000Y-104152500D01*
G75*
G02*
X128127500Y-104015000I137500J0D01*
G01*
X130852500Y-104015000D01*
G75*
G02*
X130990000Y-104152500I0J-137500D01*
G01*
X130990000Y-104427500D01*
G75*
G02*
X130852500Y-104565000I-137500J0D01*
G01*
G37*
%TD.AperFunction*%
%TO.P,DIS1,4*%
%TO.N,/LCD Module/DC*%
%TA.AperFunction,SMDPad,CuDef*%
G36*
G01*
X130852500Y-102965000D02*
X128127500Y-102965000D01*
G75*
G02*
X127990000Y-102827500I0J137500D01*
G01*
X127990000Y-102552500D01*
G75*
G02*
X128127500Y-102415000I137500J0D01*
G01*
X130852500Y-102415000D01*
G75*
G02*
X130990000Y-102552500I0J-137500D01*
G01*
X130990000Y-102827500D01*
G75*
G02*
X130852500Y-102965000I-137500J0D01*
G01*
G37*
%TD.AperFunction*%
%TO.P,DIS1,3*%
%TO.N,/LCD Module/CLK*%
%TA.AperFunction,SMDPad,CuDef*%
G36*
G01*
X130852500Y-103765000D02*
X128127500Y-103765000D01*
G75*
G02*
X127990000Y-103627500I0J137500D01*
G01*
X127990000Y-103352500D01*
G75*
G02*
X128127500Y-103215000I137500J0D01*
G01*
X130852500Y-103215000D01*
G75*
G02*
X130990000Y-103352500I0J-137500D01*
G01*
X130990000Y-103627500D01*
G75*
G02*
X130852500Y-103765000I-137500J0D01*
G01*
G37*
%TD.AperFunction*%
%TO.P,DIS1,6*%
%TO.N,/LCD Module/MOSI*%
%TA.AperFunction,SMDPad,CuDef*%
G36*
G01*
X130852500Y-101365000D02*
X128127500Y-101365000D01*
G75*
G02*
X127990000Y-101227500I0J137500D01*
G01*
X127990000Y-100952500D01*
G75*
G02*
X128127500Y-100815000I137500J0D01*
G01*
X130852500Y-100815000D01*
G75*
G02*
X130990000Y-100952500I0J-137500D01*
G01*
X130990000Y-101227500D01*
G75*
G02*
X130852500Y-101365000I-137500J0D01*
G01*
G37*
%TD.AperFunction*%
%TO.P,DIS1,8*%
%TO.N,GND*%
%TA.AperFunction,SMDPad,CuDef*%
G36*
G01*
X130852500Y-99765000D02*
X128127500Y-99765000D01*
G75*
G02*
X127990000Y-99627500I0J137500D01*
G01*
X127990000Y-99352500D01*
G75*
G02*
X128127500Y-99215000I137500J0D01*
G01*
X130852500Y-99215000D01*
G75*
G02*
X130990000Y-99352500I0J-137500D01*
G01*
X130990000Y-99627500D01*
G75*
G02*
X130852500Y-99765000I-137500J0D01*
G01*
G37*
%TD.AperFunction*%
%TO.P,DIS1,5*%
%TO.N,/LCD Module/CS*%
%TA.AperFunction,SMDPad,CuDef*%
G36*
G01*
X130852500Y-102165000D02*
X128127500Y-102165000D01*
G75*
G02*
X127990000Y-102027500I0J137500D01*
G01*
X127990000Y-101752500D01*
G75*
G02*
X128127500Y-101615000I137500J0D01*
G01*
X130852500Y-101615000D01*
G75*
G02*
X130990000Y-101752500I0J-137500D01*
G01*
X130990000Y-102027500D01*
G75*
G02*
X130852500Y-102165000I-137500J0D01*
G01*
G37*
%TD.AperFunction*%
%TO.P,DIS1,7*%
%TO.N,/LCD Module/MISO*%
%TA.AperFunction,SMDPad,CuDef*%
G36*
G01*
X130852500Y-100565000D02*
X128127500Y-100565000D01*
G75*
G02*
X127990000Y-100427500I0J137500D01*
G01*
X127990000Y-100152500D01*
G75*
G02*
X128127500Y-100015000I137500J0D01*
G01*
X130852500Y-100015000D01*
G75*
G02*
X130990000Y-100152500I0J-137500D01*
G01*
X130990000Y-100427500D01*
G75*
G02*
X130852500Y-100565000I-137500J0D01*
G01*
G37*
%TD.AperFunction*%
%TO.P,DIS1,10*%
%TO.N,/LCD Module/LED_A*%
%TA.AperFunction,SMDPad,CuDef*%
G36*
G01*
X130852500Y-98165000D02*
X128127500Y-98165000D01*
G75*
G02*
X127990000Y-98027500I0J137500D01*
G01*
X127990000Y-97752500D01*
G75*
G02*
X128127500Y-97615000I137500J0D01*
G01*
X130852500Y-97615000D01*
G75*
G02*
X130990000Y-97752500I0J-137500D01*
G01*
X130990000Y-98027500D01*
G75*
G02*
X130852500Y-98165000I-137500J0D01*
G01*
G37*
%TD.AperFunction*%
%TO.P,DIS1,12*%
%TO.N,/LCD Module/LED_K1*%
%TA.AperFunction,SMDPad,CuDef*%
G36*
G01*
X130852500Y-96565000D02*
X128127500Y-96565000D01*
G75*
G02*
X127990000Y-96427500I0J137500D01*
G01*
X127990000Y-96152500D01*
G75*
G02*
X128127500Y-96015000I137500J0D01*
G01*
X130852500Y-96015000D01*
G75*
G02*
X130990000Y-96152500I0J-137500D01*
G01*
X130990000Y-96427500D01*
G75*
G02*
X130852500Y-96565000I-137500J0D01*
G01*
G37*
%TD.AperFunction*%
%TO.P,DIS1,16*%
%TO.N,/LicheePi Nano SOM/TPY2*%
%TA.AperFunction,SMDPad,CuDef*%
G36*
G01*
X130852500Y-93365000D02*
X128127500Y-93365000D01*
G75*
G02*
X127990000Y-93227500I0J137500D01*
G01*
X127990000Y-92952500D01*
G75*
G02*
X128127500Y-92815000I137500J0D01*
G01*
X130852500Y-92815000D01*
G75*
G02*
X130990000Y-92952500I0J-137500D01*
G01*
X130990000Y-93227500D01*
G75*
G02*
X130852500Y-93365000I-137500J0D01*
G01*
G37*
%TD.AperFunction*%
%TO.P,DIS1,13*%
%TO.N,/LCD Module/LED_K1*%
%TA.AperFunction,SMDPad,CuDef*%
G36*
G01*
X130852500Y-95765000D02*
X128127500Y-95765000D01*
G75*
G02*
X127990000Y-95627500I0J137500D01*
G01*
X127990000Y-95352500D01*
G75*
G02*
X128127500Y-95215000I137500J0D01*
G01*
X130852500Y-95215000D01*
G75*
G02*
X130990000Y-95352500I0J-137500D01*
G01*
X130990000Y-95627500D01*
G75*
G02*
X130852500Y-95765000I-137500J0D01*
G01*
G37*
%TD.AperFunction*%
%TO.P,DIS1,9*%
%TO.N,/LCD Module/POWER_IN_2V8*%
%TA.AperFunction,SMDPad,CuDef*%
G36*
G01*
X130852500Y-98965000D02*
X128127500Y-98965000D01*
G75*
G02*
X127990000Y-98827500I0J137500D01*
G01*
X127990000Y-98552500D01*
G75*
G02*
X128127500Y-98415000I137500J0D01*
G01*
X130852500Y-98415000D01*
G75*
G02*
X130990000Y-98552500I0J-137500D01*
G01*
X130990000Y-98827500D01*
G75*
G02*
X130852500Y-98965000I-137500J0D01*
G01*
G37*
%TD.AperFunction*%
%TO.P,DIS1,11*%
%TO.N,/LCD Module/LED_K1*%
%TA.AperFunction,SMDPad,CuDef*%
G36*
G01*
X130852500Y-97365000D02*
X128127500Y-97365000D01*
G75*
G02*
X127990000Y-97227500I0J137500D01*
G01*
X127990000Y-96952500D01*
G75*
G02*
X128127500Y-96815000I137500J0D01*
G01*
X130852500Y-96815000D01*
G75*
G02*
X130990000Y-96952500I0J-137500D01*
G01*
X130990000Y-97227500D01*
G75*
G02*
X130852500Y-97365000I-137500J0D01*
G01*
G37*
%TD.AperFunction*%
%TO.P,DIS1,15*%
%TO.N,/LicheePi Nano SOM/TPX2*%
%TA.AperFunction,SMDPad,CuDef*%
G36*
G01*
X130852500Y-94165000D02*
X128127500Y-94165000D01*
G75*
G02*
X127990000Y-94027500I0J137500D01*
G01*
X127990000Y-93752500D01*
G75*
G02*
X128127500Y-93615000I137500J0D01*
G01*
X130852500Y-93615000D01*
G75*
G02*
X130990000Y-93752500I0J-137500D01*
G01*
X130990000Y-94027500D01*
G75*
G02*
X130852500Y-94165000I-137500J0D01*
G01*
G37*
%TD.AperFunction*%
%TO.P,DIS1,14*%
%TO.N,/LCD Module/LED_K1*%
%TA.AperFunction,SMDPad,CuDef*%
G36*
G01*
X130852500Y-94965000D02*
X128127500Y-94965000D01*
G75*
G02*
X127990000Y-94827500I0J137500D01*
G01*
X127990000Y-94552500D01*
G75*
G02*
X128127500Y-94415000I137500J0D01*
G01*
X130852500Y-94415000D01*
G75*
G02*
X130990000Y-94552500I0J-137500D01*
G01*
X130990000Y-94827500D01*
G75*
G02*
X130852500Y-94965000I-137500J0D01*
G01*
G37*
%TD.AperFunction*%
%TO.P,DIS1,17*%
%TO.N,/LicheePi Nano SOM/TPX1*%
%TA.AperFunction,SMDPad,CuDef*%
G36*
G01*
X130852500Y-92565000D02*
X128127500Y-92565000D01*
G75*
G02*
X127990000Y-92427500I0J137500D01*
G01*
X127990000Y-92152500D01*
G75*
G02*
X128127500Y-92015000I137500J0D01*
G01*
X130852500Y-92015000D01*
G75*
G02*
X130990000Y-92152500I0J-137500D01*
G01*
X130990000Y-92427500D01*
G75*
G02*
X130852500Y-92565000I-137500J0D01*
G01*
G37*
%TD.AperFunction*%
%TO.P,DIS1,18*%
%TO.N,/LicheePi Nano SOM/TPY1*%
%TA.AperFunction,SMDPad,CuDef*%
G36*
G01*
X130852500Y-91765000D02*
X128127500Y-91765000D01*
G75*
G02*
X127990000Y-91627500I0J137500D01*
G01*
X127990000Y-91352500D01*
G75*
G02*
X128127500Y-91215000I137500J0D01*
G01*
X130852500Y-91215000D01*
G75*
G02*
X130990000Y-91352500I0J-137500D01*
G01*
X130990000Y-91627500D01*
G75*
G02*
X130852500Y-91765000I-137500J0D01*
G01*
G37*
%TD.AperFunction*%
%TD*%
D10*
%TO.P,C27,2*%
%TO.N,GND*%
X149490000Y-113560000D03*
%TO.P,C27,1*%
%TO.N,/Modem 3G/MODEM_POWER_IN*%
X151990000Y-113560000D03*
%TD*%
D11*
%TO.P,P1,1*%
%TO.N,Net-(L5-Pad1)*%
X176130000Y-84890000D03*
D12*
%TO.P,P1,2*%
%TO.N,GND*%
X173590000Y-87430000D03*
X173590000Y-82350000D03*
X178670000Y-87430000D03*
X178670000Y-82350000D03*
%TD*%
D13*
%TO.P,U1,65*%
%TO.N,GND*%
X113450000Y-116110000D03*
X113450000Y-114910000D03*
X113450000Y-113710000D03*
X113450000Y-112510000D03*
X113450000Y-111310000D03*
X113450000Y-110110000D03*
X114650000Y-116110000D03*
X114650000Y-114910000D03*
X114650000Y-113710000D03*
X114650000Y-112510000D03*
X114650000Y-111310000D03*
X114650000Y-110110000D03*
X115850000Y-116110000D03*
X115850000Y-114910000D03*
X115850000Y-113710000D03*
X115850000Y-112510000D03*
X115850000Y-111310000D03*
X115850000Y-110110000D03*
X117050000Y-116110000D03*
X117050000Y-114910000D03*
X117050000Y-113710000D03*
X117050000Y-112510000D03*
X117050000Y-111310000D03*
X117050000Y-110110000D03*
X118250000Y-116110000D03*
X118250000Y-114910000D03*
X118250000Y-113710000D03*
X118250000Y-112510000D03*
X118250000Y-111310000D03*
X118250000Y-110110000D03*
X119450000Y-116110000D03*
X119450000Y-114910000D03*
X119450000Y-113710000D03*
X119450000Y-112510000D03*
X119450000Y-111310000D03*
X119450000Y-110110000D03*
%TD*%
D14*
%TO.P,Con3,B1*%
%TO.N,GND*%
X107804560Y-112148000D03*
D15*
%TO.P,Con3,B2*%
%TO.N,/LicheePi Nano SOM/USB_ID*%
X107103520Y-111497760D03*
%TO.P,Con3,B3*%
X107103520Y-110697660D03*
%TO.P,Con3,B4*%
%TO.N,/LicheePi Nano SOM/POWER_IN_5V0*%
X107804560Y-110298880D03*
%TO.P,Con3,B5*%
%TO.N,/LicheePi Nano SOM/USB_ID*%
X107103520Y-109897560D03*
%TO.P,Con3,B6*%
%TO.N,Net-(Con3-PadA6)*%
X107804560Y-109498780D03*
%TO.P,Con3,B7*%
%TO.N,Net-(Con3-PadA7)*%
X107804560Y-108701220D03*
%TO.P,Con3,B8*%
%TO.N,N/C*%
X107103520Y-108302440D03*
%TO.P,Con3,B9*%
%TO.N,/LicheePi Nano SOM/POWER_IN_5V0*%
X107804560Y-107901120D03*
%TO.P,Con3,B10*%
%TO.N,N/C*%
X107103520Y-107502340D03*
%TO.P,Con3,B11*%
X107103520Y-106702240D03*
D14*
%TO.P,Con3,B12*%
%TO.N,GND*%
X107804560Y-106052000D03*
D16*
%TO.P,Con3,S1*%
%TO.N,Net-(C50-Pad1)*%
X108604660Y-104601660D03*
%TO.P,Con3,S2*%
X108604660Y-113598340D03*
%TO.P,Con3,S3*%
X103105560Y-103026860D03*
%TO.P,Con3,S4*%
X103105560Y-115173140D03*
%TD*%
D17*
%TO.N,GND*%
X172390000Y-106540000D03*
X132200000Y-100000000D03*
X140800000Y-109990000D03*
X138220000Y-110020000D03*
X145984500Y-110115500D03*
X161725000Y-79885000D03*
X162190000Y-79420000D03*
X164995000Y-77145000D03*
X179070000Y-113070000D03*
X167120000Y-107920000D03*
X131669774Y-99615718D03*
X135588635Y-109968635D03*
X157150000Y-87400000D03*
X122350000Y-102700000D03*
X109940000Y-102020000D03*
X125895000Y-109815000D03*
X112050000Y-118970000D03*
X131450000Y-105090000D03*
X123492400Y-105096938D03*
X115800000Y-119480000D03*
X123113909Y-116896655D03*
X108930010Y-119218508D03*
X110834041Y-118928674D03*
X109604988Y-105822940D03*
X126809990Y-87961557D03*
X120110000Y-78650000D03*
X123500058Y-98393060D03*
X107020000Y-116950000D03*
X108188740Y-111727161D03*
X123097791Y-108766514D03*
X146830000Y-96480000D03*
X165600000Y-102720000D03*
X160910000Y-100500000D03*
X166050000Y-95500000D03*
X163940000Y-95490000D03*
X161860000Y-95500000D03*
X159760000Y-95490000D03*
X122830000Y-74140000D03*
X115790000Y-85180000D03*
X115200000Y-93200000D03*
X135550000Y-106730000D03*
X136700000Y-112490000D03*
X108040000Y-123250000D03*
X108930000Y-120650000D03*
X144890000Y-97890000D03*
X141940000Y-99750000D03*
X143040000Y-93880000D03*
X147740000Y-94630000D03*
X163080000Y-123230000D03*
X170480000Y-123160000D03*
X127250000Y-102400000D03*
X117400000Y-100740000D03*
X162280000Y-88210000D03*
X156420000Y-91100000D03*
X153890000Y-92950000D03*
X150460000Y-105180000D03*
X116483630Y-106466637D03*
X167750000Y-79520000D03*
X111030000Y-73870000D03*
X165120000Y-83200000D03*
X167240000Y-86150000D03*
X168400000Y-117830000D03*
X122400034Y-117160628D03*
X147750000Y-100220000D03*
X120240000Y-103740000D03*
X123850000Y-88260000D03*
X166050000Y-114220000D03*
X163970000Y-114220000D03*
X161870000Y-114220000D03*
X157660000Y-114210000D03*
X157630000Y-112420000D03*
X157680000Y-110610000D03*
X157680000Y-108840000D03*
X157680000Y-107040000D03*
X157680000Y-102760000D03*
X157670000Y-100930000D03*
X157650000Y-99070000D03*
X168180000Y-114230000D03*
%TO.N,Net-(C12-Pad1)*%
X121640000Y-114605002D03*
X110557838Y-117302839D03*
%TO.N,Net-(C13-Pad1)*%
X124860000Y-106820000D03*
X113502514Y-107891402D03*
%TO.N,/GPS Module/GPS_V_BCKP*%
X172390000Y-114570000D03*
X163190000Y-83340000D03*
X163190000Y-82570000D03*
%TO.N,Net-(Q1-Pad1)*%
X158150000Y-120420000D03*
X154440000Y-119530000D03*
%TO.N,Net-(R1-Pad1)*%
X121495748Y-108912819D03*
X120299010Y-107969512D03*
D18*
%TO.N,Net-(R21-Pad2)*%
X167800000Y-84520000D03*
X168960000Y-90430000D03*
D17*
%TO.N,/Modem 3G/VSIM*%
X139100000Y-111170000D03*
X153740000Y-103730000D03*
%TO.N,/Modem 3G/SIM_RST*%
X142000000Y-111860000D03*
X134388245Y-113479028D03*
X154180190Y-102214595D03*
%TO.N,/Modem 3G/SIM_CLK*%
X154490000Y-99500000D03*
X143210000Y-112560000D03*
%TO.N,/Modem 3G/SIM_IO*%
X147220000Y-120910000D03*
X154778022Y-100710000D03*
%TO.N,/GPS Module/1V8*%
X163977990Y-89500000D03*
%TO.N,Net-(Modem1-Pad16)*%
X159390000Y-109960000D03*
X157660000Y-118750000D03*
%TO.N,/Modem 3G/SIM_DET*%
X171380990Y-110819990D03*
X155752034Y-103707690D03*
%TO.N,/GPS Module/POWER_IN_1V8*%
X172080000Y-112580000D03*
X168090000Y-75070000D03*
X167510000Y-74490000D03*
%TO.N,/Logic Voltage Shifter/SIG3_LOW_PART*%
X171720000Y-103750000D03*
X156680000Y-79120000D03*
%TO.N,/Logic Voltage Shifter/SIG4_LOW_PART*%
X157510000Y-79200000D03*
X171960000Y-102680000D03*
%TO.N,/GPS Module/GNSS_ENABLE*%
X166420000Y-81906021D03*
X166920000Y-90780000D03*
%TO.N,/Logic Voltage Shifter/SIG2_LOW_PART*%
X166400000Y-91310000D03*
X162476584Y-81906021D03*
%TO.N,/GPS Module/GPS_EXTINT*%
X165120000Y-91500000D03*
X161930000Y-83940000D03*
%TO.N,/Modem 3G/GPS_I2C_1V8_SDA*%
X164010000Y-91820000D03*
X164530000Y-88190000D03*
%TO.N,/Modem 3G/GPS_I2C_1V8_SCL*%
X162910000Y-91820000D03*
X163730000Y-88180000D03*
%TO.N,/Ethernet Connector Module/SHIELD1*%
X112170000Y-78580000D03*
X109560000Y-100090000D03*
%TO.N,/USB Hub Module/ETHERNET_RXN*%
X120230000Y-105860000D03*
X123048025Y-91007488D03*
X118225368Y-107994586D03*
%TO.N,/USB Hub Module/ETHERNET_RXP*%
X121140000Y-105870000D03*
X123573035Y-90553302D03*
X118870856Y-107918032D03*
%TO.N,/USB Hub Module/ETHERNET_TXN*%
X118410000Y-105840000D03*
X123397987Y-93028283D03*
X117104877Y-106657862D03*
%TO.N,/USB Hub Module/ETHERNET_TXP*%
X119320000Y-105840000D03*
X123096344Y-94249630D03*
X117593478Y-107086563D03*
%TO.N,Net-(C48-Pad1)*%
X123910000Y-102050000D03*
X124010010Y-97989992D03*
%TO.N,Net-(R8-Pad2)*%
X114930000Y-118380000D03*
X123570989Y-97509531D03*
%TO.N,Net-(R9-Pad2)*%
X115579625Y-118357567D03*
X124024986Y-79440000D03*
%TO.N,3V3*%
X156280000Y-87830000D03*
X154770000Y-87850000D03*
X127470000Y-91190000D03*
X127020000Y-90740000D03*
X122740000Y-112000000D03*
X122520000Y-119820000D03*
X122350000Y-120390000D03*
X113455000Y-119195000D03*
X117677783Y-118802010D03*
X119230000Y-98730000D03*
X111124442Y-114664442D03*
X119760000Y-98670000D03*
X118770000Y-99220000D03*
X123159984Y-113170000D03*
X153167010Y-107760000D03*
X122075754Y-77690772D03*
X122195141Y-115162130D03*
%TO.N,/Ethernet Connector Module/POWER_IN_3V3*%
X121016659Y-108291490D03*
X119560000Y-107865018D03*
X111020000Y-107770000D03*
X119608356Y-101029875D03*
X111191725Y-111170781D03*
X114362778Y-106230000D03*
X117628509Y-107737148D03*
X109479978Y-112617812D03*
%TO.N,/LicheePi Nano SOM/POWER_IN_5V0*%
X123660000Y-84510000D03*
X113190000Y-74130000D03*
X113810000Y-74130000D03*
X123741999Y-85126401D03*
X120640000Y-99360000D03*
X120524468Y-99904870D03*
%TO.N,Net-(Con3-PadA6)*%
X109768510Y-108947008D03*
%TO.N,Net-(Con3-PadA7)*%
X109768510Y-109602630D03*
%TO.N,/LCD Module/CLK*%
X134000000Y-100390000D03*
%TO.N,/LCD Module/MOSI*%
X132257883Y-101337990D03*
%TO.N,/LCD Module/CS*%
X133280000Y-98910000D03*
%TO.N,/LCD Module/MISO*%
X132478377Y-100726519D03*
%TO.N,/LCD Module/LED_A*%
X131790000Y-97750000D03*
X132610000Y-97670000D03*
%TO.N,/LCD Module/LED_K1*%
X132280000Y-96710000D03*
X132680000Y-95870000D03*
%TO.N,/LicheePi Nano SOM/TPY2*%
X132250000Y-93060000D03*
%TO.N,/LicheePi Nano SOM/TPX2*%
X127080000Y-95580000D03*
%TO.N,/LicheePi Nano SOM/TPX1*%
X127530000Y-92330000D03*
%TO.N,/LicheePi Nano SOM/TPY1*%
X131630000Y-92057010D03*
%TO.N,/LicheePi Nano SOM/USB_D_N*%
X115337788Y-107689604D03*
X127120000Y-77500000D03*
X158782512Y-90122512D03*
X111305596Y-109624758D03*
%TO.N,/LicheePi Nano SOM/USB_D_P*%
X114812778Y-107299421D03*
X159277488Y-90617488D03*
X110709753Y-109364978D03*
X127783273Y-77831711D03*
%TO.N,/Logic Voltage Shifter/SIG3_HIGH_PART*%
X155960000Y-85100000D03*
X145170000Y-105830000D03*
X146680000Y-109570000D03*
X143373435Y-100043820D03*
%TO.N,/Logic Voltage Shifter/SIG2_HIGH_PART*%
X129160000Y-106870000D03*
X154880000Y-84080000D03*
%TO.N,/Logic Voltage Shifter/SIG4_HIGH_PART*%
X156800000Y-85150000D03*
X156255008Y-83900023D03*
X142897990Y-100572373D03*
%TO.N,/Logic Voltage Shifter/SIG1_HIGH_PART*%
X128040000Y-106990000D03*
X154124136Y-84055202D03*
%TO.N,/LicheePi Nano SOM/GPIO_PD11*%
X140370000Y-107100000D03*
X138120000Y-112640000D03*
X109820000Y-121750000D03*
X110554311Y-115017590D03*
%TO.N,/LicheePi Nano SOM/GPIO_PD1*%
X142970000Y-107040000D03*
X171313979Y-97370136D03*
%TO.N,/LCD Module/POWER_IN_2V8*%
X132089142Y-98994192D03*
X123600010Y-99980000D03*
X123600010Y-100748405D03*
X132570000Y-98650000D03*
%TO.N,Net-(C56-Pad1)*%
X116960000Y-79910000D03*
X116325000Y-79665000D03*
X121440000Y-79670000D03*
X121130000Y-78480000D03*
%TO.N,/LicheePi Nano SOM/USB_ID*%
X109760000Y-107970000D03*
X117240000Y-102190000D03*
X110900000Y-102620000D03*
X124024988Y-78669987D03*
X107832438Y-111074549D03*
%TO.N,/LicheePi Nano SOM/GPIO_PD19*%
X135440000Y-101410000D03*
X149210000Y-100400000D03*
X153030000Y-98970000D03*
%TO.N,/LCD Module/DC*%
X131740000Y-102730000D03*
%TO.N,/LicheePi Nano SOM/GPIO_PD0*%
X171660000Y-113410000D03*
X142340000Y-105140000D03*
X171313979Y-100510000D03*
%TO.N,/LicheePi Nano SOM/GPIO_PD5*%
X147440000Y-109610000D03*
X158050000Y-81730000D03*
X153520000Y-94970000D03*
X153627802Y-99255241D03*
%TO.N,/UBlox WiFi Lily W132/ENABLE*%
X134220000Y-117130000D03*
X139090000Y-107220000D03*
%TO.N,/LicheePi Nano SOM/GPIO_PD9*%
X140690000Y-101160000D03*
X157538416Y-89258110D03*
%TO.N,/Modem 3G/MODEM_POWER_IN*%
X152170000Y-109610000D03*
X152170000Y-110970000D03*
X117190000Y-78390000D03*
X117690000Y-78890000D03*
X118200000Y-79400000D03*
%TO.N,/USB Hub Module/USB_D5_OUT_N*%
X127810000Y-112520000D03*
X111019567Y-112922011D03*
%TO.N,/USB Hub Module/USB_D5_OUT_P*%
X128510000Y-112520000D03*
X111576384Y-113345218D03*
%TO.N,/USB Hub Module/USB_D4_OUT_N*%
X161810000Y-91820000D03*
X110338088Y-111984778D03*
%TO.N,/USB Hub Module/USB_D4_OUT_P*%
X160710000Y-91810000D03*
X111023481Y-112272011D03*
%TD*%
D19*
%TO.N,GND*%
X129490000Y-99490000D02*
X131544056Y-99490000D01*
X132200000Y-100000000D02*
X131815718Y-99615718D01*
X131544056Y-99490000D02*
X131669774Y-99615718D01*
X131815718Y-99615718D02*
X131669774Y-99615718D01*
D20*
X119450000Y-110110000D02*
X119450000Y-116110000D01*
X119450000Y-116110000D02*
X113450000Y-116110000D01*
X113450000Y-116110000D02*
X113450000Y-110110000D01*
X113450000Y-110110000D02*
X119450000Y-110110000D01*
X118250000Y-110110000D02*
X118250000Y-116110000D01*
X118250000Y-116110000D02*
X114650000Y-116110000D01*
X114650000Y-110110000D02*
X114650000Y-116110000D01*
X114650000Y-116110000D02*
X115850000Y-116110000D01*
X115850000Y-116110000D02*
X115850000Y-110110000D01*
X117050000Y-110110000D02*
X117050000Y-116110000D01*
X129490000Y-105090000D02*
X131450000Y-105090000D01*
D21*
X113450000Y-110110000D02*
X113030000Y-110530000D01*
X113030000Y-110530000D02*
X109385901Y-110530000D01*
X109385901Y-110530000D02*
X108188740Y-111727161D01*
D20*
X167240000Y-86150000D02*
X167240000Y-85590000D01*
X167240000Y-85590000D02*
X166780000Y-85130000D01*
X166780000Y-85130000D02*
X166780000Y-83430000D01*
X166780000Y-83430000D02*
X167950000Y-82260000D01*
%TO.N,Net-(C12-Pad1)*%
X120851978Y-116643886D02*
X120193025Y-117302839D01*
X120193025Y-117302839D02*
X110557838Y-117302839D01*
X120851978Y-115393024D02*
X120851978Y-116643886D01*
X121640000Y-114605002D02*
X120851978Y-115393024D01*
%TO.N,Net-(C13-Pad1)*%
X114611112Y-109000000D02*
X113502514Y-107891402D01*
X120100000Y-109000000D02*
X114611112Y-109000000D01*
X120670000Y-109570000D02*
X120100000Y-109000000D01*
X123250000Y-109570000D02*
X120670000Y-109570000D01*
X123860000Y-108960000D02*
X123250000Y-109570000D01*
X123860000Y-107820000D02*
X123860000Y-108960000D01*
X124860000Y-106820000D02*
X123860000Y-107820000D01*
%TO.N,Net-(Q1-Pad1)*%
X157260000Y-119530000D02*
X154440000Y-119530000D01*
X158150000Y-120420000D02*
X157260000Y-119530000D01*
%TO.N,Net-(R1-Pad1)*%
X121495748Y-108912819D02*
X120752819Y-108912819D01*
X120299010Y-108459010D02*
X120299010Y-107969512D01*
X120752819Y-108912819D02*
X120299010Y-108459010D01*
%TO.N,Net-(R21-Pad2)*%
X168740000Y-90210000D02*
X168960000Y-90430000D01*
X168740000Y-85460000D02*
X168740000Y-90210000D01*
X167800000Y-84520000D02*
X168740000Y-85460000D01*
%TO.N,/Modem 3G/VSIM*%
X139100000Y-111170000D02*
X147082068Y-111170000D01*
X147082068Y-111170000D02*
X153740000Y-104512068D01*
X153740000Y-104512068D02*
X153740000Y-103730000D01*
%TO.N,/Modem 3G/SIM_RST*%
X142000000Y-111860000D02*
X140400000Y-111860000D01*
X138780972Y-113479028D02*
X134388245Y-113479028D01*
X140400000Y-111860000D02*
X138780972Y-113479028D01*
X154292002Y-104972134D02*
X154292002Y-102326407D01*
X154292002Y-102326407D02*
X154180190Y-102214595D01*
X142000000Y-111860000D02*
X147404136Y-111860000D01*
X147404136Y-111860000D02*
X154292002Y-104972134D01*
%TO.N,/Modem 3G/SIM_CLK*%
X154226012Y-99763988D02*
X154226012Y-101442974D01*
X154226012Y-101442974D02*
X154746013Y-101962975D01*
X154490000Y-99500000D02*
X154226012Y-99763988D01*
X154746013Y-101962975D02*
X154746013Y-105160191D01*
X154746013Y-105160191D02*
X147346204Y-112560000D01*
X147346204Y-112560000D02*
X143210000Y-112560000D01*
%TO.N,/Modem 3G/SIM_IO*%
X155200024Y-112929976D02*
X155200024Y-101132002D01*
X155200024Y-101132002D02*
X154778022Y-100710000D01*
X147220000Y-120910000D02*
X155200024Y-112929976D01*
%TO.N,Net-(Modem1-Pad16)*%
X159390000Y-117020000D02*
X157660000Y-118750000D01*
X159390000Y-109960000D02*
X159390000Y-117020000D01*
%TO.N,/Modem 3G/SIM_DET*%
X171380990Y-110819990D02*
X162864334Y-110819990D01*
X162864334Y-110819990D02*
X155752034Y-103707690D01*
%TO.N,/Logic Voltage Shifter/SIG3_LOW_PART*%
X158595813Y-81354011D02*
X156680000Y-79438198D01*
X169244011Y-81354011D02*
X158595813Y-81354011D01*
X170300000Y-82410000D02*
X169244011Y-81354011D01*
X171407998Y-102445038D02*
X172320000Y-101533036D01*
X156680000Y-79438198D02*
X156680000Y-79120000D01*
X170300000Y-89030000D02*
X170300000Y-82410000D01*
X171720000Y-103750000D02*
X171407998Y-103437998D01*
X171407998Y-103437998D02*
X171407998Y-102445038D01*
X172320000Y-101533036D02*
X172320000Y-91050000D01*
X172320000Y-91050000D02*
X170300000Y-89030000D01*
%TO.N,/Logic Voltage Shifter/SIG4_LOW_PART*%
X172810000Y-101830000D02*
X171960000Y-102680000D01*
X170840000Y-88927932D02*
X172810000Y-90897932D01*
X170840000Y-82230000D02*
X170840000Y-88927932D01*
X169510000Y-80900000D02*
X170840000Y-82230000D01*
X159210000Y-80900000D02*
X169510000Y-80900000D01*
X157510000Y-79200000D02*
X159210000Y-80900000D01*
X172810000Y-90897932D02*
X172810000Y-101830000D01*
%TO.N,/GPS Module/GNSS_ENABLE*%
X166065989Y-89925989D02*
X166920000Y-90780000D01*
X166420000Y-81906021D02*
X166065989Y-82260032D01*
X166065989Y-82260032D02*
X166065989Y-89925989D01*
%TO.N,/Logic Voltage Shifter/SIG2_LOW_PART*%
X165611979Y-86691979D02*
X162476584Y-83556584D01*
X162476584Y-83556584D02*
X162476584Y-81906021D01*
X165611979Y-90521979D02*
X165611979Y-86691979D01*
X166400000Y-91310000D02*
X165611979Y-90521979D01*
%TO.N,/GPS Module/GPS_EXTINT*%
X165120000Y-91500000D02*
X165120000Y-87130000D01*
X165120000Y-87130000D02*
X161930000Y-83940000D01*
%TO.N,/Modem 3G/GPS_I2C_1V8_SDA*%
X164530000Y-91300000D02*
X164010000Y-91820000D01*
X164530000Y-88190000D02*
X164530000Y-91300000D01*
%TO.N,/Modem 3G/GPS_I2C_1V8_SCL*%
X163730000Y-88180000D02*
X163730000Y-88720000D01*
X163730000Y-88720000D02*
X163310000Y-89140000D01*
X163310000Y-91420000D02*
X162910000Y-91820000D01*
X163310000Y-89140000D02*
X163310000Y-91420000D01*
D19*
%TO.N,/Ethernet Connector Module/SHIELD1*%
X115193809Y-100090000D02*
X109878198Y-100090000D01*
X119004967Y-96278842D02*
X115193809Y-100090000D01*
X119004967Y-87955033D02*
X119004967Y-96278842D01*
X121550000Y-85410000D02*
X119004967Y-87955033D01*
X109878198Y-100090000D02*
X109560000Y-100090000D01*
X121550000Y-82880000D02*
X121550000Y-85410000D01*
X120150000Y-81480000D02*
X121550000Y-82880000D01*
X115070000Y-81480000D02*
X120150000Y-81480000D01*
X112170000Y-78580000D02*
X115070000Y-81480000D01*
D21*
%TO.N,/USB Hub Module/ETHERNET_RXN*%
X118946756Y-106955000D02*
X118225368Y-107676388D01*
X119135000Y-106955000D02*
X118946756Y-106955000D01*
X118225368Y-107676388D02*
X118225368Y-107994586D01*
X120230000Y-105860000D02*
X119135000Y-106955000D01*
X121029989Y-105060011D02*
X121029989Y-102414311D01*
X122575044Y-95639256D02*
X124015000Y-94199300D01*
X120230000Y-105860000D02*
X121029989Y-105060011D01*
X121029989Y-102414311D02*
X122575044Y-100869256D01*
X122575044Y-100869256D02*
X122575044Y-95639256D01*
X124015000Y-94199300D02*
X124015000Y-91974463D01*
X124015000Y-91974463D02*
X123048025Y-91007488D01*
%TO.N,/USB Hub Module/ETHERNET_RXP*%
X119669989Y-107340011D02*
X119287999Y-107340011D01*
X121140000Y-105870000D02*
X119669989Y-107340011D01*
X119287999Y-107340011D02*
X118870856Y-107757154D01*
X118870856Y-107757154D02*
X118870856Y-107918032D01*
X124465000Y-91445267D02*
X123573035Y-90553302D01*
X122975055Y-101034945D02*
X122975055Y-97979490D01*
X123000088Y-97954457D02*
X123000088Y-95779912D01*
X121430000Y-102580000D02*
X122975055Y-101034945D01*
X124465000Y-94315000D02*
X124465000Y-91445267D01*
X122975055Y-97979490D02*
X123000088Y-97954457D01*
X121430000Y-105260000D02*
X121430000Y-102580000D01*
X121140000Y-105550000D02*
X121430000Y-105260000D01*
X123000088Y-95779912D02*
X124465000Y-94315000D01*
X121140000Y-105870000D02*
X121140000Y-105550000D01*
%TO.N,/USB Hub Module/ETHERNET_TXN*%
X121775022Y-94651248D02*
X123397987Y-93028283D01*
X121775022Y-100408862D02*
X121775022Y-94651248D01*
X119566874Y-102617010D02*
X121775022Y-100408862D01*
X118410000Y-103763884D02*
X119556873Y-102617011D01*
X119556873Y-102617011D02*
X119566874Y-102617010D01*
X118410000Y-105840000D02*
X118410000Y-103763884D01*
X117922739Y-105840000D02*
X117104877Y-106657862D01*
X118410000Y-105840000D02*
X117922739Y-105840000D01*
%TO.N,/USB Hub Module/ETHERNET_TXP*%
X122175033Y-95170941D02*
X123096344Y-94249630D01*
X122175033Y-100574551D02*
X122175033Y-95170941D01*
X119732562Y-103017022D02*
X122175033Y-100574551D01*
X119320000Y-103419584D02*
X119722562Y-103017022D01*
X119722562Y-103017022D02*
X119732562Y-103017022D01*
X119320000Y-105840000D02*
X119320000Y-103419584D01*
X118073437Y-107086563D02*
X117593478Y-107086563D01*
X119320000Y-105840000D02*
X118073437Y-107086563D01*
D20*
%TO.N,Net-(C48-Pad1)*%
X124270000Y-98249982D02*
X124010010Y-97989992D01*
X123910000Y-102050000D02*
X124270000Y-101690000D01*
X124270000Y-101690000D02*
X124270000Y-98249982D01*
%TO.N,Net-(R8-Pad2)*%
X123555989Y-114581943D02*
X123555989Y-113631943D01*
X114930000Y-118380000D02*
X114930000Y-118020000D01*
X114930000Y-118020000D02*
X115180000Y-117770000D01*
X124131962Y-97300000D02*
X124116494Y-97284532D01*
X120367932Y-117770000D02*
X123555989Y-114581943D01*
X125920000Y-99080000D02*
X124140000Y-97300000D01*
X123555989Y-113631943D02*
X124330000Y-112857932D01*
X124330000Y-112857932D02*
X124330000Y-108166964D01*
X124330000Y-108166964D02*
X125920000Y-106576964D01*
X125920000Y-106576964D02*
X125920000Y-99080000D01*
X124116494Y-97284532D02*
X123795988Y-97284532D01*
X115180000Y-117770000D02*
X120367932Y-117770000D01*
X123795988Y-97284532D02*
X123570989Y-97509531D01*
X124140000Y-97300000D02*
X124131962Y-97300000D01*
%TO.N,Net-(R9-Pad2)*%
X124024986Y-82824986D02*
X124024986Y-79440000D01*
X126374010Y-98724010D02*
X125100000Y-97450000D01*
X124784011Y-108355021D02*
X126374011Y-106765021D01*
X125100000Y-97450000D02*
X125100000Y-83900000D01*
X124784011Y-113078057D02*
X124784011Y-108355021D01*
X124010000Y-113852068D02*
X124784011Y-113078057D01*
X125100000Y-83900000D02*
X124024986Y-82824986D01*
X126374011Y-106765021D02*
X126374010Y-98724010D01*
X124010000Y-114770000D02*
X124010000Y-113852068D01*
X116760000Y-118250000D02*
X120530000Y-118250000D01*
X120530000Y-118250000D02*
X124010000Y-114770000D01*
X116652433Y-118357567D02*
X116760000Y-118250000D01*
X115579625Y-118357567D02*
X116652433Y-118357567D01*
D22*
%TO.N,/LicheePi Nano SOM/POWER_IN_5V0*%
X123660000Y-84510000D02*
X123660000Y-86228722D01*
X123660000Y-86228722D02*
X120640000Y-89248722D01*
X120640000Y-89248722D02*
X120640000Y-99360000D01*
D23*
%TO.N,Net-(Con3-PadA6)*%
X108264179Y-109498780D02*
X108815951Y-108947008D01*
X107804560Y-109498780D02*
X108264179Y-109498780D01*
X108815951Y-108947008D02*
X109768510Y-108947008D01*
%TO.N,Net-(Con3-PadA7)*%
X109835872Y-109602630D02*
X109768510Y-109602630D01*
X108047274Y-108458506D02*
X110002992Y-108458506D01*
X107804560Y-108701220D02*
X108047274Y-108458506D01*
X110257012Y-109181490D02*
X109835872Y-109602630D01*
X110257012Y-108712526D02*
X110257012Y-109181490D01*
X110002992Y-108458506D02*
X110257012Y-108712526D01*
D20*
%TO.N,/LCD Module/CLK*%
X132108198Y-103490000D02*
X134000000Y-101598198D01*
X129490000Y-103490000D02*
X132108198Y-103490000D01*
X134000000Y-101598198D02*
X134000000Y-100390000D01*
%TO.N,/LCD Module/MOSI*%
X129490000Y-101090000D02*
X130990000Y-101090000D01*
X131237990Y-101337990D02*
X132257883Y-101337990D01*
X130990000Y-101090000D02*
X131237990Y-101337990D01*
%TO.N,/LCD Module/CS*%
X133055001Y-101634999D02*
X133055001Y-99134999D01*
X132800000Y-101890000D02*
X133055001Y-101634999D01*
X133055001Y-99134999D02*
X133280000Y-98910000D01*
X129490000Y-101890000D02*
X132800000Y-101890000D01*
%TO.N,/LCD Module/MISO*%
X131362068Y-100290000D02*
X131798587Y-100726519D01*
X129490000Y-100290000D02*
X131362068Y-100290000D01*
X131798587Y-100726519D02*
X132478377Y-100726519D01*
D19*
%TO.N,/LCD Module/LED_A*%
X129490000Y-97890000D02*
X131650000Y-97890000D01*
X131650000Y-97890000D02*
X131790000Y-97750000D01*
X131790000Y-97750000D02*
X132530000Y-97750000D01*
X132530000Y-97750000D02*
X132610000Y-97670000D01*
%TO.N,/LCD Module/LED_K1*%
X129490000Y-94690000D02*
X129490000Y-97090000D01*
X131860000Y-96290000D02*
X132280000Y-96710000D01*
X129490000Y-96290000D02*
X131860000Y-96290000D01*
X132300000Y-95490000D02*
X132680000Y-95870000D01*
X129490000Y-95490000D02*
X132300000Y-95490000D01*
D20*
%TO.N,/LicheePi Nano SOM/TPY2*%
X132220000Y-93090000D02*
X132250000Y-93060000D01*
X129490000Y-93090000D02*
X132220000Y-93090000D01*
%TO.N,/LicheePi Nano SOM/TPX2*%
X127080000Y-94800000D02*
X127080000Y-95580000D01*
X127990000Y-93890000D02*
X127080000Y-94800000D01*
X129490000Y-93890000D02*
X127990000Y-93890000D01*
%TO.N,/LicheePi Nano SOM/TPX1*%
X129450000Y-92330000D02*
X129490000Y-92290000D01*
X127530000Y-92330000D02*
X129450000Y-92330000D01*
%TO.N,/LicheePi Nano SOM/TPY1*%
X131062990Y-91490000D02*
X131630000Y-92057010D01*
X129490000Y-91490000D02*
X131062990Y-91490000D01*
D21*
%TO.N,/LicheePi Nano SOM/USB_D_N*%
X115112789Y-107914603D02*
X114296010Y-107914603D01*
X111305596Y-109306560D02*
X111305596Y-109624758D01*
X114296010Y-107914603D02*
X113747808Y-107366401D01*
X113245755Y-107366401D02*
X111305596Y-109306560D01*
X115337788Y-107689604D02*
X115112789Y-107914603D01*
X113747808Y-107366401D02*
X113245755Y-107366401D01*
X115337788Y-101295210D02*
X115337788Y-107689604D01*
X119958989Y-96674009D02*
X115337788Y-101295210D01*
X119958989Y-88690199D02*
X119958989Y-96674009D01*
X122825000Y-85824188D02*
X119958989Y-88690199D01*
X122825000Y-78603200D02*
X122825000Y-85824188D01*
X124028200Y-77400000D02*
X122825000Y-78603200D01*
X127020000Y-77400000D02*
X124028200Y-77400000D01*
X127120000Y-77500000D02*
X127020000Y-77400000D01*
X127120000Y-77890000D02*
X127120000Y-77500000D01*
X127335000Y-78105000D02*
X127120000Y-77890000D01*
X127335000Y-88463200D02*
X127335000Y-78105000D01*
X129726800Y-90855000D02*
X127335000Y-88463200D01*
X145803200Y-90855000D02*
X129726800Y-90855000D01*
X153993200Y-82665000D02*
X145803200Y-90855000D01*
X156685000Y-82665000D02*
X153993200Y-82665000D01*
X159205000Y-85185000D02*
X156685000Y-82665000D01*
X158959289Y-90122512D02*
X159205000Y-89876801D01*
X159205000Y-89876801D02*
X159205000Y-85185000D01*
X158782512Y-90122512D02*
X158959289Y-90122512D01*
%TO.N,/LicheePi Nano SOM/USB_D_P*%
X112790143Y-106966390D02*
X110709753Y-109046780D01*
X114812778Y-107299421D02*
X114479747Y-106966390D01*
X114479747Y-106966390D02*
X112790143Y-106966390D01*
X110709753Y-109046780D02*
X110709753Y-109364978D01*
X123816802Y-76974998D02*
X127372002Y-76974998D01*
X114812778Y-107299421D02*
X114887788Y-107224411D01*
X127372002Y-76974998D02*
X127783273Y-77386269D01*
X127783273Y-77386269D02*
X127783273Y-77831711D01*
X122375000Y-78416800D02*
X123816802Y-76974998D01*
X122375000Y-85708489D02*
X122375000Y-78416800D01*
X119558978Y-96508320D02*
X119558978Y-88524511D01*
X114887788Y-101179510D02*
X119558978Y-96508320D01*
X114887788Y-107224411D02*
X114887788Y-101179510D01*
X119558978Y-88524511D02*
X122375000Y-85708489D01*
X127783273Y-88275073D02*
X127783273Y-77831711D01*
X159655000Y-85069300D02*
X156800700Y-82215000D01*
X129913200Y-90405000D02*
X127783273Y-88275073D01*
X145616800Y-90405000D02*
X129913200Y-90405000D01*
X156800700Y-82215000D02*
X153806800Y-82215000D01*
X159655000Y-90239976D02*
X159655000Y-85069300D01*
X153806800Y-82215000D02*
X145616800Y-90405000D01*
X159277488Y-90617488D02*
X159655000Y-90239976D01*
D20*
%TO.N,/Logic Voltage Shifter/SIG3_HIGH_PART*%
X145170000Y-108060000D02*
X146680000Y-109570000D01*
X145170000Y-105830000D02*
X145170000Y-108060000D01*
X143919879Y-97140121D02*
X143919879Y-99497376D01*
X143919879Y-99497376D02*
X143373435Y-100043820D01*
X155960000Y-85100000D02*
X143919879Y-97140121D01*
%TO.N,/Logic Voltage Shifter/SIG2_HIGH_PART*%
X132090000Y-106870000D02*
X129160000Y-106870000D01*
X154880000Y-84080000D02*
X132090000Y-106870000D01*
%TO.N,/Logic Voltage Shifter/SIG4_HIGH_PART*%
X156255008Y-83900023D02*
X143465868Y-96689163D01*
X143465868Y-99097912D02*
X142672991Y-99890789D01*
X143465868Y-96689163D02*
X143465868Y-99097912D01*
X142672991Y-100347374D02*
X142897990Y-100572373D01*
X142672991Y-99890789D02*
X142672991Y-100347374D01*
%TO.N,/Logic Voltage Shifter/SIG1_HIGH_PART*%
X128040000Y-106990000D02*
X128770000Y-106260000D01*
X128770000Y-106260000D02*
X131919338Y-106260000D01*
X131919338Y-106260000D02*
X154124136Y-84055202D01*
%TO.N,/LicheePi Nano SOM/GPIO_PD11*%
X140370000Y-107100000D02*
X140370000Y-108690000D01*
X138120000Y-110940000D02*
X138120000Y-112640000D01*
X140370000Y-108690000D02*
X138120000Y-110940000D01*
X109050000Y-116521901D02*
X110554311Y-115017590D01*
X109050000Y-118544496D02*
X109050000Y-116521901D01*
X109482011Y-118976507D02*
X109050000Y-118544496D01*
X109482011Y-121412011D02*
X109482011Y-118976507D01*
X109820000Y-121750000D02*
X109482011Y-121412011D01*
%TO.N,/LicheePi Nano SOM/GPIO_PD1*%
X170964115Y-97720000D02*
X171313979Y-97370136D01*
X148422084Y-97720000D02*
X170964115Y-97720000D01*
X141787998Y-104354086D02*
X148422084Y-97720000D01*
X141787998Y-105857998D02*
X141787998Y-104354086D01*
X142970000Y-107040000D02*
X141787998Y-105857998D01*
D19*
%TO.N,/LCD Module/POWER_IN_2V8*%
X132530000Y-98690000D02*
X132570000Y-98650000D01*
X129490000Y-98690000D02*
X132530000Y-98690000D01*
D22*
%TO.N,Net-(C56-Pad1)*%
X116715000Y-79665000D02*
X116960000Y-79910000D01*
X116325000Y-79665000D02*
X116715000Y-79665000D01*
X116960000Y-79910000D02*
X117560000Y-80510000D01*
X120600000Y-80510000D02*
X121440000Y-79670000D01*
X117560000Y-80510000D02*
X120600000Y-80510000D01*
X121440000Y-79670000D02*
X121440000Y-78790000D01*
X121440000Y-78790000D02*
X121130000Y-78480000D01*
D20*
%TO.N,/LicheePi Nano SOM/USB_ID*%
X110900000Y-102620000D02*
X110210000Y-103310000D01*
X110210000Y-107520000D02*
X109760000Y-107970000D01*
X110210000Y-103310000D02*
X110210000Y-107520000D01*
D23*
X107103520Y-109897560D02*
X107103520Y-111497760D01*
D21*
X107526731Y-111074549D02*
X107103520Y-111497760D01*
X107832438Y-111074549D02*
X107526731Y-111074549D01*
X107480409Y-111074549D02*
X107103520Y-110697660D01*
X107832438Y-111074549D02*
X107480409Y-111074549D01*
D20*
X123472984Y-83032984D02*
X123472984Y-78903793D01*
X124645989Y-84205989D02*
X123472984Y-83032984D01*
X124645989Y-86244011D02*
X124645989Y-84205989D01*
X121348011Y-89541989D02*
X124645989Y-86244011D01*
X123706790Y-78669987D02*
X124024988Y-78669987D01*
X123472984Y-78903793D02*
X123706790Y-78669987D01*
X121348011Y-100231989D02*
X121348011Y-89541989D01*
X119390000Y-102190000D02*
X121348011Y-100231989D01*
X117240000Y-102190000D02*
X119390000Y-102190000D01*
%TO.N,/LicheePi Nano SOM/GPIO_PD19*%
X129490000Y-104290000D02*
X132560000Y-104290000D01*
X132560000Y-104290000D02*
X135440000Y-101410000D01*
X152160000Y-99840000D02*
X153030000Y-98970000D01*
X149770000Y-99840000D02*
X152160000Y-99840000D01*
X149210000Y-100400000D02*
X149770000Y-99840000D01*
%TO.N,/LCD Module/DC*%
X131700000Y-102690000D02*
X131740000Y-102730000D01*
X129490000Y-102690000D02*
X131700000Y-102690000D01*
%TO.N,/LicheePi Nano SOM/GPIO_PD0*%
X170953988Y-103800950D02*
X170953988Y-100869991D01*
X171360000Y-108700000D02*
X171360000Y-104206962D01*
X172632001Y-112844961D02*
X172632001Y-109972001D01*
X172632001Y-109972001D02*
X171360000Y-108700000D01*
X172066962Y-113410000D02*
X172632001Y-112844961D01*
X171660000Y-113410000D02*
X172066962Y-113410000D01*
X171360000Y-104206962D02*
X170953988Y-103800950D01*
X170953988Y-100869991D02*
X171313979Y-100510000D01*
X142340000Y-105140000D02*
X142340000Y-104444152D01*
X142340000Y-104444152D02*
X148610141Y-98174011D01*
X148610141Y-98174011D02*
X168977990Y-98174011D01*
X168977990Y-98174011D02*
X171313979Y-100510000D01*
%TO.N,/LicheePi Nano SOM/GPIO_PD5*%
X153627802Y-102902198D02*
X153627802Y-99255241D01*
X153160000Y-103370000D02*
X153627802Y-102902198D01*
X153160000Y-104427817D02*
X153160000Y-103370000D01*
X147977817Y-109610000D02*
X153160000Y-104427817D01*
X147440000Y-109610000D02*
X147977817Y-109610000D01*
X153560000Y-94930000D02*
X153520000Y-94970000D01*
X156630000Y-94930000D02*
X153560000Y-94930000D01*
X160480000Y-91080000D02*
X156630000Y-94930000D01*
X160480000Y-84710000D02*
X160480000Y-91080000D01*
X158050000Y-82280000D02*
X160480000Y-84710000D01*
X158050000Y-81730000D02*
X158050000Y-82280000D01*
%TO.N,/UBlox WiFi Lily W132/ENABLE*%
X134220000Y-117130000D02*
X133190000Y-116100000D01*
X133190000Y-116100000D02*
X133190000Y-113790000D01*
X133190000Y-113790000D02*
X139090000Y-107890000D01*
X139090000Y-107890000D02*
X139090000Y-107220000D01*
%TO.N,/LicheePi Nano SOM/GPIO_PD9*%
X157156526Y-89640000D02*
X157538416Y-89258110D01*
X155287916Y-89640000D02*
X157156526Y-89640000D01*
X150199927Y-94727989D02*
X155287916Y-89640000D01*
X149559927Y-94727989D02*
X150199927Y-94727989D01*
X143127916Y-101160000D02*
X149559927Y-94727989D01*
X140690000Y-101160000D02*
X143127916Y-101160000D01*
D21*
%TO.N,/USB Hub Module/USB_D5_OUT_N*%
X111213188Y-115905012D02*
X111358351Y-115905012D01*
X110309032Y-120169032D02*
X110309032Y-118610984D01*
X112030000Y-121890000D02*
X110309032Y-120169032D01*
X111140598Y-112800980D02*
X111019567Y-112922011D01*
X123491800Y-121890000D02*
X112030000Y-121890000D01*
X111802471Y-112800980D02*
X111140598Y-112800980D01*
X109999033Y-118300985D02*
X109999033Y-117119167D01*
X112210000Y-115053363D02*
X112210000Y-113208509D01*
X111358351Y-115905012D02*
X112210000Y-115053363D01*
X109999033Y-117119167D02*
X111213188Y-115905012D01*
X127810000Y-112520000D02*
X127810000Y-117571800D01*
X127810000Y-117571800D02*
X123491800Y-121890000D01*
X110309032Y-118610984D02*
X109999033Y-118300985D01*
X112210000Y-113208509D02*
X111802471Y-112800980D01*
%TO.N,/USB Hub Module/USB_D5_OUT_P*%
X111192662Y-115505001D02*
X111801383Y-114896280D01*
X123728189Y-122290011D02*
X111864311Y-122290011D01*
X111864311Y-122290011D02*
X109909021Y-120334721D01*
X109599022Y-118466674D02*
X109599022Y-116882778D01*
X111801383Y-113570217D02*
X111576384Y-113345218D01*
X109599022Y-116882778D02*
X110976799Y-115505001D01*
X128510000Y-112520000D02*
X128510000Y-117508200D01*
X110976799Y-115505001D02*
X111192662Y-115505001D01*
X109909021Y-120334721D02*
X109909021Y-118776673D01*
X109909021Y-118776673D02*
X109599022Y-118466674D01*
X128510000Y-117508200D02*
X123728189Y-122290011D01*
X111801383Y-114896280D02*
X111801383Y-113570217D01*
%TO.N,/USB Hub Module/USB_D4_OUT_N*%
X110060000Y-112262866D02*
X110338088Y-111984778D01*
X161810000Y-91820000D02*
X157734987Y-95895013D01*
X107955000Y-121813200D02*
X107955000Y-116149300D01*
X157734987Y-95895013D02*
X153102309Y-95895013D01*
X109336800Y-123195000D02*
X107955000Y-121813200D01*
X152812296Y-95605000D02*
X149923200Y-95605000D01*
X153102309Y-95895013D02*
X152812296Y-95605000D01*
X136823200Y-108705000D02*
X132673200Y-108705000D01*
X132673200Y-108705000D02*
X129855000Y-111523200D01*
X107955000Y-116149300D02*
X110060000Y-114044300D01*
X129855000Y-111523200D02*
X129855000Y-117563200D01*
X129855000Y-117563200D02*
X124223200Y-123195000D01*
X110060000Y-114044300D02*
X110060000Y-112262866D01*
X149923200Y-95605000D02*
X136823200Y-108705000D01*
X124223200Y-123195000D02*
X109336800Y-123195000D01*
%TO.N,/USB Hub Module/USB_D4_OUT_P*%
X110907987Y-112272013D02*
X111023479Y-112272013D01*
X111023479Y-112272013D02*
X111023481Y-112272011D01*
X110480000Y-114200000D02*
X110480000Y-114180000D01*
X108405000Y-116275000D02*
X110480000Y-114200000D01*
X132486800Y-108255000D02*
X129405000Y-111336800D01*
X136636800Y-108255000D02*
X132486800Y-108255000D01*
X129405000Y-111336800D02*
X129405000Y-117376800D01*
X160710000Y-91810000D02*
X160710000Y-92300000D01*
X129405000Y-117376800D02*
X124036800Y-122745000D01*
X157514998Y-95495002D02*
X153277998Y-95495002D01*
X153277998Y-95495002D02*
X152937996Y-95155000D01*
X152937996Y-95155000D02*
X149736800Y-95155000D01*
X160710000Y-92300000D02*
X157514998Y-95495002D01*
X108405000Y-121626800D02*
X108405000Y-116275000D01*
X149736800Y-95155000D02*
X136636800Y-108255000D01*
X124036800Y-122745000D02*
X109523200Y-122745000D01*
X109523200Y-122745000D02*
X108405000Y-121626800D01*
X110827859Y-112272011D02*
X111023481Y-112272011D01*
X110480000Y-112619870D02*
X110827859Y-112272011D01*
X110480000Y-114200000D02*
X110480000Y-112619870D01*
%TD*%
D20*
%TO.N,GND*%
X108791546Y-123689193D02*
X108806725Y-123707689D01*
X107637805Y-123707689D01*
X107637805Y-122535451D01*
X108791546Y-123689193D01*
%TA.AperFunction,Conductor*%
D24*
G36*
X108791546Y-123689193D02*
G01*
X108806725Y-123707689D01*
X107637805Y-123707689D01*
X107637805Y-122535451D01*
X108791546Y-123689193D01*
G37*
%TD.AperFunction*%
D20*
X162299055Y-111332342D02*
X162322912Y-111361412D01*
X162438942Y-111456635D01*
X162571319Y-111527392D01*
X162714956Y-111570964D01*
X162826908Y-111581990D01*
X162826910Y-111581990D01*
X162864333Y-111585676D01*
X162901756Y-111581990D01*
X170556230Y-111581990D01*
X170577314Y-115803646D01*
X160152000Y-115856522D01*
X160152000Y-110367546D01*
X160152122Y-110367363D01*
X160216951Y-110210853D01*
X160250000Y-110044703D01*
X160250000Y-109875297D01*
X160216951Y-109709147D01*
X160152122Y-109552637D01*
X160058005Y-109411782D01*
X159938218Y-109291995D01*
X159797363Y-109197878D01*
X159640853Y-109133049D01*
X159474703Y-109100000D01*
X159305297Y-109100000D01*
X159139147Y-109133049D01*
X158982637Y-109197878D01*
X158841782Y-109291995D01*
X158721995Y-109411782D01*
X158627878Y-109552637D01*
X158563049Y-109709147D01*
X158530000Y-109875297D01*
X158530000Y-110044703D01*
X158563049Y-110210853D01*
X158627878Y-110367363D01*
X158628000Y-110367546D01*
X158628001Y-116704368D01*
X157409364Y-117923006D01*
X157409147Y-117923049D01*
X157252637Y-117987878D01*
X157111782Y-118081995D01*
X156991995Y-118201782D01*
X156897878Y-118342637D01*
X156833049Y-118499147D01*
X156800000Y-118665297D01*
X156800000Y-118768000D01*
X154847546Y-118768000D01*
X154847363Y-118767878D01*
X154690853Y-118703049D01*
X154524703Y-118670000D01*
X154355297Y-118670000D01*
X154189147Y-118703049D01*
X154032637Y-118767878D01*
X153891782Y-118861995D01*
X153771995Y-118981782D01*
X153677878Y-119122637D01*
X153613049Y-119279147D01*
X153580000Y-119445297D01*
X153580000Y-119614703D01*
X153613049Y-119780853D01*
X153677878Y-119937363D01*
X153771995Y-120078218D01*
X153891782Y-120198005D01*
X154032637Y-120292122D01*
X154189147Y-120356951D01*
X154355297Y-120390000D01*
X154524703Y-120390000D01*
X154690853Y-120356951D01*
X154847363Y-120292122D01*
X154847546Y-120292000D01*
X156944370Y-120292000D01*
X157323006Y-120670637D01*
X157323049Y-120670853D01*
X157387878Y-120827363D01*
X157481995Y-120968218D01*
X157601782Y-121088005D01*
X157742637Y-121182122D01*
X157899147Y-121246951D01*
X158065297Y-121280000D01*
X158234703Y-121280000D01*
X158400853Y-121246951D01*
X158557363Y-121182122D01*
X158698218Y-121088005D01*
X158699068Y-121087155D01*
X158756101Y-121152074D01*
X158757946Y-122320201D01*
X158760426Y-122344973D01*
X158767690Y-122368786D01*
X158779461Y-122390724D01*
X158795285Y-122409944D01*
X158814555Y-122425708D01*
X158836531Y-122437409D01*
X158860366Y-122444599D01*
X158885860Y-122446997D01*
X172117805Y-122351735D01*
X172117805Y-123707689D01*
X124753275Y-123707689D01*
X124768459Y-123689187D01*
X130349193Y-118108454D01*
X130377238Y-118085438D01*
X130469087Y-117973520D01*
X130537337Y-117845833D01*
X130579365Y-117707285D01*
X130590000Y-117599305D01*
X130593556Y-117563200D01*
X130590000Y-117527095D01*
X130590000Y-111827646D01*
X132977647Y-109440000D01*
X136462369Y-109440000D01*
X132677649Y-113224721D01*
X132648579Y-113248578D01*
X132624722Y-113277648D01*
X132624721Y-113277649D01*
X132553355Y-113364608D01*
X132482599Y-113496985D01*
X132439027Y-113640622D01*
X132424314Y-113790000D01*
X132428001Y-113827433D01*
X132428000Y-116062576D01*
X132424314Y-116100000D01*
X132428000Y-116137423D01*
X132428000Y-116137425D01*
X132439026Y-116249377D01*
X132482598Y-116393014D01*
X132499169Y-116424016D01*
X132553355Y-116525392D01*
X132592983Y-116573678D01*
X132648578Y-116641422D01*
X132677654Y-116665284D01*
X133393006Y-117380637D01*
X133393049Y-117380853D01*
X133457878Y-117537363D01*
X133551995Y-117678218D01*
X133671782Y-117798005D01*
X133812637Y-117892122D01*
X133969147Y-117956951D01*
X134135297Y-117990000D01*
X134304703Y-117990000D01*
X134470853Y-117956951D01*
X134627363Y-117892122D01*
X134768218Y-117798005D01*
X134888005Y-117678218D01*
X134982122Y-117537363D01*
X135046951Y-117380853D01*
X135080000Y-117214703D01*
X135080000Y-117045297D01*
X135046951Y-116879147D01*
X134982122Y-116722637D01*
X134888005Y-116581782D01*
X134768218Y-116461995D01*
X134627363Y-116367878D01*
X134470853Y-116303049D01*
X134470637Y-116303006D01*
X133952000Y-115784370D01*
X133952000Y-114221852D01*
X133980882Y-114241150D01*
X134137392Y-114305979D01*
X134303542Y-114339028D01*
X134472948Y-114339028D01*
X134639098Y-114305979D01*
X134795608Y-114241150D01*
X134795791Y-114241028D01*
X138743549Y-114241028D01*
X138780972Y-114244714D01*
X138818395Y-114241028D01*
X138818398Y-114241028D01*
X138930350Y-114230002D01*
X139073987Y-114186430D01*
X139206364Y-114115673D01*
X139322394Y-114020450D01*
X139346256Y-113991374D01*
X140715631Y-112622000D01*
X141592454Y-112622000D01*
X141592637Y-112622122D01*
X141749147Y-112686951D01*
X141915297Y-112720000D01*
X142084703Y-112720000D01*
X142250853Y-112686951D01*
X142350217Y-112645793D01*
X142383049Y-112810853D01*
X142447878Y-112967363D01*
X142541995Y-113108218D01*
X142661782Y-113228005D01*
X142802637Y-113322122D01*
X142959147Y-113386951D01*
X143125297Y-113420000D01*
X143294703Y-113420000D01*
X143460853Y-113386951D01*
X143617363Y-113322122D01*
X143617546Y-113322000D01*
X147308781Y-113322000D01*
X147346204Y-113325686D01*
X147383627Y-113322000D01*
X147383630Y-113322000D01*
X147495582Y-113310974D01*
X147639219Y-113267402D01*
X147771596Y-113196645D01*
X147887626Y-113101422D01*
X147911488Y-113072346D01*
X151310000Y-109673834D01*
X151310000Y-109694703D01*
X151343049Y-109860853D01*
X151407878Y-110017363D01*
X151501995Y-110158218D01*
X151621782Y-110278005D01*
X151639734Y-110290000D01*
X151621782Y-110301995D01*
X151501995Y-110421782D01*
X151407878Y-110562637D01*
X151343049Y-110719147D01*
X151310000Y-110885297D01*
X151310000Y-111054703D01*
X151343049Y-111220853D01*
X151407878Y-111377363D01*
X151501995Y-111518218D01*
X151621782Y-111638005D01*
X151762637Y-111732122D01*
X151919147Y-111796951D01*
X152085297Y-111830000D01*
X152254703Y-111830000D01*
X152420853Y-111796951D01*
X152577363Y-111732122D01*
X152718218Y-111638005D01*
X152838005Y-111518218D01*
X152932122Y-111377363D01*
X152996951Y-111220853D01*
X153030000Y-111054703D01*
X153030000Y-110885297D01*
X152996951Y-110719147D01*
X152932122Y-110562637D01*
X152838005Y-110421782D01*
X152718218Y-110301995D01*
X152700266Y-110290000D01*
X152718218Y-110278005D01*
X152838005Y-110158218D01*
X152932122Y-110017363D01*
X152996951Y-109860853D01*
X153030000Y-109694703D01*
X153030000Y-109525297D01*
X152996951Y-109359147D01*
X152932122Y-109202637D01*
X152838005Y-109061782D01*
X152718218Y-108941995D01*
X152577363Y-108847878D01*
X152420853Y-108783049D01*
X152254703Y-108750000D01*
X152233835Y-108750000D01*
X152587311Y-108396524D01*
X152618792Y-108428005D01*
X152759647Y-108522122D01*
X152916157Y-108586951D01*
X153082307Y-108620000D01*
X153251713Y-108620000D01*
X153417863Y-108586951D01*
X153574373Y-108522122D01*
X153715228Y-108428005D01*
X153835015Y-108308218D01*
X153929132Y-108167363D01*
X153993961Y-108010853D01*
X154027010Y-107844703D01*
X154027010Y-107675297D01*
X153993961Y-107509147D01*
X153929132Y-107352637D01*
X153835015Y-107211782D01*
X153803534Y-107180301D01*
X154438025Y-106545810D01*
X154438024Y-112614345D01*
X153625000Y-113427369D01*
X153625000Y-113398967D01*
X153562168Y-113083088D01*
X153438918Y-112785537D01*
X153259987Y-112517748D01*
X153032252Y-112290013D01*
X152764463Y-112111082D01*
X152466912Y-111987832D01*
X152151033Y-111925000D01*
X151828967Y-111925000D01*
X151513088Y-111987832D01*
X151215537Y-112111082D01*
X150947748Y-112290013D01*
X150720013Y-112517748D01*
X150541082Y-112785537D01*
X150417832Y-113083088D01*
X150355000Y-113398967D01*
X150355000Y-113721033D01*
X150417832Y-114036912D01*
X150541082Y-114334463D01*
X150720013Y-114602252D01*
X150947748Y-114829987D01*
X151215537Y-115008918D01*
X151513088Y-115132168D01*
X151828967Y-115195000D01*
X151857369Y-115195000D01*
X146969364Y-120083006D01*
X146969147Y-120083049D01*
X146812637Y-120147878D01*
X146671782Y-120241995D01*
X146551995Y-120361782D01*
X146457878Y-120502637D01*
X146393049Y-120659147D01*
X146360000Y-120825297D01*
X146360000Y-120994703D01*
X146393049Y-121160853D01*
X146457878Y-121317363D01*
X146551995Y-121458218D01*
X146671782Y-121578005D01*
X146812637Y-121672122D01*
X146969147Y-121736951D01*
X147135297Y-121770000D01*
X147304703Y-121770000D01*
X147470853Y-121736951D01*
X147627363Y-121672122D01*
X147768218Y-121578005D01*
X147888005Y-121458218D01*
X147982122Y-121317363D01*
X148046951Y-121160853D01*
X148046994Y-121160636D01*
X155712377Y-113495254D01*
X155741446Y-113471398D01*
X155836669Y-113355368D01*
X155907426Y-113222991D01*
X155950998Y-113079354D01*
X155962024Y-112967402D01*
X155962024Y-112967400D01*
X155965710Y-112929977D01*
X155962024Y-112892554D01*
X155962024Y-104995310D01*
X162299055Y-111332342D01*
%TA.AperFunction,Conductor*%
D24*
G36*
X162299055Y-111332342D02*
G01*
X162322912Y-111361412D01*
X162438942Y-111456635D01*
X162571319Y-111527392D01*
X162714956Y-111570964D01*
X162826908Y-111581990D01*
X162826910Y-111581990D01*
X162864333Y-111585676D01*
X162901756Y-111581990D01*
X170556230Y-111581990D01*
X170577314Y-115803646D01*
X160152000Y-115856522D01*
X160152000Y-110367546D01*
X160152122Y-110367363D01*
X160216951Y-110210853D01*
X160250000Y-110044703D01*
X160250000Y-109875297D01*
X160216951Y-109709147D01*
X160152122Y-109552637D01*
X160058005Y-109411782D01*
X159938218Y-109291995D01*
X159797363Y-109197878D01*
X159640853Y-109133049D01*
X159474703Y-109100000D01*
X159305297Y-109100000D01*
X159139147Y-109133049D01*
X158982637Y-109197878D01*
X158841782Y-109291995D01*
X158721995Y-109411782D01*
X158627878Y-109552637D01*
X158563049Y-109709147D01*
X158530000Y-109875297D01*
X158530000Y-110044703D01*
X158563049Y-110210853D01*
X158627878Y-110367363D01*
X158628000Y-110367546D01*
X158628001Y-116704368D01*
X157409364Y-117923006D01*
X157409147Y-117923049D01*
X157252637Y-117987878D01*
X157111782Y-118081995D01*
X156991995Y-118201782D01*
X156897878Y-118342637D01*
X156833049Y-118499147D01*
X156800000Y-118665297D01*
X156800000Y-118768000D01*
X154847546Y-118768000D01*
X154847363Y-118767878D01*
X154690853Y-118703049D01*
X154524703Y-118670000D01*
X154355297Y-118670000D01*
X154189147Y-118703049D01*
X154032637Y-118767878D01*
X153891782Y-118861995D01*
X153771995Y-118981782D01*
X153677878Y-119122637D01*
X153613049Y-119279147D01*
X153580000Y-119445297D01*
X153580000Y-119614703D01*
X153613049Y-119780853D01*
X153677878Y-119937363D01*
X153771995Y-120078218D01*
X153891782Y-120198005D01*
X154032637Y-120292122D01*
X154189147Y-120356951D01*
X154355297Y-120390000D01*
X154524703Y-120390000D01*
X154690853Y-120356951D01*
X154847363Y-120292122D01*
X154847546Y-120292000D01*
X156944370Y-120292000D01*
X157323006Y-120670637D01*
X157323049Y-120670853D01*
X157387878Y-120827363D01*
X157481995Y-120968218D01*
X157601782Y-121088005D01*
X157742637Y-121182122D01*
X157899147Y-121246951D01*
X158065297Y-121280000D01*
X158234703Y-121280000D01*
X158400853Y-121246951D01*
X158557363Y-121182122D01*
X158698218Y-121088005D01*
X158699068Y-121087155D01*
X158756101Y-121152074D01*
X158757946Y-122320201D01*
X158760426Y-122344973D01*
X158767690Y-122368786D01*
X158779461Y-122390724D01*
X158795285Y-122409944D01*
X158814555Y-122425708D01*
X158836531Y-122437409D01*
X158860366Y-122444599D01*
X158885860Y-122446997D01*
X172117805Y-122351735D01*
X172117805Y-123707689D01*
X124753275Y-123707689D01*
X124768459Y-123689187D01*
X130349193Y-118108454D01*
X130377238Y-118085438D01*
X130469087Y-117973520D01*
X130537337Y-117845833D01*
X130579365Y-117707285D01*
X130590000Y-117599305D01*
X130593556Y-117563200D01*
X130590000Y-117527095D01*
X130590000Y-111827646D01*
X132977647Y-109440000D01*
X136462369Y-109440000D01*
X132677649Y-113224721D01*
X132648579Y-113248578D01*
X132624722Y-113277648D01*
X132624721Y-113277649D01*
X132553355Y-113364608D01*
X132482599Y-113496985D01*
X132439027Y-113640622D01*
X132424314Y-113790000D01*
X132428001Y-113827433D01*
X132428000Y-116062576D01*
X132424314Y-116100000D01*
X132428000Y-116137423D01*
X132428000Y-116137425D01*
X132439026Y-116249377D01*
X132482598Y-116393014D01*
X132499169Y-116424016D01*
X132553355Y-116525392D01*
X132592983Y-116573678D01*
X132648578Y-116641422D01*
X132677654Y-116665284D01*
X133393006Y-117380637D01*
X133393049Y-117380853D01*
X133457878Y-117537363D01*
X133551995Y-117678218D01*
X133671782Y-117798005D01*
X133812637Y-117892122D01*
X133969147Y-117956951D01*
X134135297Y-117990000D01*
X134304703Y-117990000D01*
X134470853Y-117956951D01*
X134627363Y-117892122D01*
X134768218Y-117798005D01*
X134888005Y-117678218D01*
X134982122Y-117537363D01*
X135046951Y-117380853D01*
X135080000Y-117214703D01*
X135080000Y-117045297D01*
X135046951Y-116879147D01*
X134982122Y-116722637D01*
X134888005Y-116581782D01*
X134768218Y-116461995D01*
X134627363Y-116367878D01*
X134470853Y-116303049D01*
X134470637Y-116303006D01*
X133952000Y-115784370D01*
X133952000Y-114221852D01*
X133980882Y-114241150D01*
X134137392Y-114305979D01*
X134303542Y-114339028D01*
X134472948Y-114339028D01*
X134639098Y-114305979D01*
X134795608Y-114241150D01*
X134795791Y-114241028D01*
X138743549Y-114241028D01*
X138780972Y-114244714D01*
X138818395Y-114241028D01*
X138818398Y-114241028D01*
X138930350Y-114230002D01*
X139073987Y-114186430D01*
X139206364Y-114115673D01*
X139322394Y-114020450D01*
X139346256Y-113991374D01*
X140715631Y-112622000D01*
X141592454Y-112622000D01*
X141592637Y-112622122D01*
X141749147Y-112686951D01*
X141915297Y-112720000D01*
X142084703Y-112720000D01*
X142250853Y-112686951D01*
X142350217Y-112645793D01*
X142383049Y-112810853D01*
X142447878Y-112967363D01*
X142541995Y-113108218D01*
X142661782Y-113228005D01*
X142802637Y-113322122D01*
X142959147Y-113386951D01*
X143125297Y-113420000D01*
X143294703Y-113420000D01*
X143460853Y-113386951D01*
X143617363Y-113322122D01*
X143617546Y-113322000D01*
X147308781Y-113322000D01*
X147346204Y-113325686D01*
X147383627Y-113322000D01*
X147383630Y-113322000D01*
X147495582Y-113310974D01*
X147639219Y-113267402D01*
X147771596Y-113196645D01*
X147887626Y-113101422D01*
X147911488Y-113072346D01*
X151310000Y-109673834D01*
X151310000Y-109694703D01*
X151343049Y-109860853D01*
X151407878Y-110017363D01*
X151501995Y-110158218D01*
X151621782Y-110278005D01*
X151639734Y-110290000D01*
X151621782Y-110301995D01*
X151501995Y-110421782D01*
X151407878Y-110562637D01*
X151343049Y-110719147D01*
X151310000Y-110885297D01*
X151310000Y-111054703D01*
X151343049Y-111220853D01*
X151407878Y-111377363D01*
X151501995Y-111518218D01*
X151621782Y-111638005D01*
X151762637Y-111732122D01*
X151919147Y-111796951D01*
X152085297Y-111830000D01*
X152254703Y-111830000D01*
X152420853Y-111796951D01*
X152577363Y-111732122D01*
X152718218Y-111638005D01*
X152838005Y-111518218D01*
X152932122Y-111377363D01*
X152996951Y-111220853D01*
X153030000Y-111054703D01*
X153030000Y-110885297D01*
X152996951Y-110719147D01*
X152932122Y-110562637D01*
X152838005Y-110421782D01*
X152718218Y-110301995D01*
X152700266Y-110290000D01*
X152718218Y-110278005D01*
X152838005Y-110158218D01*
X152932122Y-110017363D01*
X152996951Y-109860853D01*
X153030000Y-109694703D01*
X153030000Y-109525297D01*
X152996951Y-109359147D01*
X152932122Y-109202637D01*
X152838005Y-109061782D01*
X152718218Y-108941995D01*
X152577363Y-108847878D01*
X152420853Y-108783049D01*
X152254703Y-108750000D01*
X152233835Y-108750000D01*
X152587311Y-108396524D01*
X152618792Y-108428005D01*
X152759647Y-108522122D01*
X152916157Y-108586951D01*
X153082307Y-108620000D01*
X153251713Y-108620000D01*
X153417863Y-108586951D01*
X153574373Y-108522122D01*
X153715228Y-108428005D01*
X153835015Y-108308218D01*
X153929132Y-108167363D01*
X153993961Y-108010853D01*
X154027010Y-107844703D01*
X154027010Y-107675297D01*
X153993961Y-107509147D01*
X153929132Y-107352637D01*
X153835015Y-107211782D01*
X153803534Y-107180301D01*
X154438025Y-106545810D01*
X154438024Y-112614345D01*
X153625000Y-113427369D01*
X153625000Y-113398967D01*
X153562168Y-113083088D01*
X153438918Y-112785537D01*
X153259987Y-112517748D01*
X153032252Y-112290013D01*
X152764463Y-112111082D01*
X152466912Y-111987832D01*
X152151033Y-111925000D01*
X151828967Y-111925000D01*
X151513088Y-111987832D01*
X151215537Y-112111082D01*
X150947748Y-112290013D01*
X150720013Y-112517748D01*
X150541082Y-112785537D01*
X150417832Y-113083088D01*
X150355000Y-113398967D01*
X150355000Y-113721033D01*
X150417832Y-114036912D01*
X150541082Y-114334463D01*
X150720013Y-114602252D01*
X150947748Y-114829987D01*
X151215537Y-115008918D01*
X151513088Y-115132168D01*
X151828967Y-115195000D01*
X151857369Y-115195000D01*
X146969364Y-120083006D01*
X146969147Y-120083049D01*
X146812637Y-120147878D01*
X146671782Y-120241995D01*
X146551995Y-120361782D01*
X146457878Y-120502637D01*
X146393049Y-120659147D01*
X146360000Y-120825297D01*
X146360000Y-120994703D01*
X146393049Y-121160853D01*
X146457878Y-121317363D01*
X146551995Y-121458218D01*
X146671782Y-121578005D01*
X146812637Y-121672122D01*
X146969147Y-121736951D01*
X147135297Y-121770000D01*
X147304703Y-121770000D01*
X147470853Y-121736951D01*
X147627363Y-121672122D01*
X147768218Y-121578005D01*
X147888005Y-121458218D01*
X147982122Y-121317363D01*
X148046951Y-121160853D01*
X148046994Y-121160636D01*
X155712377Y-113495254D01*
X155741446Y-113471398D01*
X155836669Y-113355368D01*
X155907426Y-113222991D01*
X155950998Y-113079354D01*
X155962024Y-112967402D01*
X155962024Y-112967400D01*
X155965710Y-112929977D01*
X155962024Y-112892554D01*
X155962024Y-104995310D01*
X162299055Y-111332342D01*
G37*
%TD.AperFunction*%
D20*
X126437663Y-78172632D02*
X126505913Y-78300319D01*
X126597762Y-78412237D01*
X126600001Y-78414074D01*
X126600000Y-88427095D01*
X126596444Y-88463200D01*
X126610635Y-88607285D01*
X126619017Y-88634917D01*
X126652663Y-88745832D01*
X126720913Y-88873519D01*
X126812762Y-88985437D01*
X126840808Y-89008454D01*
X128409281Y-90576928D01*
X128127500Y-90576928D01*
X128078024Y-90581801D01*
X128018218Y-90521995D01*
X127877363Y-90427878D01*
X127810018Y-90399982D01*
X127782122Y-90332637D01*
X127688005Y-90191782D01*
X127568218Y-90071995D01*
X127427363Y-89977878D01*
X127270853Y-89913049D01*
X127104703Y-89880000D01*
X126935297Y-89880000D01*
X126769147Y-89913049D01*
X126612637Y-89977878D01*
X126471782Y-90071995D01*
X126351995Y-90191782D01*
X126257878Y-90332637D01*
X126193049Y-90489147D01*
X126160000Y-90655297D01*
X126160000Y-90824703D01*
X126193049Y-90990853D01*
X126257878Y-91147363D01*
X126351995Y-91288218D01*
X126471782Y-91408005D01*
X126612637Y-91502122D01*
X126679982Y-91530018D01*
X126707878Y-91597363D01*
X126801995Y-91738218D01*
X126855412Y-91791635D01*
X126767878Y-91922637D01*
X126703049Y-92079147D01*
X126670000Y-92245297D01*
X126670000Y-92414703D01*
X126703049Y-92580853D01*
X126767878Y-92737363D01*
X126861995Y-92878218D01*
X126981782Y-92998005D01*
X127122637Y-93092122D01*
X127279147Y-93156951D01*
X127351928Y-93171428D01*
X127351928Y-93227500D01*
X127366830Y-93378807D01*
X127380034Y-93422335D01*
X126567654Y-94234716D01*
X126538578Y-94258578D01*
X126491953Y-94315392D01*
X126443355Y-94374608D01*
X126419093Y-94420000D01*
X126372598Y-94506986D01*
X126329026Y-94650623D01*
X126318000Y-94762574D01*
X126314314Y-94800000D01*
X126318000Y-94837423D01*
X126318000Y-95172454D01*
X126317878Y-95172637D01*
X126253049Y-95329147D01*
X126220000Y-95495297D01*
X126220000Y-95664703D01*
X126253049Y-95830853D01*
X126317878Y-95987363D01*
X126411995Y-96128218D01*
X126531782Y-96248005D01*
X126672637Y-96342122D01*
X126829147Y-96406951D01*
X126995297Y-96440000D01*
X127164703Y-96440000D01*
X127330853Y-96406951D01*
X127351928Y-96398221D01*
X127351928Y-96427500D01*
X127366830Y-96578807D01*
X127400560Y-96690000D01*
X127366830Y-96801193D01*
X127351928Y-96952500D01*
X127351928Y-97227500D01*
X127366830Y-97378807D01*
X127400560Y-97490000D01*
X127366830Y-97601193D01*
X127351928Y-97752500D01*
X127351928Y-98027500D01*
X127366830Y-98178807D01*
X127400560Y-98290000D01*
X127366830Y-98401193D01*
X127351928Y-98552500D01*
X127351928Y-98827500D01*
X127366830Y-98978807D01*
X127410965Y-99124299D01*
X127482635Y-99258385D01*
X127579088Y-99375912D01*
X127696615Y-99472365D01*
X127729608Y-99490000D01*
X127696615Y-99507635D01*
X127579088Y-99604088D01*
X127482635Y-99721615D01*
X127410965Y-99855701D01*
X127366830Y-100001193D01*
X127351928Y-100152500D01*
X127351928Y-100427500D01*
X127366830Y-100578807D01*
X127400560Y-100690000D01*
X127366830Y-100801193D01*
X127351928Y-100952500D01*
X127351928Y-101227500D01*
X127366830Y-101378807D01*
X127400560Y-101490000D01*
X127366830Y-101601193D01*
X127351928Y-101752500D01*
X127351928Y-102027500D01*
X127366830Y-102178807D01*
X127400560Y-102290000D01*
X127366830Y-102401193D01*
X127351928Y-102552500D01*
X127351928Y-102827500D01*
X127366830Y-102978807D01*
X127400560Y-103090000D01*
X127366830Y-103201193D01*
X127351928Y-103352500D01*
X127351928Y-103627500D01*
X127366830Y-103778807D01*
X127400560Y-103890000D01*
X127366830Y-104001193D01*
X127351928Y-104152500D01*
X127351928Y-104427500D01*
X127366830Y-104578807D01*
X127410965Y-104724299D01*
X127482635Y-104858385D01*
X127579088Y-104975912D01*
X127696615Y-105072365D01*
X127830701Y-105144035D01*
X127976193Y-105188170D01*
X128127500Y-105203072D01*
X130852500Y-105203072D01*
X131003807Y-105188170D01*
X131149299Y-105144035D01*
X131283385Y-105072365D01*
X131308200Y-105052000D01*
X132049708Y-105052000D01*
X131603708Y-105498000D01*
X128807423Y-105498000D01*
X128770000Y-105494314D01*
X128732577Y-105498000D01*
X128732574Y-105498000D01*
X128620622Y-105509026D01*
X128476985Y-105552598D01*
X128427315Y-105579147D01*
X128344607Y-105623355D01*
X128284672Y-105672543D01*
X128228578Y-105718578D01*
X128204720Y-105747649D01*
X127789364Y-106163006D01*
X127789147Y-106163049D01*
X127632637Y-106227878D01*
X127491782Y-106321995D01*
X127371995Y-106441782D01*
X127277878Y-106582637D01*
X127213049Y-106739147D01*
X127180000Y-106905297D01*
X127180000Y-107074703D01*
X127213049Y-107240853D01*
X127277878Y-107397363D01*
X127371995Y-107538218D01*
X127491782Y-107658005D01*
X127632637Y-107752122D01*
X127789147Y-107816951D01*
X127955297Y-107850000D01*
X128124703Y-107850000D01*
X128290853Y-107816951D01*
X128447363Y-107752122D01*
X128588218Y-107658005D01*
X128669591Y-107576632D01*
X128752637Y-107632122D01*
X128909147Y-107696951D01*
X129075297Y-107730000D01*
X129244703Y-107730000D01*
X129410853Y-107696951D01*
X129567363Y-107632122D01*
X129567546Y-107632000D01*
X132052577Y-107632000D01*
X132086841Y-107635375D01*
X132076480Y-107640913D01*
X131964562Y-107732762D01*
X131941546Y-107760807D01*
X128910808Y-110791546D01*
X128882762Y-110814563D01*
X128790913Y-110926481D01*
X128722663Y-111054168D01*
X128710485Y-111094314D01*
X128680635Y-111192715D01*
X128666444Y-111336800D01*
X128670000Y-111372905D01*
X128670000Y-111674977D01*
X128594703Y-111660000D01*
X128425297Y-111660000D01*
X128259147Y-111693049D01*
X128160000Y-111734117D01*
X128060853Y-111693049D01*
X127894703Y-111660000D01*
X127725297Y-111660000D01*
X127559147Y-111693049D01*
X127402637Y-111757878D01*
X127261782Y-111851995D01*
X127141995Y-111971782D01*
X127047878Y-112112637D01*
X126983049Y-112269147D01*
X126950000Y-112435297D01*
X126950000Y-112604703D01*
X126983049Y-112770853D01*
X127047878Y-112927363D01*
X127075000Y-112967954D01*
X127075001Y-117267352D01*
X123187354Y-121155000D01*
X122750415Y-121155000D01*
X122757363Y-121152122D01*
X122898218Y-121058005D01*
X123018005Y-120938218D01*
X123112122Y-120797363D01*
X123176951Y-120640853D01*
X123210000Y-120474703D01*
X123210000Y-120335300D01*
X123282122Y-120227363D01*
X123346951Y-120070853D01*
X123380000Y-119904703D01*
X123380000Y-119735297D01*
X123346951Y-119569147D01*
X123282122Y-119412637D01*
X123188005Y-119271782D01*
X123068218Y-119151995D01*
X122927363Y-119057878D01*
X122770853Y-118993049D01*
X122604703Y-118960000D01*
X122435297Y-118960000D01*
X122269147Y-118993049D01*
X122112637Y-119057878D01*
X121971782Y-119151995D01*
X121851995Y-119271782D01*
X121757878Y-119412637D01*
X121693049Y-119569147D01*
X121660000Y-119735297D01*
X121660000Y-119874700D01*
X121587878Y-119982637D01*
X121523049Y-120139147D01*
X121490000Y-120305297D01*
X121490000Y-120474703D01*
X121523049Y-120640853D01*
X121587878Y-120797363D01*
X121681995Y-120938218D01*
X121801782Y-121058005D01*
X121942637Y-121152122D01*
X121949585Y-121155000D01*
X120984037Y-121155000D01*
X120985378Y-121153587D01*
X120990987Y-121146276D01*
X121108712Y-120990616D01*
X121139959Y-120939625D01*
X121171931Y-120889050D01*
X121176014Y-120880789D01*
X121261263Y-120705226D01*
X121282012Y-120649134D01*
X121303551Y-120593313D01*
X121305952Y-120584416D01*
X121355477Y-120395639D01*
X121364945Y-120336530D01*
X121375222Y-120277645D01*
X121375849Y-120268452D01*
X121387764Y-120073651D01*
X121385572Y-120013871D01*
X121384215Y-119954066D01*
X121383044Y-119944925D01*
X121356894Y-119751518D01*
X121343128Y-119693283D01*
X121330185Y-119634901D01*
X121327261Y-119626162D01*
X121264043Y-119441520D01*
X121239237Y-119387088D01*
X121215194Y-119332316D01*
X121210628Y-119324311D01*
X121112751Y-119155464D01*
X121077853Y-119106898D01*
X121043618Y-119057823D01*
X121037584Y-119050857D01*
X120913154Y-118909222D01*
X120955392Y-118886645D01*
X121071422Y-118791422D01*
X121095284Y-118762346D01*
X124522353Y-115335278D01*
X124551422Y-115311422D01*
X124646645Y-115195392D01*
X124717402Y-115063015D01*
X124760974Y-114919378D01*
X124772000Y-114807426D01*
X124772000Y-114807424D01*
X124775686Y-114770001D01*
X124772000Y-114732578D01*
X124772000Y-114167698D01*
X125296364Y-113643335D01*
X125325433Y-113619479D01*
X125365861Y-113570217D01*
X125420656Y-113503450D01*
X125467897Y-113415067D01*
X125491413Y-113371072D01*
X125534985Y-113227435D01*
X125546011Y-113115483D01*
X125546011Y-113115480D01*
X125549697Y-113078057D01*
X125546011Y-113040634D01*
X125546011Y-108670651D01*
X126886363Y-107330299D01*
X126915433Y-107306442D01*
X126951815Y-107262110D01*
X127010656Y-107190414D01*
X127081412Y-107058037D01*
X127081612Y-107057378D01*
X127124985Y-106914398D01*
X127136011Y-106802446D01*
X127136011Y-106802444D01*
X127139697Y-106765021D01*
X127136011Y-106727598D01*
X127136009Y-98761442D01*
X127139696Y-98724009D01*
X127124983Y-98574631D01*
X127081411Y-98430993D01*
X127010654Y-98298617D01*
X126939289Y-98211658D01*
X126939284Y-98211653D01*
X126915431Y-98182588D01*
X126886366Y-98158735D01*
X125862000Y-97134370D01*
X125862000Y-83937422D01*
X125865686Y-83899999D01*
X125861283Y-83855297D01*
X125850974Y-83750622D01*
X125807402Y-83606985D01*
X125736645Y-83474608D01*
X125641422Y-83358578D01*
X125612352Y-83334721D01*
X124786986Y-82509356D01*
X124786986Y-79847546D01*
X124787108Y-79847363D01*
X124851937Y-79690853D01*
X124884986Y-79524703D01*
X124884986Y-79355297D01*
X124851937Y-79189147D01*
X124796369Y-79054996D01*
X124851939Y-78920840D01*
X124884988Y-78754690D01*
X124884988Y-78585284D01*
X124851939Y-78419134D01*
X124787110Y-78262624D01*
X124701834Y-78135000D01*
X126426247Y-78135000D01*
X126437663Y-78172632D01*
%TA.AperFunction,Conductor*%
D24*
G36*
X126437663Y-78172632D02*
G01*
X126505913Y-78300319D01*
X126597762Y-78412237D01*
X126600001Y-78414074D01*
X126600000Y-88427095D01*
X126596444Y-88463200D01*
X126610635Y-88607285D01*
X126619017Y-88634917D01*
X126652663Y-88745832D01*
X126720913Y-88873519D01*
X126812762Y-88985437D01*
X126840808Y-89008454D01*
X128409281Y-90576928D01*
X128127500Y-90576928D01*
X128078024Y-90581801D01*
X128018218Y-90521995D01*
X127877363Y-90427878D01*
X127810018Y-90399982D01*
X127782122Y-90332637D01*
X127688005Y-90191782D01*
X127568218Y-90071995D01*
X127427363Y-89977878D01*
X127270853Y-89913049D01*
X127104703Y-89880000D01*
X126935297Y-89880000D01*
X126769147Y-89913049D01*
X126612637Y-89977878D01*
X126471782Y-90071995D01*
X126351995Y-90191782D01*
X126257878Y-90332637D01*
X126193049Y-90489147D01*
X126160000Y-90655297D01*
X126160000Y-90824703D01*
X126193049Y-90990853D01*
X126257878Y-91147363D01*
X126351995Y-91288218D01*
X126471782Y-91408005D01*
X126612637Y-91502122D01*
X126679982Y-91530018D01*
X126707878Y-91597363D01*
X126801995Y-91738218D01*
X126855412Y-91791635D01*
X126767878Y-91922637D01*
X126703049Y-92079147D01*
X126670000Y-92245297D01*
X126670000Y-92414703D01*
X126703049Y-92580853D01*
X126767878Y-92737363D01*
X126861995Y-92878218D01*
X126981782Y-92998005D01*
X127122637Y-93092122D01*
X127279147Y-93156951D01*
X127351928Y-93171428D01*
X127351928Y-93227500D01*
X127366830Y-93378807D01*
X127380034Y-93422335D01*
X126567654Y-94234716D01*
X126538578Y-94258578D01*
X126491953Y-94315392D01*
X126443355Y-94374608D01*
X126419093Y-94420000D01*
X126372598Y-94506986D01*
X126329026Y-94650623D01*
X126318000Y-94762574D01*
X126314314Y-94800000D01*
X126318000Y-94837423D01*
X126318000Y-95172454D01*
X126317878Y-95172637D01*
X126253049Y-95329147D01*
X126220000Y-95495297D01*
X126220000Y-95664703D01*
X126253049Y-95830853D01*
X126317878Y-95987363D01*
X126411995Y-96128218D01*
X126531782Y-96248005D01*
X126672637Y-96342122D01*
X126829147Y-96406951D01*
X126995297Y-96440000D01*
X127164703Y-96440000D01*
X127330853Y-96406951D01*
X127351928Y-96398221D01*
X127351928Y-96427500D01*
X127366830Y-96578807D01*
X127400560Y-96690000D01*
X127366830Y-96801193D01*
X127351928Y-96952500D01*
X127351928Y-97227500D01*
X127366830Y-97378807D01*
X127400560Y-97490000D01*
X127366830Y-97601193D01*
X127351928Y-97752500D01*
X127351928Y-98027500D01*
X127366830Y-98178807D01*
X127400560Y-98290000D01*
X127366830Y-98401193D01*
X127351928Y-98552500D01*
X127351928Y-98827500D01*
X127366830Y-98978807D01*
X127410965Y-99124299D01*
X127482635Y-99258385D01*
X127579088Y-99375912D01*
X127696615Y-99472365D01*
X127729608Y-99490000D01*
X127696615Y-99507635D01*
X127579088Y-99604088D01*
X127482635Y-99721615D01*
X127410965Y-99855701D01*
X127366830Y-100001193D01*
X127351928Y-100152500D01*
X127351928Y-100427500D01*
X127366830Y-100578807D01*
X127400560Y-100690000D01*
X127366830Y-100801193D01*
X127351928Y-100952500D01*
X127351928Y-101227500D01*
X127366830Y-101378807D01*
X127400560Y-101490000D01*
X127366830Y-101601193D01*
X127351928Y-101752500D01*
X127351928Y-102027500D01*
X127366830Y-102178807D01*
X127400560Y-102290000D01*
X127366830Y-102401193D01*
X127351928Y-102552500D01*
X127351928Y-102827500D01*
X127366830Y-102978807D01*
X127400560Y-103090000D01*
X127366830Y-103201193D01*
X127351928Y-103352500D01*
X127351928Y-103627500D01*
X127366830Y-103778807D01*
X127400560Y-103890000D01*
X127366830Y-104001193D01*
X127351928Y-104152500D01*
X127351928Y-104427500D01*
X127366830Y-104578807D01*
X127410965Y-104724299D01*
X127482635Y-104858385D01*
X127579088Y-104975912D01*
X127696615Y-105072365D01*
X127830701Y-105144035D01*
X127976193Y-105188170D01*
X128127500Y-105203072D01*
X130852500Y-105203072D01*
X131003807Y-105188170D01*
X131149299Y-105144035D01*
X131283385Y-105072365D01*
X131308200Y-105052000D01*
X132049708Y-105052000D01*
X131603708Y-105498000D01*
X128807423Y-105498000D01*
X128770000Y-105494314D01*
X128732577Y-105498000D01*
X128732574Y-105498000D01*
X128620622Y-105509026D01*
X128476985Y-105552598D01*
X128427315Y-105579147D01*
X128344607Y-105623355D01*
X128284672Y-105672543D01*
X128228578Y-105718578D01*
X128204720Y-105747649D01*
X127789364Y-106163006D01*
X127789147Y-106163049D01*
X127632637Y-106227878D01*
X127491782Y-106321995D01*
X127371995Y-106441782D01*
X127277878Y-106582637D01*
X127213049Y-106739147D01*
X127180000Y-106905297D01*
X127180000Y-107074703D01*
X127213049Y-107240853D01*
X127277878Y-107397363D01*
X127371995Y-107538218D01*
X127491782Y-107658005D01*
X127632637Y-107752122D01*
X127789147Y-107816951D01*
X127955297Y-107850000D01*
X128124703Y-107850000D01*
X128290853Y-107816951D01*
X128447363Y-107752122D01*
X128588218Y-107658005D01*
X128669591Y-107576632D01*
X128752637Y-107632122D01*
X128909147Y-107696951D01*
X129075297Y-107730000D01*
X129244703Y-107730000D01*
X129410853Y-107696951D01*
X129567363Y-107632122D01*
X129567546Y-107632000D01*
X132052577Y-107632000D01*
X132086841Y-107635375D01*
X132076480Y-107640913D01*
X131964562Y-107732762D01*
X131941546Y-107760807D01*
X128910808Y-110791546D01*
X128882762Y-110814563D01*
X128790913Y-110926481D01*
X128722663Y-111054168D01*
X128710485Y-111094314D01*
X128680635Y-111192715D01*
X128666444Y-111336800D01*
X128670000Y-111372905D01*
X128670000Y-111674977D01*
X128594703Y-111660000D01*
X128425297Y-111660000D01*
X128259147Y-111693049D01*
X128160000Y-111734117D01*
X128060853Y-111693049D01*
X127894703Y-111660000D01*
X127725297Y-111660000D01*
X127559147Y-111693049D01*
X127402637Y-111757878D01*
X127261782Y-111851995D01*
X127141995Y-111971782D01*
X127047878Y-112112637D01*
X126983049Y-112269147D01*
X126950000Y-112435297D01*
X126950000Y-112604703D01*
X126983049Y-112770853D01*
X127047878Y-112927363D01*
X127075000Y-112967954D01*
X127075001Y-117267352D01*
X123187354Y-121155000D01*
X122750415Y-121155000D01*
X122757363Y-121152122D01*
X122898218Y-121058005D01*
X123018005Y-120938218D01*
X123112122Y-120797363D01*
X123176951Y-120640853D01*
X123210000Y-120474703D01*
X123210000Y-120335300D01*
X123282122Y-120227363D01*
X123346951Y-120070853D01*
X123380000Y-119904703D01*
X123380000Y-119735297D01*
X123346951Y-119569147D01*
X123282122Y-119412637D01*
X123188005Y-119271782D01*
X123068218Y-119151995D01*
X122927363Y-119057878D01*
X122770853Y-118993049D01*
X122604703Y-118960000D01*
X122435297Y-118960000D01*
X122269147Y-118993049D01*
X122112637Y-119057878D01*
X121971782Y-119151995D01*
X121851995Y-119271782D01*
X121757878Y-119412637D01*
X121693049Y-119569147D01*
X121660000Y-119735297D01*
X121660000Y-119874700D01*
X121587878Y-119982637D01*
X121523049Y-120139147D01*
X121490000Y-120305297D01*
X121490000Y-120474703D01*
X121523049Y-120640853D01*
X121587878Y-120797363D01*
X121681995Y-120938218D01*
X121801782Y-121058005D01*
X121942637Y-121152122D01*
X121949585Y-121155000D01*
X120984037Y-121155000D01*
X120985378Y-121153587D01*
X120990987Y-121146276D01*
X121108712Y-120990616D01*
X121139959Y-120939625D01*
X121171931Y-120889050D01*
X121176014Y-120880789D01*
X121261263Y-120705226D01*
X121282012Y-120649134D01*
X121303551Y-120593313D01*
X121305952Y-120584416D01*
X121355477Y-120395639D01*
X121364945Y-120336530D01*
X121375222Y-120277645D01*
X121375849Y-120268452D01*
X121387764Y-120073651D01*
X121385572Y-120013871D01*
X121384215Y-119954066D01*
X121383044Y-119944925D01*
X121356894Y-119751518D01*
X121343128Y-119693283D01*
X121330185Y-119634901D01*
X121327261Y-119626162D01*
X121264043Y-119441520D01*
X121239237Y-119387088D01*
X121215194Y-119332316D01*
X121210628Y-119324311D01*
X121112751Y-119155464D01*
X121077853Y-119106898D01*
X121043618Y-119057823D01*
X121037584Y-119050857D01*
X120913154Y-118909222D01*
X120955392Y-118886645D01*
X121071422Y-118791422D01*
X121095284Y-118762346D01*
X124522353Y-115335278D01*
X124551422Y-115311422D01*
X124646645Y-115195392D01*
X124717402Y-115063015D01*
X124760974Y-114919378D01*
X124772000Y-114807426D01*
X124772000Y-114807424D01*
X124775686Y-114770001D01*
X124772000Y-114732578D01*
X124772000Y-114167698D01*
X125296364Y-113643335D01*
X125325433Y-113619479D01*
X125365861Y-113570217D01*
X125420656Y-113503450D01*
X125467897Y-113415067D01*
X125491413Y-113371072D01*
X125534985Y-113227435D01*
X125546011Y-113115483D01*
X125546011Y-113115480D01*
X125549697Y-113078057D01*
X125546011Y-113040634D01*
X125546011Y-108670651D01*
X126886363Y-107330299D01*
X126915433Y-107306442D01*
X126951815Y-107262110D01*
X127010656Y-107190414D01*
X127081412Y-107058037D01*
X127081612Y-107057378D01*
X127124985Y-106914398D01*
X127136011Y-106802446D01*
X127136011Y-106802444D01*
X127139697Y-106765021D01*
X127136011Y-106727598D01*
X127136009Y-98761442D01*
X127139696Y-98724009D01*
X127124983Y-98574631D01*
X127081411Y-98430993D01*
X127010654Y-98298617D01*
X126939289Y-98211658D01*
X126939284Y-98211653D01*
X126915431Y-98182588D01*
X126886366Y-98158735D01*
X125862000Y-97134370D01*
X125862000Y-83937422D01*
X125865686Y-83899999D01*
X125861283Y-83855297D01*
X125850974Y-83750622D01*
X125807402Y-83606985D01*
X125736645Y-83474608D01*
X125641422Y-83358578D01*
X125612352Y-83334721D01*
X124786986Y-82509356D01*
X124786986Y-79847546D01*
X124787108Y-79847363D01*
X124851937Y-79690853D01*
X124884986Y-79524703D01*
X124884986Y-79355297D01*
X124851937Y-79189147D01*
X124796369Y-79054996D01*
X124851939Y-78920840D01*
X124884988Y-78754690D01*
X124884988Y-78585284D01*
X124851939Y-78419134D01*
X124787110Y-78262624D01*
X124701834Y-78135000D01*
X126426247Y-78135000D01*
X126437663Y-78172632D01*
G37*
%TD.AperFunction*%
D20*
X114103049Y-118129147D02*
X114070000Y-118295297D01*
X114070000Y-118464703D01*
X114102049Y-118625826D01*
X114003218Y-118526995D01*
X113862363Y-118432878D01*
X113705853Y-118368049D01*
X113539703Y-118335000D01*
X113370297Y-118335000D01*
X113204147Y-118368049D01*
X113047637Y-118432878D01*
X112906782Y-118526995D01*
X112786995Y-118646782D01*
X112692878Y-118787637D01*
X112628049Y-118944147D01*
X112595000Y-119110297D01*
X112595000Y-119279703D01*
X112628049Y-119445853D01*
X112692878Y-119602363D01*
X112786995Y-119743218D01*
X112906782Y-119863005D01*
X113047637Y-119957122D01*
X113204147Y-120021951D01*
X113370297Y-120055000D01*
X113539703Y-120055000D01*
X113705853Y-120021951D01*
X113862363Y-119957122D01*
X114003218Y-119863005D01*
X114123005Y-119743218D01*
X114217122Y-119602363D01*
X114281951Y-119445853D01*
X114315000Y-119279703D01*
X114315000Y-119110297D01*
X114282951Y-118949174D01*
X114381782Y-119048005D01*
X114522637Y-119142122D01*
X114679147Y-119206951D01*
X114845297Y-119240000D01*
X115014703Y-119240000D01*
X115180853Y-119206951D01*
X115281891Y-119165099D01*
X115328772Y-119184518D01*
X115494922Y-119217567D01*
X115664328Y-119217567D01*
X115830478Y-119184518D01*
X115986988Y-119119689D01*
X115987171Y-119119567D01*
X116615010Y-119119567D01*
X116652433Y-119123253D01*
X116689856Y-119119567D01*
X116689859Y-119119567D01*
X116801811Y-119108541D01*
X116865848Y-119089115D01*
X116915661Y-119209373D01*
X116940824Y-119247032D01*
X116938069Y-119251390D01*
X116933986Y-119259651D01*
X116848737Y-119435214D01*
X116827988Y-119491306D01*
X116806449Y-119547127D01*
X116804048Y-119556024D01*
X116754523Y-119744802D01*
X116745056Y-119803904D01*
X116734778Y-119862795D01*
X116734151Y-119871988D01*
X116722236Y-120066789D01*
X116724428Y-120126568D01*
X116725785Y-120186375D01*
X116726956Y-120195515D01*
X116753106Y-120388922D01*
X116766867Y-120447134D01*
X116779815Y-120505538D01*
X116782739Y-120514277D01*
X116845957Y-120698920D01*
X116870758Y-120753340D01*
X116894806Y-120808124D01*
X116899372Y-120816128D01*
X116997249Y-120984976D01*
X117032139Y-121033531D01*
X117066382Y-121082618D01*
X117072416Y-121089583D01*
X117129886Y-121155000D01*
X112334447Y-121155000D01*
X111044032Y-119864586D01*
X111044032Y-118647089D01*
X111047588Y-118610984D01*
X111033397Y-118466899D01*
X111026775Y-118445069D01*
X110991369Y-118328351D01*
X110923119Y-118200664D01*
X110850680Y-118112397D01*
X110965201Y-118064961D01*
X110965384Y-118064839D01*
X114129686Y-118064839D01*
X114103049Y-118129147D01*
%TA.AperFunction,Conductor*%
D24*
G36*
X114103049Y-118129147D02*
G01*
X114070000Y-118295297D01*
X114070000Y-118464703D01*
X114102049Y-118625826D01*
X114003218Y-118526995D01*
X113862363Y-118432878D01*
X113705853Y-118368049D01*
X113539703Y-118335000D01*
X113370297Y-118335000D01*
X113204147Y-118368049D01*
X113047637Y-118432878D01*
X112906782Y-118526995D01*
X112786995Y-118646782D01*
X112692878Y-118787637D01*
X112628049Y-118944147D01*
X112595000Y-119110297D01*
X112595000Y-119279703D01*
X112628049Y-119445853D01*
X112692878Y-119602363D01*
X112786995Y-119743218D01*
X112906782Y-119863005D01*
X113047637Y-119957122D01*
X113204147Y-120021951D01*
X113370297Y-120055000D01*
X113539703Y-120055000D01*
X113705853Y-120021951D01*
X113862363Y-119957122D01*
X114003218Y-119863005D01*
X114123005Y-119743218D01*
X114217122Y-119602363D01*
X114281951Y-119445853D01*
X114315000Y-119279703D01*
X114315000Y-119110297D01*
X114282951Y-118949174D01*
X114381782Y-119048005D01*
X114522637Y-119142122D01*
X114679147Y-119206951D01*
X114845297Y-119240000D01*
X115014703Y-119240000D01*
X115180853Y-119206951D01*
X115281891Y-119165099D01*
X115328772Y-119184518D01*
X115494922Y-119217567D01*
X115664328Y-119217567D01*
X115830478Y-119184518D01*
X115986988Y-119119689D01*
X115987171Y-119119567D01*
X116615010Y-119119567D01*
X116652433Y-119123253D01*
X116689856Y-119119567D01*
X116689859Y-119119567D01*
X116801811Y-119108541D01*
X116865848Y-119089115D01*
X116915661Y-119209373D01*
X116940824Y-119247032D01*
X116938069Y-119251390D01*
X116933986Y-119259651D01*
X116848737Y-119435214D01*
X116827988Y-119491306D01*
X116806449Y-119547127D01*
X116804048Y-119556024D01*
X116754523Y-119744802D01*
X116745056Y-119803904D01*
X116734778Y-119862795D01*
X116734151Y-119871988D01*
X116722236Y-120066789D01*
X116724428Y-120126568D01*
X116725785Y-120186375D01*
X116726956Y-120195515D01*
X116753106Y-120388922D01*
X116766867Y-120447134D01*
X116779815Y-120505538D01*
X116782739Y-120514277D01*
X116845957Y-120698920D01*
X116870758Y-120753340D01*
X116894806Y-120808124D01*
X116899372Y-120816128D01*
X116997249Y-120984976D01*
X117032139Y-121033531D01*
X117066382Y-121082618D01*
X117072416Y-121089583D01*
X117129886Y-121155000D01*
X112334447Y-121155000D01*
X111044032Y-119864586D01*
X111044032Y-118647089D01*
X111047588Y-118610984D01*
X111033397Y-118466899D01*
X111026775Y-118445069D01*
X110991369Y-118328351D01*
X110923119Y-118200664D01*
X110850680Y-118112397D01*
X110965201Y-118064961D01*
X110965384Y-118064839D01*
X114129686Y-118064839D01*
X114103049Y-118129147D01*
G37*
%TD.AperFunction*%
D20*
X107156740Y-114231466D02*
X107298463Y-114404157D01*
X107471154Y-114545880D01*
X107668175Y-114651190D01*
X107881956Y-114716040D01*
X108048570Y-114732450D01*
X108332404Y-114732450D01*
X107460808Y-115604046D01*
X107432763Y-115627062D01*
X107340914Y-115738980D01*
X107298455Y-115818416D01*
X107272664Y-115866667D01*
X107230635Y-116005215D01*
X107216444Y-116149300D01*
X107220001Y-116185415D01*
X107220001Y-118679523D01*
X106845814Y-117978732D01*
X106812621Y-117928961D01*
X106780132Y-117878740D01*
X106774345Y-117871569D01*
X106248985Y-117229704D01*
X106206748Y-117187320D01*
X106165131Y-117144374D01*
X106158062Y-117138463D01*
X105518033Y-116610865D01*
X105468412Y-116577521D01*
X105419204Y-116543447D01*
X105411121Y-116539022D01*
X104680804Y-116145787D01*
X104625662Y-116122721D01*
X104570762Y-116098849D01*
X104561973Y-116096079D01*
X104348911Y-116030533D01*
X104411757Y-115978957D01*
X104553480Y-115806266D01*
X104658790Y-115609245D01*
X104723640Y-115395464D01*
X104745537Y-115173140D01*
X104723640Y-114950816D01*
X104658790Y-114737035D01*
X104553480Y-114540014D01*
X104504228Y-114480000D01*
X106527529Y-114480000D01*
X106559938Y-114483192D01*
X106592350Y-114480000D01*
X106592361Y-114480000D01*
X106689325Y-114470450D01*
X106813735Y-114432710D01*
X106928392Y-114371425D01*
X107028890Y-114288948D01*
X107111367Y-114188450D01*
X107122557Y-114167514D01*
X107156740Y-114231466D01*
%TA.AperFunction,Conductor*%
D24*
G36*
X107156740Y-114231466D02*
G01*
X107298463Y-114404157D01*
X107471154Y-114545880D01*
X107668175Y-114651190D01*
X107881956Y-114716040D01*
X108048570Y-114732450D01*
X108332404Y-114732450D01*
X107460808Y-115604046D01*
X107432763Y-115627062D01*
X107340914Y-115738980D01*
X107298455Y-115818416D01*
X107272664Y-115866667D01*
X107230635Y-116005215D01*
X107216444Y-116149300D01*
X107220001Y-116185415D01*
X107220001Y-118679523D01*
X106845814Y-117978732D01*
X106812621Y-117928961D01*
X106780132Y-117878740D01*
X106774345Y-117871569D01*
X106248985Y-117229704D01*
X106206748Y-117187320D01*
X106165131Y-117144374D01*
X106158062Y-117138463D01*
X105518033Y-116610865D01*
X105468412Y-116577521D01*
X105419204Y-116543447D01*
X105411121Y-116539022D01*
X104680804Y-116145787D01*
X104625662Y-116122721D01*
X104570762Y-116098849D01*
X104561973Y-116096079D01*
X104348911Y-116030533D01*
X104411757Y-115978957D01*
X104553480Y-115806266D01*
X104658790Y-115609245D01*
X104723640Y-115395464D01*
X104745537Y-115173140D01*
X104723640Y-114950816D01*
X104658790Y-114737035D01*
X104553480Y-114540014D01*
X104504228Y-114480000D01*
X106527529Y-114480000D01*
X106559938Y-114483192D01*
X106592350Y-114480000D01*
X106592361Y-114480000D01*
X106689325Y-114470450D01*
X106813735Y-114432710D01*
X106928392Y-114371425D01*
X107028890Y-114288948D01*
X107111367Y-114188450D01*
X107122557Y-114167514D01*
X107156740Y-114231466D01*
G37*
%TD.AperFunction*%
D20*
X113095151Y-108653524D02*
X113251661Y-108718353D01*
X113251878Y-108718396D01*
X114045832Y-109512351D01*
X114069690Y-109541422D01*
X114185720Y-109636645D01*
X114318097Y-109707402D01*
X114461734Y-109750974D01*
X114573686Y-109762000D01*
X114573688Y-109762000D01*
X114611111Y-109765686D01*
X114648534Y-109762000D01*
X119784370Y-109762000D01*
X120104716Y-110082346D01*
X120128578Y-110111422D01*
X120202219Y-110171857D01*
X120244607Y-110206645D01*
X120303278Y-110238005D01*
X120376985Y-110277402D01*
X120520622Y-110320974D01*
X120632574Y-110332000D01*
X120632577Y-110332000D01*
X120670000Y-110335686D01*
X120707423Y-110332000D01*
X123212577Y-110332000D01*
X123250000Y-110335686D01*
X123287423Y-110332000D01*
X123287426Y-110332000D01*
X123399378Y-110320974D01*
X123543015Y-110277402D01*
X123568001Y-110264047D01*
X123568000Y-111754422D01*
X123566951Y-111749147D01*
X123502122Y-111592637D01*
X123408005Y-111451782D01*
X123288218Y-111331995D01*
X123147363Y-111237878D01*
X122990853Y-111173049D01*
X122824703Y-111140000D01*
X122655297Y-111140000D01*
X122489147Y-111173049D01*
X122332637Y-111237878D01*
X122191782Y-111331995D01*
X122071995Y-111451782D01*
X121977878Y-111592637D01*
X121913049Y-111749147D01*
X121880000Y-111915297D01*
X121880000Y-112084703D01*
X121913049Y-112250853D01*
X121977878Y-112407363D01*
X122071995Y-112548218D01*
X122191782Y-112668005D01*
X122332637Y-112762122D01*
X122388492Y-112785258D01*
X122333033Y-112919147D01*
X122299984Y-113085297D01*
X122299984Y-113254703D01*
X122333033Y-113420853D01*
X122397862Y-113577363D01*
X122491979Y-113718218D01*
X122611766Y-113838005D01*
X122752621Y-113932122D01*
X122793990Y-113949258D01*
X122793989Y-114266312D01*
X122637146Y-114423155D01*
X122602504Y-114400008D01*
X122461806Y-114341729D01*
X122402122Y-114197639D01*
X122308005Y-114056784D01*
X122188218Y-113936997D01*
X122047363Y-113842880D01*
X121890853Y-113778051D01*
X121724703Y-113745002D01*
X121555297Y-113745002D01*
X121389147Y-113778051D01*
X121232637Y-113842880D01*
X121091782Y-113936997D01*
X120971995Y-114056784D01*
X120877878Y-114197639D01*
X120813049Y-114354149D01*
X120813006Y-114354365D01*
X120339631Y-114827740D01*
X120310556Y-114851602D01*
X120272463Y-114898019D01*
X120215333Y-114967632D01*
X120192255Y-115010808D01*
X120144576Y-115100010D01*
X120101004Y-115243647D01*
X120091909Y-115335995D01*
X120086292Y-115393024D01*
X120089978Y-115430448D01*
X120089979Y-116328255D01*
X119877395Y-116540839D01*
X111727998Y-116540839D01*
X111768671Y-116519099D01*
X111880589Y-116427250D01*
X111903609Y-116399200D01*
X112704197Y-115598613D01*
X112732237Y-115575601D01*
X112755250Y-115547560D01*
X112755253Y-115547557D01*
X112824087Y-115463683D01*
X112892337Y-115335997D01*
X112934365Y-115197448D01*
X112948556Y-115053363D01*
X112945000Y-115017258D01*
X112945000Y-113244613D01*
X112948556Y-113208508D01*
X112934365Y-113064423D01*
X112917039Y-113007309D01*
X112892337Y-112925876D01*
X112824087Y-112798189D01*
X112732238Y-112686271D01*
X112704187Y-112663250D01*
X112347730Y-112306793D01*
X112324709Y-112278742D01*
X112212791Y-112186893D01*
X112085104Y-112118643D01*
X111946556Y-112076615D01*
X111859763Y-112068067D01*
X111850432Y-112021158D01*
X111785603Y-111864648D01*
X111756955Y-111821774D01*
X111859730Y-111718999D01*
X111953847Y-111578144D01*
X112018676Y-111421634D01*
X112051725Y-111255484D01*
X112051725Y-111086078D01*
X112018676Y-110919928D01*
X111953847Y-110763418D01*
X111859730Y-110622563D01*
X111739943Y-110502776D01*
X111622543Y-110424332D01*
X111712959Y-110386880D01*
X111853814Y-110292763D01*
X111973601Y-110172976D01*
X112067718Y-110032121D01*
X112132547Y-109875611D01*
X112165596Y-109709461D01*
X112165596Y-109540055D01*
X112156629Y-109494973D01*
X113036961Y-108614642D01*
X113095151Y-108653524D01*
%TA.AperFunction,Conductor*%
D24*
G36*
X113095151Y-108653524D02*
G01*
X113251661Y-108718353D01*
X113251878Y-108718396D01*
X114045832Y-109512351D01*
X114069690Y-109541422D01*
X114185720Y-109636645D01*
X114318097Y-109707402D01*
X114461734Y-109750974D01*
X114573686Y-109762000D01*
X114573688Y-109762000D01*
X114611111Y-109765686D01*
X114648534Y-109762000D01*
X119784370Y-109762000D01*
X120104716Y-110082346D01*
X120128578Y-110111422D01*
X120202219Y-110171857D01*
X120244607Y-110206645D01*
X120303278Y-110238005D01*
X120376985Y-110277402D01*
X120520622Y-110320974D01*
X120632574Y-110332000D01*
X120632577Y-110332000D01*
X120670000Y-110335686D01*
X120707423Y-110332000D01*
X123212577Y-110332000D01*
X123250000Y-110335686D01*
X123287423Y-110332000D01*
X123287426Y-110332000D01*
X123399378Y-110320974D01*
X123543015Y-110277402D01*
X123568001Y-110264047D01*
X123568000Y-111754422D01*
X123566951Y-111749147D01*
X123502122Y-111592637D01*
X123408005Y-111451782D01*
X123288218Y-111331995D01*
X123147363Y-111237878D01*
X122990853Y-111173049D01*
X122824703Y-111140000D01*
X122655297Y-111140000D01*
X122489147Y-111173049D01*
X122332637Y-111237878D01*
X122191782Y-111331995D01*
X122071995Y-111451782D01*
X121977878Y-111592637D01*
X121913049Y-111749147D01*
X121880000Y-111915297D01*
X121880000Y-112084703D01*
X121913049Y-112250853D01*
X121977878Y-112407363D01*
X122071995Y-112548218D01*
X122191782Y-112668005D01*
X122332637Y-112762122D01*
X122388492Y-112785258D01*
X122333033Y-112919147D01*
X122299984Y-113085297D01*
X122299984Y-113254703D01*
X122333033Y-113420853D01*
X122397862Y-113577363D01*
X122491979Y-113718218D01*
X122611766Y-113838005D01*
X122752621Y-113932122D01*
X122793990Y-113949258D01*
X122793989Y-114266312D01*
X122637146Y-114423155D01*
X122602504Y-114400008D01*
X122461806Y-114341729D01*
X122402122Y-114197639D01*
X122308005Y-114056784D01*
X122188218Y-113936997D01*
X122047363Y-113842880D01*
X121890853Y-113778051D01*
X121724703Y-113745002D01*
X121555297Y-113745002D01*
X121389147Y-113778051D01*
X121232637Y-113842880D01*
X121091782Y-113936997D01*
X120971995Y-114056784D01*
X120877878Y-114197639D01*
X120813049Y-114354149D01*
X120813006Y-114354365D01*
X120339631Y-114827740D01*
X120310556Y-114851602D01*
X120272463Y-114898019D01*
X120215333Y-114967632D01*
X120192255Y-115010808D01*
X120144576Y-115100010D01*
X120101004Y-115243647D01*
X120091909Y-115335995D01*
X120086292Y-115393024D01*
X120089978Y-115430448D01*
X120089979Y-116328255D01*
X119877395Y-116540839D01*
X111727998Y-116540839D01*
X111768671Y-116519099D01*
X111880589Y-116427250D01*
X111903609Y-116399200D01*
X112704197Y-115598613D01*
X112732237Y-115575601D01*
X112755250Y-115547560D01*
X112755253Y-115547557D01*
X112824087Y-115463683D01*
X112892337Y-115335997D01*
X112934365Y-115197448D01*
X112948556Y-115053363D01*
X112945000Y-115017258D01*
X112945000Y-113244613D01*
X112948556Y-113208508D01*
X112934365Y-113064423D01*
X112917039Y-113007309D01*
X112892337Y-112925876D01*
X112824087Y-112798189D01*
X112732238Y-112686271D01*
X112704187Y-112663250D01*
X112347730Y-112306793D01*
X112324709Y-112278742D01*
X112212791Y-112186893D01*
X112085104Y-112118643D01*
X111946556Y-112076615D01*
X111859763Y-112068067D01*
X111850432Y-112021158D01*
X111785603Y-111864648D01*
X111756955Y-111821774D01*
X111859730Y-111718999D01*
X111953847Y-111578144D01*
X112018676Y-111421634D01*
X112051725Y-111255484D01*
X112051725Y-111086078D01*
X112018676Y-110919928D01*
X111953847Y-110763418D01*
X111859730Y-110622563D01*
X111739943Y-110502776D01*
X111622543Y-110424332D01*
X111712959Y-110386880D01*
X111853814Y-110292763D01*
X111973601Y-110172976D01*
X112067718Y-110032121D01*
X112132547Y-109875611D01*
X112165596Y-109709461D01*
X112165596Y-109540055D01*
X112156629Y-109494973D01*
X113036961Y-108614642D01*
X113095151Y-108653524D01*
G37*
%TD.AperFunction*%
D20*
X137412598Y-110646986D02*
X137369026Y-110790623D01*
X137359702Y-110885297D01*
X137354314Y-110940000D01*
X137358000Y-110977424D01*
X137358001Y-112232453D01*
X137357878Y-112232637D01*
X137293049Y-112389147D01*
X137260000Y-112555297D01*
X137260000Y-112717028D01*
X135340602Y-112717028D01*
X137414841Y-110642790D01*
X137412598Y-110646986D01*
%TA.AperFunction,Conductor*%
D24*
G36*
X137412598Y-110646986D02*
G01*
X137369026Y-110790623D01*
X137359702Y-110885297D01*
X137354314Y-110940000D01*
X137358000Y-110977424D01*
X137358001Y-112232453D01*
X137357878Y-112232637D01*
X137293049Y-112389147D01*
X137260000Y-112555297D01*
X137260000Y-112717028D01*
X135340602Y-112717028D01*
X137414841Y-110642790D01*
X137412598Y-110646986D01*
G37*
%TD.AperFunction*%
D20*
X108941559Y-109853483D02*
X109006388Y-110009993D01*
X109100505Y-110150848D01*
X109220292Y-110270635D01*
X109361147Y-110364752D01*
X109517657Y-110429581D01*
X109683807Y-110462630D01*
X109853213Y-110462630D01*
X110019363Y-110429581D01*
X110175873Y-110364752D01*
X110316728Y-110270635D01*
X110414023Y-110173340D01*
X110458900Y-110191929D01*
X110625050Y-110224978D01*
X110689593Y-110224978D01*
X110757378Y-110292763D01*
X110874778Y-110371207D01*
X110784362Y-110408659D01*
X110643507Y-110502776D01*
X110523720Y-110622563D01*
X110429603Y-110763418D01*
X110364774Y-110919928D01*
X110331725Y-111086078D01*
X110331725Y-111124778D01*
X110253385Y-111124778D01*
X110087235Y-111157827D01*
X109930725Y-111222656D01*
X109789870Y-111316773D01*
X109670083Y-111436560D01*
X109575966Y-111577415D01*
X109511137Y-111733925D01*
X109506386Y-111757812D01*
X109395275Y-111757812D01*
X109229125Y-111790861D01*
X109072615Y-111855690D01*
X108931760Y-111949807D01*
X108811973Y-112069594D01*
X108717856Y-112210449D01*
X108653027Y-112366959D01*
X108633679Y-112464230D01*
X108048570Y-112464230D01*
X107995893Y-112469418D01*
X107954261Y-112368909D01*
X107849201Y-112211676D01*
X107798225Y-112160700D01*
X107849201Y-112109724D01*
X107954261Y-111952491D01*
X107965693Y-111924891D01*
X108083291Y-111901500D01*
X108239801Y-111836671D01*
X108380656Y-111742554D01*
X108500443Y-111622767D01*
X108594560Y-111481912D01*
X108659389Y-111325402D01*
X108692438Y-111159252D01*
X108692438Y-110989846D01*
X108659389Y-110823696D01*
X108639904Y-110776655D01*
X108655301Y-110753611D01*
X108727668Y-110578902D01*
X108764560Y-110393432D01*
X108764560Y-110204328D01*
X108728207Y-110021570D01*
X108760482Y-109995083D01*
X108782354Y-109968432D01*
X108934217Y-109816570D01*
X108941559Y-109853483D01*
%TA.AperFunction,Conductor*%
D24*
G36*
X108941559Y-109853483D02*
G01*
X109006388Y-110009993D01*
X109100505Y-110150848D01*
X109220292Y-110270635D01*
X109361147Y-110364752D01*
X109517657Y-110429581D01*
X109683807Y-110462630D01*
X109853213Y-110462630D01*
X110019363Y-110429581D01*
X110175873Y-110364752D01*
X110316728Y-110270635D01*
X110414023Y-110173340D01*
X110458900Y-110191929D01*
X110625050Y-110224978D01*
X110689593Y-110224978D01*
X110757378Y-110292763D01*
X110874778Y-110371207D01*
X110784362Y-110408659D01*
X110643507Y-110502776D01*
X110523720Y-110622563D01*
X110429603Y-110763418D01*
X110364774Y-110919928D01*
X110331725Y-111086078D01*
X110331725Y-111124778D01*
X110253385Y-111124778D01*
X110087235Y-111157827D01*
X109930725Y-111222656D01*
X109789870Y-111316773D01*
X109670083Y-111436560D01*
X109575966Y-111577415D01*
X109511137Y-111733925D01*
X109506386Y-111757812D01*
X109395275Y-111757812D01*
X109229125Y-111790861D01*
X109072615Y-111855690D01*
X108931760Y-111949807D01*
X108811973Y-112069594D01*
X108717856Y-112210449D01*
X108653027Y-112366959D01*
X108633679Y-112464230D01*
X108048570Y-112464230D01*
X107995893Y-112469418D01*
X107954261Y-112368909D01*
X107849201Y-112211676D01*
X107798225Y-112160700D01*
X107849201Y-112109724D01*
X107954261Y-111952491D01*
X107965693Y-111924891D01*
X108083291Y-111901500D01*
X108239801Y-111836671D01*
X108380656Y-111742554D01*
X108500443Y-111622767D01*
X108594560Y-111481912D01*
X108659389Y-111325402D01*
X108692438Y-111159252D01*
X108692438Y-110989846D01*
X108659389Y-110823696D01*
X108639904Y-110776655D01*
X108655301Y-110753611D01*
X108727668Y-110578902D01*
X108764560Y-110393432D01*
X108764560Y-110204328D01*
X108728207Y-110021570D01*
X108760482Y-109995083D01*
X108782354Y-109968432D01*
X108934217Y-109816570D01*
X108941559Y-109853483D01*
G37*
%TD.AperFunction*%
D20*
X145720001Y-105163778D02*
X145718218Y-105161995D01*
X145577363Y-105067878D01*
X145420853Y-105003049D01*
X145254703Y-104970000D01*
X145085297Y-104970000D01*
X144919147Y-105003049D01*
X144762637Y-105067878D01*
X144621782Y-105161995D01*
X144501995Y-105281782D01*
X144407878Y-105422637D01*
X144343049Y-105579147D01*
X144310000Y-105745297D01*
X144310000Y-105914703D01*
X144343049Y-106080853D01*
X144407878Y-106237363D01*
X144408000Y-106237546D01*
X144408001Y-108022567D01*
X144404314Y-108060000D01*
X144419027Y-108209378D01*
X144462599Y-108353015D01*
X144533355Y-108485392D01*
X144603590Y-108570973D01*
X144628579Y-108601422D01*
X144657649Y-108625279D01*
X145853006Y-109820637D01*
X145853049Y-109820853D01*
X145917878Y-109977363D01*
X146011995Y-110118218D01*
X146131782Y-110238005D01*
X146272637Y-110332122D01*
X146429147Y-110396951D01*
X146484695Y-110408000D01*
X139729630Y-110408000D01*
X140882346Y-109255284D01*
X140911422Y-109231422D01*
X140973359Y-109155951D01*
X141006645Y-109115393D01*
X141051373Y-109031711D01*
X141077402Y-108983015D01*
X141120974Y-108839378D01*
X141132000Y-108727426D01*
X141132000Y-108727423D01*
X141135686Y-108690000D01*
X141132000Y-108652577D01*
X141132000Y-107507546D01*
X141132122Y-107507363D01*
X141196951Y-107350853D01*
X141230000Y-107184703D01*
X141230000Y-107015297D01*
X141196951Y-106849147D01*
X141132122Y-106692637D01*
X141038005Y-106551782D01*
X140918218Y-106431995D01*
X140777363Y-106337878D01*
X140620853Y-106273049D01*
X140454703Y-106240000D01*
X140327646Y-106240000D01*
X141025998Y-105541648D01*
X141025998Y-105820574D01*
X141022312Y-105857998D01*
X141025998Y-105895421D01*
X141025998Y-105895423D01*
X141037024Y-106007375D01*
X141080596Y-106151012D01*
X141097884Y-106183355D01*
X141151353Y-106283390D01*
X141177051Y-106314703D01*
X141246576Y-106399420D01*
X141275652Y-106423282D01*
X142143006Y-107290637D01*
X142143049Y-107290853D01*
X142207878Y-107447363D01*
X142301995Y-107588218D01*
X142421782Y-107708005D01*
X142562637Y-107802122D01*
X142719147Y-107866951D01*
X142885297Y-107900000D01*
X143054703Y-107900000D01*
X143220853Y-107866951D01*
X143377363Y-107802122D01*
X143518218Y-107708005D01*
X143638005Y-107588218D01*
X143732122Y-107447363D01*
X143796951Y-107290853D01*
X143830000Y-107124703D01*
X143830000Y-106955297D01*
X143796951Y-106789147D01*
X143732122Y-106632637D01*
X143638005Y-106491782D01*
X143518218Y-106371995D01*
X143377363Y-106277878D01*
X143220853Y-106213049D01*
X143220637Y-106213006D01*
X142844708Y-105837078D01*
X142888218Y-105808005D01*
X143008005Y-105688218D01*
X143102122Y-105547363D01*
X143166951Y-105390853D01*
X143200000Y-105224703D01*
X143200000Y-105055297D01*
X143166951Y-104889147D01*
X143110037Y-104751745D01*
X145720000Y-102141782D01*
X145720001Y-105163778D01*
%TA.AperFunction,Conductor*%
D24*
G36*
X145720001Y-105163778D02*
G01*
X145718218Y-105161995D01*
X145577363Y-105067878D01*
X145420853Y-105003049D01*
X145254703Y-104970000D01*
X145085297Y-104970000D01*
X144919147Y-105003049D01*
X144762637Y-105067878D01*
X144621782Y-105161995D01*
X144501995Y-105281782D01*
X144407878Y-105422637D01*
X144343049Y-105579147D01*
X144310000Y-105745297D01*
X144310000Y-105914703D01*
X144343049Y-106080853D01*
X144407878Y-106237363D01*
X144408000Y-106237546D01*
X144408001Y-108022567D01*
X144404314Y-108060000D01*
X144419027Y-108209378D01*
X144462599Y-108353015D01*
X144533355Y-108485392D01*
X144603590Y-108570973D01*
X144628579Y-108601422D01*
X144657649Y-108625279D01*
X145853006Y-109820637D01*
X145853049Y-109820853D01*
X145917878Y-109977363D01*
X146011995Y-110118218D01*
X146131782Y-110238005D01*
X146272637Y-110332122D01*
X146429147Y-110396951D01*
X146484695Y-110408000D01*
X139729630Y-110408000D01*
X140882346Y-109255284D01*
X140911422Y-109231422D01*
X140973359Y-109155951D01*
X141006645Y-109115393D01*
X141051373Y-109031711D01*
X141077402Y-108983015D01*
X141120974Y-108839378D01*
X141132000Y-108727426D01*
X141132000Y-108727423D01*
X141135686Y-108690000D01*
X141132000Y-108652577D01*
X141132000Y-107507546D01*
X141132122Y-107507363D01*
X141196951Y-107350853D01*
X141230000Y-107184703D01*
X141230000Y-107015297D01*
X141196951Y-106849147D01*
X141132122Y-106692637D01*
X141038005Y-106551782D01*
X140918218Y-106431995D01*
X140777363Y-106337878D01*
X140620853Y-106273049D01*
X140454703Y-106240000D01*
X140327646Y-106240000D01*
X141025998Y-105541648D01*
X141025998Y-105820574D01*
X141022312Y-105857998D01*
X141025998Y-105895421D01*
X141025998Y-105895423D01*
X141037024Y-106007375D01*
X141080596Y-106151012D01*
X141097884Y-106183355D01*
X141151353Y-106283390D01*
X141177051Y-106314703D01*
X141246576Y-106399420D01*
X141275652Y-106423282D01*
X142143006Y-107290637D01*
X142143049Y-107290853D01*
X142207878Y-107447363D01*
X142301995Y-107588218D01*
X142421782Y-107708005D01*
X142562637Y-107802122D01*
X142719147Y-107866951D01*
X142885297Y-107900000D01*
X143054703Y-107900000D01*
X143220853Y-107866951D01*
X143377363Y-107802122D01*
X143518218Y-107708005D01*
X143638005Y-107588218D01*
X143732122Y-107447363D01*
X143796951Y-107290853D01*
X143830000Y-107124703D01*
X143830000Y-106955297D01*
X143796951Y-106789147D01*
X143732122Y-106632637D01*
X143638005Y-106491782D01*
X143518218Y-106371995D01*
X143377363Y-106277878D01*
X143220853Y-106213049D01*
X143220637Y-106213006D01*
X142844708Y-105837078D01*
X142888218Y-105808005D01*
X143008005Y-105688218D01*
X143102122Y-105547363D01*
X143166951Y-105390853D01*
X143200000Y-105224703D01*
X143200000Y-105055297D01*
X143166951Y-104889147D01*
X143110037Y-104751745D01*
X145720000Y-102141782D01*
X145720001Y-105163778D01*
G37*
%TD.AperFunction*%
D20*
X170266350Y-100540002D02*
X170246587Y-100576976D01*
X170203015Y-100720613D01*
X170188302Y-100869991D01*
X170191989Y-100907424D01*
X170191988Y-103763527D01*
X170188302Y-103800950D01*
X170191988Y-103838373D01*
X170191988Y-103838375D01*
X170203014Y-103950327D01*
X170246586Y-104093964D01*
X170268887Y-104135686D01*
X170317343Y-104226342D01*
X170348850Y-104264733D01*
X170412566Y-104342372D01*
X170441642Y-104366234D01*
X170520587Y-104445179D01*
X170548619Y-110057990D01*
X163179965Y-110057990D01*
X156579028Y-103457054D01*
X156578985Y-103456837D01*
X156514156Y-103300327D01*
X156420039Y-103159472D01*
X156300252Y-103039685D01*
X156159397Y-102945568D01*
X156002887Y-102880739D01*
X155962024Y-102872611D01*
X155962024Y-101169425D01*
X155965710Y-101132002D01*
X155962024Y-101094576D01*
X155950998Y-100982624D01*
X155907426Y-100838987D01*
X155836669Y-100706610D01*
X155741446Y-100590580D01*
X155712370Y-100566718D01*
X155605016Y-100459364D01*
X155604973Y-100459147D01*
X155540144Y-100302637D01*
X155446027Y-100161782D01*
X155326240Y-100041995D01*
X155212807Y-99966201D01*
X155252122Y-99907363D01*
X155316951Y-99750853D01*
X155350000Y-99584703D01*
X155350000Y-99415297D01*
X155316951Y-99249147D01*
X155252122Y-99092637D01*
X155158005Y-98951782D01*
X155142234Y-98936011D01*
X168662360Y-98936011D01*
X170266350Y-100540002D01*
%TA.AperFunction,Conductor*%
D24*
G36*
X170266350Y-100540002D02*
G01*
X170246587Y-100576976D01*
X170203015Y-100720613D01*
X170188302Y-100869991D01*
X170191989Y-100907424D01*
X170191988Y-103763527D01*
X170188302Y-103800950D01*
X170191988Y-103838373D01*
X170191988Y-103838375D01*
X170203014Y-103950327D01*
X170246586Y-104093964D01*
X170268887Y-104135686D01*
X170317343Y-104226342D01*
X170348850Y-104264733D01*
X170412566Y-104342372D01*
X170441642Y-104366234D01*
X170520587Y-104445179D01*
X170548619Y-110057990D01*
X163179965Y-110057990D01*
X156579028Y-103457054D01*
X156578985Y-103456837D01*
X156514156Y-103300327D01*
X156420039Y-103159472D01*
X156300252Y-103039685D01*
X156159397Y-102945568D01*
X156002887Y-102880739D01*
X155962024Y-102872611D01*
X155962024Y-101169425D01*
X155965710Y-101132002D01*
X155962024Y-101094576D01*
X155950998Y-100982624D01*
X155907426Y-100838987D01*
X155836669Y-100706610D01*
X155741446Y-100590580D01*
X155712370Y-100566718D01*
X155605016Y-100459364D01*
X155604973Y-100459147D01*
X155540144Y-100302637D01*
X155446027Y-100161782D01*
X155326240Y-100041995D01*
X155212807Y-99966201D01*
X155252122Y-99907363D01*
X155316951Y-99750853D01*
X155350000Y-99584703D01*
X155350000Y-99415297D01*
X155316951Y-99249147D01*
X155252122Y-99092637D01*
X155158005Y-98951782D01*
X155142234Y-98936011D01*
X168662360Y-98936011D01*
X170266350Y-100540002D01*
G37*
%TD.AperFunction*%
D20*
X125158001Y-99395632D02*
X125158000Y-106012578D01*
X125110853Y-105993049D01*
X124944703Y-105960000D01*
X124775297Y-105960000D01*
X124609147Y-105993049D01*
X124452637Y-106057878D01*
X124311782Y-106151995D01*
X124191995Y-106271782D01*
X124097878Y-106412637D01*
X124033049Y-106569147D01*
X124033006Y-106569364D01*
X123347654Y-107254716D01*
X123318578Y-107278578D01*
X123265996Y-107342650D01*
X123223355Y-107394608D01*
X123197219Y-107443506D01*
X123152598Y-107526986D01*
X123109026Y-107670623D01*
X123098440Y-107778112D01*
X123094314Y-107820000D01*
X123098000Y-107857424D01*
X123098001Y-108644369D01*
X122934370Y-108808000D01*
X122351747Y-108808000D01*
X122322699Y-108661966D01*
X122257870Y-108505456D01*
X122163753Y-108364601D01*
X122043966Y-108244814D01*
X121903111Y-108150697D01*
X121862125Y-108133720D01*
X121843610Y-108040637D01*
X121778781Y-107884127D01*
X121684664Y-107743272D01*
X121564877Y-107623485D01*
X121424022Y-107529368D01*
X121267512Y-107464539D01*
X121101362Y-107431490D01*
X120973828Y-107431490D01*
X120967015Y-107421294D01*
X120847228Y-107301507D01*
X120787709Y-107261737D01*
X121342972Y-106706475D01*
X121390853Y-106696951D01*
X121547363Y-106632122D01*
X121688218Y-106538005D01*
X121808005Y-106418218D01*
X121902122Y-106277363D01*
X121966951Y-106120853D01*
X122000000Y-105954703D01*
X122000000Y-105785297D01*
X121990192Y-105735990D01*
X122044087Y-105670320D01*
X122112337Y-105542633D01*
X122154365Y-105404085D01*
X122165000Y-105296105D01*
X122165000Y-105296104D01*
X122168556Y-105260000D01*
X122165000Y-105223895D01*
X122165000Y-102884446D01*
X123050000Y-101999447D01*
X123050000Y-102134703D01*
X123083049Y-102300853D01*
X123147878Y-102457363D01*
X123241995Y-102598218D01*
X123361782Y-102718005D01*
X123502637Y-102812122D01*
X123659147Y-102876951D01*
X123825297Y-102910000D01*
X123994703Y-102910000D01*
X124160853Y-102876951D01*
X124317363Y-102812122D01*
X124458218Y-102718005D01*
X124578005Y-102598218D01*
X124672122Y-102457363D01*
X124736951Y-102300853D01*
X124736994Y-102300636D01*
X124782347Y-102255283D01*
X124811422Y-102231422D01*
X124906645Y-102115392D01*
X124977402Y-101983015D01*
X125020974Y-101839378D01*
X125032000Y-101727426D01*
X125032000Y-101727423D01*
X125035686Y-101690000D01*
X125032000Y-101652577D01*
X125032000Y-99269631D01*
X125158001Y-99395632D01*
%TA.AperFunction,Conductor*%
D24*
G36*
X125158001Y-99395632D02*
G01*
X125158000Y-106012578D01*
X125110853Y-105993049D01*
X124944703Y-105960000D01*
X124775297Y-105960000D01*
X124609147Y-105993049D01*
X124452637Y-106057878D01*
X124311782Y-106151995D01*
X124191995Y-106271782D01*
X124097878Y-106412637D01*
X124033049Y-106569147D01*
X124033006Y-106569364D01*
X123347654Y-107254716D01*
X123318578Y-107278578D01*
X123265996Y-107342650D01*
X123223355Y-107394608D01*
X123197219Y-107443506D01*
X123152598Y-107526986D01*
X123109026Y-107670623D01*
X123098440Y-107778112D01*
X123094314Y-107820000D01*
X123098000Y-107857424D01*
X123098001Y-108644369D01*
X122934370Y-108808000D01*
X122351747Y-108808000D01*
X122322699Y-108661966D01*
X122257870Y-108505456D01*
X122163753Y-108364601D01*
X122043966Y-108244814D01*
X121903111Y-108150697D01*
X121862125Y-108133720D01*
X121843610Y-108040637D01*
X121778781Y-107884127D01*
X121684664Y-107743272D01*
X121564877Y-107623485D01*
X121424022Y-107529368D01*
X121267512Y-107464539D01*
X121101362Y-107431490D01*
X120973828Y-107431490D01*
X120967015Y-107421294D01*
X120847228Y-107301507D01*
X120787709Y-107261737D01*
X121342972Y-106706475D01*
X121390853Y-106696951D01*
X121547363Y-106632122D01*
X121688218Y-106538005D01*
X121808005Y-106418218D01*
X121902122Y-106277363D01*
X121966951Y-106120853D01*
X122000000Y-105954703D01*
X122000000Y-105785297D01*
X121990192Y-105735990D01*
X122044087Y-105670320D01*
X122112337Y-105542633D01*
X122154365Y-105404085D01*
X122165000Y-105296105D01*
X122165000Y-105296104D01*
X122168556Y-105260000D01*
X122165000Y-105223895D01*
X122165000Y-102884446D01*
X123050000Y-101999447D01*
X123050000Y-102134703D01*
X123083049Y-102300853D01*
X123147878Y-102457363D01*
X123241995Y-102598218D01*
X123361782Y-102718005D01*
X123502637Y-102812122D01*
X123659147Y-102876951D01*
X123825297Y-102910000D01*
X123994703Y-102910000D01*
X124160853Y-102876951D01*
X124317363Y-102812122D01*
X124458218Y-102718005D01*
X124578005Y-102598218D01*
X124672122Y-102457363D01*
X124736951Y-102300853D01*
X124736994Y-102300636D01*
X124782347Y-102255283D01*
X124811422Y-102231422D01*
X124906645Y-102115392D01*
X124977402Y-101983015D01*
X125020974Y-101839378D01*
X125032000Y-101727426D01*
X125032000Y-101727423D01*
X125035686Y-101690000D01*
X125032000Y-101652577D01*
X125032000Y-99269631D01*
X125158001Y-99395632D01*
G37*
%TD.AperFunction*%
D20*
X119635041Y-99521993D02*
X119638703Y-99559171D01*
X119685619Y-99713832D01*
X119664468Y-99820167D01*
X119664468Y-99989573D01*
X119697517Y-100155723D01*
X119704306Y-100172112D01*
X119693059Y-100169875D01*
X119523653Y-100169875D01*
X119357503Y-100202924D01*
X119200993Y-100267753D01*
X119060138Y-100361870D01*
X118940351Y-100481657D01*
X118846234Y-100622512D01*
X118781405Y-100779022D01*
X118748356Y-100945172D01*
X118748356Y-101114578D01*
X118781405Y-101280728D01*
X118842407Y-101428000D01*
X117647546Y-101428000D01*
X117647363Y-101427878D01*
X117490853Y-101363049D01*
X117324703Y-101330000D01*
X117155297Y-101330000D01*
X116989147Y-101363049D01*
X116832637Y-101427878D01*
X116691782Y-101521995D01*
X116571995Y-101641782D01*
X116477878Y-101782637D01*
X116413049Y-101939147D01*
X116380000Y-102105297D01*
X116380000Y-102274703D01*
X116413049Y-102440853D01*
X116477878Y-102597363D01*
X116571995Y-102738218D01*
X116691782Y-102858005D01*
X116832637Y-102952122D01*
X116989147Y-103016951D01*
X117155297Y-103050000D01*
X117324703Y-103050000D01*
X117490853Y-103016951D01*
X117647363Y-102952122D01*
X117647546Y-102952000D01*
X118182438Y-102952000D01*
X117915808Y-103218630D01*
X117887763Y-103241646D01*
X117795914Y-103353564D01*
X117739355Y-103459378D01*
X117727664Y-103481251D01*
X117685635Y-103619799D01*
X117671444Y-103763884D01*
X117675001Y-103799999D01*
X117675000Y-105147078D01*
X117640105Y-105157663D01*
X117553234Y-105204097D01*
X117512419Y-105225913D01*
X117400501Y-105317762D01*
X117377485Y-105345807D01*
X116901906Y-105821387D01*
X116854024Y-105830911D01*
X116697514Y-105895740D01*
X116556659Y-105989857D01*
X116436872Y-106109644D01*
X116342755Y-106250499D01*
X116277926Y-106407009D01*
X116244877Y-106573159D01*
X116244877Y-106742565D01*
X116277926Y-106908715D01*
X116342755Y-107065225D01*
X116436872Y-107206080D01*
X116556659Y-107325867D01*
X116697514Y-107419984D01*
X116809766Y-107466480D01*
X116801558Y-107486295D01*
X116768509Y-107652445D01*
X116768509Y-107821851D01*
X116801558Y-107988001D01*
X116866387Y-108144511D01*
X116928855Y-108238000D01*
X116005615Y-108238000D01*
X116005793Y-108237822D01*
X116099910Y-108096967D01*
X116164739Y-107940457D01*
X116197788Y-107774307D01*
X116197788Y-107604901D01*
X116164739Y-107438751D01*
X116099910Y-107282241D01*
X116072788Y-107241650D01*
X116072788Y-101599656D01*
X118022780Y-99649665D01*
X118101995Y-99768218D01*
X118221782Y-99888005D01*
X118362637Y-99982122D01*
X118519147Y-100046951D01*
X118685297Y-100080000D01*
X118854703Y-100080000D01*
X119020853Y-100046951D01*
X119177363Y-99982122D01*
X119318218Y-99888005D01*
X119438005Y-99768218D01*
X119532122Y-99627363D01*
X119577947Y-99516733D01*
X119587891Y-99512614D01*
X119635041Y-99521993D01*
%TA.AperFunction,Conductor*%
D24*
G36*
X119635041Y-99521993D02*
G01*
X119638703Y-99559171D01*
X119685619Y-99713832D01*
X119664468Y-99820167D01*
X119664468Y-99989573D01*
X119697517Y-100155723D01*
X119704306Y-100172112D01*
X119693059Y-100169875D01*
X119523653Y-100169875D01*
X119357503Y-100202924D01*
X119200993Y-100267753D01*
X119060138Y-100361870D01*
X118940351Y-100481657D01*
X118846234Y-100622512D01*
X118781405Y-100779022D01*
X118748356Y-100945172D01*
X118748356Y-101114578D01*
X118781405Y-101280728D01*
X118842407Y-101428000D01*
X117647546Y-101428000D01*
X117647363Y-101427878D01*
X117490853Y-101363049D01*
X117324703Y-101330000D01*
X117155297Y-101330000D01*
X116989147Y-101363049D01*
X116832637Y-101427878D01*
X116691782Y-101521995D01*
X116571995Y-101641782D01*
X116477878Y-101782637D01*
X116413049Y-101939147D01*
X116380000Y-102105297D01*
X116380000Y-102274703D01*
X116413049Y-102440853D01*
X116477878Y-102597363D01*
X116571995Y-102738218D01*
X116691782Y-102858005D01*
X116832637Y-102952122D01*
X116989147Y-103016951D01*
X117155297Y-103050000D01*
X117324703Y-103050000D01*
X117490853Y-103016951D01*
X117647363Y-102952122D01*
X117647546Y-102952000D01*
X118182438Y-102952000D01*
X117915808Y-103218630D01*
X117887763Y-103241646D01*
X117795914Y-103353564D01*
X117739355Y-103459378D01*
X117727664Y-103481251D01*
X117685635Y-103619799D01*
X117671444Y-103763884D01*
X117675001Y-103799999D01*
X117675000Y-105147078D01*
X117640105Y-105157663D01*
X117553234Y-105204097D01*
X117512419Y-105225913D01*
X117400501Y-105317762D01*
X117377485Y-105345807D01*
X116901906Y-105821387D01*
X116854024Y-105830911D01*
X116697514Y-105895740D01*
X116556659Y-105989857D01*
X116436872Y-106109644D01*
X116342755Y-106250499D01*
X116277926Y-106407009D01*
X116244877Y-106573159D01*
X116244877Y-106742565D01*
X116277926Y-106908715D01*
X116342755Y-107065225D01*
X116436872Y-107206080D01*
X116556659Y-107325867D01*
X116697514Y-107419984D01*
X116809766Y-107466480D01*
X116801558Y-107486295D01*
X116768509Y-107652445D01*
X116768509Y-107821851D01*
X116801558Y-107988001D01*
X116866387Y-108144511D01*
X116928855Y-108238000D01*
X116005615Y-108238000D01*
X116005793Y-108237822D01*
X116099910Y-108096967D01*
X116164739Y-107940457D01*
X116197788Y-107774307D01*
X116197788Y-107604901D01*
X116164739Y-107438751D01*
X116099910Y-107282241D01*
X116072788Y-107241650D01*
X116072788Y-101599656D01*
X118022780Y-99649665D01*
X118101995Y-99768218D01*
X118221782Y-99888005D01*
X118362637Y-99982122D01*
X118519147Y-100046951D01*
X118685297Y-100080000D01*
X118854703Y-100080000D01*
X119020853Y-100046951D01*
X119177363Y-99982122D01*
X119318218Y-99888005D01*
X119438005Y-99768218D01*
X119532122Y-99627363D01*
X119577947Y-99516733D01*
X119587891Y-99512614D01*
X119635041Y-99521993D01*
G37*
%TD.AperFunction*%
D20*
X109448001Y-107168377D02*
X109352637Y-107207878D01*
X109211782Y-107301995D01*
X109091995Y-107421782D01*
X108997878Y-107562637D01*
X108933049Y-107719147D01*
X108924922Y-107760006D01*
X108755298Y-107760006D01*
X108727668Y-107621098D01*
X108655301Y-107446389D01*
X108550241Y-107289156D01*
X108416524Y-107155439D01*
X108259291Y-107050379D01*
X108084582Y-106978012D01*
X108029647Y-106967085D01*
X108063520Y-106796792D01*
X108063520Y-106607688D01*
X108026628Y-106422218D01*
X107954261Y-106247509D01*
X107849201Y-106090276D01*
X107798225Y-106039300D01*
X107849201Y-105988324D01*
X107954261Y-105831091D01*
X107995893Y-105730582D01*
X108048570Y-105735770D01*
X109160750Y-105735770D01*
X109327364Y-105719360D01*
X109448001Y-105682765D01*
X109448001Y-107168377D01*
%TA.AperFunction,Conductor*%
D24*
G36*
X109448001Y-107168377D02*
G01*
X109352637Y-107207878D01*
X109211782Y-107301995D01*
X109091995Y-107421782D01*
X108997878Y-107562637D01*
X108933049Y-107719147D01*
X108924922Y-107760006D01*
X108755298Y-107760006D01*
X108727668Y-107621098D01*
X108655301Y-107446389D01*
X108550241Y-107289156D01*
X108416524Y-107155439D01*
X108259291Y-107050379D01*
X108084582Y-106978012D01*
X108029647Y-106967085D01*
X108063520Y-106796792D01*
X108063520Y-106607688D01*
X108026628Y-106422218D01*
X107954261Y-106247509D01*
X107849201Y-106090276D01*
X107798225Y-106039300D01*
X107849201Y-105988324D01*
X107954261Y-105831091D01*
X107995893Y-105730582D01*
X108048570Y-105735770D01*
X109160750Y-105735770D01*
X109327364Y-105719360D01*
X109448001Y-105682765D01*
X109448001Y-107168377D01*
G37*
%TD.AperFunction*%
D20*
X142703869Y-98782280D02*
X142160644Y-99325505D01*
X142131569Y-99349367D01*
X142088740Y-99401555D01*
X142036346Y-99465397D01*
X142001030Y-99531469D01*
X141965589Y-99597775D01*
X141922017Y-99741412D01*
X141911304Y-99850186D01*
X141907305Y-99890789D01*
X141910991Y-99928212D01*
X141910991Y-100309951D01*
X141907305Y-100347374D01*
X141910991Y-100384797D01*
X141910991Y-100384800D01*
X141912291Y-100398000D01*
X141097546Y-100398000D01*
X141097363Y-100397878D01*
X140940853Y-100333049D01*
X140774703Y-100300000D01*
X140605297Y-100300000D01*
X140439147Y-100333049D01*
X140282637Y-100397878D01*
X140141782Y-100491995D01*
X140021995Y-100611782D01*
X139927878Y-100752637D01*
X139863049Y-100909147D01*
X139830000Y-101075297D01*
X139830000Y-101244703D01*
X139863049Y-101410853D01*
X139927878Y-101567363D01*
X140021995Y-101708218D01*
X140141782Y-101828005D01*
X140282637Y-101922122D01*
X140439147Y-101986951D01*
X140605297Y-102020000D01*
X140774703Y-102020000D01*
X140940853Y-101986951D01*
X141097363Y-101922122D01*
X141097546Y-101922000D01*
X141930354Y-101922000D01*
X136332354Y-107520000D01*
X132522894Y-107520000D01*
X132495461Y-107517298D01*
X132515392Y-107506645D01*
X132631422Y-107411422D01*
X132655284Y-107382346D01*
X142703868Y-97333762D01*
X142703869Y-98782280D01*
%TA.AperFunction,Conductor*%
D24*
G36*
X142703869Y-98782280D02*
G01*
X142160644Y-99325505D01*
X142131569Y-99349367D01*
X142088740Y-99401555D01*
X142036346Y-99465397D01*
X142001030Y-99531469D01*
X141965589Y-99597775D01*
X141922017Y-99741412D01*
X141911304Y-99850186D01*
X141907305Y-99890789D01*
X141910991Y-99928212D01*
X141910991Y-100309951D01*
X141907305Y-100347374D01*
X141910991Y-100384797D01*
X141910991Y-100384800D01*
X141912291Y-100398000D01*
X141097546Y-100398000D01*
X141097363Y-100397878D01*
X140940853Y-100333049D01*
X140774703Y-100300000D01*
X140605297Y-100300000D01*
X140439147Y-100333049D01*
X140282637Y-100397878D01*
X140141782Y-100491995D01*
X140021995Y-100611782D01*
X139927878Y-100752637D01*
X139863049Y-100909147D01*
X139830000Y-101075297D01*
X139830000Y-101244703D01*
X139863049Y-101410853D01*
X139927878Y-101567363D01*
X140021995Y-101708218D01*
X140141782Y-101828005D01*
X140282637Y-101922122D01*
X140439147Y-101986951D01*
X140605297Y-102020000D01*
X140774703Y-102020000D01*
X140940853Y-101986951D01*
X141097363Y-101922122D01*
X141097546Y-101922000D01*
X141930354Y-101922000D01*
X136332354Y-107520000D01*
X132522894Y-107520000D01*
X132495461Y-107517298D01*
X132515392Y-107506645D01*
X132631422Y-107411422D01*
X132655284Y-107382346D01*
X142703868Y-97333762D01*
X142703869Y-98782280D01*
G37*
%TD.AperFunction*%
D20*
X108683864Y-99915726D02*
X108666699Y-100090000D01*
X108683864Y-100264274D01*
X108734697Y-100431851D01*
X108817247Y-100586291D01*
X108928341Y-100721659D01*
X109063709Y-100832753D01*
X109218149Y-100915303D01*
X109385726Y-100966136D01*
X109516333Y-100979000D01*
X114180540Y-100979000D01*
X114163423Y-101035425D01*
X114149232Y-101179510D01*
X114152789Y-101215625D01*
X114152788Y-105394921D01*
X114111925Y-105403049D01*
X113955415Y-105467878D01*
X113814560Y-105561995D01*
X113694773Y-105681782D01*
X113600656Y-105822637D01*
X113535827Y-105979147D01*
X113502778Y-106145297D01*
X113502778Y-106231390D01*
X112826248Y-106231390D01*
X112790143Y-106227834D01*
X112646058Y-106242025D01*
X112507509Y-106284053D01*
X112413478Y-106334314D01*
X112379823Y-106352303D01*
X112267905Y-106444152D01*
X112244889Y-106472197D01*
X111591655Y-107125432D01*
X111568218Y-107101995D01*
X111427363Y-107007878D01*
X111270853Y-106943049D01*
X111104703Y-106910000D01*
X110972000Y-106910000D01*
X110972000Y-103625630D01*
X111150637Y-103446994D01*
X111150853Y-103446951D01*
X111307363Y-103382122D01*
X111448218Y-103288005D01*
X111568005Y-103168218D01*
X111662122Y-103027363D01*
X111726951Y-102870853D01*
X111760000Y-102704703D01*
X111760000Y-102535297D01*
X111726951Y-102369147D01*
X111662122Y-102212637D01*
X111568005Y-102071782D01*
X111448218Y-101951995D01*
X111307363Y-101857878D01*
X111150853Y-101793049D01*
X110984703Y-101760000D01*
X110815297Y-101760000D01*
X110649147Y-101793049D01*
X110492637Y-101857878D01*
X110351782Y-101951995D01*
X110231995Y-102071782D01*
X110137878Y-102212637D01*
X110073049Y-102369147D01*
X110073006Y-102369363D01*
X109697653Y-102744717D01*
X109668578Y-102768578D01*
X109638280Y-102805497D01*
X109573355Y-102884608D01*
X109548637Y-102930853D01*
X109502598Y-103016986D01*
X109459026Y-103160623D01*
X109448284Y-103269691D01*
X109444314Y-103310000D01*
X109448000Y-103347423D01*
X109448000Y-103520555D01*
X109327364Y-103483960D01*
X109160750Y-103467550D01*
X108048570Y-103467550D01*
X107881956Y-103483960D01*
X107668175Y-103548810D01*
X107471154Y-103654120D01*
X107298463Y-103795843D01*
X107156740Y-103968534D01*
X107114569Y-104047431D01*
X107111425Y-104041550D01*
X107028948Y-103941052D01*
X106928450Y-103858575D01*
X106813793Y-103797290D01*
X106703670Y-103763884D01*
X106689387Y-103759551D01*
X106689386Y-103759551D01*
X106689383Y-103759550D01*
X106592419Y-103750000D01*
X106592413Y-103750000D01*
X106560004Y-103746808D01*
X106527592Y-103750000D01*
X104479608Y-103750000D01*
X104553480Y-103659986D01*
X104658790Y-103462965D01*
X104723640Y-103249184D01*
X104745537Y-103026860D01*
X104723640Y-102804536D01*
X104658790Y-102590755D01*
X104553480Y-102393734D01*
X104411757Y-102221043D01*
X104239066Y-102079320D01*
X104042045Y-101974010D01*
X103828264Y-101909160D01*
X103661650Y-101892750D01*
X102549470Y-101892750D01*
X102382856Y-101909160D01*
X102169075Y-101974010D01*
X101972054Y-102079320D01*
X101799363Y-102221043D01*
X101657640Y-102393734D01*
X101552330Y-102590755D01*
X101487480Y-102804536D01*
X101465583Y-103026860D01*
X101487480Y-103249184D01*
X101552330Y-103462965D01*
X101657640Y-103659986D01*
X101731512Y-103750000D01*
X99890050Y-103750000D01*
X99890007Y-99750000D01*
X108734136Y-99750000D01*
X108683864Y-99915726D01*
%TA.AperFunction,Conductor*%
D24*
G36*
X108683864Y-99915726D02*
G01*
X108666699Y-100090000D01*
X108683864Y-100264274D01*
X108734697Y-100431851D01*
X108817247Y-100586291D01*
X108928341Y-100721659D01*
X109063709Y-100832753D01*
X109218149Y-100915303D01*
X109385726Y-100966136D01*
X109516333Y-100979000D01*
X114180540Y-100979000D01*
X114163423Y-101035425D01*
X114149232Y-101179510D01*
X114152789Y-101215625D01*
X114152788Y-105394921D01*
X114111925Y-105403049D01*
X113955415Y-105467878D01*
X113814560Y-105561995D01*
X113694773Y-105681782D01*
X113600656Y-105822637D01*
X113535827Y-105979147D01*
X113502778Y-106145297D01*
X113502778Y-106231390D01*
X112826248Y-106231390D01*
X112790143Y-106227834D01*
X112646058Y-106242025D01*
X112507509Y-106284053D01*
X112413478Y-106334314D01*
X112379823Y-106352303D01*
X112267905Y-106444152D01*
X112244889Y-106472197D01*
X111591655Y-107125432D01*
X111568218Y-107101995D01*
X111427363Y-107007878D01*
X111270853Y-106943049D01*
X111104703Y-106910000D01*
X110972000Y-106910000D01*
X110972000Y-103625630D01*
X111150637Y-103446994D01*
X111150853Y-103446951D01*
X111307363Y-103382122D01*
X111448218Y-103288005D01*
X111568005Y-103168218D01*
X111662122Y-103027363D01*
X111726951Y-102870853D01*
X111760000Y-102704703D01*
X111760000Y-102535297D01*
X111726951Y-102369147D01*
X111662122Y-102212637D01*
X111568005Y-102071782D01*
X111448218Y-101951995D01*
X111307363Y-101857878D01*
X111150853Y-101793049D01*
X110984703Y-101760000D01*
X110815297Y-101760000D01*
X110649147Y-101793049D01*
X110492637Y-101857878D01*
X110351782Y-101951995D01*
X110231995Y-102071782D01*
X110137878Y-102212637D01*
X110073049Y-102369147D01*
X110073006Y-102369363D01*
X109697653Y-102744717D01*
X109668578Y-102768578D01*
X109638280Y-102805497D01*
X109573355Y-102884608D01*
X109548637Y-102930853D01*
X109502598Y-103016986D01*
X109459026Y-103160623D01*
X109448284Y-103269691D01*
X109444314Y-103310000D01*
X109448000Y-103347423D01*
X109448000Y-103520555D01*
X109327364Y-103483960D01*
X109160750Y-103467550D01*
X108048570Y-103467550D01*
X107881956Y-103483960D01*
X107668175Y-103548810D01*
X107471154Y-103654120D01*
X107298463Y-103795843D01*
X107156740Y-103968534D01*
X107114569Y-104047431D01*
X107111425Y-104041550D01*
X107028948Y-103941052D01*
X106928450Y-103858575D01*
X106813793Y-103797290D01*
X106703670Y-103763884D01*
X106689387Y-103759551D01*
X106689386Y-103759551D01*
X106689383Y-103759550D01*
X106592419Y-103750000D01*
X106592413Y-103750000D01*
X106560004Y-103746808D01*
X106527592Y-103750000D01*
X104479608Y-103750000D01*
X104553480Y-103659986D01*
X104658790Y-103462965D01*
X104723640Y-103249184D01*
X104745537Y-103026860D01*
X104723640Y-102804536D01*
X104658790Y-102590755D01*
X104553480Y-102393734D01*
X104411757Y-102221043D01*
X104239066Y-102079320D01*
X104042045Y-101974010D01*
X103828264Y-101909160D01*
X103661650Y-101892750D01*
X102549470Y-101892750D01*
X102382856Y-101909160D01*
X102169075Y-101974010D01*
X101972054Y-102079320D01*
X101799363Y-102221043D01*
X101657640Y-102393734D01*
X101552330Y-102590755D01*
X101487480Y-102804536D01*
X101465583Y-103026860D01*
X101487480Y-103249184D01*
X101552330Y-103462965D01*
X101657640Y-103659986D01*
X101731512Y-103750000D01*
X99890050Y-103750000D01*
X99890007Y-99750000D01*
X108734136Y-99750000D01*
X108683864Y-99915726D01*
G37*
%TD.AperFunction*%
D20*
X152865802Y-102586568D02*
X152647649Y-102804721D01*
X152618579Y-102828578D01*
X152594722Y-102857648D01*
X152594721Y-102857649D01*
X152523355Y-102944608D01*
X152452599Y-103076985D01*
X152409027Y-103220622D01*
X152394314Y-103370000D01*
X152398001Y-103407433D01*
X152398000Y-104112186D01*
X150330000Y-106180186D01*
X150330000Y-101152419D01*
X150333193Y-101120000D01*
X150320450Y-100990617D01*
X150282710Y-100866207D01*
X150221425Y-100751550D01*
X150138948Y-100651052D01*
X150082722Y-100604908D01*
X150085630Y-100602000D01*
X152122577Y-100602000D01*
X152160000Y-100605686D01*
X152197423Y-100602000D01*
X152197426Y-100602000D01*
X152309378Y-100590974D01*
X152453015Y-100547402D01*
X152585392Y-100476645D01*
X152701422Y-100381422D01*
X152725284Y-100352347D01*
X152865803Y-100211827D01*
X152865802Y-102586568D01*
%TA.AperFunction,Conductor*%
D24*
G36*
X152865802Y-102586568D02*
G01*
X152647649Y-102804721D01*
X152618579Y-102828578D01*
X152594722Y-102857648D01*
X152594721Y-102857649D01*
X152523355Y-102944608D01*
X152452599Y-103076985D01*
X152409027Y-103220622D01*
X152394314Y-103370000D01*
X152398001Y-103407433D01*
X152398000Y-104112186D01*
X150330000Y-106180186D01*
X150330000Y-101152419D01*
X150333193Y-101120000D01*
X150320450Y-100990617D01*
X150282710Y-100866207D01*
X150221425Y-100751550D01*
X150138948Y-100651052D01*
X150082722Y-100604908D01*
X150085630Y-100602000D01*
X152122577Y-100602000D01*
X152160000Y-100605686D01*
X152197423Y-100602000D01*
X152197426Y-100602000D01*
X152309378Y-100590974D01*
X152453015Y-100547402D01*
X152585392Y-100476645D01*
X152701422Y-100381422D01*
X152725284Y-100352347D01*
X152865803Y-100211827D01*
X152865802Y-102586568D01*
G37*
%TD.AperFunction*%
D20*
X120294989Y-104755564D02*
X120055000Y-104995554D01*
X120055000Y-103724030D01*
X120170983Y-103608047D01*
X120254800Y-103539260D01*
X120277821Y-103511210D01*
X120294990Y-103494040D01*
X120294989Y-104755564D01*
%TA.AperFunction,Conductor*%
D24*
G36*
X120294989Y-104755564D02*
G01*
X120055000Y-104995554D01*
X120055000Y-103724030D01*
X120170983Y-103608047D01*
X120254800Y-103539260D01*
X120277821Y-103511210D01*
X120294990Y-103494040D01*
X120294989Y-104755564D01*
G37*
%TD.AperFunction*%
D20*
X136160845Y-100940862D02*
X136108005Y-100861782D01*
X135988218Y-100741995D01*
X135847363Y-100647878D01*
X135690853Y-100583049D01*
X135524703Y-100550000D01*
X135355297Y-100550000D01*
X135189147Y-100583049D01*
X135032637Y-100647878D01*
X134891782Y-100741995D01*
X134771995Y-100861782D01*
X134762000Y-100876740D01*
X134762000Y-100797546D01*
X134762122Y-100797363D01*
X134826951Y-100640853D01*
X134860000Y-100474703D01*
X134860000Y-100305297D01*
X134826951Y-100139147D01*
X134762122Y-99982637D01*
X134668005Y-99841782D01*
X134548218Y-99721995D01*
X134407363Y-99627878D01*
X134250853Y-99563049D01*
X134084703Y-99530000D01*
X133915297Y-99530000D01*
X133866521Y-99539702D01*
X133948005Y-99458218D01*
X134042122Y-99317363D01*
X134106951Y-99160853D01*
X134140000Y-98994703D01*
X134140000Y-98825297D01*
X134106951Y-98659147D01*
X134042122Y-98502637D01*
X133948005Y-98361782D01*
X133828218Y-98241995D01*
X133687363Y-98147878D01*
X133530853Y-98083049D01*
X133410086Y-98059027D01*
X133435302Y-98011852D01*
X133486136Y-97844275D01*
X133503300Y-97670001D01*
X133486136Y-97495726D01*
X133435302Y-97328148D01*
X133352751Y-97173709D01*
X133241659Y-97038341D01*
X133135763Y-96951436D01*
X133156136Y-96884275D01*
X133173300Y-96710000D01*
X133164351Y-96619133D01*
X133176291Y-96612751D01*
X133311659Y-96501659D01*
X133422751Y-96366291D01*
X133505302Y-96211852D01*
X133556136Y-96044274D01*
X133573300Y-95869999D01*
X133556136Y-95695724D01*
X133505302Y-95528147D01*
X133422751Y-95373709D01*
X133339495Y-95272260D01*
X132959499Y-94892264D01*
X132931659Y-94858341D01*
X132796291Y-94747247D01*
X132641851Y-94664697D01*
X132474274Y-94613864D01*
X132343667Y-94601000D01*
X132343660Y-94601000D01*
X132300000Y-94596700D01*
X132256340Y-94601000D01*
X131628072Y-94601000D01*
X131628072Y-94552500D01*
X131613170Y-94401193D01*
X131579440Y-94290000D01*
X131613170Y-94178807D01*
X131628072Y-94027500D01*
X131628072Y-93852000D01*
X131914768Y-93852000D01*
X131999147Y-93886951D01*
X132165297Y-93920000D01*
X132334703Y-93920000D01*
X132500853Y-93886951D01*
X132657363Y-93822122D01*
X132798218Y-93728005D01*
X132918005Y-93608218D01*
X133012122Y-93467363D01*
X133076951Y-93310853D01*
X133110000Y-93144703D01*
X133110000Y-92975297D01*
X133076951Y-92809147D01*
X133012122Y-92652637D01*
X132918005Y-92511782D01*
X132798218Y-92391995D01*
X132657363Y-92297878D01*
X132500853Y-92233049D01*
X132472937Y-92227496D01*
X132490000Y-92141713D01*
X132490000Y-91972307D01*
X132456951Y-91806157D01*
X132392122Y-91649647D01*
X132352267Y-91590000D01*
X145511707Y-91590000D01*
X136160845Y-100940862D01*
%TA.AperFunction,Conductor*%
D24*
G36*
X136160845Y-100940862D02*
G01*
X136108005Y-100861782D01*
X135988218Y-100741995D01*
X135847363Y-100647878D01*
X135690853Y-100583049D01*
X135524703Y-100550000D01*
X135355297Y-100550000D01*
X135189147Y-100583049D01*
X135032637Y-100647878D01*
X134891782Y-100741995D01*
X134771995Y-100861782D01*
X134762000Y-100876740D01*
X134762000Y-100797546D01*
X134762122Y-100797363D01*
X134826951Y-100640853D01*
X134860000Y-100474703D01*
X134860000Y-100305297D01*
X134826951Y-100139147D01*
X134762122Y-99982637D01*
X134668005Y-99841782D01*
X134548218Y-99721995D01*
X134407363Y-99627878D01*
X134250853Y-99563049D01*
X134084703Y-99530000D01*
X133915297Y-99530000D01*
X133866521Y-99539702D01*
X133948005Y-99458218D01*
X134042122Y-99317363D01*
X134106951Y-99160853D01*
X134140000Y-98994703D01*
X134140000Y-98825297D01*
X134106951Y-98659147D01*
X134042122Y-98502637D01*
X133948005Y-98361782D01*
X133828218Y-98241995D01*
X133687363Y-98147878D01*
X133530853Y-98083049D01*
X133410086Y-98059027D01*
X133435302Y-98011852D01*
X133486136Y-97844275D01*
X133503300Y-97670001D01*
X133486136Y-97495726D01*
X133435302Y-97328148D01*
X133352751Y-97173709D01*
X133241659Y-97038341D01*
X133135763Y-96951436D01*
X133156136Y-96884275D01*
X133173300Y-96710000D01*
X133164351Y-96619133D01*
X133176291Y-96612751D01*
X133311659Y-96501659D01*
X133422751Y-96366291D01*
X133505302Y-96211852D01*
X133556136Y-96044274D01*
X133573300Y-95869999D01*
X133556136Y-95695724D01*
X133505302Y-95528147D01*
X133422751Y-95373709D01*
X133339495Y-95272260D01*
X132959499Y-94892264D01*
X132931659Y-94858341D01*
X132796291Y-94747247D01*
X132641851Y-94664697D01*
X132474274Y-94613864D01*
X132343667Y-94601000D01*
X132343660Y-94601000D01*
X132300000Y-94596700D01*
X132256340Y-94601000D01*
X131628072Y-94601000D01*
X131628072Y-94552500D01*
X131613170Y-94401193D01*
X131579440Y-94290000D01*
X131613170Y-94178807D01*
X131628072Y-94027500D01*
X131628072Y-93852000D01*
X131914768Y-93852000D01*
X131999147Y-93886951D01*
X132165297Y-93920000D01*
X132334703Y-93920000D01*
X132500853Y-93886951D01*
X132657363Y-93822122D01*
X132798218Y-93728005D01*
X132918005Y-93608218D01*
X133012122Y-93467363D01*
X133076951Y-93310853D01*
X133110000Y-93144703D01*
X133110000Y-92975297D01*
X133076951Y-92809147D01*
X133012122Y-92652637D01*
X132918005Y-92511782D01*
X132798218Y-92391995D01*
X132657363Y-92297878D01*
X132500853Y-92233049D01*
X132472937Y-92227496D01*
X132490000Y-92141713D01*
X132490000Y-91972307D01*
X132456951Y-91806157D01*
X132392122Y-91649647D01*
X132352267Y-91590000D01*
X145511707Y-91590000D01*
X136160845Y-100940862D01*
G37*
%TD.AperFunction*%
D20*
X151844370Y-99078000D02*
X149807423Y-99078000D01*
X149770000Y-99074314D01*
X149732577Y-99078000D01*
X149732574Y-99078000D01*
X149620622Y-99089026D01*
X149476985Y-99132598D01*
X149445547Y-99149402D01*
X149344607Y-99203355D01*
X149321199Y-99222566D01*
X149228578Y-99298578D01*
X149204716Y-99327654D01*
X148959364Y-99573006D01*
X148959147Y-99573049D01*
X148802637Y-99637878D01*
X148661782Y-99731995D01*
X148541995Y-99851782D01*
X148447878Y-99992637D01*
X148383049Y-100149147D01*
X148350000Y-100315297D01*
X148350000Y-100460000D01*
X147401783Y-100460000D01*
X148925772Y-98936011D01*
X151986359Y-98936011D01*
X151844370Y-99078000D01*
%TA.AperFunction,Conductor*%
D24*
G36*
X151844370Y-99078000D02*
G01*
X149807423Y-99078000D01*
X149770000Y-99074314D01*
X149732577Y-99078000D01*
X149732574Y-99078000D01*
X149620622Y-99089026D01*
X149476985Y-99132598D01*
X149445547Y-99149402D01*
X149344607Y-99203355D01*
X149321199Y-99222566D01*
X149228578Y-99298578D01*
X149204716Y-99327654D01*
X148959364Y-99573006D01*
X148959147Y-99573049D01*
X148802637Y-99637878D01*
X148661782Y-99731995D01*
X148541995Y-99851782D01*
X148447878Y-99992637D01*
X148383049Y-100149147D01*
X148350000Y-100315297D01*
X148350000Y-100460000D01*
X147401783Y-100460000D01*
X148925772Y-98936011D01*
X151986359Y-98936011D01*
X151844370Y-99078000D01*
G37*
%TD.AperFunction*%
D20*
X132293002Y-99886544D02*
X132227524Y-99899568D01*
X132101477Y-99951779D01*
X132003754Y-99854056D01*
X132004439Y-99854192D01*
X132173845Y-99854192D01*
X132293002Y-99830490D01*
X132293002Y-99886544D01*
%TA.AperFunction,Conductor*%
D24*
G36*
X132293002Y-99886544D02*
G01*
X132227524Y-99899568D01*
X132101477Y-99951779D01*
X132003754Y-99854056D01*
X132004439Y-99854192D01*
X132173845Y-99854192D01*
X132293002Y-99830490D01*
X132293002Y-99886544D01*
G37*
%TD.AperFunction*%
D20*
X129890000Y-88897798D02*
X129886808Y-88930421D01*
X129893095Y-88993848D01*
X129899550Y-89059382D01*
X129899612Y-89059587D01*
X129899633Y-89059796D01*
X129918300Y-89121192D01*
X129937290Y-89183792D01*
X129937391Y-89183980D01*
X129937452Y-89184182D01*
X129967827Y-89240923D01*
X129998575Y-89298449D01*
X129998710Y-89298614D01*
X129998810Y-89298800D01*
X130039241Y-89348001D01*
X130081052Y-89398948D01*
X130081221Y-89399086D01*
X130081351Y-89399245D01*
X130130003Y-89439121D01*
X130181550Y-89481425D01*
X130181742Y-89481528D01*
X130181901Y-89481658D01*
X130237970Y-89511582D01*
X130296207Y-89542710D01*
X130296412Y-89542772D01*
X130296597Y-89542871D01*
X130358169Y-89561506D01*
X130420617Y-89580450D01*
X130420829Y-89580471D01*
X130421031Y-89580532D01*
X130484863Y-89586778D01*
X130550000Y-89593193D01*
X130582633Y-89589979D01*
X145401790Y-89580564D01*
X145312354Y-89670000D01*
X130217647Y-89670000D01*
X128518273Y-87970627D01*
X128518273Y-78279665D01*
X128545395Y-78239074D01*
X128610224Y-78082564D01*
X128643273Y-77916414D01*
X128643273Y-77747008D01*
X128610224Y-77580858D01*
X128545395Y-77424348D01*
X128521588Y-77388718D01*
X128521829Y-77386268D01*
X128507638Y-77242183D01*
X128488342Y-77178575D01*
X128465610Y-77103636D01*
X128397360Y-76975949D01*
X128305510Y-76864031D01*
X128277465Y-76841015D01*
X127917261Y-76480811D01*
X127894240Y-76452760D01*
X127782322Y-76360911D01*
X127654635Y-76292661D01*
X127516087Y-76250633D01*
X127408107Y-76239998D01*
X127372002Y-76236442D01*
X127335897Y-76239998D01*
X123852907Y-76239998D01*
X123816802Y-76236442D01*
X123780697Y-76239998D01*
X123672717Y-76250633D01*
X123534169Y-76292661D01*
X123406482Y-76360911D01*
X123294564Y-76452760D01*
X123271548Y-76480805D01*
X122676779Y-77075574D01*
X122623972Y-77022767D01*
X122483117Y-76928650D01*
X122326607Y-76863821D01*
X122160457Y-76830772D01*
X121991051Y-76830772D01*
X121824901Y-76863821D01*
X121668391Y-76928650D01*
X121527536Y-77022767D01*
X121407749Y-77142554D01*
X121313632Y-77283409D01*
X121248803Y-77439919D01*
X121242781Y-77470193D01*
X121150707Y-77461124D01*
X121231263Y-77295226D01*
X121252012Y-77239134D01*
X121273551Y-77183313D01*
X121275952Y-77174416D01*
X121325477Y-76985639D01*
X121334945Y-76926530D01*
X121345222Y-76867645D01*
X121345849Y-76858452D01*
X121357764Y-76663651D01*
X121355572Y-76603871D01*
X121354215Y-76544066D01*
X121353044Y-76534925D01*
X121326894Y-76341518D01*
X121313128Y-76283283D01*
X121300185Y-76224901D01*
X121297261Y-76216162D01*
X121234043Y-76031520D01*
X121209237Y-75977088D01*
X121185194Y-75922316D01*
X121180628Y-75914311D01*
X121082751Y-75745464D01*
X121047853Y-75696898D01*
X121013618Y-75647823D01*
X121007584Y-75640857D01*
X120878774Y-75494236D01*
X120835091Y-75453359D01*
X120791996Y-75411887D01*
X120784725Y-75406226D01*
X120629890Y-75287416D01*
X120579099Y-75255802D01*
X120528763Y-75223486D01*
X120520530Y-75219346D01*
X120345566Y-75132874D01*
X120289625Y-75111736D01*
X120233956Y-75089807D01*
X120225076Y-75087345D01*
X120036649Y-75036502D01*
X119977649Y-75026629D01*
X119918793Y-75015933D01*
X119909603Y-75015242D01*
X119724778Y-75002642D01*
X119702419Y-75000440D01*
X118317915Y-75000440D01*
X118310738Y-75001147D01*
X118292314Y-75001549D01*
X118257702Y-75005707D01*
X118222853Y-75006741D01*
X118213721Y-75007976D01*
X118020502Y-75035475D01*
X117962399Y-75049639D01*
X117904075Y-75062997D01*
X117895357Y-75065982D01*
X117711159Y-75130487D01*
X117656913Y-75155667D01*
X117602294Y-75180099D01*
X117594322Y-75184721D01*
X117426162Y-75283775D01*
X117377845Y-75319009D01*
X117329010Y-75353585D01*
X117322087Y-75359667D01*
X117176369Y-75489497D01*
X117135808Y-75533453D01*
X117094622Y-75576853D01*
X117089013Y-75584164D01*
X116971288Y-75739825D01*
X116940046Y-75790807D01*
X116908069Y-75841390D01*
X116903986Y-75849651D01*
X116818737Y-76025214D01*
X116797988Y-76081306D01*
X116776449Y-76137127D01*
X116774048Y-76146024D01*
X116724523Y-76334802D01*
X116715056Y-76393904D01*
X116704778Y-76452795D01*
X116704151Y-76461988D01*
X116692236Y-76656789D01*
X116694428Y-76716568D01*
X116695785Y-76776375D01*
X116696956Y-76785515D01*
X116723106Y-76978922D01*
X116736867Y-77037134D01*
X116749815Y-77095538D01*
X116752739Y-77104277D01*
X116815957Y-77288920D01*
X116840758Y-77343340D01*
X116864806Y-77398124D01*
X116869372Y-77406128D01*
X116958145Y-77559270D01*
X116939147Y-77563049D01*
X116782637Y-77627878D01*
X116641782Y-77721995D01*
X116521995Y-77841782D01*
X116427878Y-77982637D01*
X116363049Y-78139147D01*
X116330000Y-78305297D01*
X116330000Y-78474703D01*
X116363049Y-78640853D01*
X116366424Y-78649000D01*
X116275098Y-78649000D01*
X116125829Y-78663702D01*
X115934313Y-78721798D01*
X115757810Y-78816140D01*
X115603104Y-78943104D01*
X115476140Y-79097810D01*
X115381798Y-79274313D01*
X115323702Y-79465829D01*
X115304085Y-79665000D01*
X115323702Y-79864171D01*
X115381798Y-80055687D01*
X115476140Y-80232190D01*
X115603104Y-80386896D01*
X115757810Y-80513860D01*
X115902130Y-80591000D01*
X115438235Y-80591000D01*
X112767740Y-77920505D01*
X112666291Y-77837248D01*
X112511852Y-77754698D01*
X112344274Y-77703864D01*
X112170000Y-77686700D01*
X111995726Y-77703864D01*
X111828148Y-77754698D01*
X111673709Y-77837248D01*
X111538341Y-77948341D01*
X111427248Y-78083709D01*
X111344698Y-78238148D01*
X111293864Y-78405726D01*
X111276700Y-78580000D01*
X111293864Y-78754274D01*
X111344698Y-78921852D01*
X111427248Y-79076291D01*
X111510505Y-79177740D01*
X114410501Y-82077736D01*
X114438341Y-82111659D01*
X114573709Y-82222753D01*
X114728149Y-82305303D01*
X114794058Y-82325296D01*
X114895724Y-82356136D01*
X114925667Y-82359085D01*
X115026333Y-82369000D01*
X115026339Y-82369000D01*
X115069999Y-82373300D01*
X115113659Y-82369000D01*
X119781765Y-82369000D01*
X120661000Y-83248236D01*
X120661001Y-85041763D01*
X118706731Y-86996034D01*
X118576783Y-86801554D01*
X118390866Y-86615637D01*
X118172251Y-86469563D01*
X117929338Y-86368945D01*
X117671463Y-86317650D01*
X117408537Y-86317650D01*
X117150662Y-86368945D01*
X116907749Y-86469563D01*
X116689134Y-86615637D01*
X116503217Y-86801554D01*
X116357143Y-87020169D01*
X116256525Y-87263082D01*
X116205230Y-87520957D01*
X116205230Y-87783883D01*
X116256525Y-88041758D01*
X116357143Y-88284671D01*
X116503217Y-88503286D01*
X116689134Y-88689203D01*
X116907749Y-88835277D01*
X117150662Y-88935895D01*
X117408537Y-88987190D01*
X117671463Y-88987190D01*
X117929338Y-88935895D01*
X118115967Y-88858591D01*
X118115968Y-93441410D01*
X117929338Y-93364105D01*
X117671463Y-93312810D01*
X117408537Y-93312810D01*
X117150662Y-93364105D01*
X116907749Y-93464723D01*
X116689134Y-93610797D01*
X116503217Y-93796714D01*
X116357143Y-94015329D01*
X116256525Y-94258242D01*
X116205230Y-94516117D01*
X116205230Y-94779043D01*
X116256525Y-95036918D01*
X116357143Y-95279831D01*
X116503217Y-95498446D01*
X116689134Y-95684363D01*
X116907749Y-95830437D01*
X117150662Y-95931055D01*
X117408537Y-95982350D01*
X117671463Y-95982350D01*
X117929338Y-95931055D01*
X118115968Y-95853750D01*
X118115968Y-95910606D01*
X114825574Y-99201000D01*
X113852261Y-99201000D01*
X113858997Y-99132599D01*
X113863193Y-99090000D01*
X113860000Y-99057581D01*
X113860000Y-83272419D01*
X113863193Y-83240000D01*
X113850450Y-83110617D01*
X113812710Y-82986207D01*
X113751425Y-82871550D01*
X113668948Y-82771052D01*
X113568450Y-82688575D01*
X113453793Y-82627290D01*
X113329383Y-82589550D01*
X113232419Y-82580000D01*
X113200000Y-82576807D01*
X113167581Y-82580000D01*
X99890058Y-82580000D01*
X99890058Y-81057747D01*
X102782477Y-81057747D01*
X102807781Y-81055255D01*
X102813850Y-81055329D01*
X102823026Y-81054478D01*
X103648380Y-80972097D01*
X103707054Y-80960373D01*
X103765857Y-80949474D01*
X103774693Y-80946857D01*
X104568327Y-80705732D01*
X104623572Y-80682848D01*
X104679172Y-80660723D01*
X104687331Y-80656439D01*
X105419015Y-80265756D01*
X105468770Y-80232573D01*
X105519007Y-80200074D01*
X105526178Y-80194287D01*
X106168043Y-79668927D01*
X106210408Y-79626709D01*
X106253374Y-79585073D01*
X106259284Y-79578003D01*
X106786882Y-78937975D01*
X106820226Y-78888353D01*
X106854300Y-78839146D01*
X106858725Y-78831062D01*
X107251960Y-78100746D01*
X107275037Y-78045578D01*
X107298898Y-77990703D01*
X107301668Y-77981915D01*
X107545562Y-77189127D01*
X107557489Y-77130505D01*
X107570231Y-77072064D01*
X107571242Y-77062904D01*
X107649987Y-76300911D01*
X107650450Y-76299383D01*
X107660000Y-76202419D01*
X107660000Y-74045297D01*
X112330000Y-74045297D01*
X112330000Y-74214703D01*
X112363049Y-74380853D01*
X112427878Y-74537363D01*
X112521995Y-74678218D01*
X112641782Y-74798005D01*
X112782637Y-74892122D01*
X112939147Y-74956951D01*
X113105297Y-74990000D01*
X113274703Y-74990000D01*
X113440853Y-74956951D01*
X113500000Y-74932451D01*
X113559147Y-74956951D01*
X113725297Y-74990000D01*
X113894703Y-74990000D01*
X114060853Y-74956951D01*
X114217363Y-74892122D01*
X114358218Y-74798005D01*
X114478005Y-74678218D01*
X114572122Y-74537363D01*
X114636951Y-74380853D01*
X114670000Y-74214703D01*
X114670000Y-74045297D01*
X114636951Y-73879147D01*
X114572122Y-73722637D01*
X114478005Y-73581782D01*
X114358218Y-73461995D01*
X114217363Y-73367878D01*
X114060853Y-73303049D01*
X113894703Y-73270000D01*
X113725297Y-73270000D01*
X113559147Y-73303049D01*
X113500000Y-73327549D01*
X113440853Y-73303049D01*
X113274703Y-73270000D01*
X113105297Y-73270000D01*
X112939147Y-73303049D01*
X112782637Y-73367878D01*
X112641782Y-73461995D01*
X112521995Y-73581782D01*
X112427878Y-73722637D01*
X112363049Y-73879147D01*
X112330000Y-74045297D01*
X107660000Y-74045297D01*
X107660000Y-73110000D01*
X129890001Y-73110000D01*
X129890000Y-88897798D01*
%TA.AperFunction,Conductor*%
D24*
G36*
X129890000Y-88897798D02*
G01*
X129886808Y-88930421D01*
X129893095Y-88993848D01*
X129899550Y-89059382D01*
X129899612Y-89059587D01*
X129899633Y-89059796D01*
X129918300Y-89121192D01*
X129937290Y-89183792D01*
X129937391Y-89183980D01*
X129937452Y-89184182D01*
X129967827Y-89240923D01*
X129998575Y-89298449D01*
X129998710Y-89298614D01*
X129998810Y-89298800D01*
X130039241Y-89348001D01*
X130081052Y-89398948D01*
X130081221Y-89399086D01*
X130081351Y-89399245D01*
X130130003Y-89439121D01*
X130181550Y-89481425D01*
X130181742Y-89481528D01*
X130181901Y-89481658D01*
X130237970Y-89511582D01*
X130296207Y-89542710D01*
X130296412Y-89542772D01*
X130296597Y-89542871D01*
X130358169Y-89561506D01*
X130420617Y-89580450D01*
X130420829Y-89580471D01*
X130421031Y-89580532D01*
X130484863Y-89586778D01*
X130550000Y-89593193D01*
X130582633Y-89589979D01*
X145401790Y-89580564D01*
X145312354Y-89670000D01*
X130217647Y-89670000D01*
X128518273Y-87970627D01*
X128518273Y-78279665D01*
X128545395Y-78239074D01*
X128610224Y-78082564D01*
X128643273Y-77916414D01*
X128643273Y-77747008D01*
X128610224Y-77580858D01*
X128545395Y-77424348D01*
X128521588Y-77388718D01*
X128521829Y-77386268D01*
X128507638Y-77242183D01*
X128488342Y-77178575D01*
X128465610Y-77103636D01*
X128397360Y-76975949D01*
X128305510Y-76864031D01*
X128277465Y-76841015D01*
X127917261Y-76480811D01*
X127894240Y-76452760D01*
X127782322Y-76360911D01*
X127654635Y-76292661D01*
X127516087Y-76250633D01*
X127408107Y-76239998D01*
X127372002Y-76236442D01*
X127335897Y-76239998D01*
X123852907Y-76239998D01*
X123816802Y-76236442D01*
X123780697Y-76239998D01*
X123672717Y-76250633D01*
X123534169Y-76292661D01*
X123406482Y-76360911D01*
X123294564Y-76452760D01*
X123271548Y-76480805D01*
X122676779Y-77075574D01*
X122623972Y-77022767D01*
X122483117Y-76928650D01*
X122326607Y-76863821D01*
X122160457Y-76830772D01*
X121991051Y-76830772D01*
X121824901Y-76863821D01*
X121668391Y-76928650D01*
X121527536Y-77022767D01*
X121407749Y-77142554D01*
X121313632Y-77283409D01*
X121248803Y-77439919D01*
X121242781Y-77470193D01*
X121150707Y-77461124D01*
X121231263Y-77295226D01*
X121252012Y-77239134D01*
X121273551Y-77183313D01*
X121275952Y-77174416D01*
X121325477Y-76985639D01*
X121334945Y-76926530D01*
X121345222Y-76867645D01*
X121345849Y-76858452D01*
X121357764Y-76663651D01*
X121355572Y-76603871D01*
X121354215Y-76544066D01*
X121353044Y-76534925D01*
X121326894Y-76341518D01*
X121313128Y-76283283D01*
X121300185Y-76224901D01*
X121297261Y-76216162D01*
X121234043Y-76031520D01*
X121209237Y-75977088D01*
X121185194Y-75922316D01*
X121180628Y-75914311D01*
X121082751Y-75745464D01*
X121047853Y-75696898D01*
X121013618Y-75647823D01*
X121007584Y-75640857D01*
X120878774Y-75494236D01*
X120835091Y-75453359D01*
X120791996Y-75411887D01*
X120784725Y-75406226D01*
X120629890Y-75287416D01*
X120579099Y-75255802D01*
X120528763Y-75223486D01*
X120520530Y-75219346D01*
X120345566Y-75132874D01*
X120289625Y-75111736D01*
X120233956Y-75089807D01*
X120225076Y-75087345D01*
X120036649Y-75036502D01*
X119977649Y-75026629D01*
X119918793Y-75015933D01*
X119909603Y-75015242D01*
X119724778Y-75002642D01*
X119702419Y-75000440D01*
X118317915Y-75000440D01*
X118310738Y-75001147D01*
X118292314Y-75001549D01*
X118257702Y-75005707D01*
X118222853Y-75006741D01*
X118213721Y-75007976D01*
X118020502Y-75035475D01*
X117962399Y-75049639D01*
X117904075Y-75062997D01*
X117895357Y-75065982D01*
X117711159Y-75130487D01*
X117656913Y-75155667D01*
X117602294Y-75180099D01*
X117594322Y-75184721D01*
X117426162Y-75283775D01*
X117377845Y-75319009D01*
X117329010Y-75353585D01*
X117322087Y-75359667D01*
X117176369Y-75489497D01*
X117135808Y-75533453D01*
X117094622Y-75576853D01*
X117089013Y-75584164D01*
X116971288Y-75739825D01*
X116940046Y-75790807D01*
X116908069Y-75841390D01*
X116903986Y-75849651D01*
X116818737Y-76025214D01*
X116797988Y-76081306D01*
X116776449Y-76137127D01*
X116774048Y-76146024D01*
X116724523Y-76334802D01*
X116715056Y-76393904D01*
X116704778Y-76452795D01*
X116704151Y-76461988D01*
X116692236Y-76656789D01*
X116694428Y-76716568D01*
X116695785Y-76776375D01*
X116696956Y-76785515D01*
X116723106Y-76978922D01*
X116736867Y-77037134D01*
X116749815Y-77095538D01*
X116752739Y-77104277D01*
X116815957Y-77288920D01*
X116840758Y-77343340D01*
X116864806Y-77398124D01*
X116869372Y-77406128D01*
X116958145Y-77559270D01*
X116939147Y-77563049D01*
X116782637Y-77627878D01*
X116641782Y-77721995D01*
X116521995Y-77841782D01*
X116427878Y-77982637D01*
X116363049Y-78139147D01*
X116330000Y-78305297D01*
X116330000Y-78474703D01*
X116363049Y-78640853D01*
X116366424Y-78649000D01*
X116275098Y-78649000D01*
X116125829Y-78663702D01*
X115934313Y-78721798D01*
X115757810Y-78816140D01*
X115603104Y-78943104D01*
X115476140Y-79097810D01*
X115381798Y-79274313D01*
X115323702Y-79465829D01*
X115304085Y-79665000D01*
X115323702Y-79864171D01*
X115381798Y-80055687D01*
X115476140Y-80232190D01*
X115603104Y-80386896D01*
X115757810Y-80513860D01*
X115902130Y-80591000D01*
X115438235Y-80591000D01*
X112767740Y-77920505D01*
X112666291Y-77837248D01*
X112511852Y-77754698D01*
X112344274Y-77703864D01*
X112170000Y-77686700D01*
X111995726Y-77703864D01*
X111828148Y-77754698D01*
X111673709Y-77837248D01*
X111538341Y-77948341D01*
X111427248Y-78083709D01*
X111344698Y-78238148D01*
X111293864Y-78405726D01*
X111276700Y-78580000D01*
X111293864Y-78754274D01*
X111344698Y-78921852D01*
X111427248Y-79076291D01*
X111510505Y-79177740D01*
X114410501Y-82077736D01*
X114438341Y-82111659D01*
X114573709Y-82222753D01*
X114728149Y-82305303D01*
X114794058Y-82325296D01*
X114895724Y-82356136D01*
X114925667Y-82359085D01*
X115026333Y-82369000D01*
X115026339Y-82369000D01*
X115069999Y-82373300D01*
X115113659Y-82369000D01*
X119781765Y-82369000D01*
X120661000Y-83248236D01*
X120661001Y-85041763D01*
X118706731Y-86996034D01*
X118576783Y-86801554D01*
X118390866Y-86615637D01*
X118172251Y-86469563D01*
X117929338Y-86368945D01*
X117671463Y-86317650D01*
X117408537Y-86317650D01*
X117150662Y-86368945D01*
X116907749Y-86469563D01*
X116689134Y-86615637D01*
X116503217Y-86801554D01*
X116357143Y-87020169D01*
X116256525Y-87263082D01*
X116205230Y-87520957D01*
X116205230Y-87783883D01*
X116256525Y-88041758D01*
X116357143Y-88284671D01*
X116503217Y-88503286D01*
X116689134Y-88689203D01*
X116907749Y-88835277D01*
X117150662Y-88935895D01*
X117408537Y-88987190D01*
X117671463Y-88987190D01*
X117929338Y-88935895D01*
X118115967Y-88858591D01*
X118115968Y-93441410D01*
X117929338Y-93364105D01*
X117671463Y-93312810D01*
X117408537Y-93312810D01*
X117150662Y-93364105D01*
X116907749Y-93464723D01*
X116689134Y-93610797D01*
X116503217Y-93796714D01*
X116357143Y-94015329D01*
X116256525Y-94258242D01*
X116205230Y-94516117D01*
X116205230Y-94779043D01*
X116256525Y-95036918D01*
X116357143Y-95279831D01*
X116503217Y-95498446D01*
X116689134Y-95684363D01*
X116907749Y-95830437D01*
X117150662Y-95931055D01*
X117408537Y-95982350D01*
X117671463Y-95982350D01*
X117929338Y-95931055D01*
X118115968Y-95853750D01*
X118115968Y-95910606D01*
X114825574Y-99201000D01*
X113852261Y-99201000D01*
X113858997Y-99132599D01*
X113863193Y-99090000D01*
X113860000Y-99057581D01*
X113860000Y-83272419D01*
X113863193Y-83240000D01*
X113850450Y-83110617D01*
X113812710Y-82986207D01*
X113751425Y-82871550D01*
X113668948Y-82771052D01*
X113568450Y-82688575D01*
X113453793Y-82627290D01*
X113329383Y-82589550D01*
X113232419Y-82580000D01*
X113200000Y-82576807D01*
X113167581Y-82580000D01*
X99890058Y-82580000D01*
X99890058Y-81057747D01*
X102782477Y-81057747D01*
X102807781Y-81055255D01*
X102813850Y-81055329D01*
X102823026Y-81054478D01*
X103648380Y-80972097D01*
X103707054Y-80960373D01*
X103765857Y-80949474D01*
X103774693Y-80946857D01*
X104568327Y-80705732D01*
X104623572Y-80682848D01*
X104679172Y-80660723D01*
X104687331Y-80656439D01*
X105419015Y-80265756D01*
X105468770Y-80232573D01*
X105519007Y-80200074D01*
X105526178Y-80194287D01*
X106168043Y-79668927D01*
X106210408Y-79626709D01*
X106253374Y-79585073D01*
X106259284Y-79578003D01*
X106786882Y-78937975D01*
X106820226Y-78888353D01*
X106854300Y-78839146D01*
X106858725Y-78831062D01*
X107251960Y-78100746D01*
X107275037Y-78045578D01*
X107298898Y-77990703D01*
X107301668Y-77981915D01*
X107545562Y-77189127D01*
X107557489Y-77130505D01*
X107570231Y-77072064D01*
X107571242Y-77062904D01*
X107649987Y-76300911D01*
X107650450Y-76299383D01*
X107660000Y-76202419D01*
X107660000Y-74045297D01*
X112330000Y-74045297D01*
X112330000Y-74214703D01*
X112363049Y-74380853D01*
X112427878Y-74537363D01*
X112521995Y-74678218D01*
X112641782Y-74798005D01*
X112782637Y-74892122D01*
X112939147Y-74956951D01*
X113105297Y-74990000D01*
X113274703Y-74990000D01*
X113440853Y-74956951D01*
X113500000Y-74932451D01*
X113559147Y-74956951D01*
X113725297Y-74990000D01*
X113894703Y-74990000D01*
X114060853Y-74956951D01*
X114217363Y-74892122D01*
X114358218Y-74798005D01*
X114478005Y-74678218D01*
X114572122Y-74537363D01*
X114636951Y-74380853D01*
X114670000Y-74214703D01*
X114670000Y-74045297D01*
X114636951Y-73879147D01*
X114572122Y-73722637D01*
X114478005Y-73581782D01*
X114358218Y-73461995D01*
X114217363Y-73367878D01*
X114060853Y-73303049D01*
X113894703Y-73270000D01*
X113725297Y-73270000D01*
X113559147Y-73303049D01*
X113500000Y-73327549D01*
X113440853Y-73303049D01*
X113274703Y-73270000D01*
X113105297Y-73270000D01*
X112939147Y-73303049D01*
X112782637Y-73367878D01*
X112641782Y-73461995D01*
X112521995Y-73581782D01*
X112427878Y-73722637D01*
X112363049Y-73879147D01*
X112330000Y-74045297D01*
X107660000Y-74045297D01*
X107660000Y-73110000D01*
X129890001Y-73110000D01*
X129890000Y-88897798D01*
G37*
%TD.AperFunction*%
D20*
X158470001Y-85489448D02*
X158470000Y-89321101D01*
X158396695Y-89351465D01*
X158398416Y-89342813D01*
X158398416Y-89173407D01*
X158365367Y-89007257D01*
X158300538Y-88850747D01*
X158206421Y-88709892D01*
X158086634Y-88590105D01*
X157945779Y-88495988D01*
X157789269Y-88431159D01*
X157623119Y-88398110D01*
X157453713Y-88398110D01*
X157287563Y-88431159D01*
X157131053Y-88495988D01*
X156990198Y-88590105D01*
X156870411Y-88709892D01*
X156776294Y-88850747D01*
X156765005Y-88878000D01*
X155325338Y-88878000D01*
X155287915Y-88874314D01*
X155250492Y-88878000D01*
X155250490Y-88878000D01*
X155138538Y-88889026D01*
X154994901Y-88932598D01*
X154862524Y-89003355D01*
X154746494Y-89098578D01*
X154722637Y-89127648D01*
X149884297Y-93965989D01*
X149597349Y-93965989D01*
X149559926Y-93962303D01*
X149522503Y-93965989D01*
X149522501Y-93965989D01*
X149410549Y-93977015D01*
X149266912Y-94020587D01*
X149134535Y-94091344D01*
X149018505Y-94186567D01*
X148994648Y-94215637D01*
X144681879Y-98528407D01*
X144681879Y-97455751D01*
X153970502Y-88167129D01*
X154007878Y-88257363D01*
X154101995Y-88398218D01*
X154221782Y-88518005D01*
X154362637Y-88612122D01*
X154519147Y-88676951D01*
X154685297Y-88710000D01*
X154854703Y-88710000D01*
X155020853Y-88676951D01*
X155177363Y-88612122D01*
X155318218Y-88518005D01*
X155438005Y-88398218D01*
X155531682Y-88258022D01*
X155611995Y-88378218D01*
X155731782Y-88498005D01*
X155872637Y-88592122D01*
X156029147Y-88656951D01*
X156195297Y-88690000D01*
X156364703Y-88690000D01*
X156530853Y-88656951D01*
X156687363Y-88592122D01*
X156828218Y-88498005D01*
X156948005Y-88378218D01*
X157042122Y-88237363D01*
X157106951Y-88080853D01*
X157140000Y-87914703D01*
X157140000Y-87745297D01*
X157106951Y-87579147D01*
X157042122Y-87422637D01*
X156948005Y-87281782D01*
X156828218Y-87161995D01*
X156687363Y-87067878D01*
X156530853Y-87003049D01*
X156364703Y-86970000D01*
X156195297Y-86970000D01*
X156029147Y-87003049D01*
X155872637Y-87067878D01*
X155731782Y-87161995D01*
X155611995Y-87281782D01*
X155518318Y-87421978D01*
X155438005Y-87301782D01*
X155318218Y-87181995D01*
X155177363Y-87087878D01*
X155087129Y-87050502D01*
X156210637Y-85926994D01*
X156210853Y-85926951D01*
X156336771Y-85874794D01*
X156392637Y-85912122D01*
X156549147Y-85976951D01*
X156715297Y-86010000D01*
X156884703Y-86010000D01*
X157050853Y-85976951D01*
X157207363Y-85912122D01*
X157348218Y-85818005D01*
X157468005Y-85698218D01*
X157562122Y-85557363D01*
X157626951Y-85400853D01*
X157660000Y-85234703D01*
X157660000Y-85065297D01*
X157626951Y-84899147D01*
X157562122Y-84742637D01*
X157468005Y-84601782D01*
X157348218Y-84481995D01*
X157207363Y-84387878D01*
X157050853Y-84323049D01*
X157011848Y-84315291D01*
X157017130Y-84307386D01*
X157081959Y-84150876D01*
X157090167Y-84109613D01*
X158470001Y-85489448D01*
%TA.AperFunction,Conductor*%
D24*
G36*
X158470001Y-85489448D02*
G01*
X158470000Y-89321101D01*
X158396695Y-89351465D01*
X158398416Y-89342813D01*
X158398416Y-89173407D01*
X158365367Y-89007257D01*
X158300538Y-88850747D01*
X158206421Y-88709892D01*
X158086634Y-88590105D01*
X157945779Y-88495988D01*
X157789269Y-88431159D01*
X157623119Y-88398110D01*
X157453713Y-88398110D01*
X157287563Y-88431159D01*
X157131053Y-88495988D01*
X156990198Y-88590105D01*
X156870411Y-88709892D01*
X156776294Y-88850747D01*
X156765005Y-88878000D01*
X155325338Y-88878000D01*
X155287915Y-88874314D01*
X155250492Y-88878000D01*
X155250490Y-88878000D01*
X155138538Y-88889026D01*
X154994901Y-88932598D01*
X154862524Y-89003355D01*
X154746494Y-89098578D01*
X154722637Y-89127648D01*
X149884297Y-93965989D01*
X149597349Y-93965989D01*
X149559926Y-93962303D01*
X149522503Y-93965989D01*
X149522501Y-93965989D01*
X149410549Y-93977015D01*
X149266912Y-94020587D01*
X149134535Y-94091344D01*
X149018505Y-94186567D01*
X148994648Y-94215637D01*
X144681879Y-98528407D01*
X144681879Y-97455751D01*
X153970502Y-88167129D01*
X154007878Y-88257363D01*
X154101995Y-88398218D01*
X154221782Y-88518005D01*
X154362637Y-88612122D01*
X154519147Y-88676951D01*
X154685297Y-88710000D01*
X154854703Y-88710000D01*
X155020853Y-88676951D01*
X155177363Y-88612122D01*
X155318218Y-88518005D01*
X155438005Y-88398218D01*
X155531682Y-88258022D01*
X155611995Y-88378218D01*
X155731782Y-88498005D01*
X155872637Y-88592122D01*
X156029147Y-88656951D01*
X156195297Y-88690000D01*
X156364703Y-88690000D01*
X156530853Y-88656951D01*
X156687363Y-88592122D01*
X156828218Y-88498005D01*
X156948005Y-88378218D01*
X157042122Y-88237363D01*
X157106951Y-88080853D01*
X157140000Y-87914703D01*
X157140000Y-87745297D01*
X157106951Y-87579147D01*
X157042122Y-87422637D01*
X156948005Y-87281782D01*
X156828218Y-87161995D01*
X156687363Y-87067878D01*
X156530853Y-87003049D01*
X156364703Y-86970000D01*
X156195297Y-86970000D01*
X156029147Y-87003049D01*
X155872637Y-87067878D01*
X155731782Y-87161995D01*
X155611995Y-87281782D01*
X155518318Y-87421978D01*
X155438005Y-87301782D01*
X155318218Y-87181995D01*
X155177363Y-87087878D01*
X155087129Y-87050502D01*
X156210637Y-85926994D01*
X156210853Y-85926951D01*
X156336771Y-85874794D01*
X156392637Y-85912122D01*
X156549147Y-85976951D01*
X156715297Y-86010000D01*
X156884703Y-86010000D01*
X157050853Y-85976951D01*
X157207363Y-85912122D01*
X157348218Y-85818005D01*
X157468005Y-85698218D01*
X157562122Y-85557363D01*
X157626951Y-85400853D01*
X157660000Y-85234703D01*
X157660000Y-85065297D01*
X157626951Y-84899147D01*
X157562122Y-84742637D01*
X157468005Y-84601782D01*
X157348218Y-84481995D01*
X157207363Y-84387878D01*
X157050853Y-84323049D01*
X157011848Y-84315291D01*
X157017130Y-84307386D01*
X157081959Y-84150876D01*
X157090167Y-84109613D01*
X158470001Y-85489448D01*
G37*
%TD.AperFunction*%
D20*
X169538001Y-82725632D02*
X169538000Y-88992577D01*
X169534314Y-89030000D01*
X169538000Y-89067423D01*
X169538000Y-89067425D01*
X169549026Y-89179377D01*
X169592598Y-89323014D01*
X169610574Y-89356645D01*
X169663355Y-89455392D01*
X169688217Y-89485686D01*
X169758578Y-89571422D01*
X169787654Y-89595284D01*
X170449730Y-90257360D01*
X170483194Y-96958000D01*
X149609647Y-96958000D01*
X150227647Y-96340000D01*
X152507850Y-96340000D01*
X152557050Y-96389200D01*
X152580071Y-96417251D01*
X152691989Y-96509100D01*
X152819676Y-96577350D01*
X152958224Y-96619378D01*
X153066204Y-96630013D01*
X153066213Y-96630013D01*
X153102308Y-96633568D01*
X153138403Y-96630013D01*
X157698882Y-96630013D01*
X157734987Y-96633569D01*
X157771092Y-96630013D01*
X157879072Y-96619378D01*
X158017620Y-96577350D01*
X158145307Y-96509100D01*
X158257225Y-96417251D01*
X158280246Y-96389200D01*
X162012972Y-92656475D01*
X162060853Y-92646951D01*
X162217363Y-92582122D01*
X162358218Y-92488005D01*
X162360000Y-92486223D01*
X162361782Y-92488005D01*
X162502637Y-92582122D01*
X162659147Y-92646951D01*
X162825297Y-92680000D01*
X162994703Y-92680000D01*
X163160853Y-92646951D01*
X163317363Y-92582122D01*
X163458218Y-92488005D01*
X163460000Y-92486223D01*
X163461782Y-92488005D01*
X163602637Y-92582122D01*
X163759147Y-92646951D01*
X163925297Y-92680000D01*
X164094703Y-92680000D01*
X164260853Y-92646951D01*
X164417363Y-92582122D01*
X164558218Y-92488005D01*
X164678005Y-92368218D01*
X164741036Y-92273886D01*
X164869147Y-92326951D01*
X165035297Y-92360000D01*
X165204703Y-92360000D01*
X165370853Y-92326951D01*
X165527363Y-92262122D01*
X165668218Y-92168005D01*
X165788005Y-92048218D01*
X165841674Y-91967897D01*
X165851782Y-91978005D01*
X165992637Y-92072122D01*
X166149147Y-92136951D01*
X166315297Y-92170000D01*
X166484703Y-92170000D01*
X166650853Y-92136951D01*
X166807363Y-92072122D01*
X166948218Y-91978005D01*
X167068005Y-91858218D01*
X167162122Y-91717363D01*
X167215520Y-91588449D01*
X167327363Y-91542122D01*
X167468218Y-91448005D01*
X167588005Y-91328218D01*
X167682122Y-91187363D01*
X167746951Y-91030853D01*
X167780000Y-90864703D01*
X167780000Y-90695297D01*
X167746951Y-90529147D01*
X167682122Y-90372637D01*
X167588005Y-90231782D01*
X167468218Y-90111995D01*
X167327363Y-90017878D01*
X167170853Y-89953049D01*
X167170637Y-89953006D01*
X166827989Y-89610359D01*
X166827989Y-84877944D01*
X166882795Y-85010256D01*
X166996063Y-85179774D01*
X167140226Y-85323937D01*
X167309744Y-85437205D01*
X167498102Y-85515226D01*
X167698061Y-85555000D01*
X167757369Y-85555000D01*
X167978000Y-85775631D01*
X167978001Y-90096170D01*
X167964774Y-90128102D01*
X167925000Y-90328061D01*
X167925000Y-90531939D01*
X167964774Y-90731898D01*
X168042795Y-90920256D01*
X168156063Y-91089774D01*
X168300226Y-91233937D01*
X168469744Y-91347205D01*
X168658102Y-91425226D01*
X168858061Y-91465000D01*
X169061939Y-91465000D01*
X169261898Y-91425226D01*
X169450256Y-91347205D01*
X169619774Y-91233937D01*
X169763937Y-91089774D01*
X169877205Y-90920256D01*
X169955226Y-90731898D01*
X169995000Y-90531939D01*
X169995000Y-90328061D01*
X169955226Y-90128102D01*
X169877205Y-89939744D01*
X169763937Y-89770226D01*
X169619774Y-89626063D01*
X169502000Y-89547369D01*
X169502000Y-85497423D01*
X169505686Y-85460000D01*
X169502000Y-85422574D01*
X169490974Y-85310622D01*
X169447402Y-85166985D01*
X169401218Y-85080581D01*
X169376645Y-85034607D01*
X169305279Y-84947648D01*
X169281422Y-84918578D01*
X169252353Y-84894722D01*
X168835000Y-84477369D01*
X168835000Y-84418061D01*
X168795226Y-84218102D01*
X168717205Y-84029744D01*
X168603937Y-83860226D01*
X168459774Y-83716063D01*
X168290256Y-83602795D01*
X168101898Y-83524774D01*
X167901939Y-83485000D01*
X167698061Y-83485000D01*
X167498102Y-83524774D01*
X167309744Y-83602795D01*
X167140226Y-83716063D01*
X166996063Y-83860226D01*
X166882795Y-84029744D01*
X166827989Y-84162056D01*
X166827989Y-82667725D01*
X166968218Y-82574026D01*
X167088005Y-82454239D01*
X167182122Y-82313384D01*
X167246951Y-82156874D01*
X167255079Y-82116011D01*
X168928381Y-82116011D01*
X169538001Y-82725632D01*
%TA.AperFunction,Conductor*%
D24*
G36*
X169538001Y-82725632D02*
G01*
X169538000Y-88992577D01*
X169534314Y-89030000D01*
X169538000Y-89067423D01*
X169538000Y-89067425D01*
X169549026Y-89179377D01*
X169592598Y-89323014D01*
X169610574Y-89356645D01*
X169663355Y-89455392D01*
X169688217Y-89485686D01*
X169758578Y-89571422D01*
X169787654Y-89595284D01*
X170449730Y-90257360D01*
X170483194Y-96958000D01*
X149609647Y-96958000D01*
X150227647Y-96340000D01*
X152507850Y-96340000D01*
X152557050Y-96389200D01*
X152580071Y-96417251D01*
X152691989Y-96509100D01*
X152819676Y-96577350D01*
X152958224Y-96619378D01*
X153066204Y-96630013D01*
X153066213Y-96630013D01*
X153102308Y-96633568D01*
X153138403Y-96630013D01*
X157698882Y-96630013D01*
X157734987Y-96633569D01*
X157771092Y-96630013D01*
X157879072Y-96619378D01*
X158017620Y-96577350D01*
X158145307Y-96509100D01*
X158257225Y-96417251D01*
X158280246Y-96389200D01*
X162012972Y-92656475D01*
X162060853Y-92646951D01*
X162217363Y-92582122D01*
X162358218Y-92488005D01*
X162360000Y-92486223D01*
X162361782Y-92488005D01*
X162502637Y-92582122D01*
X162659147Y-92646951D01*
X162825297Y-92680000D01*
X162994703Y-92680000D01*
X163160853Y-92646951D01*
X163317363Y-92582122D01*
X163458218Y-92488005D01*
X163460000Y-92486223D01*
X163461782Y-92488005D01*
X163602637Y-92582122D01*
X163759147Y-92646951D01*
X163925297Y-92680000D01*
X164094703Y-92680000D01*
X164260853Y-92646951D01*
X164417363Y-92582122D01*
X164558218Y-92488005D01*
X164678005Y-92368218D01*
X164741036Y-92273886D01*
X164869147Y-92326951D01*
X165035297Y-92360000D01*
X165204703Y-92360000D01*
X165370853Y-92326951D01*
X165527363Y-92262122D01*
X165668218Y-92168005D01*
X165788005Y-92048218D01*
X165841674Y-91967897D01*
X165851782Y-91978005D01*
X165992637Y-92072122D01*
X166149147Y-92136951D01*
X166315297Y-92170000D01*
X166484703Y-92170000D01*
X166650853Y-92136951D01*
X166807363Y-92072122D01*
X166948218Y-91978005D01*
X167068005Y-91858218D01*
X167162122Y-91717363D01*
X167215520Y-91588449D01*
X167327363Y-91542122D01*
X167468218Y-91448005D01*
X167588005Y-91328218D01*
X167682122Y-91187363D01*
X167746951Y-91030853D01*
X167780000Y-90864703D01*
X167780000Y-90695297D01*
X167746951Y-90529147D01*
X167682122Y-90372637D01*
X167588005Y-90231782D01*
X167468218Y-90111995D01*
X167327363Y-90017878D01*
X167170853Y-89953049D01*
X167170637Y-89953006D01*
X166827989Y-89610359D01*
X166827989Y-84877944D01*
X166882795Y-85010256D01*
X166996063Y-85179774D01*
X167140226Y-85323937D01*
X167309744Y-85437205D01*
X167498102Y-85515226D01*
X167698061Y-85555000D01*
X167757369Y-85555000D01*
X167978000Y-85775631D01*
X167978001Y-90096170D01*
X167964774Y-90128102D01*
X167925000Y-90328061D01*
X167925000Y-90531939D01*
X167964774Y-90731898D01*
X168042795Y-90920256D01*
X168156063Y-91089774D01*
X168300226Y-91233937D01*
X168469744Y-91347205D01*
X168658102Y-91425226D01*
X168858061Y-91465000D01*
X169061939Y-91465000D01*
X169261898Y-91425226D01*
X169450256Y-91347205D01*
X169619774Y-91233937D01*
X169763937Y-91089774D01*
X169877205Y-90920256D01*
X169955226Y-90731898D01*
X169995000Y-90531939D01*
X169995000Y-90328061D01*
X169955226Y-90128102D01*
X169877205Y-89939744D01*
X169763937Y-89770226D01*
X169619774Y-89626063D01*
X169502000Y-89547369D01*
X169502000Y-85497423D01*
X169505686Y-85460000D01*
X169502000Y-85422574D01*
X169490974Y-85310622D01*
X169447402Y-85166985D01*
X169401218Y-85080581D01*
X169376645Y-85034607D01*
X169305279Y-84947648D01*
X169281422Y-84918578D01*
X169252353Y-84894722D01*
X168835000Y-84477369D01*
X168835000Y-84418061D01*
X168795226Y-84218102D01*
X168717205Y-84029744D01*
X168603937Y-83860226D01*
X168459774Y-83716063D01*
X168290256Y-83602795D01*
X168101898Y-83524774D01*
X167901939Y-83485000D01*
X167698061Y-83485000D01*
X167498102Y-83524774D01*
X167309744Y-83602795D01*
X167140226Y-83716063D01*
X166996063Y-83860226D01*
X166882795Y-84029744D01*
X166827989Y-84162056D01*
X166827989Y-82667725D01*
X166968218Y-82574026D01*
X167088005Y-82454239D01*
X167182122Y-82313384D01*
X167246951Y-82156874D01*
X167255079Y-82116011D01*
X168928381Y-82116011D01*
X169538001Y-82725632D01*
G37*
%TD.AperFunction*%
D20*
X157922512Y-90037809D02*
X157922512Y-90207215D01*
X157955561Y-90373365D01*
X158020390Y-90529875D01*
X158114507Y-90670730D01*
X158234294Y-90790517D01*
X158375149Y-90884634D01*
X158474297Y-90925703D01*
X158515366Y-91024851D01*
X158609483Y-91165706D01*
X158729270Y-91285493D01*
X158870125Y-91379610D01*
X159026635Y-91444439D01*
X159036056Y-91446313D01*
X156314370Y-94168000D01*
X153831090Y-94168000D01*
X153770853Y-94143049D01*
X153604703Y-94110000D01*
X153435297Y-94110000D01*
X153269147Y-94143049D01*
X153112637Y-94207878D01*
X152971782Y-94301995D01*
X152853777Y-94420000D01*
X151585546Y-94420000D01*
X155603547Y-90402000D01*
X157119103Y-90402000D01*
X157156526Y-90405686D01*
X157193949Y-90402000D01*
X157193952Y-90402000D01*
X157305904Y-90390974D01*
X157449541Y-90347402D01*
X157581918Y-90276645D01*
X157697948Y-90181422D01*
X157721810Y-90152346D01*
X157789052Y-90085104D01*
X157789269Y-90085061D01*
X157924233Y-90029157D01*
X157922512Y-90037809D01*
%TA.AperFunction,Conductor*%
D24*
G36*
X157922512Y-90037809D02*
G01*
X157922512Y-90207215D01*
X157955561Y-90373365D01*
X158020390Y-90529875D01*
X158114507Y-90670730D01*
X158234294Y-90790517D01*
X158375149Y-90884634D01*
X158474297Y-90925703D01*
X158515366Y-91024851D01*
X158609483Y-91165706D01*
X158729270Y-91285493D01*
X158870125Y-91379610D01*
X159026635Y-91444439D01*
X159036056Y-91446313D01*
X156314370Y-94168000D01*
X153831090Y-94168000D01*
X153770853Y-94143049D01*
X153604703Y-94110000D01*
X153435297Y-94110000D01*
X153269147Y-94143049D01*
X153112637Y-94207878D01*
X152971782Y-94301995D01*
X152853777Y-94420000D01*
X151585546Y-94420000D01*
X155603547Y-90402000D01*
X157119103Y-90402000D01*
X157156526Y-90405686D01*
X157193949Y-90402000D01*
X157193952Y-90402000D01*
X157305904Y-90390974D01*
X157449541Y-90347402D01*
X157581918Y-90276645D01*
X157697948Y-90181422D01*
X157721810Y-90152346D01*
X157789052Y-90085104D01*
X157789269Y-90085061D01*
X157924233Y-90029157D01*
X157922512Y-90037809D01*
G37*
%TD.AperFunction*%
D20*
X124338001Y-90152804D02*
X124335157Y-90145939D01*
X124241040Y-90005084D01*
X124121253Y-89885297D01*
X123980398Y-89791180D01*
X123823888Y-89726351D01*
X123657738Y-89693302D01*
X123488332Y-89693302D01*
X123322182Y-89726351D01*
X123165672Y-89791180D01*
X123024817Y-89885297D01*
X122905030Y-90005084D01*
X122810913Y-90145939D01*
X122796460Y-90180832D01*
X122640662Y-90245366D01*
X122499807Y-90339483D01*
X122380020Y-90459270D01*
X122285903Y-90600125D01*
X122221074Y-90756635D01*
X122188025Y-90922785D01*
X122188025Y-91092191D01*
X122221074Y-91258341D01*
X122285903Y-91414851D01*
X122380020Y-91555706D01*
X122499807Y-91675493D01*
X122640662Y-91769610D01*
X122797172Y-91834439D01*
X122845054Y-91843963D01*
X123193249Y-92192159D01*
X123147134Y-92201332D01*
X122990624Y-92266161D01*
X122849769Y-92360278D01*
X122729982Y-92480065D01*
X122635865Y-92620920D01*
X122571036Y-92777430D01*
X122561512Y-92825311D01*
X122110011Y-93276812D01*
X122110011Y-89857619D01*
X124338001Y-87629630D01*
X124338001Y-90152804D01*
%TA.AperFunction,Conductor*%
D24*
G36*
X124338001Y-90152804D02*
G01*
X124335157Y-90145939D01*
X124241040Y-90005084D01*
X124121253Y-89885297D01*
X123980398Y-89791180D01*
X123823888Y-89726351D01*
X123657738Y-89693302D01*
X123488332Y-89693302D01*
X123322182Y-89726351D01*
X123165672Y-89791180D01*
X123024817Y-89885297D01*
X122905030Y-90005084D01*
X122810913Y-90145939D01*
X122796460Y-90180832D01*
X122640662Y-90245366D01*
X122499807Y-90339483D01*
X122380020Y-90459270D01*
X122285903Y-90600125D01*
X122221074Y-90756635D01*
X122188025Y-90922785D01*
X122188025Y-91092191D01*
X122221074Y-91258341D01*
X122285903Y-91414851D01*
X122380020Y-91555706D01*
X122499807Y-91675493D01*
X122640662Y-91769610D01*
X122797172Y-91834439D01*
X122845054Y-91843963D01*
X123193249Y-92192159D01*
X123147134Y-92201332D01*
X122990624Y-92266161D01*
X122849769Y-92360278D01*
X122729982Y-92480065D01*
X122635865Y-92620920D01*
X122571036Y-92777430D01*
X122561512Y-92825311D01*
X122110011Y-93276812D01*
X122110011Y-89857619D01*
X124338001Y-87629630D01*
X124338001Y-90152804D01*
G37*
%TD.AperFunction*%
D20*
X161649633Y-82156874D02*
X161714462Y-82313384D01*
X161714585Y-82313568D01*
X161714584Y-83106000D01*
X161679147Y-83113049D01*
X161522637Y-83177878D01*
X161381782Y-83271995D01*
X161261995Y-83391782D01*
X161167878Y-83532637D01*
X161103049Y-83689147D01*
X161070000Y-83855297D01*
X161070000Y-84024703D01*
X161103049Y-84190853D01*
X161167878Y-84347363D01*
X161261995Y-84488218D01*
X161381782Y-84608005D01*
X161522637Y-84702122D01*
X161679147Y-84766951D01*
X161679364Y-84766994D01*
X164276510Y-87364141D01*
X164140966Y-87420286D01*
X164137363Y-87417878D01*
X163980853Y-87353049D01*
X163814703Y-87320000D01*
X163645297Y-87320000D01*
X163479147Y-87353049D01*
X163322637Y-87417878D01*
X163181782Y-87511995D01*
X163061995Y-87631782D01*
X162967878Y-87772637D01*
X162903049Y-87929147D01*
X162870000Y-88095297D01*
X162870000Y-88264703D01*
X162903049Y-88430853D01*
X162914316Y-88458054D01*
X162797654Y-88574716D01*
X162768578Y-88598578D01*
X162723018Y-88654094D01*
X162673355Y-88714608D01*
X162656666Y-88745832D01*
X162602598Y-88846986D01*
X162559026Y-88990623D01*
X162548979Y-89092637D01*
X162544314Y-89140000D01*
X162548000Y-89177424D01*
X162548001Y-91039088D01*
X162502637Y-91057878D01*
X162361782Y-91151995D01*
X162360000Y-91153777D01*
X162358218Y-91151995D01*
X162217363Y-91057878D01*
X162060853Y-90993049D01*
X161894703Y-90960000D01*
X161725297Y-90960000D01*
X161559147Y-90993049D01*
X161402637Y-91057878D01*
X161265640Y-91149417D01*
X161258218Y-91141995D01*
X161240731Y-91130310D01*
X161242000Y-91117426D01*
X161242000Y-91117424D01*
X161245686Y-91080001D01*
X161242000Y-91042578D01*
X161242000Y-84747423D01*
X161245686Y-84710000D01*
X161241685Y-84669378D01*
X161230974Y-84560622D01*
X161187402Y-84416985D01*
X161150188Y-84347363D01*
X161116645Y-84284607D01*
X161045279Y-84197648D01*
X161021422Y-84168578D01*
X160992353Y-84144722D01*
X158963641Y-82116011D01*
X161641505Y-82116011D01*
X161649633Y-82156874D01*
%TA.AperFunction,Conductor*%
D24*
G36*
X161649633Y-82156874D02*
G01*
X161714462Y-82313384D01*
X161714585Y-82313568D01*
X161714584Y-83106000D01*
X161679147Y-83113049D01*
X161522637Y-83177878D01*
X161381782Y-83271995D01*
X161261995Y-83391782D01*
X161167878Y-83532637D01*
X161103049Y-83689147D01*
X161070000Y-83855297D01*
X161070000Y-84024703D01*
X161103049Y-84190853D01*
X161167878Y-84347363D01*
X161261995Y-84488218D01*
X161381782Y-84608005D01*
X161522637Y-84702122D01*
X161679147Y-84766951D01*
X161679364Y-84766994D01*
X164276510Y-87364141D01*
X164140966Y-87420286D01*
X164137363Y-87417878D01*
X163980853Y-87353049D01*
X163814703Y-87320000D01*
X163645297Y-87320000D01*
X163479147Y-87353049D01*
X163322637Y-87417878D01*
X163181782Y-87511995D01*
X163061995Y-87631782D01*
X162967878Y-87772637D01*
X162903049Y-87929147D01*
X162870000Y-88095297D01*
X162870000Y-88264703D01*
X162903049Y-88430853D01*
X162914316Y-88458054D01*
X162797654Y-88574716D01*
X162768578Y-88598578D01*
X162723018Y-88654094D01*
X162673355Y-88714608D01*
X162656666Y-88745832D01*
X162602598Y-88846986D01*
X162559026Y-88990623D01*
X162548979Y-89092637D01*
X162544314Y-89140000D01*
X162548000Y-89177424D01*
X162548001Y-91039088D01*
X162502637Y-91057878D01*
X162361782Y-91151995D01*
X162360000Y-91153777D01*
X162358218Y-91151995D01*
X162217363Y-91057878D01*
X162060853Y-90993049D01*
X161894703Y-90960000D01*
X161725297Y-90960000D01*
X161559147Y-90993049D01*
X161402637Y-91057878D01*
X161265640Y-91149417D01*
X161258218Y-91141995D01*
X161240731Y-91130310D01*
X161242000Y-91117426D01*
X161242000Y-91117424D01*
X161245686Y-91080001D01*
X161242000Y-91042578D01*
X161242000Y-84747423D01*
X161245686Y-84710000D01*
X161241685Y-84669378D01*
X161230974Y-84560622D01*
X161187402Y-84416985D01*
X161150188Y-84347363D01*
X161116645Y-84284607D01*
X161045279Y-84197648D01*
X161021422Y-84168578D01*
X160992353Y-84144722D01*
X158963641Y-82116011D01*
X161641505Y-82116011D01*
X161649633Y-82156874D01*
G37*
%TD.AperFunction*%
D20*
X172140000Y-76202418D02*
X172142492Y-76227722D01*
X172142418Y-76233792D01*
X172143269Y-76242968D01*
X172225650Y-77068322D01*
X172237374Y-77126996D01*
X172248273Y-77185799D01*
X172250890Y-77194635D01*
X172492015Y-77988269D01*
X172514899Y-78043514D01*
X172537024Y-78099114D01*
X172541308Y-78107273D01*
X172931991Y-78838957D01*
X172965174Y-78888712D01*
X172997673Y-78938949D01*
X173003460Y-78946120D01*
X173528820Y-79587985D01*
X173571038Y-79630350D01*
X173612674Y-79673316D01*
X173619744Y-79679226D01*
X174259772Y-80206824D01*
X174309394Y-80240168D01*
X174358601Y-80274242D01*
X174366685Y-80278667D01*
X175097001Y-80671902D01*
X175152169Y-80694979D01*
X175207044Y-80718840D01*
X175215832Y-80721610D01*
X176008620Y-80965504D01*
X176067242Y-80977431D01*
X176125683Y-80990173D01*
X176134843Y-80991184D01*
X176896836Y-81069929D01*
X176898364Y-81070392D01*
X176995328Y-81079942D01*
X179887747Y-81079942D01*
X179887747Y-89782341D01*
X172764894Y-89775196D01*
X171602000Y-88612302D01*
X171602000Y-84699419D01*
X174195000Y-84699419D01*
X174195000Y-85080581D01*
X174269361Y-85454419D01*
X174415225Y-85806566D01*
X174626987Y-86123491D01*
X174896509Y-86393013D01*
X175213434Y-86604775D01*
X175565581Y-86750639D01*
X175939419Y-86825000D01*
X176320581Y-86825000D01*
X176694419Y-86750639D01*
X177046566Y-86604775D01*
X177363491Y-86393013D01*
X177633013Y-86123491D01*
X177844775Y-85806566D01*
X177990639Y-85454419D01*
X178065000Y-85080581D01*
X178065000Y-84699419D01*
X177990639Y-84325581D01*
X177844775Y-83973434D01*
X177633013Y-83656509D01*
X177363491Y-83386987D01*
X177046566Y-83175225D01*
X176694419Y-83029361D01*
X176320581Y-82955000D01*
X175939419Y-82955000D01*
X175565581Y-83029361D01*
X175213434Y-83175225D01*
X174896509Y-83386987D01*
X174626987Y-83656509D01*
X174415225Y-83973434D01*
X174269361Y-84325581D01*
X174195000Y-84699419D01*
X171602000Y-84699419D01*
X171602000Y-82267422D01*
X171605686Y-82229999D01*
X171601583Y-82188341D01*
X171590974Y-82080622D01*
X171547402Y-81936985D01*
X171476645Y-81804608D01*
X171381422Y-81688578D01*
X171352353Y-81664722D01*
X170075284Y-80387654D01*
X170051422Y-80358578D01*
X169935392Y-80263355D01*
X169803015Y-80192598D01*
X169659378Y-80149026D01*
X169547426Y-80138000D01*
X169547423Y-80138000D01*
X169510000Y-80134314D01*
X169472577Y-80138000D01*
X159525631Y-80138000D01*
X158336994Y-78949364D01*
X158336951Y-78949147D01*
X158272122Y-78792637D01*
X158178005Y-78651782D01*
X158058218Y-78531995D01*
X157917363Y-78437878D01*
X157760853Y-78373049D01*
X157594703Y-78340000D01*
X157425297Y-78340000D01*
X157259147Y-78373049D01*
X157167118Y-78411169D01*
X157087363Y-78357878D01*
X156930853Y-78293049D01*
X156764703Y-78260000D01*
X156595297Y-78260000D01*
X156429147Y-78293049D01*
X156272637Y-78357878D01*
X156131782Y-78451995D01*
X156011995Y-78571782D01*
X155917878Y-78712637D01*
X155853049Y-78869147D01*
X155820000Y-79035297D01*
X155820000Y-79204703D01*
X155853049Y-79370853D01*
X155917878Y-79527363D01*
X155923998Y-79536522D01*
X155929026Y-79587575D01*
X155972598Y-79731212D01*
X156002994Y-79788078D01*
X156043355Y-79863590D01*
X156069968Y-79896018D01*
X156138578Y-79979620D01*
X156167654Y-80003482D01*
X157367559Y-81203387D01*
X157287878Y-81322637D01*
X157223049Y-81479147D01*
X157200000Y-81595023D01*
X157083333Y-81532663D01*
X156944785Y-81490635D01*
X156836805Y-81480000D01*
X156800700Y-81476444D01*
X156764595Y-81480000D01*
X153842904Y-81480000D01*
X153806799Y-81476444D01*
X153662714Y-81490635D01*
X153620686Y-81503384D01*
X153524167Y-81532663D01*
X153396480Y-81600913D01*
X153284562Y-81692762D01*
X153261546Y-81720807D01*
X146950000Y-88032354D01*
X146950000Y-76726789D01*
X158372236Y-76726789D01*
X158374428Y-76786568D01*
X158375785Y-76846375D01*
X158376956Y-76855515D01*
X158403106Y-77048922D01*
X158416867Y-77107134D01*
X158429815Y-77165538D01*
X158432739Y-77174277D01*
X158495957Y-77358920D01*
X158520758Y-77413340D01*
X158544806Y-77468124D01*
X158549372Y-77476128D01*
X158647249Y-77644976D01*
X158682139Y-77693531D01*
X158716382Y-77742618D01*
X158722416Y-77749583D01*
X158851226Y-77896204D01*
X158894909Y-77937081D01*
X158938004Y-77978553D01*
X158945275Y-77984214D01*
X159100111Y-78103024D01*
X159150884Y-78134628D01*
X159201237Y-78166954D01*
X159209470Y-78171094D01*
X159384434Y-78257566D01*
X159440387Y-78278708D01*
X159496044Y-78300633D01*
X159504924Y-78303096D01*
X159693352Y-78353938D01*
X159752357Y-78363812D01*
X159811208Y-78374507D01*
X159820397Y-78375198D01*
X160005222Y-78387798D01*
X160027581Y-78390000D01*
X161412085Y-78390000D01*
X161419262Y-78389293D01*
X161437686Y-78388891D01*
X161472298Y-78384733D01*
X161507147Y-78383699D01*
X161516279Y-78382464D01*
X161709498Y-78354965D01*
X161767601Y-78340801D01*
X161825925Y-78327443D01*
X161834643Y-78324458D01*
X162018841Y-78259953D01*
X162073101Y-78234766D01*
X162127705Y-78210341D01*
X162135678Y-78205719D01*
X162303838Y-78106665D01*
X162352157Y-78071429D01*
X162400989Y-78036855D01*
X162407912Y-78030773D01*
X162553631Y-77900943D01*
X162594209Y-77856970D01*
X162635378Y-77813587D01*
X162640987Y-77806276D01*
X162758712Y-77650616D01*
X162789959Y-77599625D01*
X162821931Y-77549050D01*
X162826014Y-77540789D01*
X162911263Y-77365226D01*
X162932012Y-77309134D01*
X162953551Y-77253313D01*
X162955952Y-77244416D01*
X163005477Y-77055639D01*
X163014945Y-76996530D01*
X163025222Y-76937645D01*
X163025849Y-76928452D01*
X163037764Y-76733651D01*
X163035572Y-76673871D01*
X163034215Y-76614066D01*
X163033044Y-76604925D01*
X163006894Y-76411518D01*
X162993128Y-76353283D01*
X162980185Y-76294901D01*
X162977261Y-76286162D01*
X162914043Y-76101520D01*
X162889237Y-76047088D01*
X162865194Y-75992316D01*
X162860628Y-75984311D01*
X162762751Y-75815464D01*
X162727853Y-75766898D01*
X162693618Y-75717823D01*
X162687584Y-75710857D01*
X162558774Y-75564236D01*
X162515091Y-75523359D01*
X162471996Y-75481887D01*
X162464725Y-75476226D01*
X162309890Y-75357416D01*
X162259099Y-75325802D01*
X162208763Y-75293486D01*
X162200530Y-75289346D01*
X162025566Y-75202874D01*
X161969625Y-75181736D01*
X161913956Y-75159807D01*
X161905076Y-75157345D01*
X161716649Y-75106502D01*
X161657649Y-75096629D01*
X161598793Y-75085933D01*
X161589603Y-75085242D01*
X161404778Y-75072642D01*
X161382419Y-75070440D01*
X159997915Y-75070440D01*
X159990738Y-75071147D01*
X159972314Y-75071549D01*
X159937702Y-75075707D01*
X159902853Y-75076741D01*
X159893721Y-75077976D01*
X159700502Y-75105475D01*
X159642399Y-75119639D01*
X159584075Y-75132997D01*
X159575357Y-75135982D01*
X159391159Y-75200487D01*
X159336913Y-75225667D01*
X159282294Y-75250099D01*
X159274322Y-75254721D01*
X159106162Y-75353775D01*
X159057845Y-75389009D01*
X159009010Y-75423585D01*
X159002087Y-75429667D01*
X158856369Y-75559497D01*
X158815808Y-75603453D01*
X158774622Y-75646853D01*
X158769013Y-75654164D01*
X158651288Y-75809825D01*
X158620046Y-75860807D01*
X158588069Y-75911390D01*
X158583986Y-75919651D01*
X158498737Y-76095214D01*
X158477988Y-76151306D01*
X158456449Y-76207127D01*
X158454048Y-76216024D01*
X158404523Y-76404802D01*
X158395056Y-76463904D01*
X158384778Y-76522795D01*
X158384151Y-76531988D01*
X158372236Y-76726789D01*
X146950000Y-76726789D01*
X146950000Y-74405297D01*
X166650000Y-74405297D01*
X166650000Y-74574703D01*
X166683049Y-74740853D01*
X166747878Y-74897363D01*
X166841995Y-75038218D01*
X166961782Y-75158005D01*
X167102637Y-75252122D01*
X167259147Y-75316951D01*
X167262402Y-75317598D01*
X167263049Y-75320853D01*
X167327878Y-75477363D01*
X167421995Y-75618218D01*
X167541782Y-75738005D01*
X167682637Y-75832122D01*
X167839147Y-75896951D01*
X168005297Y-75930000D01*
X168174703Y-75930000D01*
X168340853Y-75896951D01*
X168497363Y-75832122D01*
X168638218Y-75738005D01*
X168758005Y-75618218D01*
X168852122Y-75477363D01*
X168916951Y-75320853D01*
X168950000Y-75154703D01*
X168950000Y-74985297D01*
X168916951Y-74819147D01*
X168852122Y-74662637D01*
X168758005Y-74521782D01*
X168638218Y-74401995D01*
X168497363Y-74307878D01*
X168340853Y-74243049D01*
X168337598Y-74242402D01*
X168336951Y-74239147D01*
X168272122Y-74082637D01*
X168178005Y-73941782D01*
X168058218Y-73821995D01*
X167917363Y-73727878D01*
X167760853Y-73663049D01*
X167594703Y-73630000D01*
X167425297Y-73630000D01*
X167259147Y-73663049D01*
X167102637Y-73727878D01*
X166961782Y-73821995D01*
X166841995Y-73941782D01*
X166747878Y-74082637D01*
X166683049Y-74239147D01*
X166650000Y-74405297D01*
X146950000Y-74405297D01*
X146950000Y-73110000D01*
X172140001Y-73110000D01*
X172140000Y-76202418D01*
%TA.AperFunction,Conductor*%
D24*
G36*
X172140000Y-76202418D02*
G01*
X172142492Y-76227722D01*
X172142418Y-76233792D01*
X172143269Y-76242968D01*
X172225650Y-77068322D01*
X172237374Y-77126996D01*
X172248273Y-77185799D01*
X172250890Y-77194635D01*
X172492015Y-77988269D01*
X172514899Y-78043514D01*
X172537024Y-78099114D01*
X172541308Y-78107273D01*
X172931991Y-78838957D01*
X172965174Y-78888712D01*
X172997673Y-78938949D01*
X173003460Y-78946120D01*
X173528820Y-79587985D01*
X173571038Y-79630350D01*
X173612674Y-79673316D01*
X173619744Y-79679226D01*
X174259772Y-80206824D01*
X174309394Y-80240168D01*
X174358601Y-80274242D01*
X174366685Y-80278667D01*
X175097001Y-80671902D01*
X175152169Y-80694979D01*
X175207044Y-80718840D01*
X175215832Y-80721610D01*
X176008620Y-80965504D01*
X176067242Y-80977431D01*
X176125683Y-80990173D01*
X176134843Y-80991184D01*
X176896836Y-81069929D01*
X176898364Y-81070392D01*
X176995328Y-81079942D01*
X179887747Y-81079942D01*
X179887747Y-89782341D01*
X172764894Y-89775196D01*
X171602000Y-88612302D01*
X171602000Y-84699419D01*
X174195000Y-84699419D01*
X174195000Y-85080581D01*
X174269361Y-85454419D01*
X174415225Y-85806566D01*
X174626987Y-86123491D01*
X174896509Y-86393013D01*
X175213434Y-86604775D01*
X175565581Y-86750639D01*
X175939419Y-86825000D01*
X176320581Y-86825000D01*
X176694419Y-86750639D01*
X177046566Y-86604775D01*
X177363491Y-86393013D01*
X177633013Y-86123491D01*
X177844775Y-85806566D01*
X177990639Y-85454419D01*
X178065000Y-85080581D01*
X178065000Y-84699419D01*
X177990639Y-84325581D01*
X177844775Y-83973434D01*
X177633013Y-83656509D01*
X177363491Y-83386987D01*
X177046566Y-83175225D01*
X176694419Y-83029361D01*
X176320581Y-82955000D01*
X175939419Y-82955000D01*
X175565581Y-83029361D01*
X175213434Y-83175225D01*
X174896509Y-83386987D01*
X174626987Y-83656509D01*
X174415225Y-83973434D01*
X174269361Y-84325581D01*
X174195000Y-84699419D01*
X171602000Y-84699419D01*
X171602000Y-82267422D01*
X171605686Y-82229999D01*
X171601583Y-82188341D01*
X171590974Y-82080622D01*
X171547402Y-81936985D01*
X171476645Y-81804608D01*
X171381422Y-81688578D01*
X171352353Y-81664722D01*
X170075284Y-80387654D01*
X170051422Y-80358578D01*
X169935392Y-80263355D01*
X169803015Y-80192598D01*
X169659378Y-80149026D01*
X169547426Y-80138000D01*
X169547423Y-80138000D01*
X169510000Y-80134314D01*
X169472577Y-80138000D01*
X159525631Y-80138000D01*
X158336994Y-78949364D01*
X158336951Y-78949147D01*
X158272122Y-78792637D01*
X158178005Y-78651782D01*
X158058218Y-78531995D01*
X157917363Y-78437878D01*
X157760853Y-78373049D01*
X157594703Y-78340000D01*
X157425297Y-78340000D01*
X157259147Y-78373049D01*
X157167118Y-78411169D01*
X157087363Y-78357878D01*
X156930853Y-78293049D01*
X156764703Y-78260000D01*
X156595297Y-78260000D01*
X156429147Y-78293049D01*
X156272637Y-78357878D01*
X156131782Y-78451995D01*
X156011995Y-78571782D01*
X155917878Y-78712637D01*
X155853049Y-78869147D01*
X155820000Y-79035297D01*
X155820000Y-79204703D01*
X155853049Y-79370853D01*
X155917878Y-79527363D01*
X155923998Y-79536522D01*
X155929026Y-79587575D01*
X155972598Y-79731212D01*
X156002994Y-79788078D01*
X156043355Y-79863590D01*
X156069968Y-79896018D01*
X156138578Y-79979620D01*
X156167654Y-80003482D01*
X157367559Y-81203387D01*
X157287878Y-81322637D01*
X157223049Y-81479147D01*
X157200000Y-81595023D01*
X157083333Y-81532663D01*
X156944785Y-81490635D01*
X156836805Y-81480000D01*
X156800700Y-81476444D01*
X156764595Y-81480000D01*
X153842904Y-81480000D01*
X153806799Y-81476444D01*
X153662714Y-81490635D01*
X153620686Y-81503384D01*
X153524167Y-81532663D01*
X153396480Y-81600913D01*
X153284562Y-81692762D01*
X153261546Y-81720807D01*
X146950000Y-88032354D01*
X146950000Y-76726789D01*
X158372236Y-76726789D01*
X158374428Y-76786568D01*
X158375785Y-76846375D01*
X158376956Y-76855515D01*
X158403106Y-77048922D01*
X158416867Y-77107134D01*
X158429815Y-77165538D01*
X158432739Y-77174277D01*
X158495957Y-77358920D01*
X158520758Y-77413340D01*
X158544806Y-77468124D01*
X158549372Y-77476128D01*
X158647249Y-77644976D01*
X158682139Y-77693531D01*
X158716382Y-77742618D01*
X158722416Y-77749583D01*
X158851226Y-77896204D01*
X158894909Y-77937081D01*
X158938004Y-77978553D01*
X158945275Y-77984214D01*
X159100111Y-78103024D01*
X159150884Y-78134628D01*
X159201237Y-78166954D01*
X159209470Y-78171094D01*
X159384434Y-78257566D01*
X159440387Y-78278708D01*
X159496044Y-78300633D01*
X159504924Y-78303096D01*
X159693352Y-78353938D01*
X159752357Y-78363812D01*
X159811208Y-78374507D01*
X159820397Y-78375198D01*
X160005222Y-78387798D01*
X160027581Y-78390000D01*
X161412085Y-78390000D01*
X161419262Y-78389293D01*
X161437686Y-78388891D01*
X161472298Y-78384733D01*
X161507147Y-78383699D01*
X161516279Y-78382464D01*
X161709498Y-78354965D01*
X161767601Y-78340801D01*
X161825925Y-78327443D01*
X161834643Y-78324458D01*
X162018841Y-78259953D01*
X162073101Y-78234766D01*
X162127705Y-78210341D01*
X162135678Y-78205719D01*
X162303838Y-78106665D01*
X162352157Y-78071429D01*
X162400989Y-78036855D01*
X162407912Y-78030773D01*
X162553631Y-77900943D01*
X162594209Y-77856970D01*
X162635378Y-77813587D01*
X162640987Y-77806276D01*
X162758712Y-77650616D01*
X162789959Y-77599625D01*
X162821931Y-77549050D01*
X162826014Y-77540789D01*
X162911263Y-77365226D01*
X162932012Y-77309134D01*
X162953551Y-77253313D01*
X162955952Y-77244416D01*
X163005477Y-77055639D01*
X163014945Y-76996530D01*
X163025222Y-76937645D01*
X163025849Y-76928452D01*
X163037764Y-76733651D01*
X163035572Y-76673871D01*
X163034215Y-76614066D01*
X163033044Y-76604925D01*
X163006894Y-76411518D01*
X162993128Y-76353283D01*
X162980185Y-76294901D01*
X162977261Y-76286162D01*
X162914043Y-76101520D01*
X162889237Y-76047088D01*
X162865194Y-75992316D01*
X162860628Y-75984311D01*
X162762751Y-75815464D01*
X162727853Y-75766898D01*
X162693618Y-75717823D01*
X162687584Y-75710857D01*
X162558774Y-75564236D01*
X162515091Y-75523359D01*
X162471996Y-75481887D01*
X162464725Y-75476226D01*
X162309890Y-75357416D01*
X162259099Y-75325802D01*
X162208763Y-75293486D01*
X162200530Y-75289346D01*
X162025566Y-75202874D01*
X161969625Y-75181736D01*
X161913956Y-75159807D01*
X161905076Y-75157345D01*
X161716649Y-75106502D01*
X161657649Y-75096629D01*
X161598793Y-75085933D01*
X161589603Y-75085242D01*
X161404778Y-75072642D01*
X161382419Y-75070440D01*
X159997915Y-75070440D01*
X159990738Y-75071147D01*
X159972314Y-75071549D01*
X159937702Y-75075707D01*
X159902853Y-75076741D01*
X159893721Y-75077976D01*
X159700502Y-75105475D01*
X159642399Y-75119639D01*
X159584075Y-75132997D01*
X159575357Y-75135982D01*
X159391159Y-75200487D01*
X159336913Y-75225667D01*
X159282294Y-75250099D01*
X159274322Y-75254721D01*
X159106162Y-75353775D01*
X159057845Y-75389009D01*
X159009010Y-75423585D01*
X159002087Y-75429667D01*
X158856369Y-75559497D01*
X158815808Y-75603453D01*
X158774622Y-75646853D01*
X158769013Y-75654164D01*
X158651288Y-75809825D01*
X158620046Y-75860807D01*
X158588069Y-75911390D01*
X158583986Y-75919651D01*
X158498737Y-76095214D01*
X158477988Y-76151306D01*
X158456449Y-76207127D01*
X158454048Y-76216024D01*
X158404523Y-76404802D01*
X158395056Y-76463904D01*
X158384778Y-76522795D01*
X158384151Y-76531988D01*
X158372236Y-76726789D01*
X146950000Y-76726789D01*
X146950000Y-74405297D01*
X166650000Y-74405297D01*
X166650000Y-74574703D01*
X166683049Y-74740853D01*
X166747878Y-74897363D01*
X166841995Y-75038218D01*
X166961782Y-75158005D01*
X167102637Y-75252122D01*
X167259147Y-75316951D01*
X167262402Y-75317598D01*
X167263049Y-75320853D01*
X167327878Y-75477363D01*
X167421995Y-75618218D01*
X167541782Y-75738005D01*
X167682637Y-75832122D01*
X167839147Y-75896951D01*
X168005297Y-75930000D01*
X168174703Y-75930000D01*
X168340853Y-75896951D01*
X168497363Y-75832122D01*
X168638218Y-75738005D01*
X168758005Y-75618218D01*
X168852122Y-75477363D01*
X168916951Y-75320853D01*
X168950000Y-75154703D01*
X168950000Y-74985297D01*
X168916951Y-74819147D01*
X168852122Y-74662637D01*
X168758005Y-74521782D01*
X168638218Y-74401995D01*
X168497363Y-74307878D01*
X168340853Y-74243049D01*
X168337598Y-74242402D01*
X168336951Y-74239147D01*
X168272122Y-74082637D01*
X168178005Y-73941782D01*
X168058218Y-73821995D01*
X167917363Y-73727878D01*
X167760853Y-73663049D01*
X167594703Y-73630000D01*
X167425297Y-73630000D01*
X167259147Y-73663049D01*
X167102637Y-73727878D01*
X166961782Y-73821995D01*
X166841995Y-73941782D01*
X166747878Y-74082637D01*
X166683049Y-74239147D01*
X166650000Y-74405297D01*
X146950000Y-74405297D01*
X146950000Y-73110000D01*
X172140001Y-73110000D01*
X172140000Y-76202418D01*
G37*
%TD.AperFunction*%
D20*
X165304738Y-82215000D02*
X165300303Y-82260032D01*
X165303989Y-82297455D01*
X165303989Y-85306359D01*
X163869158Y-83871527D01*
X163952122Y-83747363D01*
X164016951Y-83590853D01*
X164050000Y-83424703D01*
X164050000Y-83255297D01*
X164016951Y-83089147D01*
X163961385Y-82955000D01*
X164016951Y-82820853D01*
X164050000Y-82654703D01*
X164050000Y-82485297D01*
X164016951Y-82319147D01*
X163952122Y-82162637D01*
X163920967Y-82116011D01*
X165314487Y-82116011D01*
X165304738Y-82215000D01*
%TA.AperFunction,Conductor*%
D24*
G36*
X165304738Y-82215000D02*
G01*
X165300303Y-82260032D01*
X165303989Y-82297455D01*
X165303989Y-85306359D01*
X163869158Y-83871527D01*
X163952122Y-83747363D01*
X164016951Y-83590853D01*
X164050000Y-83424703D01*
X164050000Y-83255297D01*
X164016951Y-83089147D01*
X163961385Y-82955000D01*
X164016951Y-82820853D01*
X164050000Y-82654703D01*
X164050000Y-82485297D01*
X164016951Y-82319147D01*
X163952122Y-82162637D01*
X163920967Y-82116011D01*
X165314487Y-82116011D01*
X165304738Y-82215000D01*
G37*
%TD.AperFunction*%
D20*
X120128702Y-78280830D02*
X120109085Y-78480000D01*
X120128702Y-78679170D01*
X120186799Y-78870687D01*
X120281141Y-79047189D01*
X120376294Y-79163134D01*
X120424000Y-79210840D01*
X120424000Y-79249159D01*
X120179160Y-79494000D01*
X119058151Y-79494000D01*
X119060000Y-79484703D01*
X119060000Y-79315297D01*
X119026951Y-79149147D01*
X118962122Y-78992637D01*
X118868005Y-78851782D01*
X118748218Y-78731995D01*
X118607363Y-78637878D01*
X118497591Y-78592409D01*
X118452122Y-78482637D01*
X118358005Y-78341782D01*
X118334982Y-78318759D01*
X118347581Y-78320000D01*
X119732085Y-78320000D01*
X119739262Y-78319293D01*
X119757686Y-78318891D01*
X119792298Y-78314733D01*
X119827147Y-78313699D01*
X119836279Y-78312464D01*
X120029498Y-78284965D01*
X120087601Y-78270801D01*
X120135040Y-78259936D01*
X120128702Y-78280830D01*
%TA.AperFunction,Conductor*%
D24*
G36*
X120128702Y-78280830D02*
G01*
X120109085Y-78480000D01*
X120128702Y-78679170D01*
X120186799Y-78870687D01*
X120281141Y-79047189D01*
X120376294Y-79163134D01*
X120424000Y-79210840D01*
X120424000Y-79249159D01*
X120179160Y-79494000D01*
X119058151Y-79494000D01*
X119060000Y-79484703D01*
X119060000Y-79315297D01*
X119026951Y-79149147D01*
X118962122Y-78992637D01*
X118868005Y-78851782D01*
X118748218Y-78731995D01*
X118607363Y-78637878D01*
X118497591Y-78592409D01*
X118452122Y-78482637D01*
X118358005Y-78341782D01*
X118334982Y-78318759D01*
X118347581Y-78320000D01*
X119732085Y-78320000D01*
X119739262Y-78319293D01*
X119757686Y-78318891D01*
X119792298Y-78314733D01*
X119827147Y-78313699D01*
X119836279Y-78312464D01*
X120029498Y-78284965D01*
X120087601Y-78270801D01*
X120135040Y-78259936D01*
X120128702Y-78280830D01*
G37*
%TD.AperFunction*%
%TD*%
M02*
