%TF.GenerationSoftware,KiCad,Pcbnew,5.1.8-db9833491~88~ubuntu20.04.1*%
%TF.CreationDate,2020-12-01T22:06:39+01:00*%
%TF.ProjectId,licheepinano_sarau270,6c696368-6565-4706-996e-616e6f5f7361,V1.0*%
%TF.SameCoordinates,Original*%
%TF.FileFunction,Paste,Bot*%
%TF.FilePolarity,Positive*%
%FSLAX46Y46*%
G04 Gerber Fmt 4.6, Leading zero omitted, Abs format (unit mm)*
G04 Created by KiCad (PCBNEW 5.1.8-db9833491~88~ubuntu20.04.1) date 2020-12-01 22:06:39*
%MOMM*%
%LPD*%
G01*
G04 APERTURE LIST*
%ADD10O,0.647700X1.297940*%
%ADD11C,0.650000*%
%ADD12O,1.998980X0.998220*%
G04 APERTURE END LIST*
%TO.C,DIS1*%
G36*
G01*
X130852500Y-105365000D02*
X128127500Y-105365000D01*
G75*
G02*
X127990000Y-105227500I0J137500D01*
G01*
X127990000Y-104952500D01*
G75*
G02*
X128127500Y-104815000I137500J0D01*
G01*
X130852500Y-104815000D01*
G75*
G02*
X130990000Y-104952500I0J-137500D01*
G01*
X130990000Y-105227500D01*
G75*
G02*
X130852500Y-105365000I-137500J0D01*
G01*
G37*
G36*
G01*
X130852500Y-104565000D02*
X128127500Y-104565000D01*
G75*
G02*
X127990000Y-104427500I0J137500D01*
G01*
X127990000Y-104152500D01*
G75*
G02*
X128127500Y-104015000I137500J0D01*
G01*
X130852500Y-104015000D01*
G75*
G02*
X130990000Y-104152500I0J-137500D01*
G01*
X130990000Y-104427500D01*
G75*
G02*
X130852500Y-104565000I-137500J0D01*
G01*
G37*
G36*
G01*
X130852500Y-102965000D02*
X128127500Y-102965000D01*
G75*
G02*
X127990000Y-102827500I0J137500D01*
G01*
X127990000Y-102552500D01*
G75*
G02*
X128127500Y-102415000I137500J0D01*
G01*
X130852500Y-102415000D01*
G75*
G02*
X130990000Y-102552500I0J-137500D01*
G01*
X130990000Y-102827500D01*
G75*
G02*
X130852500Y-102965000I-137500J0D01*
G01*
G37*
G36*
G01*
X130852500Y-103765000D02*
X128127500Y-103765000D01*
G75*
G02*
X127990000Y-103627500I0J137500D01*
G01*
X127990000Y-103352500D01*
G75*
G02*
X128127500Y-103215000I137500J0D01*
G01*
X130852500Y-103215000D01*
G75*
G02*
X130990000Y-103352500I0J-137500D01*
G01*
X130990000Y-103627500D01*
G75*
G02*
X130852500Y-103765000I-137500J0D01*
G01*
G37*
G36*
G01*
X130852500Y-101365000D02*
X128127500Y-101365000D01*
G75*
G02*
X127990000Y-101227500I0J137500D01*
G01*
X127990000Y-100952500D01*
G75*
G02*
X128127500Y-100815000I137500J0D01*
G01*
X130852500Y-100815000D01*
G75*
G02*
X130990000Y-100952500I0J-137500D01*
G01*
X130990000Y-101227500D01*
G75*
G02*
X130852500Y-101365000I-137500J0D01*
G01*
G37*
G36*
G01*
X130852500Y-99765000D02*
X128127500Y-99765000D01*
G75*
G02*
X127990000Y-99627500I0J137500D01*
G01*
X127990000Y-99352500D01*
G75*
G02*
X128127500Y-99215000I137500J0D01*
G01*
X130852500Y-99215000D01*
G75*
G02*
X130990000Y-99352500I0J-137500D01*
G01*
X130990000Y-99627500D01*
G75*
G02*
X130852500Y-99765000I-137500J0D01*
G01*
G37*
G36*
G01*
X130852500Y-102165000D02*
X128127500Y-102165000D01*
G75*
G02*
X127990000Y-102027500I0J137500D01*
G01*
X127990000Y-101752500D01*
G75*
G02*
X128127500Y-101615000I137500J0D01*
G01*
X130852500Y-101615000D01*
G75*
G02*
X130990000Y-101752500I0J-137500D01*
G01*
X130990000Y-102027500D01*
G75*
G02*
X130852500Y-102165000I-137500J0D01*
G01*
G37*
G36*
G01*
X130852500Y-100565000D02*
X128127500Y-100565000D01*
G75*
G02*
X127990000Y-100427500I0J137500D01*
G01*
X127990000Y-100152500D01*
G75*
G02*
X128127500Y-100015000I137500J0D01*
G01*
X130852500Y-100015000D01*
G75*
G02*
X130990000Y-100152500I0J-137500D01*
G01*
X130990000Y-100427500D01*
G75*
G02*
X130852500Y-100565000I-137500J0D01*
G01*
G37*
G36*
G01*
X130852500Y-98165000D02*
X128127500Y-98165000D01*
G75*
G02*
X127990000Y-98027500I0J137500D01*
G01*
X127990000Y-97752500D01*
G75*
G02*
X128127500Y-97615000I137500J0D01*
G01*
X130852500Y-97615000D01*
G75*
G02*
X130990000Y-97752500I0J-137500D01*
G01*
X130990000Y-98027500D01*
G75*
G02*
X130852500Y-98165000I-137500J0D01*
G01*
G37*
G36*
G01*
X130852500Y-96565000D02*
X128127500Y-96565000D01*
G75*
G02*
X127990000Y-96427500I0J137500D01*
G01*
X127990000Y-96152500D01*
G75*
G02*
X128127500Y-96015000I137500J0D01*
G01*
X130852500Y-96015000D01*
G75*
G02*
X130990000Y-96152500I0J-137500D01*
G01*
X130990000Y-96427500D01*
G75*
G02*
X130852500Y-96565000I-137500J0D01*
G01*
G37*
G36*
G01*
X130852500Y-93365000D02*
X128127500Y-93365000D01*
G75*
G02*
X127990000Y-93227500I0J137500D01*
G01*
X127990000Y-92952500D01*
G75*
G02*
X128127500Y-92815000I137500J0D01*
G01*
X130852500Y-92815000D01*
G75*
G02*
X130990000Y-92952500I0J-137500D01*
G01*
X130990000Y-93227500D01*
G75*
G02*
X130852500Y-93365000I-137500J0D01*
G01*
G37*
G36*
G01*
X130852500Y-95765000D02*
X128127500Y-95765000D01*
G75*
G02*
X127990000Y-95627500I0J137500D01*
G01*
X127990000Y-95352500D01*
G75*
G02*
X128127500Y-95215000I137500J0D01*
G01*
X130852500Y-95215000D01*
G75*
G02*
X130990000Y-95352500I0J-137500D01*
G01*
X130990000Y-95627500D01*
G75*
G02*
X130852500Y-95765000I-137500J0D01*
G01*
G37*
G36*
G01*
X130852500Y-98965000D02*
X128127500Y-98965000D01*
G75*
G02*
X127990000Y-98827500I0J137500D01*
G01*
X127990000Y-98552500D01*
G75*
G02*
X128127500Y-98415000I137500J0D01*
G01*
X130852500Y-98415000D01*
G75*
G02*
X130990000Y-98552500I0J-137500D01*
G01*
X130990000Y-98827500D01*
G75*
G02*
X130852500Y-98965000I-137500J0D01*
G01*
G37*
G36*
G01*
X130852500Y-97365000D02*
X128127500Y-97365000D01*
G75*
G02*
X127990000Y-97227500I0J137500D01*
G01*
X127990000Y-96952500D01*
G75*
G02*
X128127500Y-96815000I137500J0D01*
G01*
X130852500Y-96815000D01*
G75*
G02*
X130990000Y-96952500I0J-137500D01*
G01*
X130990000Y-97227500D01*
G75*
G02*
X130852500Y-97365000I-137500J0D01*
G01*
G37*
G36*
G01*
X130852500Y-94165000D02*
X128127500Y-94165000D01*
G75*
G02*
X127990000Y-94027500I0J137500D01*
G01*
X127990000Y-93752500D01*
G75*
G02*
X128127500Y-93615000I137500J0D01*
G01*
X130852500Y-93615000D01*
G75*
G02*
X130990000Y-93752500I0J-137500D01*
G01*
X130990000Y-94027500D01*
G75*
G02*
X130852500Y-94165000I-137500J0D01*
G01*
G37*
G36*
G01*
X130852500Y-94965000D02*
X128127500Y-94965000D01*
G75*
G02*
X127990000Y-94827500I0J137500D01*
G01*
X127990000Y-94552500D01*
G75*
G02*
X128127500Y-94415000I137500J0D01*
G01*
X130852500Y-94415000D01*
G75*
G02*
X130990000Y-94552500I0J-137500D01*
G01*
X130990000Y-94827500D01*
G75*
G02*
X130852500Y-94965000I-137500J0D01*
G01*
G37*
G36*
G01*
X130852500Y-92565000D02*
X128127500Y-92565000D01*
G75*
G02*
X127990000Y-92427500I0J137500D01*
G01*
X127990000Y-92152500D01*
G75*
G02*
X128127500Y-92015000I137500J0D01*
G01*
X130852500Y-92015000D01*
G75*
G02*
X130990000Y-92152500I0J-137500D01*
G01*
X130990000Y-92427500D01*
G75*
G02*
X130852500Y-92565000I-137500J0D01*
G01*
G37*
G36*
G01*
X130852500Y-91765000D02*
X128127500Y-91765000D01*
G75*
G02*
X127990000Y-91627500I0J137500D01*
G01*
X127990000Y-91352500D01*
G75*
G02*
X128127500Y-91215000I137500J0D01*
G01*
X130852500Y-91215000D01*
G75*
G02*
X130990000Y-91352500I0J-137500D01*
G01*
X130990000Y-91627500D01*
G75*
G02*
X130852500Y-91765000I-137500J0D01*
G01*
G37*
%TD*%
D10*
%TO.C,Con3*%
X107804560Y-112148000D03*
D11*
X107103520Y-111497760D03*
X107103520Y-110697660D03*
X107804560Y-110298880D03*
X107103520Y-109897560D03*
X107804560Y-109498780D03*
X107804560Y-108701220D03*
X107103520Y-108302440D03*
X107804560Y-107901120D03*
X107103520Y-107502340D03*
X107103520Y-106702240D03*
D10*
X107804560Y-106052000D03*
D12*
X108604660Y-104601660D03*
X108604660Y-113598340D03*
X103105560Y-103026860D03*
X103105560Y-115173140D03*
%TD*%
M02*
